G04*
G04 #@! TF.GenerationSoftware,Altium Limited,Altium Designer,23.1.1 (15)*
G04*
G04 Layer_Color=16711935*
%FSAX25Y25*%
%MOIN*%
G70*
G04*
G04 #@! TF.SameCoordinates,B82E7E18-3205-491C-BA0E-7F24CF85224E*
G04*
G04*
G04 #@! TF.FilePolarity,Negative*
G04*
G01*
G75*
G04:AMPARAMS|DCode=34|XSize=43.31mil|YSize=51.18mil|CornerRadius=11.81mil|HoleSize=0mil|Usage=FLASHONLY|Rotation=90.000|XOffset=0mil|YOffset=0mil|HoleType=Round|Shape=RoundedRectangle|*
%AMROUNDEDRECTD34*
21,1,0.04331,0.02756,0,0,90.0*
21,1,0.01968,0.05118,0,0,90.0*
1,1,0.02362,0.01378,0.00984*
1,1,0.02362,0.01378,-0.00984*
1,1,0.02362,-0.01378,-0.00984*
1,1,0.02362,-0.01378,0.00984*
%
%ADD34ROUNDEDRECTD34*%
G04:AMPARAMS|DCode=42|XSize=43.31mil|YSize=51.18mil|CornerRadius=11.81mil|HoleSize=0mil|Usage=FLASHONLY|Rotation=0.000|XOffset=0mil|YOffset=0mil|HoleType=Round|Shape=RoundedRectangle|*
%AMROUNDEDRECTD42*
21,1,0.04331,0.02756,0,0,0.0*
21,1,0.01968,0.05118,0,0,0.0*
1,1,0.02362,0.00984,-0.01378*
1,1,0.02362,-0.00984,-0.01378*
1,1,0.02362,-0.00984,0.01378*
1,1,0.02362,0.00984,0.01378*
%
%ADD42ROUNDEDRECTD42*%
%ADD44C,0.07493*%
%ADD45C,0.08674*%
%ADD46C,0.04737*%
%ADD47R,0.07887X0.07887*%
%ADD48C,0.07887*%
%ADD49C,0.07099*%
G04:AMPARAMS|DCode=50|XSize=70.99mil|YSize=70.99mil|CornerRadius=0mil|HoleSize=0mil|Usage=FLASHONLY|Rotation=270.000|XOffset=0mil|YOffset=0mil|HoleType=Round|Shape=Octagon|*
%AMOCTAGOND50*
4,1,8,-0.01775,-0.03550,0.01775,-0.03550,0.03550,-0.01775,0.03550,0.01775,0.01775,0.03550,-0.01775,0.03550,-0.03550,0.01775,-0.03550,-0.01775,-0.01775,-0.03550,0.0*
%
%ADD50OCTAGOND50*%

%ADD51O,0.05800X0.10800*%
%ADD52C,0.06706*%
%ADD53O,0.07887X0.10800*%
G04:AMPARAMS|DCode=54|XSize=86.74mil|YSize=82.8mil|CornerRadius=0mil|HoleSize=0mil|Usage=FLASHONLY|Rotation=270.000|XOffset=0mil|YOffset=0mil|HoleType=Round|Shape=Octagon|*
%AMOCTAGOND54*
4,1,8,-0.02070,-0.04337,0.02070,-0.04337,0.04140,-0.02267,0.04140,0.02267,0.02070,0.04337,-0.02070,0.04337,-0.04140,0.02267,-0.04140,-0.02267,-0.02070,-0.04337,0.0*
%
%ADD54OCTAGOND54*%

%ADD55O,0.08280X0.08674*%
%ADD56C,0.10642*%
%ADD57C,0.03937*%
%ADD58C,0.04331*%
%ADD59O,0.04331X0.09055*%
%ADD60O,0.04331X0.07874*%
%ADD61O,0.08674X0.06706*%
%ADD62P,0.09483X4X57.0*%
%ADD63O,0.09461X0.07887*%
G04:AMPARAMS|DCode=104|XSize=78.87mil|YSize=28mil|CornerRadius=9mil|HoleSize=0mil|Usage=FLASHONLY|Rotation=180.000|XOffset=0mil|YOffset=0mil|HoleType=Round|Shape=RoundedRectangle|*
%AMROUNDEDRECTD104*
21,1,0.07887,0.01000,0,0,180.0*
21,1,0.06087,0.02800,0,0,180.0*
1,1,0.01800,-0.03043,0.00500*
1,1,0.01800,0.03043,0.00500*
1,1,0.01800,0.03043,-0.00500*
1,1,0.01800,-0.03043,-0.00500*
%
%ADD104ROUNDEDRECTD104*%
G04:AMPARAMS|DCode=105|XSize=67.06mil|YSize=35.56mil|CornerRadius=10.89mil|HoleSize=0mil|Usage=FLASHONLY|Rotation=270.000|XOffset=0mil|YOffset=0mil|HoleType=Round|Shape=RoundedRectangle|*
%AMROUNDEDRECTD105*
21,1,0.06706,0.01378,0,0,270.0*
21,1,0.04528,0.03556,0,0,270.0*
1,1,0.02178,-0.00689,-0.02264*
1,1,0.02178,-0.00689,0.02264*
1,1,0.02178,0.00689,0.02264*
1,1,0.02178,0.00689,-0.02264*
%
%ADD105ROUNDEDRECTD105*%
%ADD106R,0.04343X0.05524*%
%ADD107R,0.13792X0.10249*%
%ADD108R,0.04737X0.10249*%
G04:AMPARAMS|DCode=109|XSize=61.02mil|YSize=68.9mil|CornerRadius=16.73mil|HoleSize=0mil|Usage=FLASHONLY|Rotation=270.000|XOffset=0mil|YOffset=0mil|HoleType=Round|Shape=RoundedRectangle|*
%AMROUNDEDRECTD109*
21,1,0.06102,0.03543,0,0,270.0*
21,1,0.02756,0.06890,0,0,270.0*
1,1,0.03347,-0.01772,-0.01378*
1,1,0.03347,-0.01772,0.01378*
1,1,0.03347,0.01772,0.01378*
1,1,0.03347,0.01772,-0.01378*
%
%ADD109ROUNDEDRECTD109*%
G04:AMPARAMS|DCode=110|XSize=35.56mil|YSize=67.06mil|CornerRadius=10.89mil|HoleSize=0mil|Usage=FLASHONLY|Rotation=180.000|XOffset=0mil|YOffset=0mil|HoleType=Round|Shape=RoundedRectangle|*
%AMROUNDEDRECTD110*
21,1,0.03556,0.04528,0,0,180.0*
21,1,0.01378,0.06706,0,0,180.0*
1,1,0.02178,-0.00689,0.02264*
1,1,0.02178,0.00689,0.02264*
1,1,0.02178,0.00689,-0.02264*
1,1,0.02178,-0.00689,-0.02264*
%
%ADD110ROUNDEDRECTD110*%
%ADD111R,0.03465X0.08189*%
%ADD112R,0.02913X0.07638*%
%ADD113R,0.02284X0.08189*%
%ADD114R,0.08674X0.12611*%
G36*
X0118100Y0015628D02*
X0118876D01*
X0120397Y0015931D01*
X0121830Y0016524D01*
X0123119Y0017386D01*
X0124216Y0018483D01*
X0125078Y0019773D01*
X0125671Y0021206D01*
X0125974Y0022727D01*
Y0023502D01*
Y0024278D01*
X0125671Y0025799D01*
X0125078Y0027232D01*
X0124216Y0028522D01*
X0123119Y0029618D01*
X0121830Y0030480D01*
X0120397Y0031074D01*
X0118876Y0031376D01*
X0118100D01*
X0117324D01*
X0115803Y0031074D01*
X0114370Y0030480D01*
X0113081Y0029618D01*
X0111984Y0028522D01*
X0111122Y0027232D01*
X0110529Y0025799D01*
X0110226Y0024278D01*
Y0023502D01*
Y0022727D01*
X0110529Y0021206D01*
X0111122Y0019773D01*
X0111984Y0018483D01*
X0113081Y0017386D01*
X0114370Y0016524D01*
X0115803Y0015931D01*
X0117324Y0015628D01*
X0118100D01*
D01*
D02*
G37*
G36*
Y0085228D02*
X0118876D01*
X0120397Y0085531D01*
X0121830Y0086124D01*
X0123119Y0086986D01*
X0124216Y0088083D01*
X0125078Y0089373D01*
X0125671Y0090806D01*
X0125974Y0092327D01*
Y0093102D01*
Y0093878D01*
X0125671Y0095399D01*
X0125078Y0096832D01*
X0124216Y0098122D01*
X0123119Y0099218D01*
X0121830Y0100080D01*
X0120397Y0100674D01*
X0118876Y0100976D01*
X0118100D01*
X0117324D01*
X0115803Y0100674D01*
X0114370Y0100080D01*
X0113081Y0099218D01*
X0111984Y0098122D01*
X0111122Y0096832D01*
X0110529Y0095399D01*
X0110226Y0093878D01*
Y0093102D01*
Y0092327D01*
X0110529Y0090806D01*
X0111122Y0089373D01*
X0111984Y0088083D01*
X0113081Y0086986D01*
X0114370Y0086124D01*
X0115803Y0085531D01*
X0117324Y0085228D01*
X0118100D01*
D01*
D02*
G37*
G36*
X0245100Y0029976D02*
X0244324D01*
X0242803Y0029674D01*
X0241370Y0029080D01*
X0240081Y0028218D01*
X0238984Y0027122D01*
X0238122Y0025832D01*
X0237529Y0024399D01*
X0237226Y0022878D01*
Y0022102D01*
Y0021327D01*
X0237529Y0019806D01*
X0238122Y0018373D01*
X0238984Y0017083D01*
X0240081Y0015986D01*
X0241370Y0015124D01*
X0242803Y0014531D01*
X0244324Y0014228D01*
X0245100D01*
X0245876D01*
X0247397Y0014531D01*
X0248830Y0015124D01*
X0250119Y0015986D01*
X0251216Y0017083D01*
X0252078Y0018373D01*
X0252671Y0019806D01*
X0252974Y0021327D01*
Y0022102D01*
Y0022878D01*
X0252671Y0024399D01*
X0252078Y0025832D01*
X0251216Y0027122D01*
X0250119Y0028218D01*
X0248830Y0029080D01*
X0247397Y0029674D01*
X0245876Y0029976D01*
X0245100D01*
D01*
D02*
G37*
G36*
X0245100Y0099576D02*
X0244324D01*
X0242803Y0099274D01*
X0241370Y0098680D01*
X0240081Y0097818D01*
X0238984Y0096722D01*
X0238122Y0095432D01*
X0237529Y0093999D01*
X0237226Y0092478D01*
Y0091702D01*
Y0090927D01*
X0237529Y0089406D01*
X0238122Y0087973D01*
X0238984Y0086683D01*
X0240081Y0085586D01*
X0241370Y0084724D01*
X0242803Y0084131D01*
X0244324Y0083828D01*
X0245100D01*
X0245876D01*
X0247397Y0084131D01*
X0248830Y0084724D01*
X0250119Y0085586D01*
X0251216Y0086683D01*
X0252078Y0087973D01*
X0252671Y0089406D01*
X0252974Y0090927D01*
Y0091702D01*
Y0092478D01*
X0252671Y0093999D01*
X0252078Y0095432D01*
X0251216Y0096722D01*
X0250119Y0097818D01*
X0248830Y0098680D01*
X0247397Y0099274D01*
X0245876Y0099576D01*
X0245100D01*
D01*
D02*
G37*
D34*
X0207500Y0103250D02*
D03*
Y0112624D02*
D03*
X0200000Y0103313D02*
D03*
Y0112687D02*
D03*
X0274000Y0115813D02*
D03*
Y0125187D02*
D03*
X0285000Y0115813D02*
D03*
Y0125187D02*
D03*
X0070000Y0051313D02*
D03*
Y0060687D02*
D03*
X0287500Y0043250D02*
D03*
Y0052624D02*
D03*
X0237500Y0043250D02*
D03*
Y0052624D02*
D03*
X0247500Y0043250D02*
D03*
Y0052624D02*
D03*
X0197500Y0043250D02*
D03*
Y0052624D02*
D03*
X0175500Y0040687D02*
D03*
Y0031313D02*
D03*
X0183000Y0040687D02*
D03*
Y0031313D02*
D03*
X0136500Y0064250D02*
D03*
Y0054876D02*
D03*
X0110500Y0060687D02*
D03*
Y0051313D02*
D03*
X0119500D02*
D03*
Y0060687D02*
D03*
X0092500Y0129687D02*
D03*
Y0120313D02*
D03*
X0100000Y0129624D02*
D03*
Y0120250D02*
D03*
X0215000Y0155876D02*
D03*
Y0165250D02*
D03*
X0207500Y0155876D02*
D03*
Y0165250D02*
D03*
X0190000Y0172876D02*
D03*
Y0182250D02*
D03*
X0178500Y0112681D02*
D03*
Y0103307D02*
D03*
X0169500Y0225124D02*
D03*
Y0215750D02*
D03*
X0157000Y0103813D02*
D03*
Y0113187D02*
D03*
X0150000Y0103813D02*
D03*
Y0113187D02*
D03*
X0143000Y0103813D02*
D03*
Y0113187D02*
D03*
X0073000Y0129687D02*
D03*
Y0120313D02*
D03*
X0080500Y0129624D02*
D03*
Y0120250D02*
D03*
X0148000Y0031313D02*
D03*
Y0040687D02*
D03*
X0155500Y0031313D02*
D03*
Y0040687D02*
D03*
D42*
X0093750Y0073500D02*
D03*
X0103124D02*
D03*
X0103187Y0085000D02*
D03*
X0093813D02*
D03*
X0183750Y0081500D02*
D03*
X0174376D02*
D03*
X0237187Y0123000D02*
D03*
X0227813D02*
D03*
X0253187D02*
D03*
X0243813D02*
D03*
X0076313Y0085000D02*
D03*
X0085687D02*
D03*
Y0073500D02*
D03*
X0076313D02*
D03*
X0156750Y0081500D02*
D03*
X0147376D02*
D03*
X0125187Y0127000D02*
D03*
X0115813D02*
D03*
Y0119000D02*
D03*
X0125187D02*
D03*
Y0111500D02*
D03*
X0115813D02*
D03*
X0125124Y0104000D02*
D03*
X0115750D02*
D03*
X0155313Y0162500D02*
D03*
X0164687D02*
D03*
X0160813Y0155000D02*
D03*
X0170187D02*
D03*
X0162813Y0147500D02*
D03*
X0172187D02*
D03*
X0164813Y0134000D02*
D03*
X0174187D02*
D03*
X0182687Y0174000D02*
D03*
X0173313D02*
D03*
X0182687Y0181000D02*
D03*
X0173313D02*
D03*
X0203687Y0197000D02*
D03*
X0194313D02*
D03*
X0203687Y0207000D02*
D03*
X0194313D02*
D03*
D44*
X0335260Y0274000D02*
D03*
X0346087Y0274000D02*
D03*
Y0294000D02*
D03*
X0335260Y0294000D02*
D03*
X0229260Y0317500D02*
D03*
X0240087Y0317500D02*
D03*
Y0337500D02*
D03*
X0229260Y0337500D02*
D03*
X0175913Y0323500D02*
D03*
X0186740Y0323500D02*
D03*
Y0343500D02*
D03*
X0175913Y0343500D02*
D03*
X0122760Y0319500D02*
D03*
X0133587Y0319500D02*
D03*
Y0339500D02*
D03*
X0122760Y0339500D02*
D03*
X0069760Y0304000D02*
D03*
X0080587Y0304000D02*
D03*
Y0324000D02*
D03*
X0069760Y0324000D02*
D03*
X0016413Y0274000D02*
D03*
X0027240Y0274000D02*
D03*
Y0294000D02*
D03*
X0016413Y0294000D02*
D03*
X0282260Y0302000D02*
D03*
X0293087Y0302000D02*
D03*
Y0322000D02*
D03*
X0282260Y0322000D02*
D03*
X0191500Y0289760D02*
D03*
X0191500Y0300587D02*
D03*
X0171500D02*
D03*
X0171500Y0289760D02*
D03*
D45*
X0351500Y0284000D02*
D03*
X0329846Y0284000D02*
D03*
X0245500Y0327500D02*
D03*
X0223846Y0327500D02*
D03*
X0192154Y0333500D02*
D03*
X0170500Y0333500D02*
D03*
X0139000Y0329500D02*
D03*
X0117346Y0329500D02*
D03*
X0086000Y0314000D02*
D03*
X0064346Y0314000D02*
D03*
X0032653Y0284000D02*
D03*
X0011000Y0284000D02*
D03*
X0298500Y0312000D02*
D03*
X0276846Y0312000D02*
D03*
X0118100Y0023502D02*
D03*
Y0093102D02*
D03*
X0245100Y0022102D02*
D03*
X0245100Y0091702D02*
D03*
X0181500Y0284346D02*
D03*
X0181500Y0306000D02*
D03*
D46*
X0331028Y0265693D02*
D03*
X0225028Y0309193D02*
D03*
X0171681Y0315193D02*
D03*
X0118528Y0311193D02*
D03*
X0065528Y0295693D02*
D03*
X0012181Y0265693D02*
D03*
X0278028Y0293693D02*
D03*
X0163193Y0285528D02*
D03*
D47*
X0077701Y0096299D02*
D03*
X0284902Y0107244D02*
D03*
D48*
X0077701Y0106142D02*
D03*
X0088724D02*
D03*
Y0096299D02*
D03*
X0284902Y0097402D02*
D03*
X0273878D02*
D03*
Y0107244D02*
D03*
D49*
X0249000Y0145961D02*
D03*
D50*
Y0116039D02*
D03*
D51*
X0181543Y0017079D02*
D03*
D52*
X0173276Y0012157D02*
D03*
X0165402D02*
D03*
X0173276Y0022000D02*
D03*
X0165402D02*
D03*
X0157528Y0012157D02*
D03*
Y0022000D02*
D03*
X0135789Y0139669D02*
D03*
X0137868Y0129888D02*
D03*
X0139947Y0120106D02*
D03*
X0159202Y0124199D02*
D03*
X0157123Y0133980D02*
D03*
X0155044Y0143762D02*
D03*
X0152965Y0153543D02*
D03*
D53*
X0149260Y0017079D02*
D03*
D54*
X0204500Y0022000D02*
D03*
D55*
X0194500D02*
D03*
D56*
X0159500Y0091429D02*
D03*
X0144900D02*
D03*
X0203700Y0091702D02*
D03*
X0217900Y0091702D02*
D03*
D57*
X0076583Y0031799D02*
D03*
D58*
X0099417D02*
D03*
D59*
X0105028Y0033768D02*
D03*
X0070972D02*
D03*
D60*
Y0017232D02*
D03*
X0105028D02*
D03*
D61*
X0212500Y0247000D02*
D03*
Y0237000D02*
D03*
Y0227000D02*
D03*
Y0217000D02*
D03*
Y0207000D02*
D03*
Y0197000D02*
D03*
Y0187000D02*
D03*
Y0177000D02*
D03*
D62*
X0133710Y0149451D02*
D03*
D63*
X0158000Y0255000D02*
D03*
Y0245000D02*
D03*
Y0235000D02*
D03*
Y0225000D02*
D03*
D104*
X0079606Y0048252D02*
D03*
Y0052189D02*
D03*
Y0056126D02*
D03*
Y0060063D02*
D03*
Y0064000D02*
D03*
X0100079Y0048252D02*
D03*
Y0052189D02*
D03*
Y0056126D02*
D03*
Y0060063D02*
D03*
Y0064000D02*
D03*
D105*
X0186598Y0049461D02*
D03*
X0181598D02*
D03*
X0176598D02*
D03*
X0171598D02*
D03*
Y0071720D02*
D03*
X0176598D02*
D03*
X0181598D02*
D03*
X0186598D02*
D03*
X0159201Y0049461D02*
D03*
X0154201D02*
D03*
X0149201D02*
D03*
X0144201D02*
D03*
Y0071720D02*
D03*
X0149201D02*
D03*
X0154201D02*
D03*
X0159201D02*
D03*
D106*
X0249000Y0139134D02*
D03*
X0252740Y0129866D02*
D03*
X0245260D02*
D03*
D107*
X0267500Y0070417D02*
D03*
X0217500Y0070335D02*
D03*
D108*
X0258445Y0047583D02*
D03*
X0267500D02*
D03*
X0276555D02*
D03*
X0208445Y0047500D02*
D03*
X0217500D02*
D03*
X0226555D02*
D03*
D109*
X0197500Y0073937D02*
D03*
Y0060313D02*
D03*
X0128500Y0066437D02*
D03*
Y0052813D02*
D03*
X0287500Y0060313D02*
D03*
Y0073937D02*
D03*
X0247500Y0060313D02*
D03*
Y0073937D02*
D03*
X0237500Y0060313D02*
D03*
Y0073937D02*
D03*
D110*
X0124740Y0136153D02*
D03*
X0117260Y0136153D02*
D03*
X0121000Y0144421D02*
D03*
X0182319Y0188732D02*
D03*
X0174839Y0188732D02*
D03*
X0178579Y0197000D02*
D03*
D111*
X0097449Y0037508D02*
D03*
X0078551D02*
D03*
D112*
X0100598D02*
D03*
X0075402D02*
D03*
D113*
X0094890Y0037795D02*
D03*
X0092921Y0037508D02*
D03*
X0090953D02*
D03*
X0081110Y0037795D02*
D03*
X0083079Y0037508D02*
D03*
X0085047D02*
D03*
X0087016D02*
D03*
X0088984D02*
D03*
D114*
X0089842Y0056126D02*
D03*
M02*
