G04*
G04 #@! TF.GenerationSoftware,Altium Limited,Altium Designer,23.1.1 (15)*
G04*
G04 Layer_Color=32896*
%FSAX25Y25*%
%MOIN*%
G70*
G04*
G04 #@! TF.SameCoordinates,B82E7E18-3205-491C-BA0E-7F24CF85224E*
G04*
G04*
G04 #@! TF.FilePolarity,Positive*
G04*
G01*
G75*
%ADD10C,0.00787*%
%ADD12C,0.00984*%
%ADD14C,0.00591*%
%ADD15C,0.01000*%
%ADD115C,0.00500*%
G36*
X0094404Y0063050D02*
X0094515D01*
X0094719Y0063134D01*
X0094876Y0063291D01*
X0094961Y0063495D01*
Y0063606D01*
Y0063717D01*
X0094876Y0063922D01*
X0094719Y0064078D01*
X0094515Y0064163D01*
X0094404D01*
X0094293D01*
X0094089Y0064078D01*
X0093932Y0063922D01*
X0093847Y0063717D01*
Y0063606D01*
Y0063495D01*
X0093932Y0063291D01*
X0094089Y0063134D01*
X0094293Y0063050D01*
X0094404D01*
D01*
D02*
G37*
G36*
X0146701Y0065701D02*
Y0065812D01*
X0146616Y0066017D01*
X0146459Y0066173D01*
X0146255Y0066258D01*
X0146144D01*
X0146033D01*
X0145829Y0066173D01*
X0145672Y0066017D01*
X0145587Y0065812D01*
Y0065701D01*
Y0065591D01*
X0145672Y0065386D01*
X0145829Y0065229D01*
X0146033Y0065144D01*
X0146144D01*
X0146255D01*
X0146459Y0065229D01*
X0146616Y0065386D01*
X0146701Y0065591D01*
Y0065701D01*
D01*
D02*
G37*
G36*
X0174098D02*
Y0065812D01*
X0174014Y0066017D01*
X0173857Y0066173D01*
X0173652Y0066258D01*
X0173542D01*
X0173431D01*
X0173226Y0066173D01*
X0173070Y0066017D01*
X0172985Y0065812D01*
Y0065701D01*
Y0065591D01*
X0173070Y0065386D01*
X0173226Y0065229D01*
X0173431Y0065144D01*
X0173542D01*
X0173652D01*
X0173857Y0065229D01*
X0174014Y0065386D01*
X0174098Y0065591D01*
Y0065701D01*
D01*
D02*
G37*
D10*
X0254311Y0053488D02*
Y0064512D01*
X0280689Y0053488D02*
Y0064512D01*
X0254311D02*
X0280689D01*
X0254311Y0053488D02*
X0280689D01*
X0204311Y0053405D02*
Y0064429D01*
X0230689Y0053405D02*
Y0064429D01*
X0204311D02*
X0230689D01*
X0204311Y0053405D02*
X0230689D01*
X0196250Y0067750D02*
X0198750D01*
X0197500Y0064250D02*
Y0066000D01*
Y0068000D02*
Y0069750D01*
X0196250Y0066250D02*
X0198750D01*
X0127250Y0060250D02*
X0129750D01*
X0128500Y0056750D02*
Y0058500D01*
Y0060500D02*
Y0062250D01*
X0127250Y0058750D02*
X0129750D01*
X0105717Y0041248D02*
X0108669Y0038295D01*
X0067331D02*
X0070284Y0041248D01*
X0067331Y0012705D02*
Y0038295D01*
X0108669Y0012705D02*
Y0038295D01*
X0286250Y0066250D02*
X0288750D01*
X0287500Y0068000D02*
Y0069750D01*
Y0064250D02*
Y0066000D01*
X0286250Y0067750D02*
X0288750D01*
X0246250Y0066250D02*
X0248750D01*
X0247500Y0068000D02*
Y0069750D01*
Y0064250D02*
Y0066000D01*
X0246250Y0067750D02*
X0248750D01*
X0236250Y0066250D02*
X0238750D01*
X0237500Y0068000D02*
Y0069750D01*
Y0064250D02*
Y0066000D01*
X0236250Y0067750D02*
X0238750D01*
X0111499Y0110001D02*
Y0112999D01*
X0109999D01*
X0109499Y0112500D01*
Y0111500D01*
X0109999Y0111000D01*
X0111499D01*
X0110499D02*
X0109499Y0110001D01*
X0106500D02*
X0108500D01*
X0106500Y0112000D01*
Y0112500D01*
X0107000Y0112999D01*
X0108000D01*
X0108500Y0112500D01*
X0105501D02*
X0105001Y0112999D01*
X0104001D01*
X0103501Y0112500D01*
Y0112000D01*
X0104001Y0111500D01*
X0103501Y0111000D01*
Y0110500D01*
X0104001Y0110001D01*
X0105001D01*
X0105501Y0110500D01*
Y0111000D01*
X0105001Y0111500D01*
X0105501Y0112000D01*
Y0112500D01*
X0105001Y0111500D02*
X0104001D01*
X0109499Y0105000D02*
X0109999Y0105499D01*
X0110999D01*
X0111499Y0105000D01*
Y0103000D01*
X0110999Y0102500D01*
X0109999D01*
X0109499Y0103000D01*
X0106500Y0102500D02*
X0108500D01*
X0106500Y0104500D01*
Y0105000D01*
X0107000Y0105499D01*
X0108000D01*
X0108500Y0105000D01*
X0105501D02*
X0105001Y0105499D01*
X0104001D01*
X0103501Y0105000D01*
Y0103000D01*
X0104001Y0102500D01*
X0105001D01*
X0105501Y0103000D01*
Y0105000D01*
X0111749Y0117500D02*
Y0120500D01*
X0110249D01*
X0109749Y0120000D01*
Y0119000D01*
X0110249Y0118500D01*
X0111749D01*
X0110749D02*
X0109749Y0117500D01*
X0108750D02*
X0107750D01*
X0108250D01*
Y0120500D01*
X0108750Y0120000D01*
X0104751Y0117500D02*
Y0120500D01*
X0106251Y0119000D01*
X0104251D01*
X0111749Y0125501D02*
Y0128499D01*
X0110249D01*
X0109749Y0128000D01*
Y0127000D01*
X0110249Y0126500D01*
X0111749D01*
X0110749D02*
X0109749Y0125501D01*
X0108750D02*
X0107750D01*
X0108250D01*
Y0128499D01*
X0108750Y0128000D01*
X0106251Y0126000D02*
X0105751Y0125501D01*
X0104751D01*
X0104251Y0126000D01*
Y0128000D01*
X0104751Y0128499D01*
X0105751D01*
X0106251Y0128000D01*
Y0127500D01*
X0105751Y0127000D01*
X0104251D01*
X0112999Y0068999D02*
Y0066500D01*
X0112499Y0066000D01*
X0111500D01*
X0111000Y0066500D01*
Y0068999D01*
X0108001Y0066000D02*
X0110000D01*
X0108001Y0068000D01*
Y0068500D01*
X0108501Y0068999D01*
X0109500D01*
X0110000Y0068500D01*
X0112500Y0074500D02*
X0113000Y0074999D01*
X0113999D01*
X0114499Y0074500D01*
Y0072500D01*
X0113999Y0072000D01*
X0113000D01*
X0112500Y0072500D01*
X0111500D02*
X0111000Y0072000D01*
X0110001D01*
X0109501Y0072500D01*
Y0074500D01*
X0110001Y0074999D01*
X0111000D01*
X0111500Y0074500D01*
Y0074000D01*
X0111000Y0073500D01*
X0109501D01*
X0116499Y0083000D02*
Y0086000D01*
X0114999D01*
X0114499Y0085500D01*
Y0084500D01*
X0114999Y0084000D01*
X0116499D01*
X0115499D02*
X0114499Y0083000D01*
X0113500Y0085500D02*
X0113000Y0086000D01*
X0112000D01*
X0111500Y0085500D01*
Y0085000D01*
X0112000Y0084500D01*
X0112500D01*
X0112000D01*
X0111500Y0084000D01*
Y0083500D01*
X0112000Y0083000D01*
X0113000D01*
X0113500Y0083500D01*
X0110501Y0086000D02*
X0108501D01*
Y0085500D01*
X0110501Y0083500D01*
Y0083000D01*
X0164500Y0062999D02*
X0167000D01*
X0167499Y0062499D01*
Y0061500D01*
X0167000Y0061000D01*
X0164500D01*
Y0058001D02*
Y0060000D01*
X0166000D01*
X0165500Y0059000D01*
Y0058501D01*
X0166000Y0058001D01*
X0167000D01*
X0167499Y0058501D01*
Y0059500D01*
X0167000Y0060000D01*
X0180749Y0090000D02*
X0181249Y0090500D01*
X0182249D01*
X0182749Y0090000D01*
Y0088000D01*
X0182249Y0087501D01*
X0181249D01*
X0180749Y0088000D01*
X0179750Y0087501D02*
X0178750D01*
X0179250D01*
Y0090500D01*
X0179750Y0090000D01*
X0177251Y0088000D02*
X0176751Y0087501D01*
X0175751D01*
X0175251Y0088000D01*
Y0090000D01*
X0175751Y0090500D01*
X0176751D01*
X0177251Y0090000D01*
Y0089500D01*
X0176751Y0089000D01*
X0175251D01*
X0206500Y0124749D02*
X0206000Y0125249D01*
Y0126249D01*
X0206500Y0126749D01*
X0208500D01*
X0208999Y0126249D01*
Y0125249D01*
X0208500Y0124749D01*
X0208999Y0123750D02*
Y0122750D01*
Y0123250D01*
X0206000D01*
X0206500Y0123750D01*
X0208999Y0119751D02*
X0206000D01*
X0207500Y0121251D01*
Y0119251D01*
X0201500Y0124499D02*
X0198501D01*
Y0123000D01*
X0199000Y0122500D01*
X0200000D01*
X0200500Y0123000D01*
Y0124499D01*
Y0123500D02*
X0201500Y0122500D01*
Y0120001D02*
X0198501D01*
X0200000Y0121500D01*
Y0119501D01*
X0236499Y0129000D02*
Y0132000D01*
X0234999D01*
X0234499Y0131500D01*
Y0130500D01*
X0234999Y0130000D01*
X0236499D01*
X0235499D02*
X0234499Y0129000D01*
X0231500D02*
X0233500D01*
X0231500Y0131000D01*
Y0131500D01*
X0232000Y0132000D01*
X0233000D01*
X0233500Y0131500D01*
X0229001Y0129000D02*
Y0132000D01*
X0230501Y0130500D01*
X0228501D01*
X0262000Y0133000D02*
Y0135000D01*
X0262500Y0135500D01*
X0263499D01*
X0263999Y0135000D01*
Y0133000D01*
X0263499Y0132501D01*
X0262500D01*
X0263000Y0133500D02*
X0262000Y0132501D01*
X0262500D02*
X0262000Y0133000D01*
X0261000Y0135000D02*
X0260500Y0135500D01*
X0259501D01*
X0259001Y0135000D01*
Y0134500D01*
X0259501Y0134000D01*
X0260000D01*
X0259501D01*
X0259001Y0133500D01*
Y0133000D01*
X0259501Y0132501D01*
X0260500D01*
X0261000Y0133000D01*
X0266999Y0121501D02*
Y0124499D01*
X0265499D01*
X0264999Y0124000D01*
Y0123000D01*
X0265499Y0122500D01*
X0266999D01*
X0265999D02*
X0264999Y0121501D01*
X0262000D02*
X0264000D01*
X0262000Y0123500D01*
Y0124000D01*
X0262500Y0124499D01*
X0263500D01*
X0264000Y0124000D01*
X0261001Y0124499D02*
X0259001D01*
Y0124000D01*
X0261001Y0122000D01*
Y0121501D01*
X0272500Y0132001D02*
X0275500D01*
Y0133501D01*
X0275000Y0134001D01*
X0274000D01*
X0273500Y0133501D01*
Y0132001D01*
Y0133001D02*
X0272500Y0134001D01*
Y0136500D02*
X0275500D01*
X0274000Y0135000D01*
Y0137000D01*
X0273000Y0137999D02*
X0272500Y0138499D01*
Y0139499D01*
X0273000Y0139999D01*
X0275000D01*
X0275500Y0139499D01*
Y0138499D01*
X0275000Y0137999D01*
X0274500D01*
X0274000Y0138499D01*
Y0139999D01*
X0283501Y0132001D02*
X0286500D01*
Y0133501D01*
X0286000Y0134001D01*
X0285000D01*
X0284500Y0133501D01*
Y0132001D01*
Y0133001D02*
X0283501Y0134001D01*
X0286500Y0137000D02*
Y0135000D01*
X0285000D01*
X0285500Y0136000D01*
Y0136500D01*
X0285000Y0137000D01*
X0284000D01*
X0283501Y0136500D01*
Y0135500D01*
X0284000Y0135000D01*
X0286000Y0137999D02*
X0286500Y0138499D01*
Y0139499D01*
X0286000Y0139999D01*
X0284000D01*
X0283501Y0139499D01*
Y0138499D01*
X0284000Y0137999D01*
X0286000D01*
X0072499Y0083500D02*
Y0086500D01*
X0070999D01*
X0070499Y0086000D01*
Y0085000D01*
X0070999Y0084500D01*
X0072499D01*
X0071499D02*
X0070499Y0083500D01*
X0069500Y0086000D02*
X0069000Y0086500D01*
X0068000D01*
X0067500Y0086000D01*
Y0085500D01*
X0068000Y0085000D01*
X0068500D01*
X0068000D01*
X0067500Y0084500D01*
Y0084000D01*
X0068000Y0083500D01*
X0069000D01*
X0069500Y0084000D01*
X0066501Y0086000D02*
X0066001Y0086500D01*
X0065001D01*
X0064501Y0086000D01*
Y0085500D01*
X0065001Y0085000D01*
X0064501Y0084500D01*
Y0084000D01*
X0065001Y0083500D01*
X0066001D01*
X0066501Y0084000D01*
Y0084500D01*
X0066001Y0085000D01*
X0066501Y0085500D01*
Y0086000D01*
X0066001Y0085000D02*
X0065001D01*
X0073749Y0065500D02*
Y0068499D01*
X0072249D01*
X0071749Y0068000D01*
Y0067000D01*
X0072249Y0066500D01*
X0073749D01*
X0072749D02*
X0071749Y0065500D01*
X0070750D02*
X0069750D01*
X0070250D01*
Y0068499D01*
X0070750Y0068000D01*
X0068251D02*
X0067751Y0068499D01*
X0066751D01*
X0066251Y0068000D01*
Y0067500D01*
X0066751Y0067000D01*
X0066251Y0066500D01*
Y0066000D01*
X0066751Y0065500D01*
X0067751D01*
X0068251Y0066000D01*
Y0066500D01*
X0067751Y0067000D01*
X0068251Y0067500D01*
Y0068000D01*
X0067751Y0067000D02*
X0066751D01*
X0072249Y0071500D02*
Y0074499D01*
X0070749D01*
X0070249Y0074000D01*
Y0073000D01*
X0070749Y0072500D01*
X0072249D01*
X0071249D02*
X0070249Y0071500D01*
X0069250D02*
X0068250D01*
X0068750D01*
Y0074499D01*
X0069250Y0074000D01*
X0066751Y0074499D02*
X0064751D01*
Y0074000D01*
X0066751Y0072000D01*
Y0071500D01*
X0271249Y0082999D02*
X0270249D01*
X0270749D01*
Y0080001D01*
X0271249D01*
X0270249D01*
X0266750Y0082500D02*
X0267250Y0082999D01*
X0268250D01*
X0268750Y0082500D01*
Y0080500D01*
X0268250Y0080001D01*
X0267250D01*
X0266750Y0080500D01*
X0263751Y0080001D02*
X0265751D01*
X0263751Y0082000D01*
Y0082500D01*
X0264251Y0082999D01*
X0265251D01*
X0265751Y0082500D01*
X0288000Y0037000D02*
X0288500Y0037499D01*
X0289499D01*
X0289999Y0037000D01*
Y0035000D01*
X0289499Y0034501D01*
X0288500D01*
X0288000Y0035000D01*
X0287000Y0037000D02*
X0286500Y0037499D01*
X0285501D01*
X0285001Y0037000D01*
Y0036500D01*
X0285501Y0036000D01*
X0285001Y0035500D01*
Y0035000D01*
X0285501Y0034501D01*
X0286500D01*
X0287000Y0035000D01*
Y0035500D01*
X0286500Y0036000D01*
X0287000Y0036500D01*
Y0037000D01*
X0286500Y0036000D02*
X0285501D01*
X0238000Y0037000D02*
X0238500Y0037499D01*
X0239499D01*
X0239999Y0037000D01*
Y0035000D01*
X0239499Y0034501D01*
X0238500D01*
X0238000Y0035000D01*
X0235501Y0034501D02*
Y0037499D01*
X0237000Y0036000D01*
X0235001D01*
X0248000Y0037000D02*
X0248500Y0037499D01*
X0249499D01*
X0249999Y0037000D01*
Y0035000D01*
X0249499Y0034501D01*
X0248500D01*
X0248000Y0035000D01*
X0245001Y0037499D02*
X0246001Y0037000D01*
X0247000Y0036000D01*
Y0035000D01*
X0246500Y0034501D01*
X0245501D01*
X0245001Y0035000D01*
Y0035500D01*
X0245501Y0036000D01*
X0247000D01*
X0220749Y0083499D02*
X0219749D01*
X0220249D01*
Y0080501D01*
X0220749D01*
X0219749D01*
X0216250Y0083000D02*
X0216750Y0083499D01*
X0217750D01*
X0218250Y0083000D01*
Y0081000D01*
X0217750Y0080501D01*
X0216750D01*
X0216250Y0081000D01*
X0215251Y0080501D02*
X0214251D01*
X0214751D01*
Y0083499D01*
X0215251Y0083000D01*
X0198000D02*
X0198500Y0083499D01*
X0199499D01*
X0199999Y0083000D01*
Y0081000D01*
X0199499Y0080501D01*
X0198500D01*
X0198000Y0081000D01*
X0197000Y0080501D02*
X0196001D01*
X0196501D01*
Y0083499D01*
X0197000Y0083000D01*
X0198000Y0036500D02*
X0198500Y0036999D01*
X0199499D01*
X0199999Y0036500D01*
Y0034500D01*
X0199499Y0034001D01*
X0198500D01*
X0198000Y0034500D01*
X0195001Y0034001D02*
X0197000D01*
X0195001Y0036000D01*
Y0036500D01*
X0195501Y0036999D01*
X0196500D01*
X0197000Y0036500D01*
X0170000Y0039499D02*
X0167000D01*
Y0037999D01*
X0167500Y0037499D01*
X0168500D01*
X0169000Y0037999D01*
Y0039499D01*
Y0038499D02*
X0170000Y0037499D01*
Y0034500D02*
Y0036500D01*
X0168000Y0034500D01*
X0167500D01*
X0167000Y0035000D01*
Y0036000D01*
X0167500Y0036500D01*
X0170000Y0031501D02*
Y0033501D01*
X0168000Y0031501D01*
X0167500D01*
X0167000Y0032001D01*
Y0033001D01*
X0167500Y0033501D01*
X0188500Y0031501D02*
X0191499D01*
Y0033001D01*
X0191000Y0033501D01*
X0190000D01*
X0189500Y0033001D01*
Y0031501D01*
Y0032501D02*
X0188500Y0033501D01*
Y0036500D02*
Y0034500D01*
X0190500Y0036500D01*
X0191000D01*
X0191499Y0036000D01*
Y0035000D01*
X0191000Y0034500D01*
Y0037499D02*
X0191499Y0037999D01*
Y0038999D01*
X0191000Y0039499D01*
X0190500D01*
X0190000Y0038999D01*
Y0038499D01*
Y0038999D01*
X0189500Y0039499D01*
X0189000D01*
X0188500Y0038999D01*
Y0037999D01*
X0189000Y0037499D01*
X0139749Y0082500D02*
X0140249Y0082999D01*
X0141249D01*
X0141749Y0082500D01*
Y0080500D01*
X0141249Y0080001D01*
X0140249D01*
X0139749Y0080500D01*
X0138750Y0080001D02*
X0137750D01*
X0138250D01*
Y0082999D01*
X0138750Y0082500D01*
X0134251Y0082999D02*
X0136251D01*
Y0081500D01*
X0135251Y0082000D01*
X0134751D01*
X0134251Y0081500D01*
Y0080500D01*
X0134751Y0080001D01*
X0135751D01*
X0136251Y0080500D01*
X0139499Y0073500D02*
Y0071000D01*
X0138999Y0070500D01*
X0138000D01*
X0137500Y0071000D01*
Y0073500D01*
X0136500Y0073000D02*
X0136000Y0073500D01*
X0135001D01*
X0134501Y0073000D01*
Y0072500D01*
X0135001Y0072000D01*
X0135501D01*
X0135001D01*
X0134501Y0071500D01*
Y0071000D01*
X0135001Y0070500D01*
X0136000D01*
X0136500Y0071000D01*
X0136000Y0043749D02*
X0135501Y0044249D01*
Y0045249D01*
X0136000Y0045749D01*
X0138000D01*
X0138499Y0045249D01*
Y0044249D01*
X0138000Y0043749D01*
X0138499Y0042750D02*
Y0041750D01*
Y0042250D01*
X0135501D01*
X0136000Y0042750D01*
Y0040251D02*
X0135501Y0039751D01*
Y0038751D01*
X0136000Y0038251D01*
X0136500D01*
X0137000Y0038751D01*
X0137500Y0038251D01*
X0138000D01*
X0138499Y0038751D01*
Y0039751D01*
X0138000Y0040251D01*
X0137500D01*
X0137000Y0039751D01*
X0136500Y0040251D01*
X0136000D01*
X0137000Y0039751D02*
Y0038751D01*
X0127500Y0043749D02*
X0127000Y0044249D01*
Y0045249D01*
X0127500Y0045749D01*
X0129500D01*
X0129999Y0045249D01*
Y0044249D01*
X0129500Y0043749D01*
X0129999Y0042750D02*
Y0041750D01*
Y0042250D01*
X0127000D01*
X0127500Y0042750D01*
X0127000Y0040251D02*
Y0038251D01*
X0127500D01*
X0129500Y0040251D01*
X0129999D01*
X0112499Y0046249D02*
X0109501D01*
Y0044749D01*
X0110000Y0044250D01*
X0111000D01*
X0111500Y0044749D01*
Y0046249D01*
Y0045249D02*
X0112499Y0044250D01*
Y0043250D02*
Y0042250D01*
Y0042750D01*
X0109501D01*
X0110000Y0043250D01*
X0112499Y0040751D02*
Y0039751D01*
Y0040251D01*
X0109501D01*
X0110000Y0040751D01*
X0121000Y0045999D02*
X0118000D01*
Y0044500D01*
X0118500Y0044000D01*
X0119500D01*
X0120000Y0044500D01*
Y0045999D01*
Y0045000D02*
X0121000Y0044000D01*
X0118500Y0043000D02*
X0118000Y0042500D01*
Y0041501D01*
X0118500Y0041001D01*
X0119000D01*
X0119500Y0041501D01*
X0120000Y0041001D01*
X0120500D01*
X0121000Y0041501D01*
Y0042500D01*
X0120500Y0043000D01*
X0120000D01*
X0119500Y0042500D01*
X0119000Y0043000D01*
X0118500D01*
X0119500Y0042500D02*
Y0041501D01*
X0331249Y0312000D02*
Y0309500D01*
X0330749Y0309000D01*
X0329749D01*
X0329249Y0309500D01*
Y0312000D01*
X0328250Y0309000D02*
X0327250D01*
X0327750D01*
Y0312000D01*
X0328250Y0311500D01*
X0325751D02*
X0325251Y0312000D01*
X0324251D01*
X0323751Y0311500D01*
Y0311000D01*
X0324251Y0310500D01*
X0324751D01*
X0324251D01*
X0323751Y0310000D01*
Y0309500D01*
X0324251Y0309000D01*
X0325251D01*
X0325751Y0309500D01*
X0280800Y0337899D02*
Y0335400D01*
X0280300Y0334900D01*
X0279300D01*
X0278801Y0335400D01*
Y0337899D01*
X0277801Y0334900D02*
X0276801D01*
X0277301D01*
Y0337899D01*
X0277801Y0337399D01*
X0273302Y0334900D02*
X0275302D01*
X0273302Y0336899D01*
Y0337399D01*
X0273802Y0337899D01*
X0274802D01*
X0275302Y0337399D01*
X0225749Y0353500D02*
Y0351000D01*
X0225249Y0350500D01*
X0224249D01*
X0223750Y0351000D01*
Y0353500D01*
X0222750Y0350500D02*
X0221750D01*
X0222250D01*
Y0353500D01*
X0222750Y0353000D01*
X0220251Y0350500D02*
X0219251D01*
X0219751D01*
Y0353500D01*
X0220251Y0353000D01*
X0165499Y0346499D02*
Y0344000D01*
X0164999Y0343500D01*
X0164000D01*
X0163500Y0344000D01*
Y0346499D01*
X0162500Y0344000D02*
X0162000Y0343500D01*
X0161001D01*
X0160501Y0344000D01*
Y0346000D01*
X0161001Y0346499D01*
X0162000D01*
X0162500Y0346000D01*
Y0345500D01*
X0162000Y0345000D01*
X0160501D01*
X0111999Y0345000D02*
Y0342500D01*
X0111499Y0342001D01*
X0110500D01*
X0110000Y0342500D01*
Y0345000D01*
X0109000Y0344500D02*
X0108500Y0345000D01*
X0107501D01*
X0107001Y0344500D01*
Y0344000D01*
X0107501Y0343500D01*
X0107001Y0343000D01*
Y0342500D01*
X0107501Y0342001D01*
X0108500D01*
X0109000Y0342500D01*
Y0343000D01*
X0108500Y0343500D01*
X0109000Y0344000D01*
Y0344500D01*
X0108500Y0343500D02*
X0107501D01*
X0058999Y0323000D02*
Y0320500D01*
X0058499Y0320001D01*
X0057500D01*
X0057000Y0320500D01*
Y0323000D01*
X0056000D02*
X0054001D01*
Y0322500D01*
X0056000Y0320500D01*
Y0320001D01*
X0022499Y0312000D02*
Y0309500D01*
X0021999Y0309000D01*
X0021000D01*
X0020500Y0309500D01*
Y0312000D01*
X0017501D02*
X0018500Y0311500D01*
X0019500Y0310500D01*
Y0309500D01*
X0019000Y0309000D01*
X0018001D01*
X0017501Y0309500D01*
Y0310000D01*
X0018001Y0310500D01*
X0019500D01*
X0094499Y0142999D02*
X0091501D01*
Y0141499D01*
X0092000Y0140999D01*
X0093000D01*
X0093500Y0141499D01*
Y0142999D01*
Y0141999D02*
X0094499Y0140999D01*
Y0138500D02*
X0091501D01*
X0093000Y0140000D01*
Y0138000D01*
X0092000Y0137001D02*
X0091501Y0136501D01*
Y0135501D01*
X0092000Y0135001D01*
X0094000D01*
X0094499Y0135501D01*
Y0136501D01*
X0094000Y0137001D01*
X0092000D01*
X0075999Y0134501D02*
Y0137499D01*
X0074499D01*
X0073999Y0137000D01*
Y0136000D01*
X0074499Y0135500D01*
X0075999D01*
X0074999D02*
X0073999Y0134501D01*
X0073000Y0137000D02*
X0072500Y0137499D01*
X0071500D01*
X0071000Y0137000D01*
Y0136500D01*
X0071500Y0136000D01*
X0072000D01*
X0071500D01*
X0071000Y0135500D01*
Y0135000D01*
X0071500Y0134501D01*
X0072500D01*
X0073000Y0135000D01*
X0070001D02*
X0069501Y0134501D01*
X0068501D01*
X0068001Y0135000D01*
Y0137000D01*
X0068501Y0137499D01*
X0069501D01*
X0070001Y0137000D01*
Y0136500D01*
X0069501Y0136000D01*
X0068001D01*
X0202499Y0212501D02*
Y0215499D01*
X0200999D01*
X0200499Y0215000D01*
Y0214000D01*
X0200999Y0213500D01*
X0202499D01*
X0201499D02*
X0200499Y0212501D01*
X0197500D02*
X0199500D01*
X0197500Y0214500D01*
Y0215000D01*
X0198000Y0215499D01*
X0199000D01*
X0199500Y0215000D01*
X0194501Y0215499D02*
X0195501Y0215000D01*
X0196501Y0214000D01*
Y0213000D01*
X0196001Y0212501D01*
X0195001D01*
X0194501Y0213000D01*
Y0213500D01*
X0195001Y0214000D01*
X0196501D01*
X0202999Y0188001D02*
Y0190999D01*
X0201499D01*
X0200999Y0190500D01*
Y0189500D01*
X0201499Y0189000D01*
X0202999D01*
X0201999D02*
X0200999Y0188001D01*
X0198000D02*
X0200000D01*
X0198000Y0190000D01*
Y0190500D01*
X0198500Y0190999D01*
X0199500D01*
X0200000Y0190500D01*
X0195001Y0190999D02*
X0197001D01*
Y0189500D01*
X0196001Y0190000D01*
X0195501D01*
X0195001Y0189500D01*
Y0188500D01*
X0195501Y0188001D01*
X0196501D01*
X0197001Y0188500D01*
X0161001Y0032501D02*
X0163999D01*
Y0034001D01*
X0163500Y0034501D01*
X0162500D01*
X0162000Y0034001D01*
Y0032501D01*
Y0033501D02*
X0161001Y0034501D01*
Y0037499D02*
Y0035500D01*
X0163000Y0037499D01*
X0163500D01*
X0163999Y0037000D01*
Y0036000D01*
X0163500Y0035500D01*
X0161001Y0038499D02*
Y0039499D01*
Y0038999D01*
X0163999D01*
X0163500Y0038499D01*
X0142499Y0030501D02*
Y0033500D01*
X0140999D01*
X0140499Y0033000D01*
Y0032000D01*
X0140999Y0031500D01*
X0142499D01*
X0141499D02*
X0140499Y0030501D01*
X0137500D02*
X0139500D01*
X0137500Y0032500D01*
Y0033000D01*
X0138000Y0033500D01*
X0139000D01*
X0139500Y0033000D01*
X0136501D02*
X0136001Y0033500D01*
X0135001D01*
X0134501Y0033000D01*
Y0031000D01*
X0135001Y0030501D01*
X0136001D01*
X0136501Y0031000D01*
Y0033000D01*
X0186749Y0132501D02*
Y0135500D01*
X0185249D01*
X0184749Y0135000D01*
Y0134000D01*
X0185249Y0133500D01*
X0186749D01*
X0185749D02*
X0184749Y0132501D01*
X0183750D02*
X0182750D01*
X0183250D01*
Y0135500D01*
X0183750Y0135000D01*
X0181251D02*
X0180751Y0135500D01*
X0179751D01*
X0179251Y0135000D01*
Y0134500D01*
X0179751Y0134000D01*
X0180251D01*
X0179751D01*
X0179251Y0133500D01*
Y0133000D01*
X0179751Y0132501D01*
X0180751D01*
X0181251Y0133000D01*
X0137499Y0112249D02*
X0134501D01*
Y0110749D01*
X0135000Y0110249D01*
X0136000D01*
X0136500Y0110749D01*
Y0112249D01*
Y0111249D02*
X0137499Y0110249D01*
Y0109250D02*
Y0108250D01*
Y0108750D01*
X0134501D01*
X0135000Y0109250D01*
X0137499Y0104751D02*
Y0106751D01*
X0135500Y0104751D01*
X0135000D01*
X0134501Y0105251D01*
Y0106251D01*
X0135000Y0106751D01*
X0184749Y0146001D02*
Y0149000D01*
X0183249D01*
X0182749Y0148500D01*
Y0147500D01*
X0183249Y0147000D01*
X0184749D01*
X0183749D02*
X0182749Y0146001D01*
X0181750D02*
X0180750D01*
X0181250D01*
Y0149000D01*
X0181750Y0148500D01*
X0179251D02*
X0178751Y0149000D01*
X0177751D01*
X0177251Y0148500D01*
Y0146500D01*
X0177751Y0146001D01*
X0178751D01*
X0179251Y0146500D01*
Y0148500D01*
X0151499Y0123999D02*
X0148501D01*
Y0122500D01*
X0149000Y0122000D01*
X0150000D01*
X0150500Y0122500D01*
Y0123999D01*
Y0123000D02*
X0151499Y0122000D01*
X0151000Y0121000D02*
X0151499Y0120500D01*
Y0119501D01*
X0151000Y0119001D01*
X0149000D01*
X0148501Y0119501D01*
Y0120500D01*
X0149000Y0121000D01*
X0149500D01*
X0150000Y0120500D01*
Y0119001D01*
X0180499Y0153500D02*
Y0156500D01*
X0179000D01*
X0178500Y0156000D01*
Y0155000D01*
X0179000Y0154500D01*
X0180499D01*
X0179499D02*
X0178500Y0153500D01*
X0177500Y0156500D02*
X0175501D01*
Y0156000D01*
X0177500Y0154000D01*
Y0153500D01*
X0165499Y0111999D02*
X0162501D01*
Y0110500D01*
X0163000Y0110000D01*
X0164000D01*
X0164500Y0110500D01*
Y0111999D01*
Y0111000D02*
X0165499Y0110000D01*
X0162501Y0107001D02*
X0163000Y0108001D01*
X0164000Y0109000D01*
X0165000D01*
X0165499Y0108500D01*
Y0107501D01*
X0165000Y0107001D01*
X0164500D01*
X0164000Y0107501D01*
Y0109000D01*
X0174999Y0161001D02*
Y0163999D01*
X0173500D01*
X0173000Y0163500D01*
Y0162500D01*
X0173500Y0162000D01*
X0174999D01*
X0174000D02*
X0173000Y0161001D01*
X0170001Y0163999D02*
X0172000D01*
Y0162500D01*
X0171001Y0163000D01*
X0170501D01*
X0170001Y0162500D01*
Y0161500D01*
X0170501Y0161001D01*
X0171500D01*
X0172000Y0161500D01*
X0167999Y0183499D02*
X0165000D01*
Y0182000D01*
X0165500Y0181500D01*
X0166500D01*
X0167000Y0182000D01*
Y0183499D01*
Y0182500D02*
X0167999Y0181500D01*
Y0178501D02*
Y0180500D01*
X0166000Y0178501D01*
X0165500D01*
X0165000Y0179001D01*
Y0180000D01*
X0165500Y0180500D01*
X0167999Y0175499D02*
X0165000D01*
Y0174000D01*
X0165500Y0173500D01*
X0166500D01*
X0167000Y0174000D01*
Y0175499D01*
Y0174500D02*
X0167999Y0173500D01*
Y0172500D02*
Y0171501D01*
Y0172001D01*
X0165000D01*
X0165500Y0172500D01*
X0108500Y0138500D02*
Y0140500D01*
X0109000Y0140999D01*
X0109999D01*
X0110499Y0140500D01*
Y0138500D01*
X0109999Y0138001D01*
X0109000D01*
X0109500Y0139000D02*
X0108500Y0138001D01*
X0109000D02*
X0108500Y0138500D01*
X0105501Y0138001D02*
X0107500D01*
X0105501Y0140000D01*
Y0140500D01*
X0106001Y0140999D01*
X0107000D01*
X0107500Y0140500D01*
X0166000Y0192000D02*
Y0194000D01*
X0166500Y0194500D01*
X0167499D01*
X0167999Y0194000D01*
Y0192000D01*
X0167499Y0191500D01*
X0166500D01*
X0167000Y0192500D02*
X0166000Y0191500D01*
X0166500D02*
X0166000Y0192000D01*
X0165000Y0191500D02*
X0164001D01*
X0164500D01*
Y0194500D01*
X0165000Y0194000D01*
X0099000Y0140999D02*
X0098501Y0141499D01*
Y0142499D01*
X0099000Y0142999D01*
X0101000D01*
X0101499Y0142499D01*
Y0141499D01*
X0101000Y0140999D01*
X0101499Y0138000D02*
Y0140000D01*
X0099500Y0138000D01*
X0099000D01*
X0098501Y0138500D01*
Y0139500D01*
X0099000Y0140000D01*
X0101499Y0135001D02*
Y0137001D01*
X0099500Y0135001D01*
X0099000D01*
X0098501Y0135501D01*
Y0136501D01*
X0099000Y0137001D01*
X0080000Y0138999D02*
X0079501Y0139499D01*
Y0140499D01*
X0080000Y0140999D01*
X0082000D01*
X0082499Y0140499D01*
Y0139499D01*
X0082000Y0138999D01*
X0082499Y0136001D02*
Y0138000D01*
X0080500Y0136001D01*
X0080000D01*
X0079501Y0136500D01*
Y0137500D01*
X0080000Y0138000D01*
X0082499Y0135001D02*
Y0134001D01*
Y0134501D01*
X0079501D01*
X0080000Y0135001D01*
X0172601Y0233099D02*
X0173100Y0233599D01*
X0174100D01*
X0174600Y0233099D01*
Y0231100D01*
X0174100Y0230600D01*
X0173100D01*
X0172601Y0231100D01*
X0171601Y0230600D02*
X0170601D01*
X0171101D01*
Y0233599D01*
X0171601Y0233099D01*
X0167102Y0233599D02*
X0168102Y0233099D01*
X0169102Y0232100D01*
Y0231100D01*
X0168602Y0230600D01*
X0167602D01*
X0167102Y0231100D01*
Y0231600D01*
X0167602Y0232100D01*
X0169102D01*
X0198000Y0176251D02*
X0198500Y0175751D01*
Y0174751D01*
X0198000Y0174251D01*
X0196000D01*
X0195501Y0174751D01*
Y0175751D01*
X0196000Y0176251D01*
X0195501Y0177250D02*
Y0178250D01*
Y0177750D01*
X0198500D01*
X0198000Y0177250D01*
Y0179749D02*
X0198500Y0180249D01*
Y0181249D01*
X0198000Y0181749D01*
X0197500D01*
X0197000Y0181249D01*
Y0180749D01*
Y0181249D01*
X0196500Y0181749D01*
X0196000D01*
X0195501Y0181249D01*
Y0180249D01*
X0196000Y0179749D01*
X0181601Y0120656D02*
X0182100Y0121156D01*
X0183100D01*
X0183600Y0120656D01*
Y0118657D01*
X0183100Y0118157D01*
X0182100D01*
X0181601Y0118657D01*
X0180601Y0118157D02*
X0179601D01*
X0180101D01*
Y0121156D01*
X0180601Y0120656D01*
X0176102Y0118157D02*
X0178102D01*
X0176102Y0120156D01*
Y0120656D01*
X0176602Y0121156D01*
X0177602D01*
X0178102Y0120656D01*
X0208500Y0146250D02*
X0208999Y0145751D01*
Y0144751D01*
X0208500Y0144251D01*
X0206500D01*
X0206000Y0144751D01*
Y0145751D01*
X0206500Y0146250D01*
X0206000Y0147250D02*
Y0148250D01*
Y0147750D01*
X0208999D01*
X0208500Y0147250D01*
X0206000Y0149749D02*
Y0150749D01*
Y0150249D01*
X0208999D01*
X0208500Y0149749D01*
X0216000Y0145251D02*
X0216499Y0144751D01*
Y0143751D01*
X0216000Y0143251D01*
X0214000D01*
X0213500Y0143751D01*
Y0144751D01*
X0214000Y0145251D01*
X0213500Y0146250D02*
Y0147250D01*
Y0146750D01*
X0216499D01*
X0216000Y0146250D01*
Y0148749D02*
X0216499Y0149249D01*
Y0150249D01*
X0216000Y0150749D01*
X0214000D01*
X0213500Y0150249D01*
Y0149249D01*
X0214000Y0148749D01*
X0216000D01*
X0287201Y0082799D02*
X0287701Y0083299D01*
X0288700D01*
X0289200Y0082799D01*
Y0080800D01*
X0288700Y0080300D01*
X0287701D01*
X0287201Y0080800D01*
X0286201Y0083299D02*
X0284202D01*
Y0082799D01*
X0286201Y0080800D01*
Y0080300D01*
X0247201Y0082799D02*
X0247701Y0083299D01*
X0248700D01*
X0249200Y0082799D01*
Y0080800D01*
X0248700Y0080300D01*
X0247701D01*
X0247201Y0080800D01*
X0244202Y0083299D02*
X0246201D01*
Y0081800D01*
X0245201Y0082299D01*
X0244702D01*
X0244202Y0081800D01*
Y0080800D01*
X0244702Y0080300D01*
X0245701D01*
X0246201Y0080800D01*
X0237201Y0082799D02*
X0237701Y0083299D01*
X0238700D01*
X0239200Y0082799D01*
Y0080800D01*
X0238700Y0080300D01*
X0237701D01*
X0237201Y0080800D01*
X0236201Y0082799D02*
X0235701Y0083299D01*
X0234701D01*
X0234202Y0082799D01*
Y0082299D01*
X0234701Y0081800D01*
X0235201D01*
X0234701D01*
X0234202Y0081300D01*
Y0080800D01*
X0234701Y0080300D01*
X0235701D01*
X0236201Y0080800D01*
D12*
X0281181Y0047583D02*
G03*
X0281181Y0047583I-0000492J0000000D01*
G01*
X0231181Y0047500D02*
G03*
X0231181Y0047500I-0000492J0000000D01*
G01*
D14*
X0091250Y0070600D02*
Y0076400D01*
Y0070600D02*
X0097713D01*
X0099000Y0073500D02*
X0099750D01*
X0099000Y0072750D02*
Y0074250D01*
X0098000Y0072750D02*
Y0074250D01*
X0091250Y0076400D02*
X0097713D01*
X0099287Y0070600D02*
X0105500D01*
X0099287Y0076400D02*
X0105500D01*
Y0070600D02*
Y0076400D01*
X0097250Y0073500D02*
X0098000D01*
X0098375Y0087375D02*
X0099125Y0086625D01*
X0098375Y0082875D02*
X0099125Y0083625D01*
X0098375Y0085875D02*
X0099125Y0086625D01*
X0098375Y0085875D02*
X0099125Y0085125D01*
X0091307Y0087900D02*
X0097213D01*
X0091307Y0082100D02*
Y0087900D01*
Y0082100D02*
X0097213D01*
X0099787D02*
X0105693D01*
Y0087900D01*
X0099787D02*
X0105693D01*
X0098375Y0084375D02*
X0099125Y0085125D01*
X0098375Y0084375D02*
X0099125Y0083625D01*
X0186250Y0078600D02*
Y0084400D01*
X0179787D02*
X0186250D01*
X0177750Y0081500D02*
X0178500D01*
Y0080750D02*
Y0082250D01*
X0179500Y0080750D02*
Y0082250D01*
X0179787Y0078600D02*
X0186250D01*
X0172000Y0084400D02*
X0178213D01*
X0172000Y0078600D02*
X0178213D01*
X0172000D02*
Y0084400D01*
X0179500Y0081500D02*
X0180250D01*
X0204600Y0100750D02*
X0210400D01*
Y0107213D01*
X0207500Y0108500D02*
Y0109250D01*
X0206750Y0108500D02*
X0208250D01*
X0206750Y0107500D02*
X0208250D01*
X0204600Y0100750D02*
Y0107213D01*
X0210400Y0108787D02*
Y0115000D01*
X0204600Y0108787D02*
Y0115000D01*
X0210400D01*
X0207500Y0106750D02*
Y0107500D01*
X0201625Y0107375D02*
X0202375Y0108125D01*
X0197875D02*
X0198625Y0107375D01*
X0200875Y0108125D02*
X0201625Y0107375D01*
X0200125D02*
X0200875Y0108125D01*
X0202900Y0109287D02*
Y0115193D01*
X0197100D02*
X0202900D01*
X0197100Y0109287D02*
Y0115193D01*
Y0100807D02*
Y0106713D01*
Y0100807D02*
X0202900D01*
Y0106713D01*
X0199375Y0108125D02*
X0200125Y0107375D01*
X0198625D02*
X0199375Y0108125D01*
X0231875Y0124375D02*
X0232625Y0123625D01*
X0231875Y0122875D02*
X0232625Y0123625D01*
X0225307Y0120100D02*
X0231213D01*
X0225307D02*
Y0125900D01*
X0231213D01*
X0233787D02*
X0239693D01*
Y0120100D02*
Y0125900D01*
X0233787Y0120100D02*
X0239693D01*
X0231875Y0122875D02*
X0232625Y0122125D01*
X0231875Y0121375D02*
X0232625Y0122125D01*
X0231875Y0124375D02*
X0232625Y0125125D01*
X0231875Y0121375D02*
X0232625Y0120625D01*
X0247875Y0124375D02*
X0248625Y0123625D01*
X0247875Y0122875D02*
X0248625Y0123625D01*
X0241307Y0120100D02*
X0247213D01*
X0241307D02*
Y0125900D01*
X0247213D01*
X0249787D02*
X0255693D01*
Y0120100D02*
Y0125900D01*
X0249787Y0120100D02*
X0255693D01*
X0247875Y0122875D02*
X0248625Y0122125D01*
X0247875Y0121375D02*
X0248625Y0122125D01*
X0247875Y0124375D02*
X0248625Y0125125D01*
X0247875Y0121375D02*
X0248625Y0120625D01*
X0275625Y0119875D02*
X0276375Y0120625D01*
X0271875D02*
X0272625Y0119875D01*
X0274875Y0120625D02*
X0275625Y0119875D01*
X0274125D02*
X0274875Y0120625D01*
X0276900Y0121787D02*
Y0127693D01*
X0271100D02*
X0276900D01*
X0271100Y0121787D02*
Y0127693D01*
Y0113307D02*
Y0119213D01*
Y0113307D02*
X0276900D01*
Y0119213D01*
X0273375Y0120625D02*
X0274125Y0119875D01*
X0272625D02*
X0273375Y0120625D01*
X0286625Y0119875D02*
X0287375Y0120625D01*
X0282875D02*
X0283625Y0119875D01*
X0285875Y0120625D02*
X0286625Y0119875D01*
X0285125D02*
X0285875Y0120625D01*
X0287900Y0121787D02*
Y0127693D01*
X0282100D02*
X0287900D01*
X0282100Y0121787D02*
Y0127693D01*
Y0113307D02*
Y0119213D01*
Y0113307D02*
X0287900D01*
Y0119213D01*
X0284375Y0120625D02*
X0285125Y0119875D01*
X0283625D02*
X0284375Y0120625D01*
X0080375Y0083375D02*
X0081125Y0082625D01*
X0080375Y0086375D02*
X0081125Y0087125D01*
X0080375Y0083375D02*
X0081125Y0084125D01*
X0080375Y0084875D02*
X0081125Y0084125D01*
X0082287Y0082100D02*
X0088193D01*
Y0087900D01*
X0082287D02*
X0088193D01*
X0073807D02*
X0079713D01*
X0073807Y0082100D02*
Y0087900D01*
Y0082100D02*
X0079713D01*
X0080375Y0084875D02*
X0081125Y0085625D01*
X0080375Y0086375D02*
X0081125Y0085625D01*
X0071625Y0055375D02*
X0072375Y0056125D01*
X0067875D02*
X0068625Y0055375D01*
X0070875Y0056125D02*
X0071625Y0055375D01*
X0070125D02*
X0070875Y0056125D01*
X0072900Y0057287D02*
Y0063193D01*
X0067100D02*
X0072900D01*
X0067100Y0057287D02*
Y0063193D01*
Y0048807D02*
Y0054713D01*
Y0048807D02*
X0072900D01*
Y0054713D01*
X0069375Y0056125D02*
X0070125Y0055375D01*
X0068625D02*
X0069375Y0056125D01*
X0080875Y0075875D02*
X0081625Y0075125D01*
X0080875Y0071375D02*
X0081625Y0072125D01*
X0080875Y0074375D02*
X0081625Y0075125D01*
X0080875Y0074375D02*
X0081625Y0073625D01*
X0073807Y0076400D02*
X0079713D01*
X0073807Y0070600D02*
Y0076400D01*
Y0070600D02*
X0079713D01*
X0082287D02*
X0088193D01*
Y0076400D01*
X0082287D02*
X0088193D01*
X0080875Y0072875D02*
X0081625Y0073625D01*
X0080875Y0072875D02*
X0081625Y0072125D01*
X0284600Y0040750D02*
X0290400D01*
Y0047213D01*
X0287500Y0048500D02*
Y0049250D01*
X0286750Y0048500D02*
X0288250D01*
X0286750Y0047500D02*
X0288250D01*
X0284600Y0040750D02*
Y0047213D01*
X0290400Y0048787D02*
Y0055000D01*
X0284600Y0048787D02*
Y0055000D01*
X0290400D01*
X0287500Y0046750D02*
Y0047500D01*
X0234600Y0040750D02*
X0240400D01*
Y0047213D01*
X0237500Y0048500D02*
Y0049250D01*
X0236750Y0048500D02*
X0238250D01*
X0236750Y0047500D02*
X0238250D01*
X0234600Y0040750D02*
Y0047213D01*
X0240400Y0048787D02*
Y0055000D01*
X0234600Y0048787D02*
Y0055000D01*
X0240400D01*
X0237500Y0046750D02*
Y0047500D01*
X0244600Y0040750D02*
X0250400D01*
Y0047213D01*
X0247500Y0048500D02*
Y0049250D01*
X0246750Y0048500D02*
X0248250D01*
X0246750Y0047500D02*
X0248250D01*
X0244600Y0040750D02*
Y0047213D01*
X0250400Y0048787D02*
Y0055000D01*
X0244600Y0048787D02*
Y0055000D01*
X0250400D01*
X0247500Y0046750D02*
Y0047500D01*
X0193750Y0057000D02*
Y0063713D01*
Y0077250D02*
X0201250D01*
Y0070287D02*
Y0077250D01*
X0193750Y0070287D02*
Y0077250D01*
Y0057000D02*
X0201250D01*
Y0063713D01*
X0194600Y0040750D02*
X0200400D01*
Y0047213D01*
X0197500Y0048500D02*
Y0049250D01*
X0196750Y0048500D02*
X0198250D01*
X0196750Y0047500D02*
X0198250D01*
X0194600Y0040750D02*
Y0047213D01*
X0200400Y0048787D02*
Y0055000D01*
X0194600Y0048787D02*
Y0055000D01*
X0200400D01*
X0197500Y0046750D02*
Y0047500D01*
X0173125Y0035875D02*
X0173875Y0036625D01*
X0176875D02*
X0177625Y0035875D01*
X0173875Y0036625D02*
X0174625Y0035875D01*
X0175375Y0036625D01*
X0172600Y0028807D02*
Y0034713D01*
Y0028807D02*
X0178400D01*
Y0034713D01*
Y0037287D02*
Y0043193D01*
X0172600D02*
X0178400D01*
X0172600Y0037287D02*
Y0043193D01*
X0175375Y0036625D02*
X0176125Y0035875D01*
X0176875Y0036625D01*
X0180625Y0035875D02*
X0181375Y0036625D01*
X0184375D02*
X0185125Y0035875D01*
X0181375Y0036625D02*
X0182125Y0035875D01*
X0182875Y0036625D01*
X0180100Y0028807D02*
Y0034713D01*
Y0028807D02*
X0185900D01*
Y0034713D01*
Y0037287D02*
Y0043193D01*
X0180100D02*
X0185900D01*
X0180100Y0037287D02*
Y0043193D01*
X0182875Y0036625D02*
X0183625Y0035875D01*
X0184375Y0036625D01*
X0159250Y0078600D02*
Y0084400D01*
X0152787D02*
X0159250D01*
X0150750Y0081500D02*
X0151500D01*
Y0080750D02*
Y0082250D01*
X0152500Y0080750D02*
Y0082250D01*
X0152787Y0078600D02*
X0159250D01*
X0145000Y0084400D02*
X0151213D01*
X0145000Y0078600D02*
X0151213D01*
X0145000D02*
Y0084400D01*
X0152500Y0081500D02*
X0153250D01*
X0133600Y0066750D02*
X0139400D01*
X0133600Y0060287D02*
Y0066750D01*
X0136500Y0058250D02*
Y0059000D01*
X0135750D02*
X0137250D01*
X0135750Y0060000D02*
X0137250D01*
X0139400Y0060287D02*
Y0066750D01*
X0133600Y0052500D02*
Y0058713D01*
X0139400Y0052500D02*
Y0058713D01*
X0133600Y0052500D02*
X0139400D01*
X0136500Y0060000D02*
Y0060750D01*
X0124750Y0049500D02*
Y0056213D01*
Y0069750D02*
X0132250D01*
Y0062787D02*
Y0069750D01*
X0124750Y0062787D02*
Y0069750D01*
Y0049500D02*
X0132250D01*
Y0056213D01*
X0108125Y0055875D02*
X0108875Y0056625D01*
X0111875D02*
X0112625Y0055875D01*
X0108875Y0056625D02*
X0109625Y0055875D01*
X0110375Y0056625D01*
X0107600Y0048807D02*
Y0054713D01*
Y0048807D02*
X0113400D01*
Y0054713D01*
Y0057287D02*
Y0063193D01*
X0107600D02*
X0113400D01*
X0107600Y0057287D02*
Y0063193D01*
X0110375Y0056625D02*
X0111125Y0055875D01*
X0111875Y0056625D01*
X0121125Y0055375D02*
X0121875Y0056125D01*
X0117375D02*
X0118125Y0055375D01*
X0120375Y0056125D02*
X0121125Y0055375D01*
X0119625D02*
X0120375Y0056125D01*
X0122400Y0057287D02*
Y0063193D01*
X0116600D02*
X0122400D01*
X0116600Y0057287D02*
Y0063193D01*
Y0048807D02*
Y0054713D01*
Y0048807D02*
X0122400D01*
Y0054713D01*
X0118875Y0056125D02*
X0119625Y0055375D01*
X0118125D02*
X0118875Y0056125D01*
X0091125Y0124375D02*
X0091875Y0125125D01*
X0092625Y0124375D01*
X0095400Y0117807D02*
Y0123713D01*
X0089600Y0117807D02*
X0095400D01*
X0089600D02*
Y0123713D01*
Y0126287D02*
Y0132193D01*
X0095400D01*
Y0126287D02*
Y0132193D01*
X0092625Y0124375D02*
X0093375Y0125125D01*
X0094125Y0124375D01*
X0090375Y0125125D02*
X0091125Y0124375D01*
X0094125D02*
X0094875Y0125125D01*
X0100000Y0123750D02*
Y0124500D01*
X0097100Y0132000D02*
X0102900D01*
X0097100Y0125787D02*
Y0132000D01*
X0102900Y0125787D02*
Y0132000D01*
X0097100Y0117750D02*
Y0124213D01*
X0099250Y0124500D02*
X0100750D01*
X0099250Y0125500D02*
X0100750D01*
X0100000D02*
Y0126250D01*
X0102900Y0117750D02*
Y0124213D01*
X0097100Y0117750D02*
X0102900D01*
X0119875Y0128375D02*
X0120625Y0127625D01*
X0119875Y0126875D02*
X0120625Y0127625D01*
X0113307Y0124100D02*
X0119213D01*
X0113307D02*
Y0129900D01*
X0119213D01*
X0121787D02*
X0127693D01*
Y0124100D02*
Y0129900D01*
X0121787Y0124100D02*
X0127693D01*
X0119875Y0126875D02*
X0120625Y0126125D01*
X0119875Y0125375D02*
X0120625Y0126125D01*
X0119875Y0128375D02*
X0120625Y0129125D01*
X0119875Y0125375D02*
X0120625Y0124625D01*
X0120375Y0118375D02*
X0121125Y0117625D01*
X0120375Y0118375D02*
X0121125Y0119125D01*
X0121787Y0121900D02*
X0127693D01*
Y0116100D02*
Y0121900D01*
X0121787Y0116100D02*
X0127693D01*
X0113307D02*
X0119213D01*
X0113307D02*
Y0121900D01*
X0119213D01*
X0120375Y0119875D02*
X0121125Y0119125D01*
X0120375Y0119875D02*
X0121125Y0120625D01*
X0120375Y0116875D02*
X0121125Y0117625D01*
X0120375Y0121375D02*
X0121125Y0120625D01*
X0119875Y0112875D02*
X0120625Y0112125D01*
X0119875Y0111375D02*
X0120625Y0112125D01*
X0113307Y0108600D02*
X0119213D01*
X0113307D02*
Y0114400D01*
X0119213D01*
X0121787D02*
X0127693D01*
Y0108600D02*
Y0114400D01*
X0121787Y0108600D02*
X0127693D01*
X0119875Y0111375D02*
X0120625Y0110625D01*
X0119875Y0109875D02*
X0120625Y0110625D01*
X0119875Y0112875D02*
X0120625Y0113625D01*
X0119875Y0109875D02*
X0120625Y0109125D01*
X0119250Y0104000D02*
X0120000D01*
X0127500Y0101100D02*
Y0106900D01*
X0121287D02*
X0127500D01*
X0121287Y0101100D02*
X0127500D01*
X0113250Y0106900D02*
X0119713D01*
X0120000Y0103250D02*
Y0104750D01*
X0121000Y0103250D02*
Y0104750D01*
Y0104000D02*
X0121750D01*
X0113250Y0101100D02*
X0119713D01*
X0113250D02*
Y0106900D01*
X0159875Y0161875D02*
X0160625Y0161125D01*
X0159875Y0161875D02*
X0160625Y0162625D01*
X0161287Y0165400D02*
X0167193D01*
Y0159600D02*
Y0165400D01*
X0161287Y0159600D02*
X0167193D01*
X0152807D02*
X0158713D01*
X0152807D02*
Y0165400D01*
X0158713D01*
X0159875Y0163375D02*
X0160625Y0162625D01*
X0159875Y0163375D02*
X0160625Y0164125D01*
X0159875Y0160375D02*
X0160625Y0161125D01*
X0159875Y0164875D02*
X0160625Y0164125D01*
X0165375Y0154375D02*
X0166125Y0153625D01*
X0165375Y0154375D02*
X0166125Y0155125D01*
X0166787Y0157900D02*
X0172693D01*
Y0152100D02*
Y0157900D01*
X0166787Y0152100D02*
X0172693D01*
X0158307D02*
X0164213D01*
X0158307D02*
Y0157900D01*
X0164213D01*
X0165375Y0155875D02*
X0166125Y0155125D01*
X0165375Y0155875D02*
X0166125Y0156625D01*
X0165375Y0152875D02*
X0166125Y0153625D01*
X0165375Y0157375D02*
X0166125Y0156625D01*
X0167375Y0146875D02*
X0168125Y0146125D01*
X0167375Y0146875D02*
X0168125Y0147625D01*
X0168787Y0150400D02*
X0174693D01*
Y0144600D02*
Y0150400D01*
X0168787Y0144600D02*
X0174693D01*
X0160307D02*
X0166213D01*
X0160307D02*
Y0150400D01*
X0166213D01*
X0167375Y0148375D02*
X0168125Y0147625D01*
X0167375Y0148375D02*
X0168125Y0149125D01*
X0167375Y0145375D02*
X0168125Y0146125D01*
X0167375Y0149875D02*
X0168125Y0149125D01*
X0169375Y0133375D02*
X0170125Y0132625D01*
X0169375Y0133375D02*
X0170125Y0134125D01*
X0170787Y0136900D02*
X0176693D01*
Y0131100D02*
Y0136900D01*
X0170787Y0131100D02*
X0176693D01*
X0162307D02*
X0168213D01*
X0162307D02*
Y0136900D01*
X0168213D01*
X0169375Y0134875D02*
X0170125Y0134125D01*
X0169375Y0134875D02*
X0170125Y0135625D01*
X0169375Y0131875D02*
X0170125Y0132625D01*
X0169375Y0136375D02*
X0170125Y0135625D01*
X0215000Y0161000D02*
Y0161750D01*
X0212100Y0153500D02*
X0217900D01*
Y0159713D01*
X0212100Y0153500D02*
Y0159713D01*
X0217900Y0161287D02*
Y0167750D01*
X0214250Y0161000D02*
X0215750D01*
X0214250Y0160000D02*
X0215750D01*
X0215000Y0159250D02*
Y0160000D01*
X0212100Y0161287D02*
Y0167750D01*
X0217900D01*
X0207500Y0161000D02*
Y0161750D01*
X0204600Y0153500D02*
X0210400D01*
Y0159713D01*
X0204600Y0153500D02*
Y0159713D01*
X0210400Y0161287D02*
Y0167750D01*
X0206750Y0161000D02*
X0208250D01*
X0206750Y0160000D02*
X0208250D01*
X0207500Y0159250D02*
Y0160000D01*
X0204600Y0161287D02*
Y0167750D01*
X0210400D01*
X0177375Y0175375D02*
X0178125Y0174625D01*
X0177375Y0173875D02*
X0178125Y0174625D01*
X0170807Y0171100D02*
X0176713D01*
X0170807D02*
Y0176900D01*
X0176713D01*
X0179287D02*
X0185193D01*
Y0171100D02*
Y0176900D01*
X0179287Y0171100D02*
X0185193D01*
X0177375Y0173875D02*
X0178125Y0173125D01*
X0177375Y0172375D02*
X0178125Y0173125D01*
X0177375Y0175375D02*
X0178125Y0176125D01*
X0177375Y0172375D02*
X0178125Y0171625D01*
X0177375Y0182375D02*
X0178125Y0181625D01*
X0177375Y0180875D02*
X0178125Y0181625D01*
X0170807Y0178100D02*
X0176713D01*
X0170807D02*
Y0183900D01*
X0176713D01*
X0179287D02*
X0185193D01*
Y0178100D02*
Y0183900D01*
X0179287Y0178100D02*
X0185193D01*
X0177375Y0180875D02*
X0178125Y0180125D01*
X0177375Y0179375D02*
X0178125Y0180125D01*
X0177375Y0182375D02*
X0178125Y0183125D01*
X0177375Y0179375D02*
X0178125Y0178625D01*
X0190000Y0178000D02*
Y0178750D01*
X0187100Y0170500D02*
X0192900D01*
Y0176713D01*
X0187100Y0170500D02*
Y0176713D01*
X0192900Y0178287D02*
Y0184750D01*
X0189250Y0178000D02*
X0190750D01*
X0189250Y0177000D02*
X0190750D01*
X0190000Y0176250D02*
Y0177000D01*
X0187100Y0178287D02*
Y0184750D01*
X0192900D01*
X0198375Y0198375D02*
X0199125Y0197625D01*
X0198375Y0196875D02*
X0199125Y0197625D01*
X0191807Y0194100D02*
X0197713D01*
X0191807D02*
Y0199900D01*
X0197713D01*
X0200287D02*
X0206193D01*
Y0194100D02*
Y0199900D01*
X0200287Y0194100D02*
X0206193D01*
X0198375Y0196875D02*
X0199125Y0196125D01*
X0198375Y0195375D02*
X0199125Y0196125D01*
X0198375Y0198375D02*
X0199125Y0199125D01*
X0198375Y0195375D02*
X0199125Y0194625D01*
X0198375Y0208375D02*
X0199125Y0207625D01*
X0198375Y0206875D02*
X0199125Y0207625D01*
X0191807Y0204100D02*
X0197713D01*
X0191807D02*
Y0209900D01*
X0197713D01*
X0200287D02*
X0206193D01*
Y0204100D02*
Y0209900D01*
X0200287Y0204100D02*
X0206193D01*
X0198375Y0206875D02*
X0199125Y0206125D01*
X0198375Y0205375D02*
X0199125Y0206125D01*
X0198375Y0208375D02*
X0199125Y0209125D01*
X0198375Y0205375D02*
X0199125Y0204625D01*
X0178500Y0106807D02*
Y0107557D01*
X0175600Y0115057D02*
X0181400D01*
X0175600Y0108844D02*
Y0115057D01*
X0181400Y0108844D02*
Y0115057D01*
X0175600Y0100807D02*
Y0107270D01*
X0177750Y0107557D02*
X0179250D01*
X0177750Y0108557D02*
X0179250D01*
X0178500D02*
Y0109307D01*
X0181400Y0100807D02*
Y0107270D01*
X0175600Y0100807D02*
X0181400D01*
X0169500Y0219250D02*
Y0220000D01*
X0166600Y0227500D02*
X0172400D01*
X0166600Y0221287D02*
Y0227500D01*
X0172400Y0221287D02*
Y0227500D01*
X0166600Y0213250D02*
Y0219713D01*
X0168750Y0220000D02*
X0170250D01*
X0168750Y0221000D02*
X0170250D01*
X0169500D02*
Y0221750D01*
X0172400Y0213250D02*
Y0219713D01*
X0166600Y0213250D02*
X0172400D01*
X0157625Y0108375D02*
X0158375Y0109125D01*
X0156875D02*
X0157625Y0108375D01*
X0154100Y0109787D02*
Y0115693D01*
X0159900D01*
Y0109787D02*
Y0115693D01*
Y0101307D02*
Y0107213D01*
X0154100Y0101307D02*
X0159900D01*
X0154100D02*
Y0107213D01*
X0156125Y0108375D02*
X0156875Y0109125D01*
X0155375D02*
X0156125Y0108375D01*
X0158375Y0109125D02*
X0159125Y0108375D01*
X0154625D02*
X0155375Y0109125D01*
X0150625Y0108375D02*
X0151375Y0109125D01*
X0149875D02*
X0150625Y0108375D01*
X0147100Y0109787D02*
Y0115693D01*
X0152900D01*
Y0109787D02*
Y0115693D01*
Y0101307D02*
Y0107213D01*
X0147100Y0101307D02*
X0152900D01*
X0147100D02*
Y0107213D01*
X0149125Y0108375D02*
X0149875Y0109125D01*
X0148375D02*
X0149125Y0108375D01*
X0151375Y0109125D02*
X0152125Y0108375D01*
X0147625D02*
X0148375Y0109125D01*
X0143625Y0108375D02*
X0144375Y0109125D01*
X0142875D02*
X0143625Y0108375D01*
X0140100Y0109787D02*
Y0115693D01*
X0145900D01*
Y0109787D02*
Y0115693D01*
Y0101307D02*
Y0107213D01*
X0140100Y0101307D02*
X0145900D01*
X0140100D02*
Y0107213D01*
X0142125Y0108375D02*
X0142875Y0109125D01*
X0141375D02*
X0142125Y0108375D01*
X0144375Y0109125D02*
X0145125Y0108375D01*
X0140625D02*
X0141375Y0109125D01*
X0071625Y0124375D02*
X0072375Y0125125D01*
X0073125Y0124375D01*
X0075900Y0117807D02*
Y0123713D01*
X0070100Y0117807D02*
X0075900D01*
X0070100D02*
Y0123713D01*
Y0126287D02*
Y0132193D01*
X0075900D01*
Y0126287D02*
Y0132193D01*
X0073125Y0124375D02*
X0073875Y0125125D01*
X0074625Y0124375D01*
X0070875Y0125125D02*
X0071625Y0124375D01*
X0074625D02*
X0075375Y0125125D01*
X0080500Y0123750D02*
Y0124500D01*
X0077600Y0132000D02*
X0083400D01*
X0077600Y0125787D02*
Y0132000D01*
X0083400Y0125787D02*
Y0132000D01*
X0077600Y0117750D02*
Y0124213D01*
X0079750Y0124500D02*
X0081250D01*
X0079750Y0125500D02*
X0081250D01*
X0080500D02*
Y0126250D01*
X0083400Y0117750D02*
Y0124213D01*
X0077600Y0117750D02*
X0083400D01*
X0291250Y0057000D02*
Y0063713D01*
X0283750Y0057000D02*
X0291250D01*
X0283750Y0070287D02*
Y0077250D01*
X0291250Y0070287D02*
Y0077250D01*
X0283750D02*
X0291250D01*
X0283750Y0057000D02*
Y0063713D01*
X0251250Y0057000D02*
Y0063713D01*
X0243750Y0057000D02*
X0251250D01*
X0243750Y0070287D02*
Y0077250D01*
X0251250Y0070287D02*
Y0077250D01*
X0243750D02*
X0251250D01*
X0243750Y0057000D02*
Y0063713D01*
X0241250Y0057000D02*
Y0063713D01*
X0233750Y0057000D02*
X0241250D01*
X0233750Y0070287D02*
Y0077250D01*
X0241250Y0070287D02*
Y0077250D01*
X0233750D02*
X0241250D01*
X0233750Y0057000D02*
Y0063713D01*
X0148625Y0035875D02*
X0149375Y0036625D01*
X0147875D02*
X0148625Y0035875D01*
X0145100Y0037287D02*
Y0043193D01*
X0150900D01*
Y0037287D02*
Y0043193D01*
Y0028807D02*
Y0034713D01*
X0145100Y0028807D02*
X0150900D01*
X0145100D02*
Y0034713D01*
X0147125Y0035875D02*
X0147875Y0036625D01*
X0146375D02*
X0147125Y0035875D01*
X0149375Y0036625D02*
X0150125Y0035875D01*
X0145625D02*
X0146375Y0036625D01*
X0156125Y0035875D02*
X0156875Y0036625D01*
X0155375D02*
X0156125Y0035875D01*
X0152600Y0037287D02*
Y0043193D01*
X0158400D01*
Y0037287D02*
Y0043193D01*
Y0028807D02*
Y0034713D01*
X0152600Y0028807D02*
X0158400D01*
X0152600D02*
Y0034713D01*
X0154625Y0035875D02*
X0155375Y0036625D01*
X0153875D02*
X0154625Y0035875D01*
X0156875Y0036625D02*
X0157625Y0035875D01*
X0153125D02*
X0153875Y0036625D01*
D15*
X0095124Y0063606D02*
G03*
X0095124Y0063606I-0000557J0000000D01*
G01*
X0170256Y0057802D02*
G03*
X0170256Y0063379I0000000J0002789D01*
G01*
X0174155Y0065591D02*
G03*
X0174155Y0065591I-0000557J0000000D01*
G01*
X0142858Y0057802D02*
G03*
X0142858Y0063379I0000000J0002789D01*
G01*
X0146758Y0065591D02*
G03*
X0146758Y0065591I-0000557J0000000D01*
G01*
X0170098Y0068090D02*
X0188098D01*
Y0053091D02*
Y0068090D01*
X0170098Y0063379D02*
Y0068090D01*
X0170256Y0053091D02*
X0188098D01*
X0170256D02*
Y0057802D01*
X0242750Y0130760D02*
Y0138240D01*
X0246441D01*
X0255250Y0130760D02*
Y0138240D01*
X0251559D02*
X0255250D01*
X0142701Y0068090D02*
X0160701D01*
Y0053091D02*
Y0068090D01*
X0142701Y0063379D02*
Y0068090D01*
X0142858Y0053091D02*
X0160701D01*
X0142858D02*
Y0057802D01*
X0114750Y0136547D02*
Y0144028D01*
X0118441D01*
X0127250Y0136547D02*
Y0144028D01*
X0123559D02*
X0127250D01*
X0172329Y0189126D02*
Y0196606D01*
X0176020D01*
X0184829Y0189126D02*
Y0196606D01*
X0181138D02*
X0184829D01*
X0353227Y0263693D02*
X0353227Y0278893D01*
X0353227Y0298574D02*
X0353228Y0289193D01*
X0348209Y0303593D02*
X0353227Y0298574D01*
X0333646Y0303593D02*
X0348209Y0303593D01*
X0328728Y0298674D02*
X0333646Y0303593D01*
X0328728Y0298674D02*
X0328728Y0289193D01*
X0328728Y0267693D02*
Y0278893D01*
X0333228Y0263693D02*
X0353227Y0263693D01*
X0247228Y0307193D02*
X0247228Y0322393D01*
X0247228Y0342074D02*
X0247228Y0332693D01*
X0242209Y0347093D02*
X0247228Y0342074D01*
X0227646Y0347093D02*
X0242209Y0347093D01*
X0222727Y0342174D02*
X0227646Y0347093D01*
X0222727Y0342174D02*
X0222728Y0332693D01*
X0222728Y0311193D02*
Y0322393D01*
X0227228Y0307193D02*
X0247228Y0307193D01*
X0193881Y0313193D02*
X0193881Y0328393D01*
X0193881Y0348074D02*
X0193881Y0338693D01*
X0188862Y0353093D02*
X0193881Y0348074D01*
X0174300Y0353093D02*
X0188862Y0353093D01*
X0169381Y0348174D02*
X0174300Y0353093D01*
X0169381Y0348174D02*
X0169381Y0338693D01*
X0169381Y0317193D02*
Y0328393D01*
X0173881Y0313193D02*
X0193881Y0313193D01*
X0140727Y0309193D02*
X0140727Y0324393D01*
X0140727Y0344074D02*
X0140728Y0334693D01*
X0135709Y0349093D02*
X0140727Y0344074D01*
X0121147Y0349093D02*
X0135709Y0349093D01*
X0116227Y0344174D02*
X0121147Y0349093D01*
X0116227Y0344174D02*
X0116228Y0334693D01*
X0116227Y0313193D02*
Y0324393D01*
X0120728Y0309193D02*
X0140727Y0309193D01*
X0087727Y0293693D02*
X0087727Y0308893D01*
X0087727Y0328574D02*
X0087728Y0319193D01*
X0082709Y0333593D02*
X0087727Y0328574D01*
X0068147Y0333593D02*
X0082709Y0333593D01*
X0063227Y0328674D02*
X0068147Y0333593D01*
X0063227Y0328674D02*
X0063228Y0319193D01*
X0063227Y0297693D02*
Y0308893D01*
X0067728Y0293693D02*
X0087727Y0293693D01*
X0034381Y0263693D02*
X0034381Y0278893D01*
X0034381Y0298574D02*
X0034381Y0289193D01*
X0029362Y0303593D02*
X0034381Y0298574D01*
X0014800Y0303593D02*
X0029362Y0303593D01*
X0009881Y0298674D02*
X0014800Y0303593D01*
X0009881Y0298674D02*
X0009881Y0289193D01*
X0009881Y0267693D02*
Y0278893D01*
X0014381Y0263693D02*
X0034381Y0263693D01*
X0300227Y0291693D02*
X0300227Y0306893D01*
X0300227Y0326574D02*
X0300228Y0317193D01*
X0295209Y0331593D02*
X0300227Y0326574D01*
X0280646Y0331593D02*
X0295209Y0331593D01*
X0275728Y0326674D02*
X0280646Y0331593D01*
X0275728Y0326674D02*
X0275728Y0317193D01*
X0275728Y0295693D02*
Y0306893D01*
X0280228Y0291693D02*
X0300227Y0291693D01*
X0291000Y0028000D02*
Y0023671D01*
X0288835D01*
X0288114Y0024392D01*
Y0025114D01*
X0288835Y0025835D01*
X0291000D01*
X0288835D01*
X0288114Y0026557D01*
Y0027278D01*
X0288835Y0028000D01*
X0291000D01*
X0283785Y0027278D02*
X0284506Y0028000D01*
X0285949D01*
X0286671Y0027278D01*
Y0024392D01*
X0285949Y0023671D01*
X0284506D01*
X0283785Y0024392D01*
X0282341Y0028000D02*
Y0023671D01*
Y0025835D01*
X0279455D01*
Y0028000D01*
Y0023671D01*
X0273683Y0028000D02*
Y0023671D01*
X0271518D01*
X0270796Y0024392D01*
Y0025114D01*
X0271518Y0025835D01*
X0273683D01*
X0271518D01*
X0270796Y0026557D01*
Y0027278D01*
X0271518Y0028000D01*
X0273683D01*
X0269354D02*
Y0023671D01*
X0267189D01*
X0266467Y0024392D01*
Y0027278D01*
X0267189Y0028000D01*
X0269354D01*
X0265024D02*
Y0023671D01*
X0262860D01*
X0262138Y0024392D01*
Y0025114D01*
X0262860Y0025835D01*
X0265024D01*
X0262860D01*
X0262138Y0026557D01*
Y0027278D01*
X0262860Y0028000D01*
X0265024D01*
X0260695Y0023671D02*
Y0028000D01*
X0258530D01*
X0257809Y0027278D01*
Y0025835D01*
X0258530Y0025114D01*
X0260695D01*
X0295500Y0018500D02*
Y0014171D01*
X0293335D01*
X0292614Y0014892D01*
Y0015614D01*
X0293335Y0016335D01*
X0295500D01*
X0293335D01*
X0292614Y0017057D01*
Y0017778D01*
X0293335Y0018500D01*
X0295500D01*
X0291171Y0014171D02*
X0289728D01*
X0290449D01*
Y0017057D01*
X0291171D01*
X0287563Y0014171D02*
Y0017057D01*
X0285398D01*
X0284677Y0016335D01*
Y0014171D01*
X0283234Y0018500D02*
Y0014171D01*
Y0016335D01*
X0282512Y0017057D01*
X0281069D01*
X0280347Y0016335D01*
Y0014171D01*
X0274575Y0018500D02*
X0271689D01*
X0273132D01*
Y0014171D01*
X0270246Y0018500D02*
Y0014171D01*
Y0016335D01*
X0269524Y0017057D01*
X0268081D01*
X0267359Y0016335D01*
Y0014171D01*
X0265916Y0017057D02*
Y0014892D01*
X0265195Y0014171D01*
X0263030D01*
Y0017057D01*
X0260865D02*
X0259422D01*
X0258701Y0016335D01*
Y0014171D01*
X0260865D01*
X0261587Y0014892D01*
X0260865Y0015614D01*
X0258701D01*
X0257258Y0014171D02*
Y0017057D01*
X0255093D01*
X0254372Y0016335D01*
Y0014171D01*
X0231114Y0019171D02*
X0234000D01*
X0231114Y0022057D01*
Y0022779D01*
X0231835Y0023500D01*
X0233278D01*
X0234000Y0022779D01*
X0229671D02*
X0228949Y0023500D01*
X0227506D01*
X0226784Y0022779D01*
Y0019892D01*
X0227506Y0019171D01*
X0228949D01*
X0229671Y0019892D01*
Y0022779D01*
X0222455Y0019171D02*
X0225341D01*
X0222455Y0022057D01*
Y0022779D01*
X0223177Y0023500D01*
X0224620D01*
X0225341Y0022779D01*
X0218126Y0023500D02*
X0221012D01*
Y0021335D01*
X0219569Y0022057D01*
X0218847D01*
X0218126Y0021335D01*
Y0019892D01*
X0218847Y0019171D01*
X0220290D01*
X0221012Y0019892D01*
D115*
X0087448Y0065181D02*
G03*
X0093025Y0065181I0002789J0000000D01*
G01*
X0083937Y0065342D02*
X0087448D01*
X0083937Y0047500D02*
X0096055D01*
Y0065181D01*
X0083937Y0047500D02*
Y0065342D01*
X0093025Y0065181D02*
X0096055D01*
M02*
