G04*
G04 #@! TF.GenerationSoftware,Altium Limited,Altium Designer,23.1.1 (15)*
G04*
G04 Layer_Physical_Order=1*
G04 Layer_Color=255*
%FSAX25Y25*%
%MOIN*%
G70*
G04*
G04 #@! TF.SameCoordinates,B82E7E18-3205-491C-BA0E-7F24CF85224E*
G04*
G04*
G04 #@! TF.FilePolarity,Positive*
G04*
G01*
G75*
%ADD15C,0.01000*%
%ADD18C,0.02000*%
G04:AMPARAMS|DCode=23|XSize=39.37mil|YSize=47.24mil|CornerRadius=9.84mil|HoleSize=0mil|Usage=FLASHONLY|Rotation=270.000|XOffset=0mil|YOffset=0mil|HoleType=Round|Shape=RoundedRectangle|*
%AMROUNDEDRECTD23*
21,1,0.03937,0.02756,0,0,270.0*
21,1,0.01968,0.04724,0,0,270.0*
1,1,0.01968,-0.01378,-0.00984*
1,1,0.01968,-0.01378,0.00984*
1,1,0.01968,0.01378,0.00984*
1,1,0.01968,0.01378,-0.00984*
%
%ADD23ROUNDEDRECTD23*%
%ADD24R,0.04724X0.03937*%
G04:AMPARAMS|DCode=25|XSize=39.37mil|YSize=47.24mil|CornerRadius=9.84mil|HoleSize=0mil|Usage=FLASHONLY|Rotation=0.000|XOffset=0mil|YOffset=0mil|HoleType=Round|Shape=RoundedRectangle|*
%AMROUNDEDRECTD25*
21,1,0.03937,0.02756,0,0,0.0*
21,1,0.01968,0.04724,0,0,0.0*
1,1,0.01968,0.00984,-0.01378*
1,1,0.01968,-0.00984,-0.01378*
1,1,0.01968,-0.00984,0.01378*
1,1,0.01968,0.00984,0.01378*
%
%ADD25ROUNDEDRECTD25*%
%ADD26R,0.03937X0.04724*%
G04:AMPARAMS|DCode=27|XSize=51.18mil|YSize=39.37mil|CornerRadius=0mil|HoleSize=0mil|Usage=FLASHONLY|Rotation=102.000|XOffset=0mil|YOffset=0mil|HoleType=Round|Shape=Rectangle|*
%AMROTATEDRECTD27*
4,1,4,0.02458,-0.02094,-0.01393,-0.02912,-0.02458,0.02094,0.01393,0.02912,0.02458,-0.02094,0.0*
%
%ADD27ROTATEDRECTD27*%

%ADD28O,0.01181X0.07087*%
%ADD29O,0.07087X0.01181*%
G04:AMPARAMS|DCode=30|XSize=39.37mil|YSize=47.24mil|CornerRadius=0mil|HoleSize=0mil|Usage=FLASHONLY|Rotation=282.000|XOffset=0mil|YOffset=0mil|HoleType=Round|Shape=Rectangle|*
%AMROTATEDRECTD30*
4,1,4,-0.02720,0.01434,0.01901,0.02417,0.02720,-0.01434,-0.01901,-0.02417,-0.02720,0.01434,0.0*
%
%ADD30ROTATEDRECTD30*%

G04:AMPARAMS|DCode=31|XSize=39.37mil|YSize=47.24mil|CornerRadius=9.84mil|HoleSize=0mil|Usage=FLASHONLY|Rotation=282.000|XOffset=0mil|YOffset=0mil|HoleType=Round|Shape=RoundedRectangle|*
%AMROUNDEDRECTD31*
21,1,0.03937,0.02756,0,0,282.0*
21,1,0.01968,0.04724,0,0,282.0*
1,1,0.01968,-0.01143,-0.01249*
1,1,0.01968,-0.01553,0.00676*
1,1,0.01968,0.01143,0.01249*
1,1,0.01968,0.01553,-0.00676*
%
%ADD31ROUNDEDRECTD31*%
%ADD64C,0.03937*%
%ADD65C,0.01968*%
%ADD66C,0.05000*%
%ADD67C,0.06000*%
%ADD68C,0.06693*%
%ADD69C,0.07874*%
%ADD70C,0.03937*%
%ADD71R,0.07087X0.07087*%
%ADD72C,0.07087*%
%ADD73C,0.06299*%
G04:AMPARAMS|DCode=74|XSize=62.99mil|YSize=62.99mil|CornerRadius=0mil|HoleSize=0mil|Usage=FLASHONLY|Rotation=270.000|XOffset=0mil|YOffset=0mil|HoleType=Round|Shape=Octagon|*
%AMOCTAGOND74*
4,1,8,-0.01575,-0.03150,0.01575,-0.03150,0.03150,-0.01575,0.03150,0.01575,0.01575,0.03150,-0.01575,0.03150,-0.03150,0.01575,-0.03150,-0.01575,-0.01575,-0.03150,0.0*
%
%ADD74OCTAGOND74*%

%ADD75O,0.05000X0.10000*%
%ADD76C,0.05906*%
%ADD77O,0.07087X0.10000*%
G04:AMPARAMS|DCode=78|XSize=78.74mil|YSize=74.8mil|CornerRadius=0mil|HoleSize=0mil|Usage=FLASHONLY|Rotation=270.000|XOffset=0mil|YOffset=0mil|HoleType=Round|Shape=Octagon|*
%AMOCTAGOND78*
4,1,8,-0.01870,-0.03937,0.01870,-0.03937,0.03740,-0.02067,0.03740,0.02067,0.01870,0.03937,-0.01870,0.03937,-0.03740,0.02067,-0.03740,-0.02067,-0.01870,-0.03937,0.0*
%
%ADD78OCTAGOND78*%

%ADD79O,0.07480X0.07874*%
%ADD80C,0.09843*%
%ADD81C,0.01575*%
%ADD82C,0.01968*%
%ADD83O,0.03937X0.08661*%
%ADD84O,0.03937X0.07480*%
%ADD85O,0.07874X0.05906*%
%ADD86P,0.08352X4X57.0*%
%ADD87O,0.08661X0.07087*%
%ADD88C,0.02500*%
%ADD89C,0.20000*%
G36*
X0125119Y0355730D02*
X0094125Y0347169D01*
X0089687Y0345943D01*
X0076306Y0342248D01*
X0076123Y0342170D01*
X0075530Y0341990D01*
X0074792Y0341596D01*
X0074633Y0341526D01*
X0039601Y0320310D01*
X0039348Y0320107D01*
X0039091Y0319909D01*
X0034778Y0315596D01*
X0034348Y0315037D01*
X0034079Y0314386D01*
X0033987Y0313687D01*
Y0305429D01*
X0033977Y0305378D01*
Y0302622D01*
X0034108Y0301961D01*
X0034482Y0301401D01*
X0035042Y0301027D01*
X0035703Y0300896D01*
X0037671D01*
X0038332Y0301027D01*
X0038892Y0301401D01*
X0039266Y0301961D01*
X0039300Y0302131D01*
X0039800Y0302082D01*
Y0290739D01*
X0039527Y0290332D01*
X0039396Y0289671D01*
Y0287703D01*
X0039527Y0287042D01*
X0039902Y0286482D01*
X0040462Y0286108D01*
X0041122Y0285977D01*
X0043878D01*
X0044539Y0286108D01*
X0045099Y0286482D01*
X0045473Y0287042D01*
X0045604Y0287703D01*
Y0289671D01*
X0045473Y0290332D01*
X0045200Y0290739D01*
Y0316500D01*
X0045108Y0317199D01*
X0045064Y0317305D01*
X0077430Y0336907D01*
X0077433Y0336906D01*
X0077445Y0336885D01*
X0077750Y0337019D01*
X0077750Y0337019D01*
X0077767Y0337049D01*
X0087089Y0339623D01*
X0087487Y0339320D01*
Y0334929D01*
X0087477Y0334878D01*
Y0332122D01*
X0087608Y0331462D01*
X0087982Y0330902D01*
X0088542Y0330527D01*
X0089203Y0330396D01*
X0091171D01*
X0091832Y0330527D01*
X0092392Y0330902D01*
X0092766Y0331462D01*
X0092800Y0331631D01*
X0093300Y0331582D01*
Y0321239D01*
X0093027Y0320832D01*
X0092896Y0320171D01*
Y0318203D01*
X0093027Y0317542D01*
X0093401Y0316982D01*
X0093962Y0316608D01*
X0094622Y0316477D01*
X0097378D01*
X0098039Y0316608D01*
X0098598Y0316982D01*
X0098973Y0317542D01*
X0099104Y0318203D01*
Y0320171D01*
X0098973Y0320832D01*
X0098700Y0321239D01*
Y0342830D01*
X0129559Y0351353D01*
X0131285Y0351609D01*
X0131469Y0351131D01*
X0131421Y0351098D01*
X0131047Y0350538D01*
X0130916Y0349878D01*
Y0347122D01*
X0131047Y0346462D01*
X0131421Y0345901D01*
X0131981Y0345527D01*
X0132374Y0345449D01*
Y0343373D01*
X0132021Y0343279D01*
X0131097Y0342745D01*
X0130342Y0341990D01*
X0129808Y0341065D01*
X0129532Y0340034D01*
Y0338966D01*
X0129808Y0337935D01*
X0130342Y0337010D01*
X0131097Y0336255D01*
X0132021Y0335721D01*
X0133053Y0335445D01*
X0134121D01*
X0135152Y0335721D01*
X0136076Y0336255D01*
X0136831Y0337010D01*
X0137365Y0337935D01*
X0137642Y0338966D01*
Y0340034D01*
X0137365Y0341065D01*
X0136831Y0341990D01*
X0136076Y0342745D01*
X0135152Y0343279D01*
X0134839Y0343363D01*
Y0345441D01*
X0135271Y0345527D01*
X0135831Y0345901D01*
X0136205Y0346462D01*
X0136336Y0347122D01*
Y0349878D01*
X0136205Y0350538D01*
X0135831Y0351098D01*
X0135271Y0351473D01*
X0134610Y0351604D01*
X0134615Y0352102D01*
X0139921Y0352888D01*
X0140300Y0352562D01*
Y0349929D01*
X0140290Y0349878D01*
Y0347122D01*
X0140421Y0346462D01*
X0140795Y0345901D01*
X0141355Y0345527D01*
X0142016Y0345396D01*
X0143984D01*
X0144645Y0345527D01*
X0145205Y0345901D01*
X0145300Y0346044D01*
X0145800Y0345892D01*
Y0336239D01*
X0145527Y0335832D01*
X0145396Y0335171D01*
Y0333203D01*
X0145527Y0332542D01*
X0145902Y0331982D01*
X0146461Y0331608D01*
X0147122Y0331477D01*
X0149878D01*
X0150539Y0331608D01*
X0151099Y0331982D01*
X0151473Y0332542D01*
X0151604Y0333203D01*
Y0335171D01*
X0151473Y0335832D01*
X0151200Y0336239D01*
Y0354506D01*
X0151262Y0354568D01*
X0156199Y0355300D01*
X0158300D01*
Y0333646D01*
X0158392Y0332947D01*
X0158661Y0332296D01*
X0159091Y0331737D01*
X0161300Y0329528D01*
Y0323777D01*
X0161027Y0323369D01*
X0160896Y0322709D01*
Y0320740D01*
X0161027Y0320080D01*
X0161401Y0319520D01*
X0161961Y0319145D01*
X0162622Y0319014D01*
X0165378D01*
X0166039Y0319145D01*
X0166598Y0319520D01*
X0166973Y0320080D01*
X0167104Y0320740D01*
Y0322709D01*
X0166973Y0323369D01*
X0166700Y0323777D01*
Y0330023D01*
X0167200Y0330230D01*
X0167648Y0329783D01*
X0168707Y0329171D01*
X0169888Y0328854D01*
X0171112D01*
X0172293Y0329171D01*
X0173353Y0329783D01*
X0174217Y0330647D01*
X0174829Y0331707D01*
X0175146Y0332888D01*
Y0334112D01*
X0174829Y0335293D01*
X0174217Y0336352D01*
X0173353Y0337217D01*
X0172293Y0337829D01*
X0171112Y0338146D01*
X0169888D01*
X0168707Y0337829D01*
X0167648Y0337217D01*
X0166782Y0336352D01*
X0166171Y0335293D01*
X0165854Y0334112D01*
Y0333318D01*
X0165354Y0333111D01*
X0163700Y0334765D01*
Y0355300D01*
X0184258D01*
X0184409Y0354800D01*
X0184108Y0354598D01*
X0183734Y0354039D01*
X0183603Y0353378D01*
Y0350622D01*
X0183734Y0349961D01*
X0184108Y0349401D01*
X0184668Y0349027D01*
X0185294Y0348903D01*
Y0347311D01*
X0185175Y0347279D01*
X0184250Y0346745D01*
X0183495Y0345990D01*
X0182961Y0345065D01*
X0182685Y0344034D01*
Y0342966D01*
X0182961Y0341935D01*
X0183495Y0341010D01*
X0184250Y0340255D01*
X0185175Y0339721D01*
X0186206Y0339445D01*
X0187274D01*
X0188305Y0339721D01*
X0189230Y0340255D01*
X0189985Y0341010D01*
X0190519Y0341935D01*
X0190795Y0342966D01*
Y0344034D01*
X0190519Y0345065D01*
X0189985Y0345990D01*
X0189230Y0346745D01*
X0188305Y0347279D01*
X0187759Y0347425D01*
Y0348988D01*
X0187958Y0349027D01*
X0188518Y0349401D01*
X0188892Y0349961D01*
X0189023Y0350622D01*
Y0353378D01*
X0188892Y0354039D01*
X0188518Y0354598D01*
X0188217Y0354800D01*
X0188368Y0355300D01*
X0192987D01*
Y0353429D01*
X0192977Y0353378D01*
Y0350622D01*
X0193108Y0349961D01*
X0193482Y0349401D01*
X0194042Y0349027D01*
X0194703Y0348896D01*
X0196671D01*
X0197332Y0349027D01*
X0197892Y0349401D01*
X0198266Y0349961D01*
X0198397Y0350622D01*
Y0353378D01*
X0198387Y0353429D01*
Y0355300D01*
X0205888D01*
X0206612Y0354575D01*
Y0348496D01*
X0206704Y0347797D01*
X0206974Y0347146D01*
X0206981Y0347136D01*
X0206984Y0347121D01*
X0206991Y0347106D01*
X0206997Y0347098D01*
X0206995Y0347089D01*
X0206998Y0347043D01*
X0206981Y0347000D01*
X0206978Y0346989D01*
X0206972Y0346978D01*
X0206955Y0346933D01*
X0206912Y0346869D01*
X0206835Y0346682D01*
X0206833Y0346679D01*
X0206832Y0346675D01*
X0206804Y0346609D01*
X0206791Y0346543D01*
Y0346472D01*
X0206778Y0346402D01*
Y0324793D01*
X0206409Y0324425D01*
X0200429D01*
X0200378Y0324435D01*
X0197622D01*
X0196961Y0324303D01*
X0196402Y0323929D01*
X0196027Y0323369D01*
X0195896Y0322709D01*
Y0320740D01*
X0196027Y0320080D01*
X0196402Y0319520D01*
X0196961Y0319145D01*
X0197622Y0319014D01*
X0200378D01*
X0200429Y0319024D01*
X0207527D01*
X0208226Y0319116D01*
X0208878Y0319386D01*
X0209437Y0319815D01*
X0213559Y0323938D01*
X0213573Y0323944D01*
X0213573Y0323944D01*
X0213602Y0323978D01*
X0213617Y0323988D01*
X0213640Y0323993D01*
X0213749Y0324038D01*
X0213790Y0324065D01*
X0213823Y0324079D01*
X0213827Y0324080D01*
X0213830Y0324082D01*
X0213896Y0324109D01*
X0213952Y0324146D01*
X0214002Y0324197D01*
X0214061Y0324236D01*
X0218804Y0328979D01*
X0219314Y0328833D01*
X0219320Y0328829D01*
X0219371Y0328747D01*
X0219201Y0328112D01*
Y0326888D01*
X0219517Y0325707D01*
X0220129Y0324647D01*
X0220994Y0323783D01*
X0222053Y0323171D01*
X0223235Y0322854D01*
X0224458D01*
X0225640Y0323171D01*
X0226699Y0323783D01*
X0227564Y0324647D01*
X0228175Y0325707D01*
X0228492Y0326888D01*
Y0328112D01*
X0228175Y0329293D01*
X0227564Y0330352D01*
X0226699Y0331218D01*
X0225640Y0331829D01*
X0224458Y0332146D01*
X0223235D01*
X0222053Y0331829D01*
X0221222Y0331349D01*
X0220723Y0331623D01*
Y0337012D01*
X0220755Y0337262D01*
Y0352866D01*
X0221134Y0353193D01*
X0228113Y0352166D01*
Y0347929D01*
X0228103Y0347878D01*
Y0345122D01*
X0228234Y0344461D01*
X0228608Y0343901D01*
X0229168Y0343527D01*
X0229829Y0343396D01*
X0231797D01*
X0232458Y0343527D01*
X0233018Y0343901D01*
X0233392Y0344461D01*
X0233523Y0345122D01*
Y0347878D01*
X0233513Y0347929D01*
Y0350989D01*
X0233892Y0351316D01*
X0239786Y0350449D01*
X0240686Y0350180D01*
X0240686Y0350180D01*
X0240941Y0350104D01*
X0240867Y0349604D01*
X0239203D01*
X0238542Y0349473D01*
X0237982Y0349098D01*
X0237608Y0348538D01*
X0237477Y0347878D01*
Y0345122D01*
X0237608Y0344461D01*
X0237982Y0343901D01*
X0238542Y0343527D01*
X0238905Y0343455D01*
Y0341381D01*
X0238521Y0341279D01*
X0237597Y0340745D01*
X0236842Y0339990D01*
X0236308Y0339065D01*
X0236032Y0338034D01*
Y0336966D01*
X0236308Y0335935D01*
X0236842Y0335010D01*
X0237597Y0334255D01*
X0238521Y0333721D01*
X0239553Y0333445D01*
X0240620D01*
X0241652Y0333721D01*
X0242577Y0334255D01*
X0243332Y0335010D01*
X0243865Y0335935D01*
X0244142Y0336966D01*
Y0338034D01*
X0243865Y0339065D01*
X0243332Y0339990D01*
X0242577Y0340745D01*
X0241652Y0341279D01*
X0241369Y0341354D01*
Y0343435D01*
X0241832Y0343527D01*
X0242392Y0343901D01*
X0242766Y0344461D01*
X0242897Y0345122D01*
Y0347878D01*
X0242766Y0348538D01*
X0242392Y0349098D01*
X0242257Y0349188D01*
X0242472Y0349646D01*
X0251800Y0346857D01*
Y0328739D01*
X0251527Y0328332D01*
X0251396Y0327671D01*
Y0325703D01*
X0251527Y0325042D01*
X0251902Y0324482D01*
X0252462Y0324108D01*
X0253122Y0323977D01*
X0255878D01*
X0256539Y0324108D01*
X0257099Y0324482D01*
X0257473Y0325042D01*
X0257604Y0325703D01*
Y0327671D01*
X0257473Y0328332D01*
X0257200Y0328739D01*
Y0344823D01*
X0257601Y0345122D01*
X0286566Y0336461D01*
X0319562Y0321943D01*
X0319584Y0321387D01*
X0307733Y0315023D01*
X0306622D01*
X0305961Y0314892D01*
X0305401Y0314518D01*
X0305027Y0313958D01*
X0304896Y0313297D01*
Y0311329D01*
X0305027Y0310668D01*
X0305300Y0310261D01*
Y0305427D01*
X0305027Y0305019D01*
X0304896Y0304358D01*
Y0302390D01*
X0305027Y0301729D01*
X0305401Y0301169D01*
X0305961Y0300795D01*
X0306622Y0300664D01*
X0309378D01*
X0310038Y0300795D01*
X0310598Y0301169D01*
X0310973Y0301729D01*
X0311104Y0302390D01*
Y0304358D01*
X0310973Y0305019D01*
X0310700Y0305427D01*
Y0310261D01*
X0310936Y0310613D01*
X0316871Y0313800D01*
X0317300Y0313543D01*
Y0287739D01*
X0317027Y0287332D01*
X0316896Y0286671D01*
Y0284703D01*
X0317027Y0284042D01*
X0317402Y0283482D01*
X0317962Y0283108D01*
X0318622Y0282977D01*
X0321378D01*
X0322039Y0283108D01*
X0322599Y0283482D01*
X0322973Y0284042D01*
X0323104Y0284703D01*
Y0286671D01*
X0322973Y0287332D01*
X0322700Y0287739D01*
Y0316931D01*
X0324738Y0318025D01*
X0334103Y0304086D01*
Y0303122D01*
X0334234Y0302462D01*
X0334608Y0301902D01*
X0335168Y0301527D01*
X0335829Y0301396D01*
X0337797D01*
X0338458Y0301527D01*
X0339018Y0301902D01*
X0339392Y0302462D01*
X0339523Y0303122D01*
Y0305878D01*
X0339392Y0306539D01*
X0339018Y0307099D01*
X0338458Y0307473D01*
X0338314Y0307501D01*
X0327857Y0323067D01*
X0327863Y0323071D01*
X0327047Y0324065D01*
X0326040Y0324892D01*
X0325109Y0325390D01*
X0325036Y0325434D01*
X0325028Y0325438D01*
X0325024Y0325439D01*
X0325021Y0325441D01*
X0288587Y0341472D01*
X0288426Y0341518D01*
X0288274Y0341587D01*
X0256155Y0351191D01*
X0246449Y0354094D01*
X0246576Y0354577D01*
X0255964Y0352459D01*
X0266342Y0349741D01*
X0276621Y0346671D01*
X0286789Y0343252D01*
X0296835Y0339487D01*
X0306746Y0335382D01*
X0316512Y0330940D01*
X0326119Y0326168D01*
X0335559Y0321071D01*
X0344819Y0315654D01*
X0353888Y0309924D01*
X0354768Y0309325D01*
D01*
X0355148Y0309025D01*
X0355874Y0308429D01*
X0356754Y0307357D01*
X0357407Y0306134D01*
X0357810Y0304806D01*
X0357946Y0303426D01*
X0357946D01*
Y0254892D01*
X0357946D01*
X0357810Y0253512D01*
X0357407Y0252185D01*
X0356754Y0250961D01*
X0355874Y0249889D01*
X0354801Y0249009D01*
X0353578Y0248355D01*
X0352251Y0247953D01*
X0350870Y0247817D01*
X0349490Y0247953D01*
X0348162Y0248355D01*
X0347093Y0248927D01*
X0346712Y0249252D01*
X0346680Y0249265D01*
X0346255Y0249532D01*
X0345723Y0249940D01*
X0341906Y0252649D01*
X0341544Y0253000D01*
X0341414Y0253063D01*
X0341073Y0253240D01*
X0337292Y0255922D01*
X0328644Y0261585D01*
X0319789Y0266920D01*
X0310742Y0271921D01*
X0301513Y0276579D01*
X0292117Y0280890D01*
X0288662Y0282321D01*
X0288220Y0282556D01*
X0288178Y0282574D01*
X0287698Y0282720D01*
X0282567Y0284845D01*
X0272875Y0288442D01*
X0263055Y0291673D01*
X0253122Y0294535D01*
X0243088Y0297023D01*
X0234883Y0298735D01*
X0232969Y0299134D01*
X0225834Y0300347D01*
X0225349Y0300429D01*
X0225349Y0300429D01*
X0225277Y0300451D01*
X0224881Y0300572D01*
X0224880Y0300572D01*
X0224879Y0300563D01*
X0224428Y0300566D01*
X0224416Y0300567D01*
X0224425Y0300566D01*
X0224424D01*
X0224429Y0300566D01*
X0224425Y0300566D01*
X0222917Y0300685D01*
X0220941Y0300529D01*
X0219014Y0300066D01*
X0217182Y0299308D01*
X0215492Y0298272D01*
X0213985Y0296985D01*
X0212698Y0295478D01*
X0211662Y0293788D01*
X0210904Y0291956D01*
X0210441Y0290029D01*
X0210285Y0288053D01*
X0210308D01*
Y0257043D01*
X0210216Y0256579D01*
X0210206Y0256554D01*
X0210223D01*
X0210339Y0256131D01*
X0210446Y0255322D01*
X0210921Y0254174D01*
X0211678Y0253189D01*
X0212663Y0252432D01*
X0213811Y0251957D01*
X0215043Y0251795D01*
Y0251819D01*
X0218182D01*
Y0166491D01*
X0218159D01*
X0218315Y0164515D01*
X0218778Y0162587D01*
X0219536Y0160756D01*
X0220572Y0159066D01*
X0221859Y0157559D01*
X0223366Y0156271D01*
X0225057Y0155235D01*
X0226888Y0154477D01*
X0227557Y0154316D01*
X0228026Y0154144D01*
X0228046Y0154136D01*
X0228544Y0154074D01*
X0237898Y0151995D01*
X0247167Y0149935D01*
X0247249Y0149405D01*
X0246631Y0149048D01*
X0245913Y0148330D01*
X0245405Y0147450D01*
X0245142Y0146469D01*
Y0145453D01*
X0245405Y0144471D01*
X0245913Y0143592D01*
X0246631Y0142873D01*
X0247511Y0142365D01*
X0248492Y0142102D01*
X0249508D01*
X0250489Y0142365D01*
X0251369Y0142873D01*
X0252087Y0143592D01*
X0252595Y0144471D01*
X0252858Y0145453D01*
Y0146469D01*
X0252595Y0147450D01*
X0252087Y0148330D01*
X0252061Y0148356D01*
X0252302Y0148794D01*
X0253269Y0148579D01*
X0290267Y0140357D01*
X0290260Y0140325D01*
X0291281Y0140080D01*
X0292878Y0139419D01*
X0294351Y0138516D01*
X0295665Y0137394D01*
X0296788Y0136080D01*
X0297691Y0134606D01*
X0298352Y0133010D01*
X0298755Y0131329D01*
X0298891Y0129606D01*
X0298891D01*
Y0019658D01*
X0298891D01*
X0298755Y0017936D01*
X0298352Y0016255D01*
X0297691Y0014659D01*
X0296788Y0013185D01*
X0295665Y0011871D01*
X0294351Y0010749D01*
X0292878Y0009846D01*
X0291281Y0009185D01*
X0289601Y0008781D01*
X0287878Y0008646D01*
Y0008645D01*
X0197320Y0008645D01*
X0197129Y0009107D01*
X0199461Y0011439D01*
X0199500Y0011498D01*
X0199550Y0011548D01*
X0199588Y0011604D01*
X0199615Y0011670D01*
X0199617Y0011673D01*
X0199618Y0011677D01*
X0199665Y0011791D01*
X0199668Y0011795D01*
X0199668Y0011799D01*
X0199696Y0011864D01*
X0199709Y0011930D01*
Y0012001D01*
X0199723Y0012071D01*
Y0018763D01*
X0200222Y0018970D01*
X0202130Y0017063D01*
X0203750D01*
Y0021250D01*
X0199760D01*
Y0020001D01*
X0199747Y0019981D01*
X0199597Y0019853D01*
X0199279Y0019728D01*
X0199260Y0019731D01*
X0199253Y0019732D01*
X0199232Y0019744D01*
X0199099Y0019789D01*
X0199051Y0019817D01*
X0199037Y0019822D01*
X0199025Y0019831D01*
X0198913Y0019890D01*
X0198786Y0020182D01*
X0198751Y0020364D01*
X0198753Y0020446D01*
X0198834Y0020642D01*
X0198987Y0021803D01*
Y0022197D01*
X0198834Y0023358D01*
X0198386Y0024441D01*
X0197673Y0025370D01*
X0197071Y0025832D01*
X0196744Y0026084D01*
X0196854Y0026334D01*
X0196944Y0026536D01*
X0197032Y0026667D01*
X0197059Y0026733D01*
X0197099Y0026792D01*
X0197113Y0026862D01*
X0197140Y0026928D01*
Y0026999D01*
X0197154Y0027069D01*
X0197140Y0027139D01*
Y0027210D01*
X0197113Y0027275D01*
X0197099Y0027345D01*
X0197099Y0027345D01*
X0197099Y0027345D01*
X0197059Y0027405D01*
X0197032Y0027470D01*
X0196982Y0027521D01*
X0196942Y0027580D01*
X0196942Y0027580D01*
X0196942Y0027580D01*
X0196892Y0027630D01*
X0196892Y0027630D01*
X0194208Y0030314D01*
X0189061Y0035461D01*
X0189002Y0035500D01*
X0188952Y0035550D01*
X0188896Y0035588D01*
X0188830Y0035615D01*
X0188827Y0035617D01*
X0188823Y0035618D01*
X0188709Y0035665D01*
X0188705Y0035667D01*
X0188701Y0035668D01*
X0188636Y0035696D01*
X0188570Y0035709D01*
X0188499D01*
X0188429Y0035723D01*
X0146799D01*
X0132061Y0050461D01*
X0132002Y0050500D01*
X0131952Y0050550D01*
X0131896Y0050588D01*
X0131830Y0050615D01*
X0131827Y0050617D01*
X0131823Y0050618D01*
X0131709Y0050665D01*
X0131705Y0050668D01*
X0131701Y0050668D01*
X0131635Y0050696D01*
X0131570Y0050709D01*
X0131499D01*
X0131429Y0050722D01*
X0090571D01*
X0090501Y0050709D01*
X0090430D01*
X0090364Y0050696D01*
X0090364Y0050696D01*
X0090364D01*
X0090299Y0050668D01*
X0090295Y0050668D01*
X0090291Y0050665D01*
X0090177Y0050618D01*
X0090173Y0050617D01*
X0090170Y0050615D01*
X0090104Y0050588D01*
X0090104Y0050588D01*
X0090048Y0050550D01*
X0089998Y0050500D01*
X0089939Y0050461D01*
X0074829Y0035351D01*
X0074790Y0035292D01*
X0074739Y0035242D01*
X0074702Y0035186D01*
X0074675Y0035120D01*
X0074673Y0035117D01*
X0074672Y0035113D01*
X0074625Y0034999D01*
X0074622Y0034995D01*
X0074621Y0034991D01*
X0074594Y0034925D01*
X0074581Y0034860D01*
Y0034788D01*
X0074567Y0034719D01*
Y0033400D01*
X0074571Y0033380D01*
Y0033332D01*
X0074581Y0033282D01*
Y0033259D01*
X0074585Y0033239D01*
X0074590Y0033228D01*
X0074594Y0033150D01*
X0074616Y0033105D01*
X0074626Y0033055D01*
X0074677Y0032979D01*
X0074717Y0032896D01*
X0074755Y0032862D01*
X0074783Y0032821D01*
X0074848Y0032777D01*
X0074855Y0032767D01*
X0074871Y0032754D01*
X0074890Y0032742D01*
X0074928Y0032709D01*
X0074970Y0032684D01*
X0075142Y0032231D01*
X0075087Y0032097D01*
Y0031502D01*
X0075142Y0031367D01*
X0074970Y0030915D01*
X0074928Y0030890D01*
X0074890Y0030856D01*
X0074871Y0030845D01*
X0074855Y0030831D01*
X0074848Y0030821D01*
X0074783Y0030778D01*
X0074755Y0030736D01*
X0074717Y0030702D01*
X0074677Y0030620D01*
X0074626Y0030543D01*
X0074616Y0030494D01*
X0074594Y0030448D01*
X0074590Y0030371D01*
X0074585Y0030359D01*
X0074581Y0030339D01*
Y0030316D01*
X0074571Y0030267D01*
Y0030218D01*
X0074567Y0030198D01*
Y0023781D01*
X0074581Y0023712D01*
Y0023640D01*
X0074594Y0023575D01*
X0074594Y0023575D01*
Y0023575D01*
X0074621Y0023509D01*
X0074622Y0023505D01*
X0074625Y0023502D01*
X0074672Y0023387D01*
X0074673Y0023383D01*
X0074675Y0023380D01*
X0074702Y0023314D01*
X0074702Y0023314D01*
X0074739Y0023258D01*
X0074790Y0023208D01*
X0074829Y0023149D01*
X0076634Y0021344D01*
X0078439Y0019539D01*
X0078498Y0019500D01*
X0078548Y0019450D01*
X0078604Y0019412D01*
X0078670Y0019385D01*
X0078673Y0019383D01*
X0078677Y0019382D01*
X0078791Y0019335D01*
X0078795Y0019332D01*
X0078799Y0019332D01*
X0078865Y0019304D01*
X0078930Y0019291D01*
X0079001D01*
X0079071Y0019277D01*
X0087006D01*
X0097429Y0019277D01*
X0097499Y0019291D01*
X0097570D01*
X0097636Y0019304D01*
X0097636Y0019304D01*
X0097636D01*
X0097701Y0019332D01*
X0097705Y0019332D01*
X0097709Y0019335D01*
X0097823Y0019382D01*
X0097827Y0019383D01*
X0097830Y0019385D01*
X0097896Y0019412D01*
X0097896Y0019412D01*
X0097952Y0019450D01*
X0098002Y0019500D01*
X0098061Y0019539D01*
X0100961Y0022439D01*
X0101000Y0022498D01*
X0101050Y0022548D01*
X0101088Y0022604D01*
X0101115Y0022670D01*
X0101117Y0022673D01*
X0101118Y0022677D01*
X0101165Y0022791D01*
X0101168Y0022795D01*
X0101168Y0022799D01*
X0101196Y0022864D01*
X0101209Y0022930D01*
Y0023001D01*
X0101223Y0023071D01*
Y0029803D01*
X0101223Y0029803D01*
Y0029874D01*
X0101208Y0029945D01*
Y0029945D01*
X0101208Y0029945D01*
X0101168Y0030150D01*
X0101168Y0030151D01*
Y0030151D01*
X0101125Y0030215D01*
X0101011Y0030385D01*
X0100870Y0030791D01*
X0100947Y0031069D01*
X0101110Y0031462D01*
Y0032136D01*
X0100853Y0032758D01*
X0100894Y0033038D01*
X0100952Y0033126D01*
X0101019Y0033207D01*
X0101030Y0033242D01*
X0101050Y0033273D01*
Y0033273D01*
X0101168Y0033448D01*
X0101208Y0033654D01*
X0101208Y0033654D01*
X0101208Y0033654D01*
X0101223Y0033724D01*
Y0033795D01*
X0101223Y0033795D01*
Y0036701D01*
X0102287Y0037765D01*
X0102689Y0037480D01*
X0102419Y0036829D01*
X0102327Y0036130D01*
Y0031405D01*
X0102419Y0030707D01*
X0102689Y0030055D01*
X0103118Y0029496D01*
X0103677Y0029067D01*
X0104329Y0028797D01*
X0105028Y0028705D01*
X0105726Y0028797D01*
X0106378Y0029067D01*
X0106937Y0029496D01*
X0107366Y0030055D01*
X0107636Y0030707D01*
X0107728Y0031405D01*
Y0036130D01*
X0107636Y0036829D01*
X0107366Y0037480D01*
X0106937Y0038039D01*
X0106626Y0038278D01*
X0106796Y0038778D01*
X0126701D01*
X0139489Y0025989D01*
X0139724Y0025833D01*
X0140000Y0025778D01*
X0155747D01*
X0155882Y0025278D01*
X0155279Y0024930D01*
X0154598Y0024248D01*
X0154116Y0023413D01*
X0153866Y0022482D01*
Y0021518D01*
X0154116Y0020587D01*
X0154598Y0019752D01*
X0155279Y0019070D01*
X0156114Y0018588D01*
X0157045Y0018339D01*
X0158010D01*
X0158941Y0018588D01*
X0159776Y0019070D01*
X0160457Y0019752D01*
X0160940Y0020587D01*
X0161189Y0021518D01*
Y0022482D01*
X0160940Y0023413D01*
X0160457Y0024248D01*
X0159776Y0024930D01*
X0159174Y0025278D01*
X0159308Y0025778D01*
X0163621D01*
X0163756Y0025278D01*
X0163153Y0024930D01*
X0162472Y0024248D01*
X0161990Y0023413D01*
X0161740Y0022482D01*
Y0021518D01*
X0161990Y0020587D01*
X0162472Y0019752D01*
X0163153Y0019070D01*
X0163988Y0018588D01*
X0164920Y0018339D01*
X0165884D01*
X0166815Y0018588D01*
X0167650Y0019070D01*
X0168331Y0019752D01*
X0168814Y0020587D01*
X0169063Y0021518D01*
Y0022482D01*
X0168814Y0023413D01*
X0168331Y0024248D01*
X0167650Y0024930D01*
X0167048Y0025278D01*
X0167182Y0025778D01*
X0167701D01*
X0169189Y0024289D01*
X0169246Y0024251D01*
X0169248Y0024249D01*
X0169249Y0024248D01*
X0169257Y0024242D01*
X0169306Y0024195D01*
X0169357Y0024161D01*
X0169416Y0024137D01*
X0169423Y0024133D01*
X0169425Y0024132D01*
X0169476Y0024098D01*
X0169481Y0024097D01*
X0169485Y0024094D01*
X0169525Y0024087D01*
X0169636Y0024041D01*
X0169647Y0024039D01*
X0169653Y0024030D01*
X0169704Y0023982D01*
X0169814Y0023915D01*
X0169920Y0023844D01*
X0169848Y0023355D01*
X0169847Y0023351D01*
X0169614Y0022482D01*
Y0021518D01*
X0169864Y0020587D01*
X0170271Y0019882D01*
X0170335Y0019681D01*
X0170275Y0019279D01*
X0170202Y0019188D01*
X0170101Y0019118D01*
X0170056Y0019072D01*
X0170002Y0019035D01*
X0169998Y0019030D01*
X0169993Y0019026D01*
X0169957Y0018971D01*
X0169912Y0018925D01*
X0169909Y0018920D01*
X0169905Y0018915D01*
X0169882Y0018856D01*
X0169845Y0018801D01*
X0169844Y0018794D01*
X0169840Y0018789D01*
X0169829Y0018725D01*
X0169804Y0018665D01*
X0169791Y0018602D01*
Y0018531D01*
X0169790Y0018524D01*
Y0018524D01*
X0169778Y0018461D01*
Y0015696D01*
X0169790Y0015634D01*
Y0015633D01*
X0169791Y0015626D01*
Y0015555D01*
X0169804Y0015493D01*
X0169829Y0015433D01*
X0169841Y0015368D01*
X0169844Y0015363D01*
X0169845Y0015357D01*
X0169882Y0015302D01*
X0169905Y0015242D01*
X0169910Y0015237D01*
X0169912Y0015232D01*
X0169957Y0015187D01*
X0169993Y0015131D01*
X0169998Y0015127D01*
X0170001Y0015122D01*
X0170056Y0015086D01*
X0170101Y0015039D01*
X0170202Y0014969D01*
X0170275Y0014879D01*
X0170335Y0014476D01*
X0170271Y0014276D01*
X0169864Y0013571D01*
X0169614Y0012640D01*
Y0011675D01*
X0169864Y0010744D01*
X0170346Y0009909D01*
X0171027Y0009228D01*
X0171170Y0009145D01*
X0171036Y0008645D01*
X0167641D01*
X0167507Y0009145D01*
X0167650Y0009228D01*
X0168331Y0009909D01*
X0168814Y0010744D01*
X0169063Y0011675D01*
Y0012640D01*
X0168814Y0013571D01*
X0168331Y0014406D01*
X0167650Y0015087D01*
X0166815Y0015569D01*
X0165884Y0015819D01*
X0164920D01*
X0163988Y0015569D01*
X0163153Y0015087D01*
X0162472Y0014406D01*
X0161990Y0013571D01*
X0161740Y0012640D01*
Y0011675D01*
X0161990Y0010744D01*
X0162472Y0009909D01*
X0163153Y0009228D01*
X0163296Y0009145D01*
X0163162Y0008645D01*
X0159767D01*
X0159633Y0009145D01*
X0159776Y0009228D01*
X0160457Y0009909D01*
X0160940Y0010744D01*
X0161189Y0011675D01*
Y0012640D01*
X0160940Y0013571D01*
X0160457Y0014406D01*
X0159776Y0015087D01*
X0158941Y0015569D01*
X0158010Y0015819D01*
X0157045D01*
X0156114Y0015569D01*
X0155279Y0015087D01*
X0154598Y0014406D01*
X0154116Y0013571D01*
X0153866Y0012640D01*
Y0011675D01*
X0154116Y0010744D01*
X0154598Y0009909D01*
X0155279Y0009228D01*
X0155422Y0009145D01*
X0155288Y0008645D01*
X0069521Y0008645D01*
X0064267Y0013899D01*
Y0129606D01*
X0064267D01*
X0064402Y0131329D01*
X0064806Y0133010D01*
X0065467Y0134606D01*
X0066370Y0136080D01*
X0067492Y0137394D01*
X0068806Y0138516D01*
X0070280Y0139419D01*
X0071876Y0140080D01*
X0072898Y0140325D01*
X0072891Y0140357D01*
X0083891Y0142802D01*
X0084312Y0142532D01*
X0084740Y0140518D01*
X0087643Y0141135D01*
X0090547Y0141752D01*
X0090034Y0144167D01*
X0099479Y0146266D01*
X0099900Y0145995D01*
X0100342Y0143916D01*
X0103246Y0144533D01*
X0106149Y0145150D01*
X0105622Y0147631D01*
X0115000Y0149715D01*
X0115420Y0149444D01*
X0115877Y0147294D01*
X0118781Y0147911D01*
X0121685Y0148528D01*
X0121142Y0151080D01*
X0142487Y0155823D01*
X0142986Y0155886D01*
X0143006Y0155894D01*
X0143475Y0156066D01*
X0144144Y0156227D01*
X0145975Y0156985D01*
X0147665Y0158021D01*
X0149172Y0159308D01*
X0150460Y0160816D01*
X0151496Y0162506D01*
X0152254Y0164337D01*
X0152717Y0166264D01*
X0152834Y0167755D01*
X0152837Y0167788D01*
X0152952Y0168240D01*
X0152870Y0168241D01*
X0152849Y0168704D01*
Y0223116D01*
X0153349Y0223216D01*
X0153498Y0222856D01*
X0154180Y0221968D01*
X0155068Y0221286D01*
X0156103Y0220858D01*
X0157213Y0220711D01*
X0158787D01*
X0159897Y0220858D01*
X0160932Y0221286D01*
X0161820Y0221968D01*
X0162502Y0222856D01*
X0162930Y0223890D01*
X0163076Y0225000D01*
X0162930Y0226110D01*
X0162502Y0227144D01*
X0161820Y0228032D01*
X0160932Y0228714D01*
X0159897Y0229142D01*
X0158787Y0229289D01*
X0157213D01*
X0156103Y0229142D01*
X0155068Y0228714D01*
X0154180Y0228032D01*
X0153498Y0227144D01*
X0153349Y0226784D01*
X0152849Y0226884D01*
Y0233117D01*
X0153349Y0233216D01*
X0153498Y0232856D01*
X0154180Y0231967D01*
X0155068Y0231286D01*
X0156103Y0230857D01*
X0157213Y0230711D01*
X0158787D01*
X0159897Y0230857D01*
X0160932Y0231286D01*
X0161820Y0231967D01*
X0162502Y0232856D01*
X0162930Y0233890D01*
X0163076Y0235000D01*
X0162930Y0236110D01*
X0162502Y0237144D01*
X0161820Y0238033D01*
X0160932Y0238714D01*
X0159897Y0239142D01*
X0158787Y0239289D01*
X0157213D01*
X0156103Y0239142D01*
X0155068Y0238714D01*
X0154180Y0238033D01*
X0153498Y0237144D01*
X0153349Y0236784D01*
X0152849Y0236883D01*
Y0243116D01*
X0153349Y0243216D01*
X0153498Y0242856D01*
X0154180Y0241968D01*
X0155068Y0241286D01*
X0156103Y0240858D01*
X0157213Y0240711D01*
X0158787D01*
X0159897Y0240858D01*
X0160932Y0241286D01*
X0161820Y0241968D01*
X0162502Y0242856D01*
X0162930Y0243890D01*
X0163076Y0245000D01*
X0162930Y0246110D01*
X0162502Y0247144D01*
X0161820Y0248032D01*
X0160932Y0248714D01*
X0159897Y0249143D01*
X0158787Y0249289D01*
X0157213D01*
X0156103Y0249143D01*
X0155068Y0248714D01*
X0154180Y0248032D01*
X0153498Y0247144D01*
X0153349Y0246784D01*
X0152849Y0246884D01*
Y0252402D01*
X0153349Y0252572D01*
X0153972Y0251760D01*
X0154921Y0251031D01*
X0156026Y0250574D01*
X0157213Y0250417D01*
X0157250D01*
Y0255000D01*
Y0259582D01*
X0157213D01*
X0156026Y0259426D01*
X0154921Y0258969D01*
X0153972Y0258240D01*
X0153349Y0257428D01*
X0152849Y0257598D01*
Y0267201D01*
X0153349Y0267408D01*
X0161421Y0259336D01*
X0161091Y0258959D01*
X0161079Y0258969D01*
X0159974Y0259426D01*
X0158787Y0259582D01*
X0158750D01*
Y0255750D01*
X0163271D01*
X0163214Y0256186D01*
X0162756Y0257291D01*
X0162747Y0257304D01*
X0163123Y0257634D01*
X0176362Y0244395D01*
Y0202222D01*
X0175862Y0202123D01*
X0175661Y0202609D01*
X0175110Y0203161D01*
X0174390Y0203459D01*
X0173610D01*
X0172890Y0203161D01*
X0172887Y0203156D01*
X0170548D01*
X0170500Y0203399D01*
X0170126Y0203959D01*
X0169647Y0204279D01*
Y0205158D01*
X0170126Y0205478D01*
X0170500Y0206038D01*
X0170632Y0206698D01*
Y0209454D01*
X0170500Y0210115D01*
X0170126Y0210675D01*
X0169647Y0210994D01*
Y0211873D01*
X0170126Y0212193D01*
X0170500Y0212753D01*
X0170632Y0213413D01*
Y0216169D01*
X0170500Y0216830D01*
X0170126Y0217390D01*
X0169566Y0217764D01*
X0168905Y0217895D01*
X0166937D01*
X0166453Y0217799D01*
X0165953Y0217941D01*
Y0217941D01*
X0162016D01*
Y0217862D01*
X0157370D01*
Y0216398D01*
X0156870Y0216191D01*
X0156609Y0216452D01*
X0155890Y0216750D01*
X0155110D01*
X0154391Y0216452D01*
X0153840Y0215901D01*
X0153541Y0215181D01*
Y0214402D01*
X0153840Y0213682D01*
X0154391Y0213131D01*
X0155110Y0212833D01*
X0155890D01*
X0156609Y0213131D01*
X0156870Y0213391D01*
X0157370Y0213184D01*
Y0211720D01*
X0161436D01*
X0161606Y0211434D01*
X0161436Y0211147D01*
X0157370D01*
Y0209683D01*
X0156870Y0209476D01*
X0156609Y0209737D01*
X0155890Y0210035D01*
X0155110D01*
X0154391Y0209737D01*
X0153840Y0209186D01*
X0153541Y0208466D01*
Y0207686D01*
X0153840Y0206967D01*
X0154391Y0206416D01*
X0155110Y0206117D01*
X0155890D01*
X0156609Y0206416D01*
X0156870Y0206676D01*
X0157370Y0206469D01*
Y0205005D01*
X0161436D01*
X0161606Y0204718D01*
X0161436Y0204432D01*
X0157370D01*
Y0202968D01*
X0156870Y0202761D01*
X0156609Y0203021D01*
X0155890Y0203320D01*
X0155110D01*
X0154391Y0203021D01*
X0153840Y0202470D01*
X0153541Y0201750D01*
Y0200971D01*
X0153840Y0200251D01*
X0154391Y0199700D01*
X0155110Y0199402D01*
X0155890D01*
X0156609Y0199700D01*
X0156870Y0199961D01*
X0157370Y0199754D01*
Y0198290D01*
X0161436D01*
X0161606Y0198003D01*
X0161436Y0197716D01*
X0157370D01*
Y0196253D01*
X0156870Y0196045D01*
X0156609Y0196306D01*
X0155890Y0196604D01*
X0155110D01*
X0154391Y0196306D01*
X0153840Y0195755D01*
X0153541Y0195035D01*
Y0194256D01*
X0153840Y0193536D01*
X0154391Y0192985D01*
X0155110Y0192687D01*
X0155890D01*
X0156609Y0192985D01*
X0156870Y0193246D01*
X0157370Y0193039D01*
Y0191575D01*
X0161436D01*
X0161606Y0191288D01*
X0161436Y0191001D01*
X0157370D01*
Y0189537D01*
X0156870Y0189330D01*
X0156609Y0189591D01*
X0155890Y0189889D01*
X0155110D01*
X0154391Y0189591D01*
X0153840Y0189040D01*
X0153541Y0188320D01*
Y0187541D01*
X0153840Y0186821D01*
X0154391Y0186270D01*
X0155110Y0185972D01*
X0155890D01*
X0156609Y0186270D01*
X0156870Y0186531D01*
X0157370Y0186323D01*
Y0184860D01*
X0161436D01*
X0161606Y0184573D01*
X0161436Y0184286D01*
X0157370D01*
Y0182822D01*
X0156870Y0182615D01*
X0156609Y0182876D01*
X0155890Y0183174D01*
X0155110D01*
X0154391Y0182876D01*
X0153840Y0182325D01*
X0153541Y0181605D01*
Y0180826D01*
X0153840Y0180106D01*
X0154391Y0179555D01*
X0155110Y0179257D01*
X0155890D01*
X0156609Y0179555D01*
X0156870Y0179815D01*
X0157370Y0179608D01*
Y0178144D01*
X0161436D01*
X0161606Y0177858D01*
X0161436Y0177571D01*
X0157370D01*
Y0176107D01*
X0156870Y0175900D01*
X0156609Y0176161D01*
X0155890Y0176459D01*
X0155110D01*
X0154391Y0176161D01*
X0153840Y0175610D01*
X0153541Y0174890D01*
Y0174110D01*
X0153840Y0173390D01*
X0154391Y0172839D01*
X0155110Y0172541D01*
X0155890D01*
X0156609Y0172839D01*
X0156870Y0173100D01*
X0157370Y0172893D01*
Y0171429D01*
X0160533D01*
X0160724Y0170967D01*
X0157629Y0167871D01*
X0157361Y0167472D01*
X0157268Y0167000D01*
X0157268Y0167000D01*
Y0151010D01*
X0155990Y0149732D01*
X0154651D01*
X0154531Y0150232D01*
X0155056Y0150500D01*
X0155773Y0151145D01*
X0156298Y0151953D01*
X0156596Y0152870D01*
X0156646Y0153833D01*
X0156446Y0154776D01*
X0156008Y0155635D01*
X0155363Y0156351D01*
X0154554Y0156877D01*
X0153638Y0157175D01*
X0152675Y0157225D01*
X0151732Y0157025D01*
X0150873Y0156587D01*
X0150156Y0155942D01*
X0149631Y0155133D01*
X0149333Y0154216D01*
X0149283Y0153254D01*
X0149483Y0152311D01*
X0149921Y0151452D01*
X0150566Y0150735D01*
X0151340Y0150232D01*
X0151348Y0150182D01*
X0151091Y0149732D01*
X0142500D01*
X0142028Y0149638D01*
X0141629Y0149371D01*
X0141629Y0149371D01*
X0137989Y0145732D01*
X0136219D01*
X0136167Y0146230D01*
X0138052Y0146630D01*
X0136530Y0153793D01*
X0129367Y0152271D01*
X0130889Y0145108D01*
X0131865Y0145315D01*
X0132114Y0144857D01*
X0125489Y0138232D01*
X0111500D01*
X0111500Y0138232D01*
X0111028Y0138138D01*
X0110629Y0137871D01*
X0101129Y0128371D01*
X0100862Y0127972D01*
X0100768Y0127500D01*
X0100768Y0127500D01*
Y0103510D01*
X0094789Y0097532D01*
X0092796D01*
X0092687Y0097940D01*
X0092127Y0098910D01*
X0091335Y0099702D01*
X0090366Y0100261D01*
X0089284Y0100551D01*
X0088165D01*
X0087083Y0100261D01*
X0086114Y0099702D01*
X0085322Y0098910D01*
X0084762Y0097940D01*
X0084473Y0096859D01*
Y0095739D01*
X0084762Y0094658D01*
X0085322Y0093688D01*
X0086114Y0092897D01*
X0087083Y0092337D01*
X0088165Y0092047D01*
X0089284D01*
X0090366Y0092337D01*
X0091335Y0092897D01*
X0092127Y0093688D01*
X0092687Y0094658D01*
X0092796Y0095067D01*
X0094617D01*
X0094824Y0094567D01*
X0091489Y0091232D01*
X0074511D01*
X0074158Y0091585D01*
X0074349Y0092047D01*
X0081953D01*
Y0100551D01*
X0073449D01*
Y0092947D01*
X0072987Y0092756D01*
X0071732Y0094011D01*
Y0107490D01*
X0075511Y0111268D01*
X0091255D01*
X0091440Y0110398D01*
X0090997Y0110076D01*
X0090478Y0110375D01*
X0089474Y0110644D01*
Y0106892D01*
X0093227D01*
X0092958Y0107895D01*
X0092623Y0108476D01*
X0092826Y0108932D01*
X0097035Y0109827D01*
X0095676Y0116219D01*
X0092664Y0115579D01*
X0088334Y0119909D01*
Y0120515D01*
X0088036Y0121235D01*
X0087485Y0121785D01*
X0086765Y0122084D01*
X0085985D01*
X0085265Y0121785D01*
X0084715Y0121235D01*
X0084416Y0120515D01*
Y0119735D01*
X0084715Y0119016D01*
X0085265Y0118465D01*
X0085985Y0118166D01*
X0086591D01*
X0090525Y0114232D01*
X0090346Y0113732D01*
X0075000D01*
X0074528Y0113638D01*
X0074129Y0113371D01*
X0069629Y0108871D01*
X0069362Y0108472D01*
X0069268Y0108000D01*
X0069268Y0108000D01*
Y0093500D01*
X0069268Y0093500D01*
X0069362Y0093028D01*
X0069629Y0092629D01*
X0073129Y0089129D01*
X0073129Y0089129D01*
X0073528Y0088862D01*
X0074000Y0088768D01*
X0074000Y0088768D01*
X0092000D01*
X0092000Y0088768D01*
X0092472Y0088862D01*
X0092871Y0089129D01*
X0104871Y0101129D01*
X0104871Y0101129D01*
X0105139Y0101528D01*
X0105232Y0102000D01*
Y0125989D01*
X0113010Y0133768D01*
X0136317D01*
X0136437Y0133268D01*
X0135776Y0132931D01*
X0135060Y0132286D01*
X0134535Y0131477D01*
X0134237Y0130561D01*
X0134186Y0129598D01*
X0134387Y0128655D01*
X0134824Y0127796D01*
X0135469Y0127079D01*
X0136004Y0126732D01*
X0135856Y0126232D01*
X0117500D01*
X0117500Y0126232D01*
X0117028Y0126138D01*
X0116629Y0125871D01*
X0110921Y0120164D01*
X0110393Y0120343D01*
X0110360Y0120590D01*
X0110661Y0120890D01*
X0110959Y0121610D01*
Y0122390D01*
X0110661Y0123109D01*
X0110109Y0123661D01*
X0109390Y0123959D01*
X0108610D01*
X0107890Y0123661D01*
X0107340Y0123109D01*
X0107041Y0122390D01*
Y0121610D01*
X0107340Y0120890D01*
X0107768Y0120462D01*
Y0118871D01*
X0106041Y0118504D01*
X0107400Y0112111D01*
X0112637Y0113224D01*
X0111731Y0117488D01*
X0118010Y0123768D01*
X0137967D01*
X0138087Y0123268D01*
X0137855Y0123150D01*
X0137139Y0122504D01*
X0136614Y0121696D01*
X0136316Y0120779D01*
X0136265Y0119816D01*
X0136466Y0118873D01*
X0136904Y0118014D01*
X0137549Y0117298D01*
X0138357Y0116773D01*
X0139274Y0116475D01*
X0140237Y0116425D01*
X0141180Y0116625D01*
X0142039Y0117063D01*
X0142755Y0117708D01*
X0143280Y0118516D01*
X0143396Y0118874D01*
X0149606D01*
X0149606Y0118874D01*
X0150078Y0118968D01*
X0150478Y0119235D01*
X0152284Y0121041D01*
X0152890D01*
X0153610Y0121339D01*
X0154160Y0121890D01*
X0154459Y0122610D01*
Y0123390D01*
X0154160Y0124109D01*
X0153610Y0124661D01*
X0152890Y0124959D01*
X0152110D01*
X0151391Y0124661D01*
X0150839Y0124109D01*
X0150541Y0123390D01*
Y0122784D01*
X0149096Y0121338D01*
X0143428D01*
X0143428Y0121339D01*
X0142991Y0122198D01*
X0142345Y0122914D01*
X0141742Y0123306D01*
X0141844Y0123836D01*
X0141972Y0123862D01*
X0142371Y0124129D01*
X0145753Y0127510D01*
X0156660D01*
X0156852Y0127010D01*
X0156394Y0126597D01*
X0155869Y0125789D01*
X0155571Y0124872D01*
X0155520Y0123909D01*
X0155721Y0122966D01*
X0156158Y0122107D01*
X0156804Y0121391D01*
X0157612Y0120866D01*
X0158529Y0120568D01*
X0159492Y0120517D01*
X0160435Y0120718D01*
X0161294Y0121155D01*
X0162010Y0121800D01*
X0162142Y0122003D01*
X0162642Y0121855D01*
Y0109885D01*
X0160489Y0107732D01*
X0158538D01*
X0158109Y0108160D01*
X0157390Y0108459D01*
X0156610D01*
X0155891Y0108160D01*
X0155340Y0107609D01*
X0155041Y0106890D01*
Y0106110D01*
X0155184Y0105766D01*
X0154760Y0105483D01*
X0154371Y0105871D01*
X0153972Y0106139D01*
X0153500Y0106232D01*
X0153500Y0106232D01*
X0151538D01*
X0151110Y0106660D01*
X0150390Y0106959D01*
X0149610D01*
X0148890Y0106660D01*
X0148339Y0106109D01*
X0148041Y0105390D01*
Y0104610D01*
X0148184Y0104266D01*
X0147760Y0103983D01*
X0146871Y0104871D01*
X0146472Y0105139D01*
X0146000Y0105232D01*
X0146000Y0105232D01*
X0144538D01*
X0144109Y0105660D01*
X0143390Y0105959D01*
X0142610D01*
X0141891Y0105660D01*
X0141340Y0105110D01*
X0141041Y0104390D01*
Y0103610D01*
X0141340Y0102891D01*
X0141891Y0102339D01*
X0142149Y0102232D01*
X0142050Y0101732D01*
X0139010D01*
X0132232Y0108510D01*
Y0117462D01*
X0132660Y0117891D01*
X0132959Y0118610D01*
Y0119390D01*
X0132660Y0120109D01*
X0132109Y0120660D01*
X0131390Y0120959D01*
X0130610D01*
X0129891Y0120660D01*
X0129340Y0120109D01*
X0129041Y0119390D01*
Y0118610D01*
X0129340Y0117891D01*
X0129768Y0117462D01*
Y0108000D01*
X0129768Y0108000D01*
X0129861Y0107528D01*
X0130129Y0107129D01*
X0137629Y0099629D01*
X0137629Y0099629D01*
X0138028Y0099361D01*
X0138500Y0099268D01*
X0162500D01*
X0162500Y0099268D01*
X0162972Y0099361D01*
X0163371Y0099629D01*
X0169871Y0106129D01*
X0169871Y0106129D01*
X0170139Y0106528D01*
X0170232Y0107000D01*
X0170232Y0107000D01*
Y0116872D01*
X0170694Y0117063D01*
X0171041Y0116716D01*
Y0116110D01*
X0171339Y0115391D01*
X0171890Y0114839D01*
X0172610Y0114541D01*
X0173390D01*
X0174109Y0114839D01*
X0174661Y0115391D01*
X0174959Y0116110D01*
Y0116890D01*
X0174661Y0117610D01*
X0174109Y0118160D01*
X0173390Y0118459D01*
X0172784D01*
X0172232Y0119010D01*
Y0130490D01*
X0173512Y0131769D01*
X0173800Y0131674D01*
X0174002Y0131552D01*
X0174091Y0131103D01*
X0174260Y0130850D01*
X0174168Y0130788D01*
X0173903Y0130392D01*
X0174800D01*
X0174808Y0130386D01*
X0175315Y0130285D01*
X0178268D01*
Y0128998D01*
X0175315D01*
X0174808Y0128897D01*
X0174800Y0128892D01*
X0173903D01*
X0174168Y0128495D01*
X0174260Y0128433D01*
X0174091Y0128180D01*
X0173990Y0127673D01*
X0174091Y0127166D01*
X0174378Y0126737D01*
X0174808Y0126449D01*
X0175315Y0126349D01*
X0177268D01*
Y0121038D01*
X0176839Y0120609D01*
X0176541Y0119890D01*
Y0119110D01*
X0176839Y0118391D01*
X0177391Y0117840D01*
X0178110Y0117541D01*
X0178890D01*
X0179610Y0117840D01*
X0180160Y0118391D01*
X0180459Y0119110D01*
Y0119890D01*
X0180160Y0120609D01*
X0179732Y0121038D01*
Y0126349D01*
X0181220D01*
X0181727Y0126449D01*
X0182157Y0126737D01*
X0182444Y0127166D01*
X0182545Y0127673D01*
X0182444Y0128180D01*
X0182275Y0128433D01*
X0182367Y0128495D01*
X0182719Y0129021D01*
X0182842Y0129642D01*
X0182795Y0129878D01*
X0183197Y0130378D01*
X0185428D01*
X0185635Y0129878D01*
X0183336Y0127579D01*
X0183069Y0127180D01*
X0182975Y0126708D01*
X0182975Y0126708D01*
Y0125267D01*
X0182949Y0125227D01*
X0182849Y0124721D01*
Y0118815D01*
X0182949Y0118308D01*
X0183237Y0117878D01*
X0183666Y0117591D01*
X0184173Y0117490D01*
X0184409Y0117537D01*
X0184909Y0117189D01*
Y0068152D01*
X0161489Y0044732D01*
X0150813D01*
X0150813Y0044732D01*
X0150341Y0044638D01*
X0149942Y0044371D01*
X0149942Y0044371D01*
X0148216Y0042646D01*
X0147610D01*
X0146890Y0042347D01*
X0146339Y0041796D01*
X0146041Y0041077D01*
Y0040297D01*
X0146339Y0039577D01*
X0146890Y0039026D01*
X0147610Y0038728D01*
X0148390D01*
X0149109Y0039026D01*
X0149661Y0039577D01*
X0149959Y0040297D01*
Y0040903D01*
X0151323Y0042268D01*
X0153791D01*
X0153998Y0041768D01*
X0153840Y0041609D01*
X0153541Y0040890D01*
Y0040110D01*
X0153840Y0039391D01*
X0154391Y0038840D01*
X0155110Y0038541D01*
X0155890D01*
X0156609Y0038840D01*
X0157038Y0039268D01*
X0162000D01*
X0162000Y0039268D01*
X0162472Y0039362D01*
X0162871Y0039629D01*
X0173768Y0050525D01*
X0174268Y0050318D01*
Y0042225D01*
X0173839Y0041796D01*
X0173541Y0041077D01*
Y0040297D01*
X0173839Y0039577D01*
X0174390Y0039026D01*
X0175110Y0038728D01*
X0175890D01*
X0176610Y0039026D01*
X0177161Y0039577D01*
X0177459Y0040297D01*
Y0041077D01*
X0177161Y0041796D01*
X0176732Y0042225D01*
Y0050406D01*
X0181306Y0054979D01*
X0181768Y0054788D01*
Y0042225D01*
X0181340Y0041796D01*
X0181041Y0041077D01*
Y0040297D01*
X0181340Y0039577D01*
X0181890Y0039026D01*
X0182610Y0038728D01*
X0183390D01*
X0184109Y0039026D01*
X0184660Y0039577D01*
X0184959Y0040297D01*
Y0041077D01*
X0184660Y0041796D01*
X0184232Y0042225D01*
Y0054989D01*
X0192871Y0063629D01*
X0192871Y0063629D01*
X0193139Y0064028D01*
X0193232Y0064500D01*
Y0112489D01*
X0196258Y0115516D01*
X0196720Y0115324D01*
Y0114547D01*
X0196720Y0114547D01*
X0196814Y0114076D01*
X0197081Y0113676D01*
X0198041Y0112716D01*
Y0112110D01*
X0198339Y0111390D01*
X0198890Y0110839D01*
X0199610Y0110541D01*
X0200390D01*
X0201110Y0110839D01*
X0201660Y0111390D01*
X0201807Y0111743D01*
X0202396Y0111861D01*
X0206129Y0108129D01*
X0206528Y0107861D01*
X0207000Y0107768D01*
X0207000Y0107768D01*
X0219500D01*
X0219500Y0107768D01*
X0219972Y0107861D01*
X0220371Y0108129D01*
X0228871Y0116629D01*
X0228871Y0116629D01*
X0229138Y0117028D01*
X0229232Y0117500D01*
X0229232Y0117500D01*
Y0144916D01*
X0229232Y0144916D01*
X0229138Y0145388D01*
X0228871Y0145788D01*
X0215232Y0159427D01*
Y0167500D01*
X0215232Y0167500D01*
X0215139Y0167972D01*
X0214871Y0168371D01*
X0210204Y0173039D01*
X0210487Y0173463D01*
X0210560Y0173433D01*
X0211516Y0173307D01*
X0213484D01*
X0214440Y0173433D01*
X0215331Y0173802D01*
X0216096Y0174389D01*
X0216683Y0175154D01*
X0217051Y0176044D01*
X0217177Y0177000D01*
X0217051Y0177956D01*
X0216683Y0178847D01*
X0216096Y0179611D01*
X0215331Y0180198D01*
X0214440Y0180567D01*
X0213484Y0180693D01*
X0211516D01*
X0210560Y0180567D01*
X0209669Y0180198D01*
X0208904Y0179611D01*
X0208317Y0178847D01*
X0207949Y0177956D01*
X0207823Y0177000D01*
X0207949Y0176044D01*
X0207979Y0175971D01*
X0207555Y0175688D01*
X0196732Y0186511D01*
Y0193990D01*
X0198510Y0195768D01*
X0208063D01*
X0208317Y0195153D01*
X0208904Y0194389D01*
X0209669Y0193802D01*
X0210560Y0193433D01*
X0211516Y0193307D01*
X0213484D01*
X0214440Y0193433D01*
X0215331Y0193802D01*
X0216096Y0194389D01*
X0216683Y0195153D01*
X0217051Y0196044D01*
X0217177Y0197000D01*
X0217051Y0197956D01*
X0216683Y0198846D01*
X0216096Y0199611D01*
X0215331Y0200198D01*
X0214440Y0200567D01*
X0213484Y0200693D01*
X0211516D01*
X0210560Y0200567D01*
X0209669Y0200198D01*
X0208904Y0199611D01*
X0208317Y0198846D01*
X0208063Y0198232D01*
X0198682D01*
X0198475Y0198732D01*
X0205510Y0205768D01*
X0208063D01*
X0208317Y0205153D01*
X0208904Y0204389D01*
X0209669Y0203802D01*
X0210560Y0203433D01*
X0211516Y0203307D01*
X0213484D01*
X0214440Y0203433D01*
X0215331Y0203802D01*
X0216096Y0204389D01*
X0216683Y0205153D01*
X0217051Y0206044D01*
X0217177Y0207000D01*
X0217051Y0207956D01*
X0216683Y0208846D01*
X0216096Y0209611D01*
X0215331Y0210198D01*
X0214440Y0210567D01*
X0213484Y0210693D01*
X0211516D01*
X0210560Y0210567D01*
X0209669Y0210198D01*
X0208904Y0209611D01*
X0208317Y0208846D01*
X0208063Y0208232D01*
X0205000D01*
X0205000Y0208232D01*
X0204528Y0208138D01*
X0204129Y0207871D01*
X0204129Y0207871D01*
X0193194Y0196937D01*
X0192732Y0197128D01*
Y0238989D01*
X0205371Y0251629D01*
X0205371Y0251629D01*
X0205639Y0252028D01*
X0205732Y0252500D01*
X0205732Y0252500D01*
Y0298489D01*
X0209010Y0301768D01*
X0260490D01*
X0273129Y0289129D01*
X0273129Y0289129D01*
X0273528Y0288861D01*
X0274000Y0288768D01*
X0274000Y0288768D01*
X0296990D01*
X0310316Y0275442D01*
X0310316Y0275442D01*
X0310715Y0275174D01*
X0311187Y0275081D01*
X0311187Y0275081D01*
X0316945D01*
X0317027Y0274668D01*
X0317402Y0274108D01*
X0317962Y0273734D01*
X0318622Y0273603D01*
X0321361D01*
X0326835Y0268129D01*
X0327235Y0267862D01*
X0327707Y0267768D01*
X0327707Y0267768D01*
X0328688D01*
X0328845Y0267268D01*
X0328533Y0266726D01*
X0328350Y0266045D01*
Y0265340D01*
X0328533Y0264660D01*
X0328885Y0264049D01*
X0329384Y0263551D01*
X0329994Y0263198D01*
X0330675Y0263016D01*
X0331380D01*
X0332061Y0263198D01*
X0332671Y0263551D01*
X0333170Y0264049D01*
X0333522Y0264660D01*
X0333705Y0265340D01*
Y0266045D01*
X0333522Y0266726D01*
X0333210Y0267268D01*
X0333367Y0267768D01*
X0341087D01*
X0341087Y0267768D01*
X0341558Y0267862D01*
X0341958Y0268129D01*
X0344223Y0270394D01*
X0344521Y0270221D01*
X0345553Y0269945D01*
X0346620D01*
X0347652Y0270221D01*
X0348576Y0270755D01*
X0349331Y0271510D01*
X0349865Y0272435D01*
X0350142Y0273466D01*
Y0274534D01*
X0349865Y0275565D01*
X0349331Y0276490D01*
X0348576Y0277245D01*
X0347652Y0277779D01*
X0346620Y0278055D01*
X0345553D01*
X0344521Y0277779D01*
X0343597Y0277245D01*
X0342842Y0276490D01*
X0342308Y0275565D01*
X0342032Y0274534D01*
Y0273466D01*
X0342308Y0272435D01*
X0342480Y0272136D01*
X0340576Y0270232D01*
X0338346D01*
X0338139Y0270732D01*
X0338738Y0271331D01*
X0339310Y0272322D01*
X0339559Y0273250D01*
X0335260D01*
Y0274000D01*
D01*
Y0273250D01*
X0330961D01*
X0331209Y0272322D01*
X0331782Y0271331D01*
X0332381Y0270732D01*
X0332173Y0270232D01*
X0328217D01*
X0323104Y0275345D01*
Y0277297D01*
X0322973Y0277958D01*
X0322599Y0278518D01*
X0322039Y0278892D01*
X0321378Y0279023D01*
X0318622D01*
X0317962Y0278892D01*
X0317402Y0278518D01*
X0317027Y0277958D01*
X0316945Y0277545D01*
X0311698D01*
X0298371Y0290871D01*
X0297972Y0291139D01*
X0297500Y0291232D01*
X0297500Y0291232D01*
X0280060D01*
X0279853Y0291732D01*
X0280170Y0292049D01*
X0280522Y0292660D01*
X0280705Y0293340D01*
Y0294045D01*
X0280522Y0294726D01*
X0280210Y0295268D01*
X0280367Y0295768D01*
X0304096D01*
X0304896Y0294968D01*
Y0293016D01*
X0305027Y0292355D01*
X0305401Y0291795D01*
X0305961Y0291421D01*
X0306622Y0291290D01*
X0309378D01*
X0310038Y0291421D01*
X0310598Y0291795D01*
X0310973Y0292355D01*
X0311104Y0293016D01*
Y0294984D01*
X0310973Y0295645D01*
X0310598Y0296205D01*
X0310038Y0296579D01*
X0309378Y0296710D01*
X0306639D01*
X0305478Y0297871D01*
X0305078Y0298138D01*
X0304606Y0298232D01*
X0304606Y0298232D01*
X0295637D01*
X0295508Y0298715D01*
X0295577Y0298755D01*
X0296332Y0299510D01*
X0296865Y0300435D01*
X0297142Y0301466D01*
Y0302534D01*
X0296865Y0303565D01*
X0296332Y0304490D01*
X0295577Y0305245D01*
X0294652Y0305779D01*
X0293620Y0306055D01*
X0292553D01*
X0291521Y0305779D01*
X0290597Y0305245D01*
X0289842Y0304490D01*
X0289308Y0303565D01*
X0289032Y0302534D01*
Y0301466D01*
X0289308Y0300435D01*
X0289842Y0299510D01*
X0290597Y0298755D01*
X0290666Y0298715D01*
X0290536Y0298232D01*
X0285346D01*
X0285139Y0298732D01*
X0285738Y0299331D01*
X0286310Y0300322D01*
X0286559Y0301250D01*
X0282260D01*
X0277961D01*
X0278209Y0300322D01*
X0278782Y0299331D01*
X0279381Y0298732D01*
X0279173Y0298232D01*
X0277010D01*
X0269371Y0305871D01*
X0268972Y0306138D01*
X0268500Y0306232D01*
X0268500Y0306232D01*
X0226440D01*
X0226386Y0306309D01*
X0226531Y0306970D01*
X0226671Y0307051D01*
X0227170Y0307549D01*
X0227522Y0308160D01*
X0227705Y0308840D01*
Y0309545D01*
X0227522Y0310226D01*
X0227210Y0310768D01*
X0227367Y0311268D01*
X0235086D01*
X0235087Y0311268D01*
X0235558Y0311362D01*
X0235958Y0311629D01*
X0238223Y0313894D01*
X0238521Y0313721D01*
X0239553Y0313445D01*
X0240620D01*
X0241652Y0313721D01*
X0242577Y0314255D01*
X0243332Y0315010D01*
X0243865Y0315935D01*
X0243930Y0316174D01*
X0251427D01*
X0251527Y0315668D01*
X0251902Y0315108D01*
X0252462Y0314734D01*
X0253122Y0314603D01*
X0255878D01*
X0256539Y0314734D01*
X0257099Y0315108D01*
X0257473Y0315668D01*
X0257604Y0316329D01*
Y0318297D01*
X0257473Y0318958D01*
X0257099Y0319518D01*
X0256539Y0319892D01*
X0255878Y0320023D01*
X0253122D01*
X0252462Y0319892D01*
X0251902Y0319518D01*
X0251527Y0318958D01*
X0251464Y0318639D01*
X0243980D01*
X0243865Y0319065D01*
X0243332Y0319990D01*
X0242577Y0320745D01*
X0241652Y0321279D01*
X0240620Y0321555D01*
X0239553D01*
X0238521Y0321279D01*
X0237597Y0320745D01*
X0236842Y0319990D01*
X0236308Y0319065D01*
X0236032Y0318034D01*
Y0316966D01*
X0236308Y0315935D01*
X0236480Y0315636D01*
X0234576Y0313732D01*
X0232346D01*
X0232139Y0314232D01*
X0232738Y0314831D01*
X0233310Y0315822D01*
X0233559Y0316750D01*
X0229260D01*
Y0317500D01*
D01*
Y0316750D01*
X0224961D01*
X0225209Y0315822D01*
X0225782Y0314831D01*
X0226381Y0314232D01*
X0226173Y0313732D01*
X0212500D01*
X0212028Y0313638D01*
X0211629Y0313371D01*
X0211629Y0313371D01*
X0205232Y0306975D01*
X0204732Y0307182D01*
Y0315000D01*
X0204732Y0315000D01*
X0204639Y0315472D01*
X0204371Y0315871D01*
X0202871Y0317371D01*
X0202472Y0317638D01*
X0202000Y0317732D01*
X0202000Y0317732D01*
X0194251D01*
X0190347Y0321636D01*
X0190519Y0321935D01*
X0190608Y0322268D01*
X0192500D01*
X0192500Y0322268D01*
X0192972Y0322361D01*
X0193371Y0322629D01*
X0199221Y0328478D01*
X0199453Y0328471D01*
X0199770Y0328408D01*
X0200108Y0327902D01*
X0200668Y0327527D01*
X0201329Y0327396D01*
X0203297D01*
X0203958Y0327527D01*
X0204518Y0327902D01*
X0204892Y0328462D01*
X0205023Y0329122D01*
Y0331878D01*
X0204892Y0332539D01*
X0204518Y0333099D01*
X0203958Y0333473D01*
X0203297Y0333604D01*
X0201329D01*
X0200668Y0333473D01*
X0200108Y0333099D01*
X0199734Y0332539D01*
X0199603Y0331878D01*
Y0331077D01*
X0198845D01*
X0198845Y0331077D01*
X0198373Y0330983D01*
X0197973Y0330716D01*
X0197973Y0330716D01*
X0191990Y0324732D01*
X0190608D01*
X0190519Y0325065D01*
X0189985Y0325990D01*
X0189230Y0326745D01*
X0188305Y0327279D01*
X0187274Y0327555D01*
X0186206D01*
X0185175Y0327279D01*
X0184250Y0326745D01*
X0183495Y0325990D01*
X0182961Y0325065D01*
X0182685Y0324034D01*
Y0322966D01*
X0182961Y0321935D01*
X0183495Y0321010D01*
X0184250Y0320255D01*
X0185175Y0319721D01*
X0186206Y0319445D01*
X0187274D01*
X0188305Y0319721D01*
X0188604Y0319894D01*
X0192869Y0315629D01*
X0193269Y0315361D01*
X0193740Y0315268D01*
X0193740Y0315268D01*
X0196568D01*
X0196720Y0314768D01*
X0196402Y0314555D01*
X0196027Y0313995D01*
X0195896Y0313335D01*
Y0311366D01*
X0195958Y0311052D01*
X0191080Y0306173D01*
X0190813Y0305773D01*
X0190719Y0305301D01*
X0190719Y0305301D01*
Y0304575D01*
X0189935Y0304365D01*
X0189010Y0303832D01*
X0188255Y0303077D01*
X0187721Y0302152D01*
X0187445Y0301120D01*
Y0300053D01*
X0187721Y0299021D01*
X0188255Y0298097D01*
X0189010Y0297342D01*
X0189935Y0296808D01*
X0190966Y0296532D01*
X0192034D01*
X0193065Y0296808D01*
X0193990Y0297342D01*
X0194745Y0298097D01*
X0195279Y0299021D01*
X0195555Y0300053D01*
Y0301120D01*
X0195279Y0302152D01*
X0194745Y0303077D01*
X0193990Y0303832D01*
X0193183Y0304297D01*
Y0304791D01*
X0198032Y0309640D01*
X0200378D01*
X0201039Y0309771D01*
X0201598Y0310146D01*
X0201768Y0310399D01*
X0202268Y0310247D01*
Y0307010D01*
X0197629Y0302371D01*
X0197362Y0301972D01*
X0197268Y0301500D01*
X0197268Y0301500D01*
Y0255510D01*
X0185194Y0243437D01*
X0184732Y0243628D01*
Y0246500D01*
X0184732Y0246500D01*
X0184639Y0246972D01*
X0184371Y0247371D01*
X0161232Y0270511D01*
Y0283039D01*
X0161732Y0283279D01*
X0162160Y0283033D01*
X0162840Y0282850D01*
X0163545D01*
X0164226Y0283033D01*
X0164837Y0283385D01*
X0165335Y0283884D01*
X0165688Y0284494D01*
X0165870Y0285175D01*
Y0285880D01*
X0165688Y0286561D01*
X0165335Y0287171D01*
X0164837Y0287670D01*
X0164226Y0288022D01*
X0163545Y0288205D01*
X0162840D01*
X0162160Y0288022D01*
X0161732Y0287776D01*
X0161232Y0288016D01*
Y0296989D01*
X0163597Y0299354D01*
X0167632D01*
X0167721Y0299021D01*
X0168255Y0298097D01*
X0169010Y0297342D01*
X0169935Y0296808D01*
X0170966Y0296532D01*
X0172034D01*
X0173065Y0296808D01*
X0173990Y0297342D01*
X0174745Y0298097D01*
X0175279Y0299021D01*
X0175555Y0300053D01*
Y0301120D01*
X0175279Y0302152D01*
X0174745Y0303077D01*
X0173990Y0303832D01*
X0173065Y0304365D01*
X0172034Y0304642D01*
X0170966D01*
X0169935Y0304365D01*
X0169010Y0303832D01*
X0168255Y0303077D01*
X0167721Y0302152D01*
X0167632Y0301819D01*
X0165232D01*
Y0309640D01*
X0165378D01*
X0166039Y0309771D01*
X0166598Y0310146D01*
X0166973Y0310706D01*
X0167104Y0311366D01*
Y0313335D01*
X0166973Y0313995D01*
X0166598Y0314555D01*
X0166039Y0314929D01*
X0165378Y0315061D01*
X0162622D01*
X0161961Y0314929D01*
X0161401Y0314555D01*
X0161027Y0313995D01*
X0160896Y0313335D01*
Y0311366D01*
X0161027Y0310706D01*
X0161401Y0310146D01*
X0161961Y0309771D01*
X0162622Y0309640D01*
X0162768D01*
Y0302010D01*
X0162215Y0301458D01*
X0162215Y0301458D01*
X0159129Y0298371D01*
X0159122Y0298361D01*
X0158478Y0298298D01*
X0149905Y0306871D01*
X0149505Y0307138D01*
X0149033Y0307232D01*
X0149033Y0307232D01*
X0137010D01*
X0134819Y0309424D01*
Y0315632D01*
X0135152Y0315721D01*
X0136076Y0316255D01*
X0136831Y0317010D01*
X0137365Y0317935D01*
X0137455Y0318268D01*
X0142793D01*
X0142793Y0318268D01*
X0143265Y0318361D01*
X0143665Y0318629D01*
X0147139Y0322103D01*
X0149878D01*
X0150539Y0322234D01*
X0151099Y0322608D01*
X0151473Y0323168D01*
X0151604Y0323829D01*
Y0325797D01*
X0151473Y0326458D01*
X0151099Y0327018D01*
X0150539Y0327392D01*
X0149878Y0327523D01*
X0147122D01*
X0146461Y0327392D01*
X0145902Y0327018D01*
X0145527Y0326458D01*
X0145396Y0325797D01*
Y0323845D01*
X0142283Y0320732D01*
X0137455D01*
X0137365Y0321065D01*
X0136831Y0321990D01*
X0136076Y0322745D01*
X0135152Y0323279D01*
X0134121Y0323555D01*
X0133053D01*
X0132021Y0323279D01*
X0131097Y0322745D01*
X0130342Y0321990D01*
X0129808Y0321065D01*
X0129532Y0320034D01*
Y0318966D01*
X0129808Y0317935D01*
X0130342Y0317010D01*
X0131097Y0316255D01*
X0132021Y0315721D01*
X0132354Y0315632D01*
Y0308913D01*
X0132354Y0308913D01*
X0132448Y0308442D01*
X0132715Y0308042D01*
X0135063Y0305694D01*
X0134872Y0305232D01*
X0097232D01*
Y0307103D01*
X0097378D01*
X0098039Y0307234D01*
X0098598Y0307608D01*
X0098973Y0308168D01*
X0099104Y0308829D01*
Y0310797D01*
X0098973Y0311458D01*
X0098598Y0312018D01*
X0098039Y0312392D01*
X0097378Y0312523D01*
X0094622D01*
X0093962Y0312392D01*
X0093401Y0312018D01*
X0093027Y0311458D01*
X0092896Y0310797D01*
Y0308829D01*
X0093027Y0308168D01*
X0093401Y0307608D01*
X0093962Y0307234D01*
X0094622Y0307103D01*
X0094768D01*
Y0305232D01*
X0084455D01*
X0084365Y0305565D01*
X0083832Y0306490D01*
X0083077Y0307245D01*
X0082152Y0307779D01*
X0081121Y0308055D01*
X0080053D01*
X0079021Y0307779D01*
X0078097Y0307245D01*
X0077342Y0306490D01*
X0076808Y0305565D01*
X0076531Y0304534D01*
Y0303466D01*
X0076808Y0302435D01*
X0077342Y0301510D01*
X0078097Y0300755D01*
X0079021Y0300221D01*
X0080053Y0299945D01*
X0081121D01*
X0082152Y0300221D01*
X0083077Y0300755D01*
X0083832Y0301510D01*
X0084365Y0302435D01*
X0084455Y0302768D01*
X0095500D01*
X0095500Y0302768D01*
X0095500Y0302768D01*
X0112558D01*
X0112630Y0302273D01*
X0044651Y0281817D01*
X0044539Y0281892D01*
X0043878Y0282023D01*
X0041122D01*
X0040462Y0281892D01*
X0039902Y0281518D01*
X0039527Y0280958D01*
X0039396Y0280297D01*
Y0278345D01*
X0036283Y0275232D01*
X0031108D01*
X0031019Y0275565D01*
X0030485Y0276490D01*
X0029730Y0277245D01*
X0028805Y0277779D01*
X0027774Y0278055D01*
X0026706D01*
X0025675Y0277779D01*
X0024750Y0277245D01*
X0023995Y0276490D01*
X0023461Y0275565D01*
X0023185Y0274534D01*
Y0273466D01*
X0023461Y0272435D01*
X0023995Y0271510D01*
X0024750Y0270755D01*
X0025675Y0270221D01*
X0026706Y0269945D01*
X0027774D01*
X0028805Y0270221D01*
X0029730Y0270755D01*
X0030485Y0271510D01*
X0031019Y0272435D01*
X0031108Y0272768D01*
X0036793D01*
X0036793Y0272768D01*
X0037265Y0272862D01*
X0037665Y0273129D01*
X0041139Y0276603D01*
X0043878D01*
X0044539Y0276734D01*
X0045099Y0277108D01*
X0045473Y0277668D01*
X0045604Y0278329D01*
Y0279530D01*
X0116181Y0300768D01*
X0136816D01*
X0136858Y0300268D01*
X0130189Y0299134D01*
X0128275Y0298735D01*
X0120069Y0297023D01*
X0110036Y0294535D01*
X0100102Y0291673D01*
X0090283Y0288442D01*
X0080591Y0284845D01*
X0075046Y0282549D01*
X0074974Y0282535D01*
X0074972Y0282533D01*
X0074913Y0282494D01*
X0071040Y0280890D01*
X0061644Y0276579D01*
X0052416Y0271921D01*
X0043368Y0266920D01*
X0034514Y0261585D01*
X0025865Y0255922D01*
X0022063Y0253224D01*
X0021779Y0253080D01*
X0021614Y0253000D01*
X0021252Y0252649D01*
X0017434Y0249940D01*
X0016902Y0249532D01*
X0016477Y0249265D01*
X0016455Y0249256D01*
X0016074Y0248932D01*
X0014995Y0248355D01*
X0013668Y0247953D01*
X0012287Y0247817D01*
X0010907Y0247953D01*
X0009580Y0248355D01*
X0008356Y0249009D01*
X0007284Y0249889D01*
X0006404Y0250961D01*
X0005750Y0252185D01*
X0005347Y0253512D01*
X0005212Y0254892D01*
X0005212D01*
Y0303426D01*
X0005212D01*
X0005347Y0304806D01*
X0005750Y0306134D01*
X0006404Y0307357D01*
X0007284Y0308429D01*
X0008010Y0309025D01*
X0008389Y0309325D01*
D01*
X0009269Y0309924D01*
X0018339Y0315654D01*
X0022551Y0318118D01*
X0027599Y0321071D01*
X0037038Y0326168D01*
X0046646Y0330940D01*
X0056411Y0335382D01*
X0066323Y0339487D01*
X0075550Y0342945D01*
X0076368Y0343252D01*
X0086537Y0346671D01*
X0096816Y0349741D01*
X0107194Y0352459D01*
X0117658Y0354820D01*
X0125006Y0356217D01*
X0125119Y0355730D01*
D02*
G37*
G36*
X0220000Y0358000D02*
Y0347500D01*
Y0337012D01*
Y0331000D01*
X0218833Y0329834D01*
X0218769Y0329829D01*
X0218727Y0329808D01*
X0218680Y0329799D01*
X0218601Y0329746D01*
X0218516Y0329705D01*
X0218485Y0329669D01*
X0218445Y0329642D01*
X0213550Y0324747D01*
X0213495Y0324710D01*
X0213473Y0324706D01*
X0213364Y0324660D01*
X0213252Y0324623D01*
X0213234Y0324607D01*
X0213212Y0324598D01*
X0213129Y0324515D01*
X0213129Y0324514D01*
X0213107Y0324500D01*
X0207500D01*
Y0346402D01*
X0207513Y0346468D01*
X0207590Y0346583D01*
X0207594Y0346594D01*
X0207603Y0346603D01*
X0207648Y0346724D01*
X0207698Y0346843D01*
Y0346855D01*
X0207702Y0346867D01*
X0207721Y0346984D01*
X0207721Y0346996D01*
X0207725Y0347007D01*
X0207716Y0347136D01*
X0207712Y0347265D01*
X0207707Y0347276D01*
X0207706Y0347288D01*
X0207649Y0347404D01*
X0207642Y0347419D01*
X0207642Y0347423D01*
X0207500Y0347764D01*
Y0359615D01*
X0207880Y0359939D01*
X0220000Y0358000D01*
D02*
G37*
G36*
X0222845Y0310768D02*
X0222533Y0310226D01*
X0222350Y0309545D01*
Y0308840D01*
X0222533Y0308160D01*
X0222885Y0307549D01*
X0223384Y0307051D01*
X0223524Y0306970D01*
X0223669Y0306309D01*
X0223615Y0306232D01*
X0208682D01*
X0208475Y0306732D01*
X0213010Y0311268D01*
X0222688D01*
X0222845Y0310768D01*
D02*
G37*
G36*
X0275629Y0296129D02*
X0275629Y0296129D01*
X0275833Y0295992D01*
X0275954Y0295405D01*
X0275885Y0295337D01*
X0275533Y0294726D01*
X0275350Y0294045D01*
Y0293340D01*
X0275533Y0292660D01*
X0275885Y0292049D01*
X0276202Y0291732D01*
X0275995Y0291232D01*
X0274510D01*
X0262437Y0303306D01*
X0262628Y0303768D01*
X0267989D01*
X0275629Y0296129D01*
D02*
G37*
G36*
X0176362Y0200778D02*
Y0181406D01*
X0176362Y0181405D01*
X0176456Y0180934D01*
X0176723Y0180534D01*
X0184854Y0172403D01*
X0184663Y0171941D01*
X0170683D01*
X0170447Y0172382D01*
X0170500Y0172461D01*
X0170632Y0173122D01*
Y0175878D01*
X0170500Y0176539D01*
X0170126Y0177099D01*
X0169647Y0177418D01*
Y0178297D01*
X0170126Y0178617D01*
X0170500Y0179177D01*
X0170632Y0179837D01*
Y0182593D01*
X0170500Y0183254D01*
X0170126Y0183814D01*
X0169647Y0184134D01*
Y0185012D01*
X0170126Y0185332D01*
X0170500Y0185892D01*
X0170632Y0186553D01*
Y0189308D01*
X0170500Y0189969D01*
X0170126Y0190529D01*
X0169647Y0190849D01*
Y0191727D01*
X0170126Y0192047D01*
X0170500Y0192607D01*
X0170632Y0193268D01*
Y0196024D01*
X0170500Y0196684D01*
X0170126Y0197244D01*
X0169647Y0197564D01*
Y0198443D01*
X0170126Y0198762D01*
X0170500Y0199322D01*
X0170576Y0199704D01*
X0173217D01*
X0173610Y0199541D01*
X0174390D01*
X0175110Y0199839D01*
X0175661Y0200391D01*
X0175862Y0200877D01*
X0176362Y0200778D01*
D02*
G37*
G36*
X0176123Y0159634D02*
Y0150651D01*
X0175315D01*
X0174808Y0150551D01*
X0174378Y0150263D01*
X0174302Y0150148D01*
X0173668Y0150075D01*
X0171419Y0152323D01*
Y0153462D01*
X0171847Y0153891D01*
X0172146Y0154610D01*
Y0155390D01*
X0171847Y0156109D01*
X0171297Y0156660D01*
X0170577Y0156959D01*
X0169797D01*
X0169078Y0156660D01*
X0168526Y0156109D01*
X0168228Y0155390D01*
Y0154610D01*
X0168526Y0153891D01*
X0168955Y0153462D01*
Y0151813D01*
X0168955Y0151813D01*
X0169049Y0151341D01*
X0169316Y0150942D01*
X0170299Y0149959D01*
X0170091Y0149459D01*
X0169610D01*
X0168891Y0149161D01*
X0168340Y0148609D01*
X0168041Y0147890D01*
Y0147110D01*
X0168340Y0146390D01*
X0168891Y0145840D01*
X0169610Y0145541D01*
X0170216D01*
X0170642Y0145115D01*
X0170450Y0144654D01*
X0169421D01*
X0169421Y0144654D01*
X0168950Y0144560D01*
X0168550Y0144293D01*
X0168550Y0144293D01*
X0168216Y0143959D01*
X0167610D01*
X0166891Y0143660D01*
X0166340Y0143110D01*
X0166041Y0142390D01*
Y0141610D01*
X0166340Y0140891D01*
X0166891Y0140340D01*
X0167243Y0140193D01*
X0167361Y0139603D01*
X0163694Y0135937D01*
X0163232Y0136128D01*
Y0160791D01*
X0163732Y0160998D01*
X0163891Y0160839D01*
X0164610Y0160541D01*
X0165390D01*
X0166110Y0160839D01*
X0166538Y0161268D01*
X0174489D01*
X0176123Y0159634D01*
D02*
G37*
G36*
X0180848Y0165559D02*
X0180709Y0165222D01*
Y0164443D01*
X0181007Y0163723D01*
X0181558Y0163172D01*
X0182278Y0162874D01*
X0182477D01*
X0182941Y0162410D01*
Y0158649D01*
X0182849Y0158185D01*
Y0152279D01*
X0182949Y0151773D01*
X0183237Y0151343D01*
X0183666Y0151056D01*
X0184173Y0150955D01*
X0184680Y0151056D01*
X0184933Y0151225D01*
X0184995Y0151133D01*
X0185392Y0150868D01*
Y0151764D01*
X0185397Y0151772D01*
X0185498Y0152279D01*
Y0155232D01*
X0186785D01*
Y0152279D01*
X0186886Y0151772D01*
X0186892Y0151764D01*
Y0150868D01*
X0187288Y0151133D01*
X0187350Y0151225D01*
X0187603Y0151056D01*
X0188110Y0150955D01*
X0188381Y0151009D01*
X0188881Y0150676D01*
Y0149387D01*
X0188881Y0149387D01*
X0188975Y0148915D01*
X0189242Y0148515D01*
X0190129Y0147629D01*
X0190528Y0147362D01*
X0191000Y0147268D01*
X0191000Y0147268D01*
X0203462D01*
X0203890Y0146839D01*
X0204610Y0146541D01*
X0205390D01*
X0206109Y0146839D01*
X0206661Y0147390D01*
X0206959Y0148110D01*
Y0148890D01*
X0206661Y0149609D01*
X0206109Y0150161D01*
X0205390Y0150459D01*
X0204610D01*
X0203890Y0150161D01*
X0203462Y0149732D01*
X0191510D01*
X0191346Y0149897D01*
Y0150630D01*
X0191846Y0150995D01*
X0192047Y0150955D01*
X0192554Y0151056D01*
X0192984Y0151343D01*
X0193079D01*
X0193509Y0151056D01*
X0194016Y0150955D01*
X0194523Y0151056D01*
X0194952Y0151343D01*
X0195048D01*
X0195477Y0151056D01*
X0195984Y0150955D01*
X0196491Y0151056D01*
X0196921Y0151343D01*
X0197016D01*
X0197446Y0151056D01*
X0197953Y0150955D01*
X0198460Y0151056D01*
X0198889Y0151343D01*
X0198985D01*
X0199414Y0151056D01*
X0199921Y0150955D01*
X0200428Y0151056D01*
X0200858Y0151343D01*
X0200953D01*
X0201383Y0151056D01*
X0201890Y0150955D01*
X0202397Y0151056D01*
X0202826Y0151343D01*
X0202922D01*
X0203351Y0151056D01*
X0203858Y0150955D01*
X0204365Y0151056D01*
X0204795Y0151343D01*
X0204890D01*
X0205320Y0151056D01*
X0205827Y0150955D01*
X0206334Y0151056D01*
X0206764Y0151343D01*
X0207051Y0151773D01*
X0207151Y0152279D01*
Y0153953D01*
X0207613Y0154144D01*
X0210500Y0151257D01*
Y0150651D01*
X0208780D01*
X0208273Y0150551D01*
X0207843Y0150263D01*
X0207556Y0149834D01*
X0207455Y0149327D01*
X0207556Y0148820D01*
X0207843Y0148390D01*
Y0148295D01*
X0207556Y0147865D01*
X0207455Y0147358D01*
X0207556Y0146851D01*
X0207843Y0146422D01*
Y0146326D01*
X0207556Y0145897D01*
X0207455Y0145390D01*
X0207502Y0145154D01*
X0207153Y0144654D01*
X0205849D01*
X0205661Y0145109D01*
X0205110Y0145660D01*
X0204390Y0145959D01*
X0203610D01*
X0202890Y0145660D01*
X0202340Y0145109D01*
X0202041Y0144390D01*
Y0143610D01*
X0202340Y0142891D01*
X0202890Y0142340D01*
X0203610Y0142041D01*
X0204390D01*
X0204823Y0142221D01*
X0204985Y0142189D01*
X0206803D01*
X0207205Y0141689D01*
X0207158Y0141453D01*
X0207281Y0140832D01*
X0207633Y0140306D01*
X0207725Y0140244D01*
X0207556Y0139991D01*
X0207455Y0139484D01*
X0207556Y0138977D01*
X0207843Y0138548D01*
Y0138452D01*
X0207556Y0138023D01*
X0207455Y0137516D01*
X0207556Y0137009D01*
X0207843Y0136579D01*
Y0136484D01*
X0207556Y0136054D01*
X0207455Y0135547D01*
X0207556Y0135040D01*
X0207843Y0134611D01*
Y0134515D01*
X0207556Y0134086D01*
X0207455Y0133579D01*
X0207556Y0133072D01*
X0207843Y0132642D01*
Y0132547D01*
X0207556Y0132117D01*
X0207455Y0131610D01*
X0207556Y0131103D01*
X0207843Y0130674D01*
Y0130578D01*
X0207556Y0130149D01*
X0207455Y0129642D01*
X0207556Y0129135D01*
X0207843Y0128705D01*
Y0128610D01*
X0207556Y0128180D01*
X0207455Y0127673D01*
X0207556Y0127166D01*
X0207843Y0126737D01*
X0208273Y0126449D01*
X0208780Y0126349D01*
X0214685D01*
X0215192Y0126449D01*
X0215622Y0126737D01*
X0215909Y0127166D01*
X0216010Y0127673D01*
X0215963Y0127909D01*
X0216311Y0128409D01*
X0218142D01*
X0218142Y0128409D01*
X0218613Y0128503D01*
X0219013Y0128770D01*
X0220784Y0130541D01*
X0221390D01*
X0222110Y0130840D01*
X0222660Y0131391D01*
X0222768Y0131649D01*
X0223268Y0131550D01*
Y0124511D01*
X0220989Y0122232D01*
X0212538D01*
X0212109Y0122661D01*
X0211390Y0122959D01*
X0210610D01*
X0209891Y0122661D01*
X0209339Y0122109D01*
X0209041Y0121390D01*
Y0120610D01*
X0209311Y0119959D01*
X0209201Y0119673D01*
X0209064Y0119459D01*
X0208610D01*
X0207891Y0119160D01*
X0207866Y0119136D01*
X0207298Y0119136D01*
X0207151Y0119282D01*
Y0124721D01*
X0207051Y0125227D01*
X0206764Y0125657D01*
X0206334Y0125944D01*
X0205827Y0126045D01*
X0205320Y0125944D01*
X0205067Y0125775D01*
X0205005Y0125867D01*
X0204608Y0126132D01*
Y0125236D01*
X0204603Y0125227D01*
X0204502Y0124721D01*
Y0121768D01*
X0203215D01*
Y0124721D01*
X0203114Y0125227D01*
X0203108Y0125236D01*
Y0126132D01*
X0202712Y0125867D01*
X0202650Y0125775D01*
X0202397Y0125944D01*
X0201890Y0126045D01*
X0201383Y0125944D01*
X0200953Y0125657D01*
X0200858D01*
X0200428Y0125944D01*
X0199921Y0126045D01*
X0199414Y0125944D01*
X0198985Y0125657D01*
X0198889D01*
X0198460Y0125944D01*
X0197953Y0126045D01*
X0197446Y0125944D01*
X0197016Y0125657D01*
X0196921D01*
X0196491Y0125944D01*
X0195984Y0126045D01*
X0195477Y0125944D01*
X0195048Y0125657D01*
X0194952D01*
X0194523Y0125944D01*
X0194016Y0126045D01*
X0193509Y0125944D01*
X0193079Y0125657D01*
X0192984D01*
X0192554Y0125944D01*
X0192047Y0126045D01*
X0191540Y0125944D01*
X0191111Y0125657D01*
X0191015D01*
X0190586Y0125944D01*
X0190079Y0126045D01*
X0189572Y0125944D01*
X0189142Y0125657D01*
X0189047D01*
X0188617Y0125944D01*
X0188110Y0126045D01*
X0187603Y0125944D01*
X0187174Y0125657D01*
X0187078D01*
X0186649Y0125944D01*
X0186142Y0126045D01*
X0185959Y0126009D01*
X0185712Y0126470D01*
X0189010Y0129768D01*
X0195962D01*
X0196390Y0129340D01*
X0197110Y0129041D01*
X0197890D01*
X0198609Y0129340D01*
X0199161Y0129891D01*
X0199459Y0130610D01*
Y0131390D01*
X0199161Y0132109D01*
X0198609Y0132660D01*
X0197890Y0132959D01*
X0197110D01*
X0196390Y0132660D01*
X0195962Y0132232D01*
X0195450D01*
X0195351Y0132732D01*
X0195609Y0132840D01*
X0196160Y0133390D01*
X0196459Y0134110D01*
Y0134890D01*
X0196160Y0135609D01*
X0195609Y0136161D01*
X0194890Y0136459D01*
X0194110D01*
X0193391Y0136161D01*
X0192962Y0135732D01*
X0188644D01*
X0188644Y0135732D01*
X0188172Y0135638D01*
X0187773Y0135371D01*
X0187773Y0135371D01*
X0185244Y0132843D01*
X0182847D01*
X0182498Y0133343D01*
X0182545Y0133579D01*
X0182444Y0134086D01*
X0182157Y0134515D01*
Y0134611D01*
X0182444Y0135040D01*
X0182545Y0135547D01*
X0182444Y0136054D01*
X0182157Y0136484D01*
Y0136579D01*
X0182444Y0137009D01*
X0182545Y0137516D01*
X0182444Y0138023D01*
X0182157Y0138452D01*
Y0138548D01*
X0182444Y0138977D01*
X0182545Y0139484D01*
X0182444Y0139991D01*
X0182157Y0140421D01*
Y0140516D01*
X0182444Y0140946D01*
X0182545Y0141453D01*
X0182444Y0141960D01*
X0182157Y0142389D01*
Y0142485D01*
X0182444Y0142914D01*
X0182545Y0143421D01*
X0182444Y0143928D01*
X0182157Y0144358D01*
Y0144453D01*
X0182444Y0144883D01*
X0182545Y0145390D01*
X0182444Y0145897D01*
X0182157Y0146326D01*
Y0146422D01*
X0182444Y0146851D01*
X0182545Y0147358D01*
X0182444Y0147865D01*
X0182157Y0148295D01*
Y0148390D01*
X0182444Y0148820D01*
X0182545Y0149327D01*
X0182444Y0149834D01*
X0182157Y0150263D01*
X0181727Y0150551D01*
X0181220Y0150651D01*
X0178588D01*
Y0160144D01*
X0178588Y0160144D01*
X0178494Y0160616D01*
X0178227Y0161016D01*
X0178227Y0161016D01*
X0175871Y0163371D01*
X0175472Y0163638D01*
X0175000Y0163732D01*
X0175000Y0163732D01*
X0166538D01*
X0166110Y0164161D01*
X0165390Y0164459D01*
X0164610D01*
X0163891Y0164161D01*
X0163732Y0164002D01*
X0163232Y0164209D01*
Y0164989D01*
X0164302Y0166059D01*
X0180514D01*
X0180848Y0165559D01*
D02*
G37*
G36*
X0225059Y0143698D02*
Y0135837D01*
X0224597Y0135646D01*
X0219887Y0140356D01*
X0219487Y0140623D01*
X0219016Y0140717D01*
X0219016Y0140717D01*
X0216662D01*
X0216260Y0141217D01*
X0216307Y0141453D01*
X0216183Y0142073D01*
X0215832Y0142599D01*
X0215740Y0142661D01*
X0215909Y0142914D01*
X0216010Y0143421D01*
X0215956Y0143692D01*
X0216288Y0144192D01*
X0217538D01*
X0217891Y0143840D01*
X0218610Y0143541D01*
X0219390D01*
X0220110Y0143840D01*
X0220660Y0144390D01*
X0220959Y0145110D01*
Y0145890D01*
X0220660Y0146609D01*
X0220110Y0147160D01*
X0219390Y0147459D01*
X0218610D01*
X0218034Y0147220D01*
X0217773Y0147424D01*
X0217647Y0147570D01*
X0217732Y0148000D01*
Y0150372D01*
X0218194Y0150563D01*
X0225059Y0143698D01*
D02*
G37*
G36*
X0152898Y0146934D02*
X0152910Y0146768D01*
X0152235Y0146160D01*
X0151710Y0145352D01*
X0151412Y0144435D01*
X0151362Y0143472D01*
X0151562Y0142529D01*
X0152000Y0141670D01*
X0152645Y0140954D01*
X0152986Y0140732D01*
X0152838Y0140232D01*
X0142500D01*
X0142028Y0140138D01*
X0141629Y0139871D01*
X0141629Y0139871D01*
X0139499Y0137742D01*
X0139109Y0138059D01*
X0139122Y0138079D01*
X0139420Y0138996D01*
X0139470Y0139959D01*
X0139270Y0140902D01*
X0138832Y0141761D01*
X0138187Y0142477D01*
X0137740Y0142768D01*
X0137888Y0143268D01*
X0138500D01*
X0138500Y0143268D01*
X0138972Y0143361D01*
X0139371Y0143629D01*
X0143010Y0147268D01*
X0152758D01*
X0152898Y0146934D01*
D02*
G37*
G36*
X0222017Y0134740D02*
X0221734Y0134316D01*
X0221390Y0134459D01*
X0220610D01*
X0219890Y0134160D01*
X0219339Y0133609D01*
X0219041Y0132890D01*
Y0132284D01*
X0217631Y0130874D01*
X0216311D01*
X0215963Y0131374D01*
X0216010Y0131610D01*
X0215909Y0132117D01*
X0215622Y0132547D01*
Y0132642D01*
X0215909Y0133072D01*
X0216010Y0133579D01*
X0215909Y0134086D01*
X0215622Y0134515D01*
Y0134611D01*
X0215909Y0135040D01*
X0216010Y0135547D01*
X0215909Y0136054D01*
X0215622Y0136484D01*
Y0136579D01*
X0215909Y0137009D01*
X0216010Y0137516D01*
X0215963Y0137752D01*
X0216311Y0138252D01*
X0218505D01*
X0222017Y0134740D01*
D02*
G37*
G36*
X0155510Y0137268D02*
X0155031Y0137024D01*
X0154315Y0136379D01*
X0153790Y0135570D01*
X0153492Y0134653D01*
X0153441Y0133691D01*
X0153642Y0132748D01*
X0154079Y0131889D01*
X0154724Y0131172D01*
X0155533Y0130647D01*
X0156064Y0130474D01*
X0155985Y0129974D01*
X0145424D01*
X0145200Y0130457D01*
X0146784Y0132041D01*
X0147390D01*
X0148109Y0132340D01*
X0148661Y0132890D01*
X0148959Y0133610D01*
Y0134390D01*
X0148661Y0135109D01*
X0148109Y0135661D01*
X0147390Y0135959D01*
X0146610D01*
X0145890Y0135661D01*
X0145340Y0135109D01*
X0145041Y0134390D01*
Y0133784D01*
X0142377Y0131120D01*
X0141349D01*
X0141349Y0131120D01*
X0140911Y0131979D01*
X0140266Y0132696D01*
X0139458Y0133221D01*
X0139023Y0133362D01*
X0138989Y0133692D01*
X0139015Y0133890D01*
X0139371Y0134129D01*
X0143010Y0137768D01*
X0155389D01*
X0155510Y0137268D01*
D02*
G37*
G36*
X0225059Y0122163D02*
Y0118802D01*
X0218490Y0112232D01*
X0209011D01*
X0204411Y0116832D01*
X0204571Y0117378D01*
X0205005Y0117668D01*
X0205475Y0117472D01*
X0206032Y0116916D01*
X0206032Y0116916D01*
X0206432Y0116648D01*
X0206904Y0116555D01*
X0206904Y0116555D01*
X0207272D01*
X0207340Y0116391D01*
X0207891Y0115840D01*
X0208610Y0115541D01*
X0209390D01*
X0210109Y0115840D01*
X0210661Y0116391D01*
X0210959Y0117110D01*
Y0117890D01*
X0210689Y0118541D01*
X0210799Y0118827D01*
X0210936Y0119041D01*
X0211390D01*
X0212109Y0119340D01*
X0212538Y0119768D01*
X0221500D01*
X0221500Y0119768D01*
X0221972Y0119861D01*
X0222371Y0120129D01*
X0224597Y0122354D01*
X0225059Y0122163D01*
D02*
G37*
G36*
X0131495Y0049987D02*
X0131550Y0049950D01*
X0146500Y0035000D01*
X0188429D01*
X0188495Y0034987D01*
X0188550Y0034950D01*
X0193697Y0029803D01*
X0196381Y0027119D01*
X0196381Y0027119D01*
X0196431Y0027069D01*
Y0027069D01*
X0196343Y0026937D01*
X0196319Y0026879D01*
X0196283Y0026828D01*
X0196194Y0026626D01*
X0195737Y0026815D01*
X0195250Y0026879D01*
Y0022000D01*
Y0017121D01*
X0195737Y0017185D01*
X0196890Y0017663D01*
X0197881Y0018422D01*
X0198248Y0018901D01*
X0198578Y0019250D01*
X0198690Y0019191D01*
X0198800Y0019128D01*
X0199000Y0019060D01*
Y0012071D01*
X0198987Y0012005D01*
X0198950Y0011950D01*
X0196000Y0009000D01*
X0176361D01*
X0176170Y0009462D01*
X0176439Y0009730D01*
X0176959Y0010632D01*
X0177167Y0011407D01*
X0173276D01*
Y0012157D01*
X0172526D01*
Y0016049D01*
X0171750Y0015841D01*
X0170865Y0015330D01*
X0170807Y0015389D01*
X0170722Y0015483D01*
X0170634Y0015549D01*
X0170622Y0015554D01*
X0170614Y0015563D01*
X0170513Y0015633D01*
X0170512Y0015633D01*
Y0015634D01*
X0170500Y0015696D01*
Y0018461D01*
X0170512Y0018524D01*
Y0018524D01*
X0170513Y0018524D01*
X0170614Y0018594D01*
X0170622Y0018603D01*
X0170634Y0018609D01*
X0170722Y0018675D01*
X0170807Y0018768D01*
X0170865Y0018827D01*
X0171750Y0018317D01*
X0172526Y0018109D01*
Y0022000D01*
Y0025891D01*
X0171750Y0025683D01*
X0170849Y0025163D01*
X0170197Y0024511D01*
X0170145Y0024559D01*
X0170055Y0024649D01*
X0170043Y0024655D01*
X0170033Y0024664D01*
X0169913Y0024708D01*
X0169794Y0024757D01*
X0169754Y0024765D01*
X0169753D01*
X0169752Y0024767D01*
X0169700Y0024800D01*
X0168000Y0026500D01*
X0163621D01*
X0159308D01*
X0155747D01*
X0140000D01*
X0127000Y0039500D01*
X0103000D01*
X0100500Y0037000D01*
Y0033795D01*
X0100500Y0033795D01*
Y0033724D01*
X0100450Y0033674D01*
X0100410Y0033615D01*
X0100383Y0033549D01*
X0100383Y0033549D01*
X0099938Y0033416D01*
X0099754Y0033492D01*
X0099081D01*
X0098458Y0033234D01*
X0097982Y0032758D01*
X0097724Y0032136D01*
Y0031462D01*
X0097982Y0030840D01*
X0098458Y0030364D01*
X0099081Y0030106D01*
X0099754D01*
X0099913Y0030172D01*
X0099962Y0030159D01*
X0100410Y0029984D01*
X0100450Y0029924D01*
X0100500Y0029874D01*
Y0029803D01*
X0100500Y0029803D01*
Y0023071D01*
X0100487Y0023005D01*
X0100450Y0022950D01*
X0097550Y0020050D01*
X0097495Y0020013D01*
X0097429Y0020000D01*
X0087006Y0020000D01*
X0079071D01*
X0079005Y0020013D01*
X0078950Y0020050D01*
X0077145Y0021855D01*
X0075340Y0023660D01*
X0075303Y0023716D01*
X0075290Y0023781D01*
Y0030198D01*
X0075294Y0030218D01*
Y0030267D01*
X0075336Y0030292D01*
X0075351Y0030305D01*
X0075538Y0030415D01*
X0075550Y0030426D01*
X0075564Y0030431D01*
X0075654Y0030519D01*
X0075704Y0030562D01*
X0075735Y0030531D01*
X0076285Y0030303D01*
X0076880D01*
X0077430Y0030531D01*
X0077851Y0030952D01*
X0078079Y0031502D01*
Y0032097D01*
X0077851Y0032647D01*
X0077430Y0033068D01*
X0076880Y0033295D01*
X0076285D01*
X0075735Y0033068D01*
X0075704Y0033036D01*
X0075654Y0033080D01*
X0075564Y0033167D01*
X0075550Y0033173D01*
X0075538Y0033184D01*
X0075351Y0033293D01*
X0075336Y0033307D01*
X0075294Y0033332D01*
Y0033380D01*
X0075290Y0033400D01*
Y0034719D01*
X0075303Y0034784D01*
X0075340Y0034840D01*
X0090450Y0049950D01*
X0090505Y0049987D01*
X0090571Y0050000D01*
X0131429D01*
X0131495Y0049987D01*
D02*
G37*
%LPC*%
G36*
X0176663Y0347799D02*
Y0344250D01*
X0180212D01*
X0179964Y0345178D01*
X0179391Y0346169D01*
X0178582Y0346978D01*
X0177591Y0347550D01*
X0176663Y0347799D01*
D02*
G37*
G36*
X0175163D02*
X0174236Y0347550D01*
X0173245Y0346978D01*
X0172435Y0346169D01*
X0171863Y0345178D01*
X0171615Y0344250D01*
X0175163D01*
Y0347799D01*
D02*
G37*
G36*
X0123510Y0343799D02*
Y0340250D01*
X0127059D01*
X0126810Y0341178D01*
X0126238Y0342169D01*
X0125429Y0342978D01*
X0124437Y0343550D01*
X0123510Y0343799D01*
D02*
G37*
G36*
X0122010Y0343799D02*
X0121082Y0343550D01*
X0120091Y0342978D01*
X0119282Y0342169D01*
X0118710Y0341178D01*
X0118461Y0340250D01*
X0122010D01*
Y0343799D01*
D02*
G37*
G36*
X0180212Y0342750D02*
X0176663D01*
Y0339201D01*
X0177591Y0339450D01*
X0178582Y0340022D01*
X0179391Y0340831D01*
X0179964Y0341822D01*
X0180212Y0342750D01*
D02*
G37*
G36*
X0175163D02*
X0171615D01*
X0171863Y0341822D01*
X0172435Y0340831D01*
X0173245Y0340022D01*
X0174236Y0339450D01*
X0175163Y0339201D01*
Y0342750D01*
D02*
G37*
G36*
X0230010Y0341799D02*
Y0338250D01*
X0233559D01*
X0233310Y0339178D01*
X0232738Y0340169D01*
X0231929Y0340978D01*
X0230938Y0341550D01*
X0230010Y0341799D01*
D02*
G37*
G36*
X0228510Y0341799D02*
X0227582Y0341550D01*
X0226591Y0340978D01*
X0225782Y0340169D01*
X0225210Y0339178D01*
X0224961Y0338250D01*
X0228510D01*
Y0341799D01*
D02*
G37*
G36*
X0122010Y0338750D02*
X0118461D01*
X0118710Y0337822D01*
X0119282Y0336831D01*
X0120091Y0336022D01*
X0121082Y0335450D01*
X0122010Y0335201D01*
Y0338750D01*
D02*
G37*
G36*
X0127059D02*
X0123510D01*
Y0335201D01*
X0124437Y0335450D01*
X0125429Y0336022D01*
X0126238Y0336831D01*
X0126810Y0337822D01*
X0127059Y0338750D01*
D02*
G37*
G36*
X0228510Y0336750D02*
X0224961D01*
X0225210Y0335822D01*
X0225782Y0334831D01*
X0226591Y0334022D01*
X0227582Y0333450D01*
X0228510Y0333201D01*
Y0336750D01*
D02*
G37*
G36*
X0233559D02*
X0230010D01*
Y0333201D01*
X0230938Y0333450D01*
X0231929Y0334022D01*
X0232738Y0334831D01*
X0233310Y0335822D01*
X0233559Y0336750D01*
D02*
G37*
G36*
X0192765Y0338146D02*
X0191542D01*
X0190360Y0337829D01*
X0189301Y0337217D01*
X0188436Y0336352D01*
X0187824Y0335293D01*
X0187508Y0334112D01*
Y0332888D01*
X0187824Y0331707D01*
X0188436Y0330647D01*
X0189301Y0329783D01*
X0190360Y0329171D01*
X0191542Y0328854D01*
X0192765D01*
X0193947Y0329171D01*
X0195006Y0329783D01*
X0195871Y0330647D01*
X0196483Y0331707D01*
X0196799Y0332888D01*
Y0334112D01*
X0196483Y0335293D01*
X0195871Y0336352D01*
X0195006Y0337217D01*
X0193947Y0337829D01*
X0192765Y0338146D01*
D02*
G37*
G36*
X0117958Y0334146D02*
X0116735D01*
X0115553Y0333829D01*
X0114494Y0333218D01*
X0113629Y0332352D01*
X0113017Y0331293D01*
X0112701Y0330112D01*
Y0328888D01*
X0113017Y0327707D01*
X0113629Y0326647D01*
X0114494Y0325783D01*
X0115553Y0325171D01*
X0116735Y0324854D01*
X0117958D01*
X0119140Y0325171D01*
X0120199Y0325783D01*
X0121064Y0326647D01*
X0121676Y0327707D01*
X0121992Y0328888D01*
Y0330112D01*
X0121676Y0331293D01*
X0121064Y0332352D01*
X0120199Y0333218D01*
X0119140Y0333829D01*
X0117958Y0334146D01*
D02*
G37*
G36*
X0139612Y0334146D02*
X0138388D01*
X0137207Y0333829D01*
X0136147Y0333218D01*
X0135283Y0332352D01*
X0134671Y0331293D01*
X0134354Y0330112D01*
Y0328888D01*
X0134671Y0327707D01*
X0135283Y0326647D01*
X0136147Y0325782D01*
X0137207Y0325171D01*
X0138388Y0324854D01*
X0139612D01*
X0140793Y0325171D01*
X0141852Y0325782D01*
X0142717Y0326647D01*
X0143329Y0327707D01*
X0143646Y0328888D01*
Y0330112D01*
X0143329Y0331293D01*
X0142717Y0332352D01*
X0141852Y0333218D01*
X0140793Y0333829D01*
X0139612Y0334146D01*
D02*
G37*
G36*
X0070510Y0328299D02*
Y0324750D01*
X0074059D01*
X0073810Y0325678D01*
X0073238Y0326669D01*
X0072429Y0327478D01*
X0071438Y0328050D01*
X0070510Y0328299D01*
D02*
G37*
G36*
X0069010Y0328299D02*
X0068082Y0328050D01*
X0067091Y0327478D01*
X0066282Y0326669D01*
X0065710Y0325678D01*
X0065461Y0324750D01*
X0069010D01*
Y0328299D01*
D02*
G37*
G36*
X0176663Y0327799D02*
Y0324250D01*
X0180212D01*
X0179964Y0325178D01*
X0179391Y0326169D01*
X0178582Y0326978D01*
X0177591Y0327550D01*
X0176663Y0327799D01*
D02*
G37*
G36*
X0175163Y0327799D02*
X0174236Y0327550D01*
X0173245Y0326978D01*
X0172435Y0326169D01*
X0171863Y0325178D01*
X0171615Y0324250D01*
X0175163D01*
Y0327799D01*
D02*
G37*
G36*
X0246112Y0332146D02*
X0244888D01*
X0243707Y0331829D01*
X0242648Y0331218D01*
X0241782Y0330352D01*
X0241171Y0329293D01*
X0240854Y0328112D01*
Y0326888D01*
X0241171Y0325707D01*
X0241782Y0324647D01*
X0242648Y0323782D01*
X0243707Y0323171D01*
X0244888Y0322854D01*
X0246112D01*
X0247293Y0323171D01*
X0248353Y0323782D01*
X0249217Y0324647D01*
X0249829Y0325707D01*
X0250146Y0326888D01*
Y0328112D01*
X0249829Y0329293D01*
X0249217Y0330352D01*
X0248353Y0331218D01*
X0247293Y0331829D01*
X0246112Y0332146D01*
D02*
G37*
G36*
X0283010Y0326299D02*
Y0322750D01*
X0286559D01*
X0286310Y0323678D01*
X0285738Y0324669D01*
X0284929Y0325478D01*
X0283938Y0326050D01*
X0283010Y0326299D01*
D02*
G37*
G36*
X0281510Y0326299D02*
X0280582Y0326050D01*
X0279591Y0325478D01*
X0278782Y0324669D01*
X0278210Y0323678D01*
X0277961Y0322750D01*
X0281510D01*
Y0326299D01*
D02*
G37*
G36*
X0123510Y0323799D02*
Y0320250D01*
X0127059D01*
X0126810Y0321178D01*
X0126238Y0322169D01*
X0125429Y0322978D01*
X0124437Y0323550D01*
X0123510Y0323799D01*
D02*
G37*
G36*
X0122010Y0323799D02*
X0121082Y0323550D01*
X0120091Y0322978D01*
X0119282Y0322169D01*
X0118710Y0321178D01*
X0118461Y0320250D01*
X0122010D01*
Y0323799D01*
D02*
G37*
G36*
X0081797Y0336604D02*
X0079829D01*
X0079168Y0336473D01*
X0078608Y0336099D01*
X0078234Y0335539D01*
X0078103Y0334878D01*
Y0332122D01*
X0078234Y0331462D01*
X0078608Y0330902D01*
X0079168Y0330527D01*
X0079467Y0330468D01*
Y0327898D01*
X0079021Y0327779D01*
X0078097Y0327245D01*
X0077342Y0326490D01*
X0076808Y0325565D01*
X0076531Y0324534D01*
Y0323466D01*
X0076808Y0322435D01*
X0077342Y0321510D01*
X0078097Y0320755D01*
X0079021Y0320221D01*
X0080053Y0319945D01*
X0081121D01*
X0082152Y0320221D01*
X0083077Y0320755D01*
X0083832Y0321510D01*
X0084365Y0322435D01*
X0084642Y0323466D01*
Y0324534D01*
X0084365Y0325565D01*
X0083832Y0326490D01*
X0083077Y0327245D01*
X0082152Y0327779D01*
X0081932Y0327838D01*
Y0330423D01*
X0082458Y0330527D01*
X0083018Y0330902D01*
X0083392Y0331462D01*
X0083523Y0332122D01*
Y0334878D01*
X0083392Y0335539D01*
X0083018Y0336099D01*
X0082458Y0336473D01*
X0081797Y0336604D01*
D02*
G37*
G36*
X0069010Y0323250D02*
X0065461D01*
X0065710Y0322322D01*
X0066282Y0321331D01*
X0067091Y0320522D01*
X0068082Y0319950D01*
X0069010Y0319701D01*
Y0323250D01*
D02*
G37*
G36*
X0074059D02*
X0070510D01*
Y0319701D01*
X0071438Y0319950D01*
X0072429Y0320522D01*
X0073238Y0321331D01*
X0073810Y0322322D01*
X0074059Y0323250D01*
D02*
G37*
G36*
X0175163Y0322750D02*
X0171615D01*
X0171863Y0321822D01*
X0172435Y0320831D01*
X0173245Y0320022D01*
X0174236Y0319450D01*
X0175163Y0319201D01*
Y0322750D01*
D02*
G37*
G36*
X0180212D02*
X0176663D01*
Y0319201D01*
X0177591Y0319450D01*
X0178582Y0320022D01*
X0179391Y0320831D01*
X0179964Y0321822D01*
X0180212Y0322750D01*
D02*
G37*
G36*
X0293620Y0326055D02*
X0292553D01*
X0291521Y0325779D01*
X0290597Y0325245D01*
X0289842Y0324490D01*
X0289308Y0323565D01*
X0289032Y0322534D01*
Y0321466D01*
X0289308Y0320435D01*
X0289842Y0319510D01*
X0290597Y0318755D01*
X0291521Y0318221D01*
X0292553Y0317945D01*
X0293620D01*
X0294652Y0318221D01*
X0295577Y0318755D01*
X0296332Y0319510D01*
X0296865Y0320435D01*
X0296955Y0320768D01*
X0304896D01*
Y0320703D01*
X0305027Y0320042D01*
X0305401Y0319482D01*
X0305961Y0319108D01*
X0306622Y0318977D01*
X0309378D01*
X0310038Y0319108D01*
X0310598Y0319482D01*
X0310973Y0320042D01*
X0311104Y0320703D01*
Y0322671D01*
X0310973Y0323332D01*
X0310598Y0323892D01*
X0310038Y0324266D01*
X0309378Y0324397D01*
X0306622D01*
X0305961Y0324266D01*
X0305401Y0323892D01*
X0305027Y0323332D01*
X0305008Y0323232D01*
X0296955D01*
X0296865Y0323565D01*
X0296332Y0324490D01*
X0295577Y0325245D01*
X0294652Y0325779D01*
X0293620Y0326055D01*
D02*
G37*
G36*
X0230010Y0321799D02*
Y0318250D01*
X0233559D01*
X0233310Y0319178D01*
X0232738Y0320169D01*
X0231929Y0320978D01*
X0230938Y0321550D01*
X0230010Y0321799D01*
D02*
G37*
G36*
X0228510D02*
X0227582Y0321550D01*
X0226591Y0320978D01*
X0225782Y0320169D01*
X0225209Y0319178D01*
X0224961Y0318250D01*
X0228510D01*
Y0321799D01*
D02*
G37*
G36*
X0281510Y0321250D02*
X0277961D01*
X0278210Y0320322D01*
X0278782Y0319331D01*
X0279591Y0318522D01*
X0280582Y0317950D01*
X0281510Y0317701D01*
Y0321250D01*
D02*
G37*
G36*
X0286559D02*
X0283010D01*
Y0317701D01*
X0283938Y0317950D01*
X0284929Y0318522D01*
X0285738Y0319331D01*
X0286310Y0320322D01*
X0286559Y0321250D01*
D02*
G37*
G36*
X0122010Y0318750D02*
X0118461D01*
X0118710Y0317822D01*
X0119282Y0316831D01*
X0120091Y0316022D01*
X0121082Y0315450D01*
X0122010Y0315201D01*
Y0318750D01*
D02*
G37*
G36*
X0127059D02*
X0123510D01*
Y0315201D01*
X0124437Y0315450D01*
X0125429Y0316022D01*
X0126238Y0316831D01*
X0126810Y0317822D01*
X0127059Y0318750D01*
D02*
G37*
G36*
X0172034Y0317870D02*
X0171329D01*
X0170648Y0317688D01*
X0170037Y0317335D01*
X0169539Y0316837D01*
X0169186Y0316226D01*
X0169004Y0315545D01*
Y0314841D01*
X0169186Y0314160D01*
X0169539Y0313549D01*
X0170037Y0313051D01*
X0170648Y0312698D01*
X0171329Y0312516D01*
X0172034D01*
X0172714Y0312698D01*
X0173325Y0313051D01*
X0173823Y0313549D01*
X0174176Y0314160D01*
X0174358Y0314841D01*
Y0315545D01*
X0174176Y0316226D01*
X0173823Y0316837D01*
X0173325Y0317335D01*
X0172714Y0317688D01*
X0172034Y0317870D01*
D02*
G37*
G36*
X0064958Y0318646D02*
X0063735D01*
X0062553Y0318329D01*
X0061494Y0317718D01*
X0060629Y0316852D01*
X0060017Y0315793D01*
X0059701Y0314612D01*
Y0313388D01*
X0060017Y0312207D01*
X0060629Y0311147D01*
X0061494Y0310283D01*
X0062553Y0309671D01*
X0063735Y0309354D01*
X0064958D01*
X0066140Y0309671D01*
X0067199Y0310283D01*
X0068064Y0311147D01*
X0068676Y0312207D01*
X0068992Y0313388D01*
Y0314612D01*
X0068676Y0315793D01*
X0068064Y0316852D01*
X0067199Y0317718D01*
X0066140Y0318329D01*
X0064958Y0318646D01*
D02*
G37*
G36*
X0086612Y0318646D02*
X0085388D01*
X0084207Y0318329D01*
X0083148Y0317718D01*
X0082283Y0316852D01*
X0081671Y0315793D01*
X0081354Y0314612D01*
Y0313388D01*
X0081671Y0312207D01*
X0082283Y0311147D01*
X0083148Y0310282D01*
X0084207Y0309671D01*
X0085388Y0309354D01*
X0086612D01*
X0087793Y0309671D01*
X0088853Y0310282D01*
X0089717Y0311147D01*
X0090329Y0312207D01*
X0090646Y0313388D01*
Y0314612D01*
X0090329Y0315793D01*
X0089717Y0316852D01*
X0088853Y0317718D01*
X0087793Y0318329D01*
X0086612Y0318646D01*
D02*
G37*
G36*
X0118880Y0313870D02*
X0118175D01*
X0117494Y0313688D01*
X0116884Y0313335D01*
X0116385Y0312837D01*
X0116033Y0312226D01*
X0115850Y0311545D01*
Y0310841D01*
X0116033Y0310160D01*
X0116385Y0309549D01*
X0116884Y0309051D01*
X0117494Y0308698D01*
X0118175Y0308516D01*
X0118880D01*
X0119561Y0308698D01*
X0120171Y0309051D01*
X0120670Y0309549D01*
X0121022Y0310160D01*
X0121205Y0310841D01*
Y0311545D01*
X0121022Y0312226D01*
X0120670Y0312837D01*
X0120171Y0313335D01*
X0119561Y0313688D01*
X0118880Y0313870D01*
D02*
G37*
G36*
X0277458Y0316646D02*
X0276235D01*
X0275053Y0316329D01*
X0273994Y0315718D01*
X0273129Y0314852D01*
X0272517Y0313793D01*
X0272201Y0312612D01*
Y0311388D01*
X0272517Y0310207D01*
X0273129Y0309148D01*
X0273994Y0308283D01*
X0275053Y0307671D01*
X0276235Y0307354D01*
X0277458D01*
X0278640Y0307671D01*
X0279699Y0308283D01*
X0280564Y0309148D01*
X0281175Y0310207D01*
X0281492Y0311388D01*
Y0312612D01*
X0281175Y0313793D01*
X0280564Y0314852D01*
X0279699Y0315718D01*
X0278640Y0316329D01*
X0277458Y0316646D01*
D02*
G37*
G36*
X0299112Y0316646D02*
X0297888D01*
X0296707Y0316329D01*
X0295648Y0315718D01*
X0294782Y0314852D01*
X0294171Y0313793D01*
X0293854Y0312612D01*
Y0311388D01*
X0294171Y0310207D01*
X0294782Y0309148D01*
X0295648Y0308282D01*
X0296707Y0307671D01*
X0297888Y0307354D01*
X0299112D01*
X0300293Y0307671D01*
X0301353Y0308282D01*
X0302217Y0309148D01*
X0302829Y0310207D01*
X0303146Y0311388D01*
Y0312612D01*
X0302829Y0313793D01*
X0302217Y0314852D01*
X0301353Y0315718D01*
X0300293Y0316329D01*
X0299112Y0316646D01*
D02*
G37*
G36*
X0070510Y0308299D02*
Y0304750D01*
X0074059D01*
X0073810Y0305678D01*
X0073238Y0306669D01*
X0072429Y0307478D01*
X0071438Y0308050D01*
X0070510Y0308299D01*
D02*
G37*
G36*
X0069010Y0308299D02*
X0068082Y0308050D01*
X0067091Y0307478D01*
X0066282Y0306669D01*
X0065710Y0305678D01*
X0065461Y0304750D01*
X0069010D01*
Y0308299D01*
D02*
G37*
G36*
X0283010Y0306299D02*
Y0302750D01*
X0286559D01*
X0286310Y0303678D01*
X0285738Y0304669D01*
X0284929Y0305478D01*
X0283938Y0306050D01*
X0283010Y0306299D01*
D02*
G37*
G36*
X0281510D02*
X0280582Y0306050D01*
X0279591Y0305478D01*
X0278782Y0304669D01*
X0278209Y0303678D01*
X0277961Y0302750D01*
X0281510D01*
Y0306299D01*
D02*
G37*
G36*
X0182112Y0310646D02*
X0180888D01*
X0179707Y0310329D01*
X0178647Y0309717D01*
X0177782Y0308853D01*
X0177171Y0307793D01*
X0176854Y0306612D01*
Y0305388D01*
X0177171Y0304207D01*
X0177782Y0303148D01*
X0178647Y0302283D01*
X0179707Y0301671D01*
X0180888Y0301354D01*
X0182112D01*
X0183293Y0301671D01*
X0184353Y0302283D01*
X0185217Y0303148D01*
X0185829Y0304207D01*
X0186146Y0305388D01*
Y0306612D01*
X0185829Y0307793D01*
X0185217Y0308853D01*
X0184353Y0309717D01*
X0183293Y0310329D01*
X0182112Y0310646D01*
D02*
G37*
G36*
X0069010Y0303250D02*
X0065461D01*
X0065710Y0302322D01*
X0066282Y0301331D01*
X0067091Y0300522D01*
X0068082Y0299950D01*
X0069010Y0299701D01*
Y0303250D01*
D02*
G37*
G36*
X0074059D02*
X0070510D01*
Y0299701D01*
X0071438Y0299950D01*
X0072429Y0300522D01*
X0073238Y0301331D01*
X0073810Y0302322D01*
X0074059Y0303250D01*
D02*
G37*
G36*
X0017163Y0298299D02*
Y0294750D01*
X0020712D01*
X0020464Y0295678D01*
X0019891Y0296669D01*
X0019082Y0297478D01*
X0018091Y0298050D01*
X0017163Y0298299D01*
D02*
G37*
G36*
X0336010D02*
Y0294750D01*
X0339559D01*
X0339310Y0295678D01*
X0338738Y0296669D01*
X0337929Y0297478D01*
X0336937Y0298050D01*
X0336010Y0298299D01*
D02*
G37*
G36*
X0015663Y0298299D02*
X0014736Y0298050D01*
X0013745Y0297478D01*
X0012935Y0296669D01*
X0012363Y0295678D01*
X0012115Y0294750D01*
X0015663D01*
Y0298299D01*
D02*
G37*
G36*
X0334510D02*
X0333582Y0298050D01*
X0332591Y0297478D01*
X0331782Y0296669D01*
X0331210Y0295678D01*
X0330961Y0294750D01*
X0334510D01*
Y0298299D01*
D02*
G37*
G36*
X0065880Y0298370D02*
X0065175D01*
X0064494Y0298188D01*
X0063884Y0297835D01*
X0063385Y0297337D01*
X0063033Y0296726D01*
X0062850Y0296045D01*
Y0295340D01*
X0063033Y0294660D01*
X0063385Y0294049D01*
X0063884Y0293551D01*
X0064494Y0293198D01*
X0065175Y0293016D01*
X0065880D01*
X0066561Y0293198D01*
X0067171Y0293551D01*
X0067670Y0294049D01*
X0068022Y0294660D01*
X0068205Y0295340D01*
Y0296045D01*
X0068022Y0296726D01*
X0067670Y0297337D01*
X0067171Y0297835D01*
X0066561Y0298188D01*
X0065880Y0298370D01*
D02*
G37*
G36*
X0192250Y0294059D02*
Y0290510D01*
X0195799D01*
X0195550Y0291438D01*
X0194978Y0292429D01*
X0194169Y0293238D01*
X0193178Y0293810D01*
X0192250Y0294059D01*
D02*
G37*
G36*
X0190750D02*
X0189822Y0293810D01*
X0188831Y0293238D01*
X0188022Y0292429D01*
X0187450Y0291438D01*
X0187201Y0290510D01*
X0190750D01*
Y0294059D01*
D02*
G37*
G36*
X0172250Y0294059D02*
Y0290510D01*
X0175799D01*
X0175550Y0291437D01*
X0174978Y0292429D01*
X0174169Y0293238D01*
X0173178Y0293810D01*
X0172250Y0294059D01*
D02*
G37*
G36*
X0170750D02*
X0169822Y0293810D01*
X0168831Y0293238D01*
X0168022Y0292429D01*
X0167450Y0291437D01*
X0167201Y0290510D01*
X0170750D01*
Y0294059D01*
D02*
G37*
G36*
X0347171Y0307604D02*
X0345203D01*
X0344542Y0307473D01*
X0343982Y0307099D01*
X0343608Y0306539D01*
X0343477Y0305878D01*
Y0303122D01*
X0343608Y0302462D01*
X0343982Y0301902D01*
X0344542Y0301527D01*
X0344904Y0301455D01*
Y0297881D01*
X0344521Y0297779D01*
X0343597Y0297245D01*
X0342842Y0296490D01*
X0342308Y0295565D01*
X0342032Y0294534D01*
Y0293466D01*
X0342308Y0292435D01*
X0342842Y0291510D01*
X0343597Y0290755D01*
X0344521Y0290221D01*
X0345553Y0289945D01*
X0346620D01*
X0347652Y0290221D01*
X0348576Y0290755D01*
X0349331Y0291510D01*
X0349865Y0292435D01*
X0350142Y0293466D01*
Y0294534D01*
X0349865Y0295565D01*
X0349331Y0296490D01*
X0348576Y0297245D01*
X0347652Y0297779D01*
X0347369Y0297854D01*
Y0301435D01*
X0347832Y0301527D01*
X0348392Y0301902D01*
X0348766Y0302462D01*
X0348897Y0303122D01*
Y0305878D01*
X0348766Y0306539D01*
X0348392Y0307099D01*
X0347832Y0307473D01*
X0347171Y0307604D01*
D02*
G37*
G36*
X0028297Y0307104D02*
X0026329D01*
X0025668Y0306973D01*
X0025108Y0306598D01*
X0024734Y0306038D01*
X0024603Y0305378D01*
Y0302622D01*
X0024734Y0301961D01*
X0025108Y0301401D01*
X0025668Y0301027D01*
X0026032Y0300955D01*
X0026039Y0300909D01*
X0026044Y0300849D01*
Y0299228D01*
X0026042Y0299199D01*
X0026008Y0299047D01*
X0025942Y0298864D01*
X0025841Y0298654D01*
X0025703Y0298418D01*
X0025526Y0298160D01*
X0025314Y0297887D01*
X0024752Y0297263D01*
X0024415Y0296928D01*
X0024377Y0296871D01*
X0023995Y0296490D01*
X0023461Y0295565D01*
X0023185Y0294534D01*
Y0293466D01*
X0023461Y0292435D01*
X0023995Y0291510D01*
X0024750Y0290755D01*
X0025675Y0290221D01*
X0026706Y0289945D01*
X0027774D01*
X0028805Y0290221D01*
X0029730Y0290755D01*
X0030485Y0291510D01*
X0031019Y0292435D01*
X0031295Y0293466D01*
Y0294534D01*
X0031019Y0295565D01*
X0030485Y0296490D01*
X0030163Y0296812D01*
X0030128Y0296867D01*
X0029794Y0297212D01*
X0029237Y0297855D01*
X0029026Y0298135D01*
X0028849Y0298399D01*
X0028711Y0298640D01*
X0028611Y0298854D01*
X0028545Y0299038D01*
X0028511Y0299190D01*
X0028509Y0299217D01*
Y0300847D01*
X0028514Y0300906D01*
X0028520Y0300940D01*
X0028958Y0301027D01*
X0029518Y0301401D01*
X0029892Y0301961D01*
X0030023Y0302622D01*
Y0305378D01*
X0029892Y0306038D01*
X0029518Y0306598D01*
X0028958Y0306973D01*
X0028297Y0307104D01*
D02*
G37*
G36*
X0334510Y0293250D02*
X0330961D01*
X0331210Y0292322D01*
X0331782Y0291331D01*
X0332591Y0290522D01*
X0333582Y0289950D01*
X0334510Y0289701D01*
Y0293250D01*
D02*
G37*
G36*
X0015663D02*
X0012115D01*
X0012363Y0292322D01*
X0012935Y0291331D01*
X0013745Y0290522D01*
X0014736Y0289950D01*
X0015663Y0289701D01*
Y0293250D01*
D02*
G37*
G36*
X0339559D02*
X0336010D01*
Y0289701D01*
X0336937Y0289950D01*
X0337929Y0290522D01*
X0338738Y0291331D01*
X0339310Y0292322D01*
X0339559Y0293250D01*
D02*
G37*
G36*
X0020712D02*
X0017163D01*
Y0289701D01*
X0018091Y0289950D01*
X0019082Y0290522D01*
X0019891Y0291331D01*
X0020464Y0292322D01*
X0020712Y0293250D01*
D02*
G37*
G36*
X0195799Y0289010D02*
X0192250D01*
Y0285461D01*
X0193178Y0285710D01*
X0194169Y0286282D01*
X0194978Y0287091D01*
X0195550Y0288082D01*
X0195799Y0289010D01*
D02*
G37*
G36*
X0190750D02*
X0187201D01*
X0187450Y0288082D01*
X0188022Y0287091D01*
X0188831Y0286282D01*
X0189822Y0285710D01*
X0190750Y0285461D01*
Y0289010D01*
D02*
G37*
G36*
X0175799Y0289010D02*
X0172250D01*
Y0285461D01*
X0173178Y0285710D01*
X0174169Y0286282D01*
X0174978Y0287091D01*
X0175550Y0288082D01*
X0175799Y0289010D01*
D02*
G37*
G36*
X0170750D02*
X0167201D01*
X0167450Y0288082D01*
X0168022Y0287091D01*
X0168831Y0286282D01*
X0169822Y0285710D01*
X0170750Y0285461D01*
Y0289010D01*
D02*
G37*
G36*
X0182112Y0288992D02*
X0180888D01*
X0179707Y0288675D01*
X0178647Y0288064D01*
X0177782Y0287199D01*
X0177171Y0286140D01*
X0176854Y0284958D01*
Y0283735D01*
X0177171Y0282553D01*
X0177782Y0281494D01*
X0178647Y0280629D01*
X0179707Y0280017D01*
X0180888Y0279701D01*
X0182112D01*
X0183293Y0280017D01*
X0184353Y0280629D01*
X0185217Y0281494D01*
X0185829Y0282553D01*
X0186146Y0283735D01*
Y0284958D01*
X0185829Y0286140D01*
X0185217Y0287199D01*
X0184353Y0288064D01*
X0183293Y0288675D01*
X0182112Y0288992D01*
D02*
G37*
G36*
X0330458Y0288646D02*
X0329235D01*
X0328053Y0288329D01*
X0326994Y0287718D01*
X0326129Y0286853D01*
X0325517Y0285793D01*
X0325201Y0284612D01*
Y0283388D01*
X0325517Y0282207D01*
X0326129Y0281148D01*
X0326994Y0280283D01*
X0328053Y0279671D01*
X0329235Y0279354D01*
X0330458D01*
X0331640Y0279671D01*
X0332699Y0280283D01*
X0333564Y0281148D01*
X0334175Y0282207D01*
X0334492Y0283388D01*
Y0284612D01*
X0334175Y0285793D01*
X0333564Y0286853D01*
X0332699Y0287718D01*
X0331640Y0288329D01*
X0330458Y0288646D01*
D02*
G37*
G36*
X0011612D02*
X0010388D01*
X0009207Y0288329D01*
X0008147Y0287718D01*
X0007282Y0286853D01*
X0006671Y0285793D01*
X0006354Y0284612D01*
Y0283388D01*
X0006671Y0282207D01*
X0007282Y0281148D01*
X0008147Y0280283D01*
X0009207Y0279671D01*
X0010388Y0279354D01*
X0011612D01*
X0012793Y0279671D01*
X0013852Y0280283D01*
X0014717Y0281148D01*
X0015329Y0282207D01*
X0015646Y0283388D01*
Y0284612D01*
X0015329Y0285793D01*
X0014717Y0286853D01*
X0013852Y0287718D01*
X0012793Y0288329D01*
X0011612Y0288646D01*
D02*
G37*
G36*
X0352112Y0288646D02*
X0350888D01*
X0349707Y0288329D01*
X0348647Y0287718D01*
X0347782Y0286853D01*
X0347171Y0285793D01*
X0346854Y0284612D01*
Y0283388D01*
X0347171Y0282207D01*
X0347782Y0281148D01*
X0348647Y0280282D01*
X0349707Y0279671D01*
X0350888Y0279354D01*
X0352112D01*
X0353293Y0279671D01*
X0354352Y0280282D01*
X0355217Y0281148D01*
X0355829Y0282207D01*
X0356146Y0283388D01*
Y0284612D01*
X0355829Y0285793D01*
X0355217Y0286853D01*
X0354352Y0287718D01*
X0353293Y0288329D01*
X0352112Y0288646D01*
D02*
G37*
G36*
X0033265D02*
X0032042D01*
X0030860Y0288329D01*
X0029801Y0287718D01*
X0028936Y0286853D01*
X0028324Y0285793D01*
X0028008Y0284612D01*
Y0283388D01*
X0028324Y0282207D01*
X0028936Y0281148D01*
X0029801Y0280282D01*
X0030860Y0279671D01*
X0032042Y0279354D01*
X0033265D01*
X0034447Y0279671D01*
X0035506Y0280282D01*
X0036371Y0281148D01*
X0036983Y0282207D01*
X0037299Y0283388D01*
Y0284612D01*
X0036983Y0285793D01*
X0036371Y0286853D01*
X0035506Y0287718D01*
X0034447Y0288329D01*
X0033265Y0288646D01*
D02*
G37*
G36*
X0017163Y0278299D02*
Y0274750D01*
X0020712D01*
X0020464Y0275678D01*
X0019891Y0276669D01*
X0019082Y0277478D01*
X0018091Y0278050D01*
X0017163Y0278299D01*
D02*
G37*
G36*
X0015663Y0278299D02*
X0014736Y0278050D01*
X0013745Y0277478D01*
X0012935Y0276669D01*
X0012363Y0275678D01*
X0012115Y0274750D01*
X0015663D01*
Y0278299D01*
D02*
G37*
G36*
X0336010D02*
Y0274750D01*
X0339559D01*
X0339310Y0275678D01*
X0338738Y0276669D01*
X0337929Y0277478D01*
X0336937Y0278050D01*
X0336010Y0278299D01*
D02*
G37*
G36*
X0334510D02*
X0333582Y0278050D01*
X0332591Y0277478D01*
X0331782Y0276669D01*
X0331209Y0275678D01*
X0330961Y0274750D01*
X0334510D01*
Y0278299D01*
D02*
G37*
G36*
X0015663Y0273250D02*
X0012115D01*
X0012363Y0272322D01*
X0012935Y0271331D01*
X0013745Y0270522D01*
X0014736Y0269950D01*
X0015663Y0269701D01*
Y0273250D01*
D02*
G37*
G36*
X0020712D02*
X0017163D01*
Y0269701D01*
X0018091Y0269950D01*
X0019082Y0270522D01*
X0019891Y0271331D01*
X0020464Y0272322D01*
X0020712Y0273250D01*
D02*
G37*
G36*
X0012534Y0268370D02*
X0011829D01*
X0011148Y0268188D01*
X0010537Y0267835D01*
X0010039Y0267337D01*
X0009686Y0266726D01*
X0009504Y0266045D01*
Y0265340D01*
X0009686Y0264660D01*
X0010039Y0264049D01*
X0010537Y0263551D01*
X0011148Y0263198D01*
X0011829Y0263016D01*
X0012534D01*
X0013215Y0263198D01*
X0013825Y0263551D01*
X0014323Y0264049D01*
X0014676Y0264660D01*
X0014858Y0265340D01*
Y0266045D01*
X0014676Y0266726D01*
X0014323Y0267337D01*
X0013825Y0267835D01*
X0013215Y0268188D01*
X0012534Y0268370D01*
D02*
G37*
G36*
X0182343Y0277209D02*
X0180657D01*
X0178992Y0276945D01*
X0177389Y0276424D01*
X0175887Y0275659D01*
X0174524Y0274668D01*
X0173332Y0273476D01*
X0172341Y0272113D01*
X0171576Y0270611D01*
X0171055Y0269008D01*
X0170791Y0267343D01*
Y0265657D01*
X0171055Y0263992D01*
X0171576Y0262389D01*
X0172341Y0260887D01*
X0173332Y0259524D01*
X0174524Y0258332D01*
X0175887Y0257341D01*
X0177389Y0256576D01*
X0178992Y0256055D01*
X0180657Y0255791D01*
X0182343D01*
X0184008Y0256055D01*
X0185611Y0256576D01*
X0187113Y0257341D01*
X0188476Y0258332D01*
X0189668Y0259524D01*
X0190659Y0260887D01*
X0191424Y0262389D01*
X0191945Y0263992D01*
X0192209Y0265657D01*
Y0267343D01*
X0191945Y0269008D01*
X0191424Y0270611D01*
X0190659Y0272113D01*
X0189668Y0273476D01*
X0188476Y0274668D01*
X0187113Y0275659D01*
X0185611Y0276424D01*
X0184008Y0276945D01*
X0182343Y0277209D01*
D02*
G37*
G36*
X0163271Y0254250D02*
X0158750D01*
Y0250417D01*
X0158787D01*
X0159974Y0250574D01*
X0161079Y0251031D01*
X0162028Y0251760D01*
X0162756Y0252709D01*
X0163214Y0253814D01*
X0163271Y0254250D01*
D02*
G37*
G36*
X0213484Y0250693D02*
X0211516D01*
X0210560Y0250567D01*
X0209669Y0250198D01*
X0208904Y0249611D01*
X0208317Y0248847D01*
X0207949Y0247956D01*
X0207823Y0247000D01*
X0207949Y0246044D01*
X0208317Y0245153D01*
X0208904Y0244389D01*
X0209669Y0243802D01*
X0210560Y0243433D01*
X0211516Y0243307D01*
X0213484D01*
X0214440Y0243433D01*
X0215331Y0243802D01*
X0216096Y0244389D01*
X0216683Y0245153D01*
X0217051Y0246044D01*
X0217177Y0247000D01*
X0217051Y0247956D01*
X0216683Y0248847D01*
X0216096Y0249611D01*
X0215331Y0250198D01*
X0214440Y0250567D01*
X0213484Y0250693D01*
D02*
G37*
G36*
Y0240693D02*
X0211516D01*
X0210560Y0240567D01*
X0209669Y0240198D01*
X0208904Y0239611D01*
X0208317Y0238846D01*
X0207949Y0237956D01*
X0207823Y0237000D01*
X0207949Y0236044D01*
X0208317Y0235154D01*
X0208904Y0234389D01*
X0209669Y0233802D01*
X0210560Y0233433D01*
X0211516Y0233307D01*
X0213484D01*
X0214440Y0233433D01*
X0215331Y0233802D01*
X0216096Y0234389D01*
X0216683Y0235154D01*
X0217051Y0236044D01*
X0217177Y0237000D01*
X0217051Y0237956D01*
X0216683Y0238846D01*
X0216096Y0239611D01*
X0215331Y0240198D01*
X0214440Y0240567D01*
X0213484Y0240693D01*
D02*
G37*
G36*
Y0230693D02*
X0211516D01*
X0210560Y0230567D01*
X0209669Y0230198D01*
X0208904Y0229611D01*
X0208317Y0228847D01*
X0207949Y0227956D01*
X0207823Y0227000D01*
X0207949Y0226044D01*
X0208317Y0225153D01*
X0208904Y0224389D01*
X0209669Y0223802D01*
X0210560Y0223433D01*
X0211516Y0223307D01*
X0213484D01*
X0214440Y0223433D01*
X0215331Y0223802D01*
X0216096Y0224389D01*
X0216683Y0225153D01*
X0217051Y0226044D01*
X0217177Y0227000D01*
X0217051Y0227956D01*
X0216683Y0228847D01*
X0216096Y0229611D01*
X0215331Y0230198D01*
X0214440Y0230567D01*
X0213484Y0230693D01*
D02*
G37*
G36*
Y0220693D02*
X0211516D01*
X0210560Y0220567D01*
X0209669Y0220198D01*
X0208904Y0219611D01*
X0208317Y0218847D01*
X0207949Y0217956D01*
X0207823Y0217000D01*
X0207949Y0216044D01*
X0208317Y0215154D01*
X0208904Y0214389D01*
X0209669Y0213802D01*
X0210560Y0213433D01*
X0211516Y0213307D01*
X0213484D01*
X0214440Y0213433D01*
X0215331Y0213802D01*
X0216096Y0214389D01*
X0216683Y0215154D01*
X0217051Y0216044D01*
X0217177Y0217000D01*
X0217051Y0217956D01*
X0216683Y0218847D01*
X0216096Y0219611D01*
X0215331Y0220198D01*
X0214440Y0220567D01*
X0213484Y0220693D01*
D02*
G37*
G36*
Y0190987D02*
X0213250D01*
Y0187750D01*
X0217372D01*
X0217335Y0188032D01*
X0216937Y0188993D01*
X0216303Y0189819D01*
X0215478Y0190453D01*
X0214516Y0190851D01*
X0213484Y0190987D01*
D02*
G37*
G36*
X0211750D02*
X0211516D01*
X0210484Y0190851D01*
X0209522Y0190453D01*
X0208697Y0189819D01*
X0208063Y0188993D01*
X0207665Y0188032D01*
X0207628Y0187750D01*
X0211750D01*
Y0190987D01*
D02*
G37*
G36*
X0217372Y0186250D02*
X0213250D01*
Y0183013D01*
X0213484D01*
X0214516Y0183149D01*
X0215478Y0183547D01*
X0216303Y0184181D01*
X0216937Y0185007D01*
X0217335Y0185968D01*
X0217372Y0186250D01*
D02*
G37*
G36*
X0211750D02*
X0207628D01*
X0207665Y0185968D01*
X0208063Y0185007D01*
X0208697Y0184181D01*
X0209522Y0183547D01*
X0210484Y0183149D01*
X0211516Y0183013D01*
X0211750D01*
Y0186250D01*
D02*
G37*
G36*
X0121997Y0147061D02*
X0119826Y0146599D01*
X0120411Y0143852D01*
X0122581Y0144313D01*
X0121997Y0147061D01*
D02*
G37*
G36*
X0118359Y0146288D02*
X0116189Y0145826D01*
X0116773Y0143079D01*
X0118943Y0143540D01*
X0118359Y0146288D01*
D02*
G37*
G36*
X0106461Y0143683D02*
X0104291Y0143221D01*
X0104875Y0140474D01*
X0107045Y0140935D01*
X0106461Y0143683D01*
D02*
G37*
G36*
X0102824Y0142910D02*
X0100654Y0142448D01*
X0101238Y0139701D01*
X0103408Y0140162D01*
X0102824Y0142910D01*
D02*
G37*
G36*
X0090859Y0140285D02*
X0088689Y0139824D01*
X0089273Y0137076D01*
X0091443Y0137538D01*
X0090859Y0140285D01*
D02*
G37*
G36*
X0087221Y0139512D02*
X0085052Y0139051D01*
X0085636Y0136303D01*
X0087806Y0136764D01*
X0087221Y0139512D01*
D02*
G37*
G36*
X0284378Y0127523D02*
X0281622D01*
X0280961Y0127392D01*
X0280401Y0127018D01*
X0280027Y0126458D01*
X0279945Y0126045D01*
X0241724D01*
X0241724Y0126045D01*
X0241252Y0125952D01*
X0240853Y0125684D01*
X0240852Y0125684D01*
X0234134Y0118966D01*
X0233867Y0118566D01*
X0233773Y0118095D01*
X0233773Y0118095D01*
Y0117016D01*
X0228216Y0111459D01*
X0227610D01*
X0226890Y0111161D01*
X0226340Y0110609D01*
X0226041Y0109890D01*
Y0109110D01*
X0226340Y0108390D01*
X0226890Y0107840D01*
X0227610Y0107541D01*
X0228390D01*
X0229110Y0107840D01*
X0229661Y0108390D01*
X0229959Y0109110D01*
Y0109716D01*
X0235877Y0115634D01*
X0235877Y0115634D01*
X0236144Y0116034D01*
X0236238Y0116506D01*
Y0117584D01*
X0242234Y0123581D01*
X0279945D01*
X0280027Y0123168D01*
X0280401Y0122608D01*
X0280961Y0122234D01*
X0281622Y0122103D01*
X0284378D01*
X0285038Y0122234D01*
X0285598Y0122608D01*
X0285973Y0123168D01*
X0286104Y0123829D01*
Y0125797D01*
X0285973Y0126458D01*
X0285598Y0127018D01*
X0285038Y0127392D01*
X0284378Y0127523D01*
D02*
G37*
G36*
Y0136897D02*
X0281622D01*
X0280961Y0136766D01*
X0280401Y0136392D01*
X0280027Y0135832D01*
X0279896Y0135171D01*
Y0133203D01*
X0280027Y0132542D01*
X0280401Y0131982D01*
X0280961Y0131608D01*
X0281622Y0131477D01*
X0284378D01*
X0285038Y0131608D01*
X0285598Y0131982D01*
X0285973Y0132542D01*
X0286055Y0132955D01*
X0288929D01*
Y0130968D01*
X0288850D01*
Y0127032D01*
X0288850Y0127032D01*
X0288850D01*
X0288786Y0126892D01*
X0288753Y0126821D01*
X0288707Y0126591D01*
X0288707Y0126591D01*
X0288705Y0126579D01*
X0288599Y0126047D01*
Y0125813D01*
X0292000D01*
X0295401D01*
Y0126047D01*
X0295293Y0126591D01*
X0295247Y0126821D01*
X0295150Y0127032D01*
X0295150Y0127032D01*
Y0130968D01*
X0295071D01*
Y0135614D01*
X0288929D01*
Y0135419D01*
X0286055D01*
X0285973Y0135832D01*
X0285598Y0136392D01*
X0285038Y0136766D01*
X0284378Y0136897D01*
D02*
G37*
G36*
X0295401Y0124313D02*
X0292750D01*
Y0122056D01*
X0293378D01*
X0294152Y0122210D01*
X0294809Y0122648D01*
X0295247Y0123304D01*
X0295401Y0124079D01*
Y0124313D01*
D02*
G37*
G36*
X0291250D02*
X0288599D01*
Y0124079D01*
X0288753Y0123304D01*
X0289192Y0122648D01*
X0289848Y0122210D01*
X0290622Y0122056D01*
X0291250D01*
Y0124313D01*
D02*
G37*
G36*
X0126814Y0122995D02*
X0121577Y0121882D01*
X0122340Y0118289D01*
X0121474Y0117423D01*
X0121390Y0117459D01*
X0120610D01*
X0119890Y0117160D01*
X0119340Y0116610D01*
X0119041Y0115890D01*
Y0115110D01*
X0119340Y0114391D01*
X0119890Y0113839D01*
X0120610Y0113541D01*
X0121390D01*
X0122109Y0113839D01*
X0122661Y0114391D01*
X0122959Y0115110D01*
Y0115422D01*
X0123050Y0115514D01*
X0128173Y0116603D01*
X0126814Y0122995D01*
D02*
G37*
G36*
X0076129Y0130608D02*
X0070121Y0129331D01*
X0070734Y0126449D01*
X0066129Y0121844D01*
X0065861Y0121444D01*
X0065768Y0120973D01*
X0065768Y0120973D01*
Y0076000D01*
X0065768Y0076000D01*
X0065861Y0075528D01*
X0066129Y0075129D01*
X0070629Y0070629D01*
X0070629Y0070629D01*
X0071028Y0070362D01*
X0071500Y0070268D01*
X0071500Y0070268D01*
X0113989D01*
X0117541Y0066716D01*
Y0066110D01*
X0117840Y0065390D01*
X0118391Y0064840D01*
X0119110Y0064541D01*
X0119890D01*
X0120609Y0064840D01*
X0121160Y0065390D01*
X0121459Y0066110D01*
Y0066890D01*
X0121160Y0067610D01*
X0120609Y0068160D01*
X0119890Y0068459D01*
X0119284D01*
X0115371Y0072371D01*
X0114972Y0072638D01*
X0114500Y0072732D01*
X0114500Y0072732D01*
X0072010D01*
X0068232Y0076511D01*
Y0114050D01*
X0068732Y0114149D01*
X0068840Y0113891D01*
X0069390Y0113339D01*
X0070110Y0113041D01*
X0070890D01*
X0071609Y0113339D01*
X0072161Y0113891D01*
X0072459Y0114610D01*
Y0115283D01*
X0073879Y0116703D01*
X0074534Y0116711D01*
X0077230Y0117284D01*
X0077849Y0117550D01*
X0078319Y0118033D01*
X0078568Y0118658D01*
X0078559Y0119332D01*
X0078150Y0121257D01*
X0077955Y0121711D01*
X0077990Y0122229D01*
X0077990D01*
X0077171Y0126080D01*
X0077095Y0126064D01*
X0076129Y0130608D01*
D02*
G37*
G36*
X0250929Y0119898D02*
X0247071D01*
X0245142Y0117968D01*
Y0114110D01*
X0247071Y0112181D01*
X0250929D01*
X0252858Y0114110D01*
Y0117968D01*
X0250929Y0119898D01*
D02*
G37*
G36*
X0087974Y0110644D02*
X0086971Y0110375D01*
X0085935Y0109777D01*
X0085089Y0108931D01*
X0084491Y0107895D01*
X0084222Y0106892D01*
X0087974D01*
Y0110644D01*
D02*
G37*
G36*
X0078451D02*
Y0106892D01*
X0082203D01*
X0081934Y0107895D01*
X0081336Y0108931D01*
X0080490Y0109777D01*
X0079454Y0110375D01*
X0078451Y0110644D01*
D02*
G37*
G36*
X0076951D02*
X0075947Y0110375D01*
X0074911Y0109777D01*
X0074065Y0108931D01*
X0073467Y0107895D01*
X0073198Y0106892D01*
X0076951D01*
Y0110644D01*
D02*
G37*
G36*
X0289154Y0111496D02*
X0280650D01*
Y0102992D01*
X0289154D01*
Y0111496D01*
D02*
G37*
G36*
X0274438D02*
X0273318D01*
X0272237Y0111206D01*
X0271267Y0110646D01*
X0270476Y0109855D01*
X0269916Y0108885D01*
X0269626Y0107804D01*
Y0106684D01*
X0269916Y0105603D01*
X0270476Y0104633D01*
X0271267Y0103842D01*
X0272237Y0103282D01*
X0273318Y0102992D01*
X0274438D01*
X0275519Y0103282D01*
X0276489Y0103842D01*
X0277280Y0104633D01*
X0277840Y0105603D01*
X0278130Y0106684D01*
Y0107804D01*
X0277840Y0108885D01*
X0277280Y0109855D01*
X0276489Y0110646D01*
X0275519Y0111206D01*
X0274438Y0111496D01*
D02*
G37*
G36*
X0082203Y0105392D02*
X0078451D01*
Y0101639D01*
X0079454Y0101908D01*
X0080490Y0102506D01*
X0081336Y0103352D01*
X0081934Y0104388D01*
X0082203Y0105392D01*
D02*
G37*
G36*
X0076951D02*
X0073198D01*
X0073467Y0104388D01*
X0074065Y0103352D01*
X0074911Y0102506D01*
X0075947Y0101908D01*
X0076951Y0101639D01*
Y0105392D01*
D02*
G37*
G36*
X0093227D02*
X0089474D01*
Y0101639D01*
X0090478Y0101908D01*
X0091514Y0102506D01*
X0092360Y0103352D01*
X0092958Y0104388D01*
X0093227Y0105392D01*
D02*
G37*
G36*
X0087974D02*
X0084222D01*
X0084491Y0104388D01*
X0085089Y0103352D01*
X0085935Y0102506D01*
X0086971Y0101908D01*
X0087974Y0101639D01*
Y0105392D01*
D02*
G37*
G36*
X0274628Y0101904D02*
Y0098152D01*
X0278381D01*
X0278112Y0099155D01*
X0277514Y0100191D01*
X0276668Y0101037D01*
X0275632Y0101635D01*
X0274628Y0101904D01*
D02*
G37*
G36*
X0285652Y0101904D02*
Y0098152D01*
X0289404D01*
X0289135Y0099155D01*
X0288537Y0100191D01*
X0287691Y0101037D01*
X0286655Y0101635D01*
X0285652Y0101904D01*
D02*
G37*
G36*
X0284152D02*
X0283148Y0101635D01*
X0282112Y0101037D01*
X0281266Y0100191D01*
X0280668Y0099155D01*
X0280399Y0098152D01*
X0284152D01*
Y0101904D01*
D02*
G37*
G36*
X0273128D02*
X0272124Y0101635D01*
X0271088Y0101037D01*
X0270242Y0100191D01*
X0269644Y0099155D01*
X0269375Y0098152D01*
X0273128D01*
Y0101904D01*
D02*
G37*
G36*
X0278381Y0096652D02*
X0274628D01*
Y0092899D01*
X0275632Y0093168D01*
X0276668Y0093766D01*
X0277514Y0094612D01*
X0278112Y0095648D01*
X0278381Y0096652D01*
D02*
G37*
G36*
X0289404D02*
X0285652D01*
Y0092899D01*
X0286655Y0093168D01*
X0287691Y0093766D01*
X0288537Y0094612D01*
X0289135Y0095648D01*
X0289404Y0096652D01*
D02*
G37*
G36*
X0284152D02*
X0280399D01*
X0280668Y0095648D01*
X0281266Y0094612D01*
X0282112Y0093766D01*
X0283148Y0093168D01*
X0284152Y0092899D01*
Y0096652D01*
D02*
G37*
G36*
X0273128D02*
X0269375D01*
X0269644Y0095648D01*
X0270242Y0094612D01*
X0271088Y0093766D01*
X0272124Y0093168D01*
X0273128Y0092899D01*
Y0096652D01*
D02*
G37*
G36*
X0204441Y0097332D02*
X0202959D01*
X0201527Y0096949D01*
X0200243Y0096207D01*
X0199195Y0095159D01*
X0198454Y0093875D01*
X0198070Y0092444D01*
Y0090961D01*
X0198454Y0089529D01*
X0199195Y0088245D01*
X0200243Y0087197D01*
X0201527Y0086456D01*
X0202959Y0086072D01*
X0204441D01*
X0205873Y0086456D01*
X0207157Y0087197D01*
X0208205Y0088245D01*
X0208946Y0089529D01*
X0209330Y0090961D01*
Y0092444D01*
X0208946Y0093875D01*
X0208205Y0095159D01*
X0207157Y0096207D01*
X0205873Y0096949D01*
X0204441Y0097332D01*
D02*
G37*
G36*
X0218641Y0097332D02*
X0217159D01*
X0215727Y0096949D01*
X0214443Y0096207D01*
X0213395Y0095159D01*
X0212654Y0093875D01*
X0212270Y0092444D01*
Y0090961D01*
X0212654Y0089529D01*
X0213395Y0088245D01*
X0214443Y0087197D01*
X0215727Y0086456D01*
X0217159Y0086072D01*
X0218641D01*
X0220073Y0086456D01*
X0221357Y0087197D01*
X0222405Y0088245D01*
X0223146Y0089529D01*
X0223530Y0090961D01*
Y0092444D01*
X0223146Y0093875D01*
X0222405Y0095159D01*
X0221357Y0096207D01*
X0220073Y0096949D01*
X0218641Y0097332D01*
D02*
G37*
G36*
X0160241Y0097059D02*
X0158759D01*
X0157327Y0096675D01*
X0156043Y0095934D01*
X0154995Y0094886D01*
X0154254Y0093602D01*
X0153870Y0092170D01*
Y0090688D01*
X0154254Y0089256D01*
X0154995Y0087972D01*
X0156043Y0086924D01*
X0157327Y0086183D01*
X0158759Y0085799D01*
X0160241D01*
X0161673Y0086183D01*
X0162957Y0086924D01*
X0164005Y0087972D01*
X0164746Y0089256D01*
X0165130Y0090688D01*
Y0092170D01*
X0164746Y0093602D01*
X0164005Y0094886D01*
X0162957Y0095934D01*
X0161673Y0096675D01*
X0160241Y0097059D01*
D02*
G37*
G36*
X0145641D02*
X0144159D01*
X0142727Y0096675D01*
X0141443Y0095934D01*
X0140395Y0094886D01*
X0139654Y0093602D01*
X0139270Y0092170D01*
Y0090688D01*
X0139654Y0089256D01*
X0140395Y0087972D01*
X0141443Y0086924D01*
X0142727Y0086183D01*
X0144159Y0085799D01*
X0145641D01*
X0147073Y0086183D01*
X0148357Y0086924D01*
X0149405Y0087972D01*
X0150146Y0089256D01*
X0150530Y0090688D01*
Y0092170D01*
X0150146Y0093602D01*
X0149405Y0094886D01*
X0148357Y0095934D01*
X0147073Y0096675D01*
X0145641Y0097059D01*
D02*
G37*
G36*
X0118876Y0100976D02*
X0117324D01*
X0115803Y0100674D01*
X0114370Y0100080D01*
X0113081Y0099218D01*
X0111984Y0098122D01*
X0111122Y0096832D01*
X0110529Y0095399D01*
X0110226Y0093878D01*
Y0092327D01*
X0110529Y0090806D01*
X0111122Y0089373D01*
X0111984Y0088083D01*
X0113081Y0086986D01*
X0114370Y0086124D01*
X0115803Y0085531D01*
X0117324Y0085228D01*
X0118876Y0085228D01*
X0120397Y0085531D01*
X0121830Y0086124D01*
X0123119Y0086986D01*
X0124216Y0088083D01*
X0125078Y0089373D01*
X0125671Y0090806D01*
X0125974Y0092327D01*
Y0093878D01*
X0125671Y0095399D01*
X0125078Y0096832D01*
X0124216Y0098122D01*
X0123119Y0099218D01*
X0121830Y0100080D01*
X0120397Y0100674D01*
X0118876Y0100976D01*
D02*
G37*
G36*
X0245876Y0099576D02*
X0244324D01*
X0242803Y0099274D01*
X0241370Y0098680D01*
X0240081Y0097818D01*
X0238984Y0096722D01*
X0238122Y0095432D01*
X0237529Y0093999D01*
X0237226Y0092478D01*
X0237226Y0090927D01*
X0237529Y0089406D01*
X0238122Y0087973D01*
X0238984Y0086683D01*
X0240081Y0085586D01*
X0241370Y0084724D01*
X0242803Y0084131D01*
X0244324Y0083828D01*
X0245876D01*
X0247397Y0084131D01*
X0248830Y0084724D01*
X0250119Y0085586D01*
X0251216Y0086683D01*
X0252078Y0087973D01*
X0252671Y0089406D01*
X0252974Y0090927D01*
Y0092478D01*
X0252671Y0093999D01*
X0252078Y0095432D01*
X0251216Y0096722D01*
X0250119Y0097818D01*
X0248830Y0098680D01*
X0247397Y0099274D01*
X0245876Y0099576D01*
D02*
G37*
G36*
X0090592Y0060066D02*
Y0056876D01*
X0093783D01*
X0093570Y0057670D01*
X0093043Y0058582D01*
X0092299Y0059327D01*
X0091386Y0059853D01*
X0090592Y0060066D01*
D02*
G37*
G36*
X0089092D02*
X0088299Y0059853D01*
X0087387Y0059327D01*
X0086642Y0058582D01*
X0086115Y0057670D01*
X0085902Y0056876D01*
X0089092D01*
Y0060066D01*
D02*
G37*
G36*
X0093783Y0055376D02*
X0090592D01*
Y0052186D01*
X0091386Y0052399D01*
X0092299Y0052925D01*
X0093043Y0053670D01*
X0093570Y0054582D01*
X0093783Y0055376D01*
D02*
G37*
G36*
X0089092D02*
X0085902D01*
X0086115Y0054582D01*
X0086642Y0053670D01*
X0087387Y0052925D01*
X0088299Y0052399D01*
X0089092Y0052186D01*
Y0055376D01*
D02*
G37*
G36*
X0070972Y0038830D02*
X0070274Y0038738D01*
X0069622Y0038468D01*
X0069063Y0038039D01*
X0068634Y0037480D01*
X0068364Y0036829D01*
X0068272Y0036130D01*
Y0031405D01*
X0068364Y0030707D01*
X0068634Y0030055D01*
X0069063Y0029496D01*
X0069622Y0029067D01*
X0070274Y0028797D01*
X0070972Y0028705D01*
X0071671Y0028797D01*
X0072323Y0029067D01*
X0072882Y0029496D01*
X0073311Y0030055D01*
X0073581Y0030707D01*
X0073673Y0031405D01*
Y0036130D01*
X0073581Y0036829D01*
X0073311Y0037480D01*
X0072882Y0038039D01*
X0072323Y0038468D01*
X0071671Y0038738D01*
X0070972Y0038830D01*
D02*
G37*
G36*
X0206870Y0026937D02*
X0205250D01*
Y0022750D01*
X0209240D01*
Y0024567D01*
X0206870Y0026937D01*
D02*
G37*
G36*
X0203750D02*
X0202130D01*
X0199760Y0024567D01*
Y0022750D01*
X0203750D01*
Y0026937D01*
D02*
G37*
G36*
X0209240Y0021250D02*
X0205250D01*
Y0017063D01*
X0206870D01*
X0209240Y0019433D01*
Y0021250D01*
D02*
G37*
G36*
X0117324Y0031376D02*
X0115803Y0031074D01*
X0114370Y0030480D01*
X0113081Y0029618D01*
X0111984Y0028522D01*
X0111122Y0027232D01*
X0110529Y0025799D01*
X0110226Y0024278D01*
Y0022727D01*
X0110529Y0021206D01*
X0111122Y0019773D01*
X0111984Y0018483D01*
X0113081Y0017386D01*
X0114370Y0016524D01*
X0115803Y0015931D01*
X0117324Y0015628D01*
X0118876Y0015628D01*
X0120397Y0015931D01*
X0121830Y0016524D01*
X0123119Y0017386D01*
X0124216Y0018483D01*
X0125078Y0019773D01*
X0125671Y0021206D01*
X0125974Y0022727D01*
Y0024278D01*
X0125671Y0025799D01*
X0125078Y0027232D01*
X0124216Y0028522D01*
X0123119Y0029618D01*
X0121830Y0030480D01*
X0120397Y0031074D01*
X0118876Y0031376D01*
X0117324Y0031376D01*
D02*
G37*
G36*
X0245876Y0029976D02*
X0244324D01*
X0242803Y0029674D01*
X0241370Y0029080D01*
X0240081Y0028218D01*
X0238984Y0027122D01*
X0238122Y0025832D01*
X0237529Y0024399D01*
X0237226Y0022878D01*
Y0021327D01*
X0237529Y0019806D01*
X0238122Y0018373D01*
X0238984Y0017083D01*
X0240081Y0015986D01*
X0241370Y0015124D01*
X0242803Y0014531D01*
X0244324Y0014228D01*
X0245876D01*
X0247397Y0014531D01*
X0248830Y0015124D01*
X0250119Y0015986D01*
X0251216Y0017083D01*
X0252078Y0018373D01*
X0252671Y0019806D01*
X0252974Y0021327D01*
Y0022878D01*
X0252671Y0024399D01*
X0252078Y0025832D01*
X0251216Y0027122D01*
X0250119Y0028218D01*
X0248830Y0029080D01*
X0247397Y0029674D01*
X0245876Y0029976D01*
D02*
G37*
G36*
X0105028Y0021704D02*
X0104329Y0021612D01*
X0103677Y0021342D01*
X0103118Y0020913D01*
X0102689Y0020354D01*
X0102419Y0019703D01*
X0102327Y0019004D01*
Y0015461D01*
X0102419Y0014762D01*
X0102689Y0014110D01*
X0103118Y0013551D01*
X0103677Y0013122D01*
X0104329Y0012852D01*
X0105028Y0012760D01*
X0105726Y0012852D01*
X0106378Y0013122D01*
X0106937Y0013551D01*
X0107366Y0014110D01*
X0107636Y0014762D01*
X0107728Y0015461D01*
Y0019004D01*
X0107636Y0019703D01*
X0107366Y0020354D01*
X0106937Y0020913D01*
X0106378Y0021342D01*
X0105726Y0021612D01*
X0105028Y0021704D01*
D02*
G37*
G36*
X0070972D02*
X0070274Y0021612D01*
X0069622Y0021342D01*
X0069063Y0020913D01*
X0068634Y0020354D01*
X0068364Y0019703D01*
X0068272Y0019004D01*
Y0015461D01*
X0068364Y0014762D01*
X0068634Y0014110D01*
X0069063Y0013551D01*
X0069622Y0013122D01*
X0070274Y0012852D01*
X0070972Y0012760D01*
X0071671Y0012852D01*
X0072323Y0013122D01*
X0072882Y0013551D01*
X0073311Y0014110D01*
X0073581Y0014762D01*
X0073673Y0015461D01*
Y0019004D01*
X0073581Y0019703D01*
X0073311Y0020354D01*
X0072882Y0020913D01*
X0072323Y0021342D01*
X0071671Y0021612D01*
X0070972Y0021704D01*
D02*
G37*
G36*
X0149260Y0022824D02*
X0148150Y0022678D01*
X0147116Y0022250D01*
X0146227Y0021568D01*
X0145546Y0020680D01*
X0145117Y0019645D01*
X0144971Y0018535D01*
Y0015622D01*
X0145117Y0014512D01*
X0145546Y0013478D01*
X0146227Y0012589D01*
X0147116Y0011908D01*
X0148150Y0011479D01*
X0149260Y0011333D01*
X0150370Y0011479D01*
X0151404Y0011908D01*
X0152292Y0012589D01*
X0152974Y0013478D01*
X0153402Y0014512D01*
X0153549Y0015622D01*
Y0018535D01*
X0153402Y0019645D01*
X0152974Y0020680D01*
X0152292Y0021568D01*
X0151404Y0022250D01*
X0150370Y0022678D01*
X0149260Y0022824D01*
D02*
G37*
%LPD*%
G36*
X0028277Y0301643D02*
X0028182Y0301633D01*
X0028097Y0301603D01*
X0028022Y0301553D01*
X0027957Y0301482D01*
X0027902Y0301391D01*
X0027857Y0301280D01*
X0027822Y0301148D01*
X0027797Y0300996D01*
X0027782Y0300823D01*
X0027777Y0300631D01*
X0026777D01*
X0026772Y0300824D01*
X0026757Y0300998D01*
X0026732Y0301151D01*
X0026697Y0301284D01*
X0026652Y0301396D01*
X0026597Y0301488D01*
X0026533Y0301560D01*
X0026458Y0301611D01*
X0026373Y0301642D01*
X0026279Y0301653D01*
X0028277Y0301643D01*
D02*
G37*
G36*
X0027777Y0299311D02*
X0027795Y0299081D01*
X0027850Y0298837D01*
X0027942Y0298579D01*
X0028070Y0298306D01*
X0028235Y0298019D01*
X0028436Y0297717D01*
X0028674Y0297400D01*
X0029261Y0296724D01*
X0029609Y0296364D01*
X0024924Y0296415D01*
X0025276Y0296764D01*
X0025869Y0297423D01*
X0026110Y0297733D01*
X0026313Y0298030D01*
X0026480Y0298315D01*
X0026610Y0298586D01*
X0026702Y0298844D01*
X0026758Y0299090D01*
X0026777Y0299322D01*
X0027777Y0299311D01*
D02*
G37*
%LPC*%
G36*
X0212671Y0333901D02*
X0212437D01*
Y0331250D01*
X0214694D01*
Y0331878D01*
X0214540Y0332652D01*
X0214102Y0333309D01*
X0213445Y0333747D01*
X0212671Y0333901D01*
D02*
G37*
G36*
X0210937D02*
X0210703D01*
X0209928Y0333747D01*
X0209272Y0333309D01*
X0208834Y0332652D01*
X0208680Y0331878D01*
Y0331250D01*
X0210937D01*
Y0333901D01*
D02*
G37*
G36*
X0214694Y0329750D02*
X0212437D01*
Y0327099D01*
X0212671D01*
X0213445Y0327253D01*
X0214102Y0327692D01*
X0214540Y0328348D01*
X0214694Y0329122D01*
Y0329750D01*
D02*
G37*
G36*
X0210937D02*
X0208680D01*
Y0329122D01*
X0208834Y0328348D01*
X0209272Y0327692D01*
X0209928Y0327253D01*
X0210703Y0327099D01*
X0210937D01*
Y0329750D01*
D02*
G37*
G36*
X0174026Y0025891D02*
Y0022750D01*
X0177167D01*
X0176959Y0023526D01*
X0176439Y0024427D01*
X0175703Y0025163D01*
X0174801Y0025683D01*
X0174026Y0025891D01*
D02*
G37*
G36*
X0193750Y0026879D02*
X0193263Y0026815D01*
X0192110Y0026337D01*
X0191119Y0025578D01*
X0190359Y0024587D01*
X0189882Y0023434D01*
X0189792Y0022750D01*
X0193750D01*
Y0026879D01*
D02*
G37*
G36*
X0177167Y0021250D02*
X0174026D01*
Y0018109D01*
X0174801Y0018317D01*
X0175703Y0018837D01*
X0176439Y0019573D01*
X0176959Y0020474D01*
X0177167Y0021250D01*
D02*
G37*
G36*
X0193750D02*
X0189792D01*
X0189882Y0020566D01*
X0190359Y0019413D01*
X0191119Y0018422D01*
X0192110Y0017663D01*
X0193263Y0017185D01*
X0193750Y0017121D01*
Y0021250D01*
D02*
G37*
G36*
X0174026Y0016049D02*
Y0012908D01*
X0177167D01*
X0176959Y0013683D01*
X0176439Y0014584D01*
X0175703Y0015321D01*
X0174801Y0015841D01*
X0174026Y0016049D01*
D02*
G37*
G36*
X0181543Y0022815D02*
X0180706Y0022705D01*
X0179925Y0022381D01*
X0179255Y0021867D01*
X0178741Y0021197D01*
X0178417Y0020416D01*
X0178307Y0019579D01*
Y0014579D01*
X0178417Y0013741D01*
X0178741Y0012961D01*
X0179255Y0012290D01*
X0179925Y0011776D01*
X0180706Y0011453D01*
X0181543Y0011342D01*
X0182381Y0011453D01*
X0183161Y0011776D01*
X0183832Y0012290D01*
X0184346Y0012961D01*
X0184669Y0013741D01*
X0184780Y0014579D01*
Y0019579D01*
X0184669Y0020416D01*
X0184346Y0021197D01*
X0183832Y0021867D01*
X0183161Y0022381D01*
X0182381Y0022705D01*
X0181543Y0022815D01*
D02*
G37*
%LPD*%
D15*
X0114500Y0071500D02*
X0119500Y0066500D01*
X0071500Y0071500D02*
X0114500D01*
X0067000Y0076000D02*
X0071500Y0071500D01*
X0067000Y0076000D02*
Y0120973D01*
X0188500Y0131000D02*
X0197500D01*
X0184208Y0121802D02*
Y0126708D01*
X0188500Y0131000D01*
X0211732Y0129642D02*
X0218142D01*
X0221000Y0132500D01*
X0235005Y0116506D02*
Y0118095D01*
X0228000Y0109500D02*
X0235005Y0116506D01*
Y0118095D02*
X0241724Y0124813D01*
X0283000D01*
X0220047Y0141453D02*
X0220594Y0142000D01*
X0221000D01*
X0211732Y0141453D02*
X0220047D01*
X0219016Y0139484D02*
X0224500Y0134000D01*
Y0124000D02*
Y0134000D01*
X0211732Y0139484D02*
X0219016D01*
X0191000Y0148500D02*
X0205000D01*
X0204000Y0144000D02*
X0204406D01*
X0204985Y0143421D02*
X0211732D01*
X0204406Y0144000D02*
X0204985Y0143421D01*
X0190113Y0149387D02*
Y0155198D01*
Y0149387D02*
X0191000Y0148500D01*
X0190079Y0155232D02*
X0190113Y0155198D01*
X0188644Y0134500D02*
X0194500D01*
X0185754Y0131610D02*
X0188644Y0134500D01*
X0178268Y0131610D02*
X0185754D01*
X0193500Y0185500D02*
Y0195500D01*
X0205000Y0207000D02*
X0212500D01*
X0193500Y0195500D02*
X0205000Y0207000D01*
X0195500Y0194500D02*
X0198000Y0197000D01*
X0212500D01*
X0195500Y0186000D02*
Y0194500D01*
Y0186000D02*
X0214000Y0167500D01*
X0163087Y0300587D02*
X0164000Y0301500D01*
Y0312350D01*
X0205827Y0118864D02*
X0206904Y0117787D01*
X0208713D01*
X0209000Y0117500D01*
X0205827Y0118864D02*
Y0121768D01*
X0073378Y0127351D02*
X0073681D01*
X0067000Y0120973D02*
X0073378Y0127351D01*
X0211000Y0121000D02*
X0221500D01*
X0198845Y0329844D02*
X0201658D01*
X0202313Y0330500D01*
X0186740Y0323500D02*
X0193740Y0316500D01*
X0202000D01*
X0203500Y0315000D01*
Y0306500D02*
Y0315000D01*
X0147709Y0102291D02*
X0161791D01*
X0146000Y0104000D02*
X0147709Y0102291D01*
X0143000Y0104000D02*
X0146000D01*
X0153500Y0105000D02*
X0154500Y0104000D01*
X0150000Y0105000D02*
X0153500D01*
X0154500Y0104000D02*
X0161000D01*
X0157000Y0106500D02*
X0161000D01*
X0163874Y0109374D01*
X0162500Y0100500D02*
X0169000Y0107000D01*
X0131000Y0108000D02*
X0138500Y0100500D01*
X0161791Y0102291D02*
X0167291Y0107791D01*
X0138500Y0100500D02*
X0162500D01*
X0161000Y0104000D02*
X0165583Y0108583D01*
X0221500Y0121000D02*
X0224500Y0124000D01*
X0201890Y0117610D02*
X0208500Y0111000D01*
X0219000D02*
X0226291Y0118291D01*
X0228000Y0117500D02*
Y0144916D01*
X0226291Y0118291D02*
Y0144209D01*
X0207000Y0109000D02*
X0219500D01*
X0228000Y0117500D01*
X0199921Y0116079D02*
X0207000Y0109000D01*
X0208500Y0111000D02*
X0219000D01*
X0214000Y0158916D02*
Y0167500D01*
X0185500Y0183500D02*
Y0242000D01*
X0191500Y0184916D02*
Y0239500D01*
X0181532Y0182468D02*
Y0245969D01*
X0193500Y0185500D02*
X0212000Y0167000D01*
X0181532Y0182468D02*
X0199921Y0164079D01*
X0187500Y0184000D02*
X0205827Y0165673D01*
X0191500Y0184916D02*
X0210000Y0166416D01*
X0187500Y0184000D02*
Y0241500D01*
X0189500Y0184500D02*
X0208000Y0166000D01*
X0185500Y0183500D02*
X0203858Y0165142D01*
X0201890Y0155232D02*
Y0164610D01*
X0212000Y0158500D02*
Y0167000D01*
X0199921Y0155232D02*
Y0164079D01*
X0189500Y0184500D02*
Y0240500D01*
X0183500Y0183000D02*
X0201890Y0164610D01*
X0203858Y0155232D02*
Y0165142D01*
X0210000Y0158000D02*
Y0166416D01*
X0183500Y0183000D02*
Y0246500D01*
X0208000Y0155500D02*
Y0166000D01*
X0205827Y0155232D02*
Y0165673D01*
X0212000Y0158500D02*
X0226291Y0144209D01*
X0214000Y0158916D02*
X0228000Y0144916D01*
X0199921Y0116079D02*
Y0121768D01*
X0201890Y0117610D02*
Y0121768D01*
X0197953Y0155232D02*
Y0163547D01*
X0179563Y0181937D02*
X0197953Y0163547D01*
X0184209Y0167291D02*
X0188110Y0163390D01*
X0194016Y0155232D02*
Y0162484D01*
X0188110Y0155232D02*
Y0163390D01*
X0163791Y0167291D02*
X0184209D01*
X0177594Y0181405D02*
Y0244905D01*
X0179563Y0181937D02*
Y0245353D01*
X0185791Y0170709D02*
X0194016Y0162484D01*
X0192047Y0155232D02*
Y0161953D01*
X0195984Y0155232D02*
Y0163016D01*
X0185000Y0169000D02*
X0192047Y0161953D01*
X0162209Y0170709D02*
X0185791D01*
X0177594Y0181405D02*
X0195984Y0163016D01*
X0162916Y0169000D02*
X0185000D01*
X0182667Y0164427D02*
Y0164833D01*
X0184173Y0155232D02*
Y0162921D01*
X0182667Y0164427D02*
X0184173Y0162921D01*
X0150813Y0043500D02*
X0162000D01*
X0148000Y0040687D02*
X0150813Y0043500D01*
X0162000D02*
X0186142Y0067642D01*
X0155500Y0040500D02*
X0162000D01*
X0188110Y0066610D01*
X0192000Y0064500D02*
Y0113000D01*
X0183000Y0040687D02*
Y0055500D01*
X0192000Y0064500D01*
X0188110Y0066610D02*
Y0121768D01*
X0186142Y0067642D02*
Y0121768D01*
X0194016Y0117516D02*
Y0121768D01*
X0190000Y0065416D02*
Y0113500D01*
X0194016Y0117516D01*
X0195984Y0116984D02*
Y0121768D01*
X0192000Y0113000D02*
X0195984Y0116984D01*
X0175500Y0050916D02*
X0190000Y0065416D01*
X0175500Y0040687D02*
Y0050916D01*
X0293087Y0297000D02*
Y0302000D01*
X0276500Y0297000D02*
X0293087D01*
X0304606D01*
X0307606Y0294000D02*
X0308000D01*
X0304606Y0297000D02*
X0307606Y0294000D01*
X0306622Y0322000D02*
X0308000Y0321687D01*
X0293087Y0322000D02*
X0306622D01*
X0218924Y0145424D02*
X0219000Y0145500D01*
X0211767Y0145424D02*
X0218924D01*
X0211732Y0145390D02*
X0211767Y0145424D01*
X0205953Y0141453D02*
X0211732D01*
X0203858Y0139358D02*
X0205953Y0141453D01*
X0203858Y0121768D02*
Y0139358D01*
X0197953Y0114547D02*
X0200000Y0112500D01*
X0197953Y0114547D02*
Y0121768D01*
X0290750Y0134187D02*
X0292000Y0132937D01*
X0283000Y0134187D02*
X0290750D01*
X0341087Y0269000D02*
X0346087Y0274000D01*
X0327707Y0269000D02*
X0341087D01*
X0320000Y0276313D02*
X0320394D01*
X0327707Y0269000D01*
X0210000Y0158000D02*
X0216500Y0151500D01*
Y0148000D02*
Y0151500D01*
X0208000Y0155500D02*
X0211732Y0151768D01*
Y0149327D02*
Y0151768D01*
X0191500Y0239500D02*
X0204500Y0252500D01*
X0198500Y0301500D02*
X0203500Y0306500D01*
X0198500Y0255000D02*
Y0301500D01*
X0212500Y0312500D02*
X0235087D01*
X0200500Y0254500D02*
Y0300500D01*
X0212500Y0312500D01*
X0208000Y0305000D02*
X0268500D01*
X0202500Y0253500D02*
Y0299500D01*
X0208000Y0305000D01*
X0204500Y0299000D02*
X0208500Y0303000D01*
X0204500Y0252500D02*
Y0299000D01*
X0208500Y0303000D02*
X0261000D01*
X0311187Y0276313D02*
X0320000D01*
X0274000Y0290000D02*
X0297500D01*
X0311187Y0276313D01*
X0261000Y0303000D02*
X0274000Y0290000D01*
X0235087Y0312500D02*
X0240087Y0317500D01*
X0189500Y0240500D02*
X0202500Y0253500D01*
X0185500Y0242000D02*
X0198500Y0255000D01*
X0187500Y0241500D02*
X0200500Y0254500D01*
X0095500Y0304000D02*
X0148533D01*
X0215893Y0147393D02*
X0216500Y0148000D01*
X0211732Y0147358D02*
X0211767Y0147393D01*
X0215893D01*
X0268500Y0305000D02*
X0276500Y0297000D01*
X0191951Y0305301D02*
X0197437Y0310787D01*
X0198868Y0312350D02*
X0199000D01*
X0191951Y0301038D02*
Y0305301D01*
X0197437Y0310787D02*
Y0310919D01*
X0198868Y0312350D01*
X0191500Y0300587D02*
X0191951Y0301038D01*
X0156000Y0268916D02*
X0179563Y0245353D01*
X0154000Y0268500D02*
X0177594Y0244905D01*
X0158000Y0269500D02*
X0181532Y0245969D01*
X0160000Y0270000D02*
X0183500Y0246500D01*
X0042407Y0279480D02*
X0043878Y0280297D01*
X0042106Y0279313D02*
X0042407Y0279480D01*
X0163087Y0300587D02*
X0171500D01*
X0160000Y0270000D02*
Y0297500D01*
X0163087Y0300587D01*
X0154000Y0268500D02*
Y0296000D01*
X0148000Y0302000D02*
X0154000Y0296000D01*
X0116000Y0302000D02*
X0148000D01*
X0148533Y0304000D02*
X0156000Y0296533D01*
X0136500Y0306000D02*
X0149033D01*
X0158000Y0297034D01*
Y0269500D02*
Y0297034D01*
X0156000Y0268916D02*
Y0296533D01*
X0133587Y0308913D02*
Y0319500D01*
Y0308913D02*
X0136500Y0306000D01*
X0080587Y0304000D02*
X0095500D01*
X0096000Y0304500D02*
Y0309813D01*
X0095500Y0304000D02*
X0096000Y0304500D01*
X0043878Y0280297D02*
X0116000Y0302000D01*
X0184173Y0121768D02*
X0184208Y0121802D01*
X0178416Y0127673D02*
X0178500Y0127590D01*
X0178268Y0127673D02*
X0178416D01*
X0178500Y0119500D02*
Y0127590D01*
X0171000Y0118500D02*
X0173000Y0116500D01*
X0171000Y0118500D02*
Y0131000D01*
X0173544Y0133544D02*
X0178233D01*
X0171000Y0131000D02*
X0173544Y0133544D01*
X0167291Y0132791D02*
X0171981Y0137481D01*
X0163874Y0134374D02*
X0170953Y0141453D01*
X0169000Y0132000D02*
X0172547Y0135547D01*
X0165583Y0108583D02*
Y0133583D01*
X0162000Y0165500D02*
X0163791Y0167291D01*
X0159156Y0128742D02*
X0162000Y0131586D01*
X0165583Y0133583D02*
X0171484Y0139484D01*
X0167291Y0107791D02*
Y0132791D01*
X0169000Y0107000D02*
Y0132000D01*
X0162000Y0131586D02*
Y0165500D01*
X0163874Y0109374D02*
Y0134374D01*
X0178233Y0133544D02*
X0178268Y0133579D01*
X0149606Y0120106D02*
X0152500Y0123000D01*
X0139947Y0120106D02*
X0149606D01*
X0142888Y0129888D02*
X0147000Y0134000D01*
X0137868Y0129888D02*
X0142888D01*
X0172110Y0145390D02*
X0178268D01*
X0170000Y0147500D02*
X0172110Y0145390D01*
X0170187Y0151813D02*
Y0155000D01*
Y0151813D02*
X0174607Y0147393D01*
X0178233D01*
X0178268Y0147358D01*
X0169421Y0143421D02*
X0178268D01*
X0168000Y0142000D02*
X0169421Y0143421D01*
X0177356Y0149410D02*
Y0160144D01*
X0175000Y0162500D02*
X0177356Y0160144D01*
X0165000Y0162500D02*
X0175000D01*
X0158500Y0167000D02*
X0162209Y0170709D01*
X0160209Y0141709D02*
Y0166292D01*
X0162916Y0169000D01*
X0158500Y0150500D02*
Y0167000D01*
X0177439Y0149327D02*
X0178208D01*
X0177356Y0149410D02*
X0177439Y0149327D01*
X0155500Y0174500D02*
X0160047D01*
X0074000Y0090000D02*
X0092000D01*
X0104000Y0102000D01*
Y0126500D01*
X0102000Y0127500D02*
X0111500Y0137000D01*
X0126000D02*
X0133500Y0144500D01*
X0111500Y0137000D02*
X0126000D01*
X0112500Y0135000D02*
X0138500D01*
X0104000Y0126500D02*
X0112500Y0135000D01*
X0095299Y0096299D02*
X0102000Y0103000D01*
Y0127500D01*
X0142500Y0148500D02*
X0156500D01*
X0138500Y0144500D02*
X0142500Y0148500D01*
X0156500D02*
X0158500Y0150500D01*
X0133500Y0144500D02*
X0138500D01*
X0093704Y0112500D02*
X0093737Y0112467D01*
X0075000Y0112500D02*
X0093704D01*
X0070500Y0093500D02*
X0074000Y0090000D01*
X0070500Y0108000D02*
X0075000Y0112500D01*
X0070500Y0093500D02*
Y0108000D01*
X0117500Y0125000D02*
X0141500D01*
X0109339Y0116839D02*
X0117500Y0125000D01*
X0138500Y0135000D02*
X0142500Y0139000D01*
X0157500D01*
X0160209Y0141709D01*
X0109000Y0116839D02*
Y0122000D01*
X0088724Y0096299D02*
X0095299D01*
X0075082Y0119649D02*
X0075319D01*
X0070500Y0115067D02*
X0075082Y0119649D01*
X0070500Y0115000D02*
Y0115067D01*
X0109339Y0115864D02*
Y0116839D01*
X0171484Y0139484D02*
X0178268D01*
X0172547Y0135547D02*
X0178268D01*
X0171981Y0137481D02*
X0178233D01*
X0170953Y0141453D02*
X0178268D01*
X0131000Y0108000D02*
Y0119000D01*
X0121294Y0115500D02*
X0124875Y0119081D01*
Y0119242D01*
X0121000Y0115500D02*
X0121294D01*
X0145242Y0128742D02*
X0159156D01*
X0178233Y0137481D02*
X0178268Y0137516D01*
X0141500Y0125000D02*
X0145242Y0128742D01*
X0086375Y0120125D02*
X0093737Y0112763D01*
Y0112467D02*
Y0112763D01*
X0346137Y0294050D02*
Y0304450D01*
X0346187Y0304500D01*
X0346087Y0294000D02*
X0346137Y0294050D01*
X0308500Y0321687D02*
X0308550Y0321637D01*
X0293087Y0322000D02*
X0293137Y0322050D01*
X0240180Y0317407D02*
X0254406D01*
X0240087Y0317500D02*
X0240180Y0317407D01*
X0254406D02*
X0254500Y0317313D01*
X0240087Y0337500D02*
X0240137Y0337550D01*
Y0346450D02*
X0240187Y0346500D01*
X0240137Y0337550D02*
Y0346450D01*
X0186740Y0323500D02*
X0192500D01*
X0198845Y0329844D01*
X0186313Y0352000D02*
X0186527Y0351786D01*
Y0343714D02*
Y0351786D01*
Y0343714D02*
X0186740Y0343500D01*
X0142793Y0319500D02*
X0148106Y0324813D01*
X0133587Y0319500D02*
X0142793D01*
X0148106Y0324813D02*
X0148500D01*
X0133606Y0339520D02*
Y0348480D01*
X0133587Y0339500D02*
X0133606Y0339520D01*
Y0348480D02*
X0133626Y0348500D01*
X0080700Y0333387D02*
X0080813Y0333500D01*
X0080700Y0324113D02*
Y0333387D01*
X0080587Y0324000D02*
X0080700Y0324113D01*
X0036793Y0274000D02*
X0042106Y0279313D01*
X0027240Y0274000D02*
X0036793D01*
X0155500Y0214791D02*
X0160047D01*
X0155500Y0208076D02*
X0160047D01*
X0155500Y0201361D02*
X0160047D01*
X0155500Y0194646D02*
X0160047D01*
X0155500Y0187930D02*
X0160047D01*
X0155500Y0181215D02*
X0160047D01*
X0027240Y0294000D02*
X0027277Y0294036D01*
Y0303964D02*
X0027313Y0304000D01*
X0027277Y0294036D02*
Y0303964D01*
D18*
X0320000Y0318015D02*
X0321145Y0319161D01*
D23*
X0292000Y0125063D02*
D03*
X0283000Y0134187D02*
D03*
Y0124813D02*
D03*
X0199000Y0321724D02*
D03*
Y0312350D02*
D03*
X0148500Y0324813D02*
D03*
Y0334187D02*
D03*
X0096000Y0309813D02*
D03*
Y0319187D02*
D03*
X0042500Y0279313D02*
D03*
Y0288687D02*
D03*
X0164000Y0312350D02*
D03*
Y0321724D02*
D03*
X0320000Y0276313D02*
D03*
Y0285687D02*
D03*
X0308000Y0321687D02*
D03*
Y0312313D02*
D03*
Y0294000D02*
D03*
Y0303374D02*
D03*
X0254500Y0317313D02*
D03*
Y0326687D02*
D03*
D24*
X0292000Y0132937D02*
D03*
D25*
X0167921Y0181215D02*
D03*
Y0174500D02*
D03*
Y0187930D02*
D03*
Y0194646D02*
D03*
Y0201361D02*
D03*
Y0208076D02*
D03*
Y0214791D02*
D03*
X0186313Y0352000D02*
D03*
X0195687D02*
D03*
X0202313Y0330500D02*
D03*
X0211687D02*
D03*
X0133626Y0348500D02*
D03*
X0143000D02*
D03*
X0080813Y0333500D02*
D03*
X0090187D02*
D03*
X0027313Y0304000D02*
D03*
X0036687D02*
D03*
X0346187Y0304500D02*
D03*
X0336813D02*
D03*
X0240187Y0346500D02*
D03*
X0230813D02*
D03*
D26*
X0160047Y0181215D02*
D03*
Y0174500D02*
D03*
Y0187930D02*
D03*
Y0194646D02*
D03*
Y0201361D02*
D03*
Y0208076D02*
D03*
Y0214791D02*
D03*
D27*
X0109339Y0115864D02*
D03*
X0124875Y0119242D02*
D03*
X0118937Y0147177D02*
D03*
X0087799Y0140402D02*
D03*
X0093737Y0112467D02*
D03*
X0103402Y0143799D02*
D03*
D28*
X0205827Y0121768D02*
D03*
X0203858D02*
D03*
X0201890D02*
D03*
X0199921D02*
D03*
X0197953D02*
D03*
X0195984D02*
D03*
X0194016D02*
D03*
X0192047D02*
D03*
X0190079D02*
D03*
X0188110D02*
D03*
X0186142D02*
D03*
X0184173D02*
D03*
Y0155232D02*
D03*
X0186142D02*
D03*
X0188110D02*
D03*
X0190079D02*
D03*
X0192047D02*
D03*
X0194016D02*
D03*
X0195984D02*
D03*
X0197953D02*
D03*
X0199921D02*
D03*
X0201890D02*
D03*
X0203858D02*
D03*
X0205827D02*
D03*
D29*
X0178268Y0127673D02*
D03*
Y0129642D02*
D03*
Y0131610D02*
D03*
Y0133579D02*
D03*
Y0135547D02*
D03*
Y0137516D02*
D03*
Y0139484D02*
D03*
Y0141453D02*
D03*
Y0143421D02*
D03*
Y0145390D02*
D03*
Y0147358D02*
D03*
Y0149327D02*
D03*
X0211732D02*
D03*
Y0147358D02*
D03*
Y0145390D02*
D03*
Y0143421D02*
D03*
Y0141453D02*
D03*
Y0139484D02*
D03*
Y0137516D02*
D03*
Y0135547D02*
D03*
Y0133579D02*
D03*
Y0131610D02*
D03*
Y0129642D02*
D03*
Y0127673D02*
D03*
D30*
X0073681Y0127351D02*
D03*
D31*
X0075319Y0119649D02*
D03*
D64*
X0325616Y0321561D02*
G03*
X0323941Y0322966I-0003268J-0002196D01*
G01*
X0077025Y0339645D02*
G03*
X0076032Y0339216I0001048J-0003795D01*
G01*
X0323933Y0322969D02*
X0323941Y0322966D01*
X0325616Y0321561D02*
X0325616Y0321561D01*
X0321145Y0319161D02*
X0325616Y0321561D01*
X0077025Y0339645D02*
X0090406Y0343341D01*
X0041000Y0318000D02*
X0076032Y0339216D01*
X0308394Y0312313D02*
X0321145Y0319161D01*
X0320000Y0285687D02*
Y0318015D01*
X0207527Y0321724D02*
X0211687Y0325884D01*
Y0330500D01*
X0199000Y0321724D02*
X0207527D01*
X0161000Y0358000D02*
X0195000D01*
X0156000D02*
X0161000D01*
Y0333646D02*
Y0358000D01*
X0164000Y0321724D02*
Y0330646D01*
X0161000Y0333646D02*
X0164000Y0330646D01*
X0218055Y0337262D02*
Y0356375D01*
X0194500Y0022000D02*
Y0022197D01*
X0094844Y0344566D02*
X0129000Y0354000D01*
X0090406Y0343341D02*
X0094844Y0344566D01*
X0096000Y0319187D02*
Y0343410D01*
X0094844Y0344566D02*
X0096000Y0343410D01*
X0090187Y0333500D02*
Y0343122D01*
X0090406Y0343341D01*
X0149984Y0357109D02*
X0149984Y0357109D01*
X0148500Y0355625D02*
X0149984Y0357109D01*
X0149984Y0357109D02*
X0156000Y0358000D01*
X0143968Y0356218D02*
X0149984Y0357109D01*
X0148500Y0334187D02*
Y0355625D01*
X0129000Y0354000D02*
X0143968Y0356218D01*
X0143000Y0348500D02*
Y0355250D01*
X0143968Y0356218D01*
X0195000Y0358000D02*
X0207006D01*
X0195687Y0352000D02*
Y0357313D01*
X0195000Y0358000D02*
X0195687Y0357313D01*
X0218055Y0356375D02*
X0230996Y0354471D01*
X0207006Y0358000D02*
X0218055Y0356375D01*
X0211687Y0330500D02*
Y0330894D01*
X0218055Y0337262D01*
X0230996Y0354471D02*
X0240373Y0353092D01*
X0230813Y0354289D02*
X0230996Y0354471D01*
X0230813Y0346500D02*
Y0354289D01*
X0255382Y0348604D02*
X0287500Y0339000D01*
X0241459Y0352767D02*
X0255382Y0348604D01*
X0254500Y0347723D02*
X0255382Y0348604D01*
X0254500Y0326687D02*
Y0347723D01*
X0308000Y0312313D02*
X0308394Y0312313D01*
X0308000Y0303374D02*
Y0312313D01*
X0287500Y0339000D02*
X0323933Y0322969D01*
X0336813Y0304894D02*
X0336813Y0304500D01*
X0325616Y0321561D02*
X0336813Y0304894D01*
X0240373Y0353092D02*
X0241459Y0352767D01*
X0209313Y0348496D02*
Y0355694D01*
X0207006Y0358000D02*
X0209313Y0355694D01*
X0041000Y0318000D02*
X0042500Y0316500D01*
Y0288687D02*
Y0316500D01*
X0036687Y0304000D02*
Y0313687D01*
X0041000Y0318000D01*
D65*
X0167921Y0201414D02*
X0167938Y0201430D01*
X0173930D01*
X0174000Y0201500D01*
X0167921Y0208076D02*
Y0214791D01*
Y0201414D02*
Y0208076D01*
Y0201361D02*
Y0201414D01*
Y0194646D02*
Y0201361D01*
Y0187930D02*
Y0194646D01*
Y0181215D02*
Y0187930D01*
Y0174500D02*
Y0181215D01*
D66*
X0173276Y0022000D02*
X0173449Y0022173D01*
Y0023292D02*
X0176657Y0026500D01*
X0173449Y0022173D02*
Y0023292D01*
X0176657Y0026500D02*
X0190000D01*
X0194500Y0022000D01*
D67*
X0089842Y0056126D02*
D03*
D68*
X0335260Y0274000D02*
D03*
X0346087Y0274000D02*
D03*
Y0294000D02*
D03*
X0335260Y0294000D02*
D03*
X0229260Y0317500D02*
D03*
X0240087Y0317500D02*
D03*
Y0337500D02*
D03*
X0229260Y0337500D02*
D03*
X0175913Y0323500D02*
D03*
X0186740Y0323500D02*
D03*
Y0343500D02*
D03*
X0175913Y0343500D02*
D03*
X0122760Y0319500D02*
D03*
X0133587Y0319500D02*
D03*
Y0339500D02*
D03*
X0122760Y0339500D02*
D03*
X0069760Y0304000D02*
D03*
X0080587Y0304000D02*
D03*
Y0324000D02*
D03*
X0069760Y0324000D02*
D03*
X0016413Y0274000D02*
D03*
X0027240Y0274000D02*
D03*
Y0294000D02*
D03*
X0016413Y0294000D02*
D03*
X0282260Y0302000D02*
D03*
X0293087Y0302000D02*
D03*
Y0322000D02*
D03*
X0282260Y0322000D02*
D03*
X0191500Y0289760D02*
D03*
X0191500Y0300587D02*
D03*
X0171500D02*
D03*
X0171500Y0289760D02*
D03*
D69*
X0351500Y0284000D02*
D03*
X0329846Y0284000D02*
D03*
X0245500Y0327500D02*
D03*
X0223846Y0327500D02*
D03*
X0192154Y0333500D02*
D03*
X0170500Y0333500D02*
D03*
X0139000Y0329500D02*
D03*
X0117346Y0329500D02*
D03*
X0086000Y0314000D02*
D03*
X0064346Y0314000D02*
D03*
X0032653Y0284000D02*
D03*
X0011000Y0284000D02*
D03*
X0298500Y0312000D02*
D03*
X0276846Y0312000D02*
D03*
X0118100Y0023502D02*
D03*
Y0093102D02*
D03*
X0245100Y0022102D02*
D03*
X0245100Y0091702D02*
D03*
X0181500Y0284346D02*
D03*
X0181500Y0306000D02*
D03*
D70*
X0331028Y0265693D02*
D03*
X0225028Y0309193D02*
D03*
X0171681Y0315193D02*
D03*
X0118528Y0311193D02*
D03*
X0065528Y0295693D02*
D03*
X0012181Y0265693D02*
D03*
X0278028Y0293693D02*
D03*
X0163193Y0285528D02*
D03*
D71*
X0077701Y0096299D02*
D03*
X0284902Y0107244D02*
D03*
D72*
X0077701Y0106142D02*
D03*
X0088724D02*
D03*
Y0096299D02*
D03*
X0284902Y0097402D02*
D03*
X0273878D02*
D03*
Y0107244D02*
D03*
D73*
X0249000Y0145961D02*
D03*
D74*
Y0116039D02*
D03*
D75*
X0181543Y0017079D02*
D03*
D76*
X0173276Y0012157D02*
D03*
X0165402D02*
D03*
X0173276Y0022000D02*
D03*
X0165402D02*
D03*
X0157528Y0012157D02*
D03*
Y0022000D02*
D03*
X0135789Y0139669D02*
D03*
X0137868Y0129888D02*
D03*
X0139947Y0120106D02*
D03*
X0159202Y0124199D02*
D03*
X0157123Y0133980D02*
D03*
X0155044Y0143762D02*
D03*
X0152965Y0153543D02*
D03*
D77*
X0149260Y0017079D02*
D03*
D78*
X0204500Y0022000D02*
D03*
D79*
X0194500D02*
D03*
D80*
X0159500Y0091429D02*
D03*
X0144900D02*
D03*
X0203700Y0091702D02*
D03*
X0217900Y0091702D02*
D03*
D81*
X0076583Y0031799D02*
D03*
D82*
X0099417D02*
D03*
D83*
X0105028Y0033768D02*
D03*
X0070972D02*
D03*
D84*
Y0017232D02*
D03*
X0105028D02*
D03*
D85*
X0212500Y0247000D02*
D03*
Y0237000D02*
D03*
Y0227000D02*
D03*
Y0217000D02*
D03*
Y0207000D02*
D03*
Y0197000D02*
D03*
Y0187000D02*
D03*
Y0177000D02*
D03*
D86*
X0133710Y0149451D02*
D03*
D87*
X0158000Y0255000D02*
D03*
Y0245000D02*
D03*
Y0235000D02*
D03*
Y0225000D02*
D03*
D88*
X0262000Y0096500D02*
D03*
X0266000D02*
D03*
X0264000Y0093000D02*
D03*
X0178000Y0174000D02*
D03*
X0109000Y0067500D02*
D03*
X0090000D02*
D03*
X0135500Y0091000D02*
D03*
X0128500Y0098000D02*
D03*
X0214000Y0034500D02*
D03*
X0127500Y0011000D02*
D03*
X0116000D02*
D03*
X0067000Y0024000D02*
D03*
X0097500Y0136500D02*
D03*
X0139000Y0048000D02*
D03*
X0221000Y0132500D02*
D03*
X0228000Y0109500D02*
D03*
X0221000Y0142000D02*
D03*
X0113000Y0083500D02*
D03*
X0089500Y0079500D02*
D03*
X0098000Y0106000D02*
D03*
X0067500Y0067500D02*
D03*
X0070000Y0042000D02*
D03*
X0095500Y0014000D02*
D03*
X0088500D02*
D03*
X0081500D02*
D03*
X0134500Y0021000D02*
D03*
X0132500Y0017500D02*
D03*
X0136500D02*
D03*
X0111500Y0035000D02*
D03*
X0118500D02*
D03*
X0125500D02*
D03*
X0169500Y0090500D02*
D03*
X0173000Y0108000D02*
D03*
X0111500Y0145000D02*
D03*
X0095500Y0142000D02*
D03*
X0078000Y0138000D02*
D03*
X0110063Y0127750D02*
D03*
X0146000Y0143000D02*
D03*
X0131368Y0129888D02*
D03*
X0135500Y0113000D02*
D03*
X0131500Y0103000D02*
D03*
X0111500Y0075000D02*
D03*
X0118000D02*
D03*
X0124500D02*
D03*
X0135500Y0073500D02*
D03*
Y0079500D02*
D03*
Y0085500D02*
D03*
X0196000Y0097500D02*
D03*
X0166000Y0070000D02*
D03*
Y0076000D02*
D03*
Y0082000D02*
D03*
X0191000Y0039500D02*
D03*
Y0056000D02*
D03*
X0209500Y0059000D02*
D03*
X0232500Y0037500D02*
D03*
X0243500D02*
D03*
X0254500D02*
D03*
X0265500D02*
D03*
X0276500D02*
D03*
X0258000Y0058500D02*
D03*
X0254500Y0066500D02*
D03*
X0218000Y0024000D02*
D03*
X0225000D02*
D03*
X0222000Y0016500D02*
D03*
X0287500D02*
D03*
X0280500D02*
D03*
X0273500D02*
D03*
X0266500D02*
D03*
X0290500Y0024000D02*
D03*
X0283500D02*
D03*
X0276500D02*
D03*
X0269500D02*
D03*
X0262500D02*
D03*
X0279500Y0067000D02*
D03*
Y0072500D02*
D03*
Y0078000D02*
D03*
X0272500Y0089000D02*
D03*
X0278000D02*
D03*
X0283000D02*
D03*
X0263500Y0083000D02*
D03*
X0265500Y0086500D02*
D03*
X0261500D02*
D03*
X0240000Y0149000D02*
D03*
X0235500Y0150000D02*
D03*
X0231000Y0151000D02*
D03*
X0226500Y0152000D02*
D03*
X0233000Y0141000D02*
D03*
X0237000Y0137000D02*
D03*
X0233000D02*
D03*
X0237000Y0141000D02*
D03*
X0241000Y0111000D02*
D03*
X0237000D02*
D03*
X0239000Y0114500D02*
D03*
X0266000Y0111500D02*
D03*
X0262000D02*
D03*
X0264000Y0115000D02*
D03*
X0258000Y0140000D02*
D03*
X0262000D02*
D03*
X0260000Y0136500D02*
D03*
X0271500D02*
D03*
X0273500Y0140000D02*
D03*
X0269500D02*
D03*
X0263500Y0103000D02*
D03*
X0258500D02*
D03*
X0253500D02*
D03*
X0248500D02*
D03*
X0243500D02*
D03*
X0238500D02*
D03*
X0233500D02*
D03*
X0228500D02*
D03*
X0214000Y0102500D02*
D03*
X0147000Y0155000D02*
D03*
X0144500Y0151500D02*
D03*
X0140000D02*
D03*
X0201000Y0134500D02*
D03*
X0197500Y0222500D02*
D03*
Y0234000D02*
D03*
X0174000Y0220000D02*
D03*
Y0215500D02*
D03*
Y0211000D02*
D03*
Y0206500D02*
D03*
X0165500Y0278500D02*
D03*
X0155344Y0346533D02*
D03*
X0202000Y0351500D02*
D03*
X0202500Y0344000D02*
D03*
X0216500Y0318000D02*
D03*
X0155000Y0322500D02*
D03*
X0186000Y0139500D02*
D03*
Y0145500D02*
D03*
X0171500Y0232000D02*
D03*
Y0244500D02*
D03*
X0201500Y0216500D02*
D03*
Y0228000D02*
D03*
Y0239500D02*
D03*
X0248000Y0311000D02*
D03*
X0258500Y0297500D02*
D03*
X0208500Y0257500D02*
D03*
Y0268000D02*
D03*
Y0278000D02*
D03*
Y0287500D02*
D03*
Y0297000D02*
D03*
X0186000Y0252500D02*
D03*
X0167000Y0272500D02*
D03*
X0192000Y0279000D02*
D03*
X0181500Y0295500D02*
D03*
X0171000Y0280000D02*
D03*
X0148000Y0312000D02*
D03*
X0155000D02*
D03*
X0107000Y0311500D02*
D03*
Y0323000D02*
D03*
Y0335000D02*
D03*
X0341000Y0284500D02*
D03*
X0234500Y0327500D02*
D03*
X0182000Y0333500D02*
D03*
X0128500Y0329500D02*
D03*
X0075500Y0314000D02*
D03*
X0022500Y0284500D02*
D03*
X0017500Y0306000D02*
D03*
X0050000Y0274500D02*
D03*
X0037500Y0267000D02*
D03*
X0026000Y0260500D02*
D03*
X0016000Y0255500D02*
D03*
X0054500Y0290000D02*
D03*
X0055000Y0301500D02*
D03*
X0053000Y0311000D02*
D03*
X0289000Y0330500D02*
D03*
X0339000Y0314500D02*
D03*
X0327500Y0304000D02*
D03*
X0349500Y0254500D02*
D03*
X0353500Y0262000D02*
D03*
X0344500D02*
D03*
X0299000Y0281500D02*
D03*
X0290000Y0285000D02*
D03*
X0312000D02*
D03*
X0262000Y0310500D02*
D03*
X0268500Y0322000D02*
D03*
X0264000Y0332500D02*
D03*
X0275500Y0333000D02*
D03*
X0288000Y0312000D02*
D03*
X0205000Y0148500D02*
D03*
X0204000Y0144000D02*
D03*
X0194500Y0134500D02*
D03*
X0197500Y0131000D02*
D03*
X0209000Y0117500D02*
D03*
X0119500Y0066500D02*
D03*
X0211000Y0121000D02*
D03*
X0157000Y0106500D02*
D03*
X0150000Y0105000D02*
D03*
X0143000Y0104000D02*
D03*
X0182667Y0164833D02*
D03*
X0174000Y0201500D02*
D03*
X0099000Y0027500D02*
D03*
X0097000Y0024000D02*
D03*
X0095000Y0027500D02*
D03*
X0093000Y0024000D02*
D03*
X0086000Y0027500D02*
D03*
X0084000Y0024000D02*
D03*
X0082000Y0027500D02*
D03*
X0080000Y0024000D02*
D03*
X0078000Y0027500D02*
D03*
X0155500Y0040500D02*
D03*
X0183000Y0040687D02*
D03*
X0175500D02*
D03*
X0148000D02*
D03*
X0213687Y0339004D02*
D03*
X0214004Y0343813D02*
D03*
X0214000Y0348500D02*
D03*
X0209313Y0348496D02*
D03*
X0219000Y0145500D02*
D03*
X0200000Y0112500D02*
D03*
X0178500Y0119500D02*
D03*
X0173000Y0116500D02*
D03*
X0152500Y0123000D02*
D03*
X0147000Y0134000D02*
D03*
X0170000Y0147500D02*
D03*
X0168000Y0142000D02*
D03*
X0170187Y0155000D02*
D03*
X0165000Y0162500D02*
D03*
X0155500Y0174500D02*
D03*
X0070500Y0115000D02*
D03*
X0131000Y0119000D02*
D03*
X0121000Y0115500D02*
D03*
X0109000Y0122000D02*
D03*
X0086375Y0120125D02*
D03*
X0155500Y0214791D02*
D03*
Y0208076D02*
D03*
Y0201361D02*
D03*
Y0194646D02*
D03*
Y0187930D02*
D03*
Y0181215D02*
D03*
D89*
X0181500Y0266500D02*
D03*
M02*
