G04*
G04 #@! TF.GenerationSoftware,Altium Limited,Altium Designer,23.1.1 (15)*
G04*
G04 Layer_Physical_Order=2*
G04 Layer_Color=16711680*
%FSAX25Y25*%
%MOIN*%
G70*
G04*
G04 #@! TF.SameCoordinates,B82E7E18-3205-491C-BA0E-7F24CF85224E*
G04*
G04*
G04 #@! TF.FilePolarity,Positive*
G04*
G01*
G75*
%ADD15C,0.01000*%
%ADD18C,0.02000*%
G04:AMPARAMS|DCode=23|XSize=39.37mil|YSize=47.24mil|CornerRadius=9.84mil|HoleSize=0mil|Usage=FLASHONLY|Rotation=270.000|XOffset=0mil|YOffset=0mil|HoleType=Round|Shape=RoundedRectangle|*
%AMROUNDEDRECTD23*
21,1,0.03937,0.02756,0,0,270.0*
21,1,0.01968,0.04724,0,0,270.0*
1,1,0.01968,-0.01378,-0.00984*
1,1,0.01968,-0.01378,0.00984*
1,1,0.01968,0.01378,0.00984*
1,1,0.01968,0.01378,-0.00984*
%
%ADD23ROUNDEDRECTD23*%
G04:AMPARAMS|DCode=25|XSize=39.37mil|YSize=47.24mil|CornerRadius=9.84mil|HoleSize=0mil|Usage=FLASHONLY|Rotation=0.000|XOffset=0mil|YOffset=0mil|HoleType=Round|Shape=RoundedRectangle|*
%AMROUNDEDRECTD25*
21,1,0.03937,0.02756,0,0,0.0*
21,1,0.01968,0.04724,0,0,0.0*
1,1,0.01968,0.00984,-0.01378*
1,1,0.01968,-0.00984,-0.01378*
1,1,0.01968,-0.00984,0.01378*
1,1,0.01968,0.00984,0.01378*
%
%ADD25ROUNDEDRECTD25*%
%ADD64C,0.03937*%
%ADD65C,0.01968*%
%ADD66C,0.05000*%
%ADD68C,0.06693*%
%ADD69C,0.07874*%
%ADD70C,0.03937*%
%ADD71R,0.07087X0.07087*%
%ADD72C,0.07087*%
%ADD73C,0.06299*%
G04:AMPARAMS|DCode=74|XSize=62.99mil|YSize=62.99mil|CornerRadius=0mil|HoleSize=0mil|Usage=FLASHONLY|Rotation=270.000|XOffset=0mil|YOffset=0mil|HoleType=Round|Shape=Octagon|*
%AMOCTAGOND74*
4,1,8,-0.01575,-0.03150,0.01575,-0.03150,0.03150,-0.01575,0.03150,0.01575,0.01575,0.03150,-0.01575,0.03150,-0.03150,0.01575,-0.03150,-0.01575,-0.01575,-0.03150,0.0*
%
%ADD74OCTAGOND74*%

%ADD75O,0.05000X0.10000*%
%ADD76C,0.05906*%
%ADD77O,0.07087X0.10000*%
G04:AMPARAMS|DCode=78|XSize=78.74mil|YSize=74.8mil|CornerRadius=0mil|HoleSize=0mil|Usage=FLASHONLY|Rotation=270.000|XOffset=0mil|YOffset=0mil|HoleType=Round|Shape=Octagon|*
%AMOCTAGOND78*
4,1,8,-0.01870,-0.03937,0.01870,-0.03937,0.03740,-0.02067,0.03740,0.02067,0.01870,0.03937,-0.01870,0.03937,-0.03740,0.02067,-0.03740,-0.02067,-0.01870,-0.03937,0.0*
%
%ADD78OCTAGOND78*%

%ADD79O,0.07480X0.07874*%
%ADD80C,0.09843*%
%ADD81C,0.01575*%
%ADD82C,0.01968*%
%ADD83O,0.03937X0.08661*%
%ADD84O,0.03937X0.07480*%
%ADD85O,0.07874X0.05906*%
%ADD86P,0.08352X4X57.0*%
%ADD87O,0.08661X0.07087*%
%ADD88C,0.02500*%
%ADD89C,0.20000*%
G04:AMPARAMS|DCode=90|XSize=70.87mil|YSize=20mil|CornerRadius=5mil|HoleSize=0mil|Usage=FLASHONLY|Rotation=180.000|XOffset=0mil|YOffset=0mil|HoleType=Round|Shape=RoundedRectangle|*
%AMROUNDEDRECTD90*
21,1,0.07087,0.01000,0,0,180.0*
21,1,0.06087,0.02000,0,0,180.0*
1,1,0.01000,-0.03043,0.00500*
1,1,0.01000,0.03043,0.00500*
1,1,0.01000,0.03043,-0.00500*
1,1,0.01000,-0.03043,-0.00500*
%
%ADD90ROUNDEDRECTD90*%
G04:AMPARAMS|DCode=91|XSize=59.06mil|YSize=27.56mil|CornerRadius=6.89mil|HoleSize=0mil|Usage=FLASHONLY|Rotation=270.000|XOffset=0mil|YOffset=0mil|HoleType=Round|Shape=RoundedRectangle|*
%AMROUNDEDRECTD91*
21,1,0.05906,0.01378,0,0,270.0*
21,1,0.04528,0.02756,0,0,270.0*
1,1,0.01378,-0.00689,-0.02264*
1,1,0.01378,-0.00689,0.02264*
1,1,0.01378,0.00689,0.02264*
1,1,0.01378,0.00689,-0.02264*
%
%ADD91ROUNDEDRECTD91*%
%ADD92R,0.03543X0.04724*%
%ADD93R,0.12992X0.09449*%
%ADD94R,0.03937X0.09449*%
G04:AMPARAMS|DCode=95|XSize=55.12mil|YSize=62.99mil|CornerRadius=13.78mil|HoleSize=0mil|Usage=FLASHONLY|Rotation=270.000|XOffset=0mil|YOffset=0mil|HoleType=Round|Shape=RoundedRectangle|*
%AMROUNDEDRECTD95*
21,1,0.05512,0.03543,0,0,270.0*
21,1,0.02756,0.06299,0,0,270.0*
1,1,0.02756,-0.01772,-0.01378*
1,1,0.02756,-0.01772,0.01378*
1,1,0.02756,0.01772,0.01378*
1,1,0.02756,0.01772,-0.01378*
%
%ADD95ROUNDEDRECTD95*%
G04:AMPARAMS|DCode=96|XSize=27.56mil|YSize=59.06mil|CornerRadius=6.89mil|HoleSize=0mil|Usage=FLASHONLY|Rotation=180.000|XOffset=0mil|YOffset=0mil|HoleType=Round|Shape=RoundedRectangle|*
%AMROUNDEDRECTD96*
21,1,0.02756,0.04528,0,0,180.0*
21,1,0.01378,0.05906,0,0,180.0*
1,1,0.01378,-0.00689,0.02264*
1,1,0.01378,0.00689,0.02264*
1,1,0.01378,0.00689,-0.02264*
1,1,0.01378,-0.00689,-0.02264*
%
%ADD96ROUNDEDRECTD96*%
%ADD97R,0.02362X0.07087*%
%ADD98R,0.01181X0.07087*%
%ADD99C,0.03150*%
%ADD100C,0.01500*%
%ADD101C,0.02500*%
%ADD102C,0.02756*%
%ADD103R,0.07874X0.11811*%
G36*
X0192305Y0361209D02*
X0203019Y0360659D01*
X0206543Y0360358D01*
X0206584Y0360322D01*
X0206724Y0360127D01*
X0206781Y0360031D01*
X0206789Y0360008D01*
X0206821Y0359832D01*
X0206810Y0359781D01*
X0206780Y0359672D01*
X0206783Y0359643D01*
X0206778Y0359615D01*
Y0349372D01*
X0206704Y0349195D01*
X0206612Y0348496D01*
Y0323931D01*
X0198591Y0315909D01*
X0198161Y0315350D01*
X0197892Y0314699D01*
X0197800Y0314000D01*
Y0263618D01*
X0189591Y0255409D01*
X0189162Y0254850D01*
X0188892Y0254199D01*
X0188800Y0253500D01*
Y0223630D01*
X0188586Y0223501D01*
X0188300Y0223443D01*
X0165871Y0245871D01*
X0165472Y0246139D01*
X0165000Y0246232D01*
X0165000Y0246232D01*
X0162879D01*
X0162502Y0247144D01*
X0161820Y0248032D01*
X0160932Y0248714D01*
X0159897Y0249143D01*
X0158787Y0249289D01*
X0157213D01*
X0156103Y0249143D01*
X0155068Y0248714D01*
X0154180Y0248032D01*
X0153498Y0247144D01*
X0153349Y0246784D01*
X0152849Y0246884D01*
Y0252402D01*
X0153349Y0252572D01*
X0153972Y0251760D01*
X0154921Y0251031D01*
X0156026Y0250574D01*
X0157213Y0250417D01*
X0157250D01*
Y0255000D01*
Y0259582D01*
X0157213D01*
X0156026Y0259426D01*
X0154921Y0258969D01*
X0153972Y0258240D01*
X0153349Y0257428D01*
X0152849Y0257598D01*
Y0288053D01*
X0152872D01*
X0152717Y0290029D01*
X0152254Y0291956D01*
X0151496Y0293788D01*
X0150460Y0295478D01*
X0149172Y0296985D01*
X0147665Y0298272D01*
X0145975Y0299308D01*
X0144144Y0300066D01*
X0142216Y0300529D01*
X0140240Y0300685D01*
X0138748Y0300567D01*
X0138733Y0300566D01*
X0138279Y0300563D01*
X0138278Y0300572D01*
X0138255Y0300563D01*
X0138256Y0300554D01*
X0137820Y0300432D01*
X0137809Y0300429D01*
X0130189Y0299134D01*
X0128275Y0298735D01*
X0120069Y0297023D01*
X0110036Y0294535D01*
X0100102Y0291673D01*
X0090283Y0288442D01*
X0080591Y0284845D01*
X0075046Y0282549D01*
X0074974Y0282535D01*
X0074972Y0282533D01*
X0074913Y0282494D01*
X0071040Y0280890D01*
X0061644Y0276579D01*
X0052416Y0271921D01*
X0043368Y0266920D01*
X0034514Y0261585D01*
X0025865Y0255922D01*
X0022063Y0253224D01*
X0021779Y0253080D01*
X0021614Y0253000D01*
X0021252Y0252649D01*
X0017434Y0249940D01*
X0016902Y0249532D01*
X0016477Y0249265D01*
X0016455Y0249256D01*
X0016074Y0248932D01*
X0014995Y0248355D01*
X0013668Y0247953D01*
X0012287Y0247817D01*
X0010907Y0247953D01*
X0009580Y0248355D01*
X0008356Y0249009D01*
X0007284Y0249889D01*
X0006404Y0250961D01*
X0005750Y0252185D01*
X0005347Y0253512D01*
X0005212Y0254892D01*
X0005212D01*
Y0303426D01*
X0005212D01*
X0005347Y0304806D01*
X0005750Y0306134D01*
X0006404Y0307357D01*
X0007284Y0308429D01*
X0008010Y0309025D01*
X0008389Y0309325D01*
D01*
X0009269Y0309924D01*
X0018339Y0315654D01*
X0022551Y0318118D01*
X0027599Y0321071D01*
X0037038Y0326168D01*
X0046646Y0330940D01*
X0056411Y0335382D01*
X0066323Y0339487D01*
X0075550Y0342945D01*
X0076368Y0343252D01*
X0086537Y0346671D01*
X0096816Y0349741D01*
X0107194Y0352459D01*
X0117658Y0354820D01*
X0128197Y0356823D01*
X0138799Y0358466D01*
X0149450Y0359745D01*
X0160139Y0360659D01*
X0170853Y0361209D01*
X0181525Y0361391D01*
X0181579Y0361380D01*
X0181633Y0361391D01*
X0192305Y0361209D01*
D02*
G37*
G36*
X0220000Y0358000D02*
Y0347500D01*
Y0331000D01*
X0213500Y0324500D01*
X0207500D01*
Y0359615D01*
X0207880Y0359939D01*
X0220000Y0358000D01*
D02*
G37*
G36*
X0224359Y0358466D02*
X0234960Y0356823D01*
X0245499Y0354820D01*
X0255964Y0352459D01*
X0266342Y0349741D01*
X0276621Y0346671D01*
X0286789Y0343252D01*
X0296835Y0339487D01*
X0306746Y0335382D01*
X0316512Y0330940D01*
X0326119Y0326168D01*
X0335559Y0321071D01*
X0344819Y0315654D01*
X0353888Y0309924D01*
X0354768Y0309325D01*
D01*
X0355148Y0309025D01*
X0355874Y0308429D01*
X0356754Y0307357D01*
X0357407Y0306134D01*
X0357810Y0304806D01*
X0357946Y0303426D01*
X0357946D01*
Y0254892D01*
X0357946D01*
X0357810Y0253512D01*
X0357407Y0252185D01*
X0356754Y0250961D01*
X0355874Y0249889D01*
X0354801Y0249009D01*
X0353578Y0248355D01*
X0352251Y0247953D01*
X0350870Y0247817D01*
X0349490Y0247953D01*
X0348162Y0248355D01*
X0347093Y0248927D01*
X0346712Y0249252D01*
X0346680Y0249265D01*
X0346255Y0249532D01*
X0345723Y0249940D01*
X0341906Y0252649D01*
X0341544Y0253000D01*
X0341414Y0253063D01*
X0341073Y0253240D01*
X0337292Y0255922D01*
X0328644Y0261585D01*
X0319789Y0266920D01*
X0310742Y0271921D01*
X0301513Y0276579D01*
X0292117Y0280890D01*
X0288662Y0282321D01*
X0288220Y0282556D01*
X0288178Y0282574D01*
X0287698Y0282720D01*
X0282567Y0284845D01*
X0272875Y0288442D01*
X0263055Y0291673D01*
X0253122Y0294535D01*
X0243088Y0297023D01*
X0234883Y0298735D01*
X0232969Y0299134D01*
X0225834Y0300347D01*
X0225349Y0300429D01*
X0225349Y0300429D01*
X0225277Y0300451D01*
X0224881Y0300572D01*
X0224880Y0300572D01*
X0224879Y0300563D01*
X0224428Y0300566D01*
X0224416Y0300567D01*
X0224425Y0300566D01*
X0224424D01*
X0224429Y0300566D01*
X0224425Y0300566D01*
X0222917Y0300685D01*
X0220941Y0300529D01*
X0219014Y0300066D01*
X0217182Y0299308D01*
X0215492Y0298272D01*
X0213985Y0296985D01*
X0212698Y0295478D01*
X0211662Y0293788D01*
X0210904Y0291956D01*
X0210441Y0290029D01*
X0210285Y0288053D01*
X0210308D01*
Y0257043D01*
X0210216Y0256579D01*
X0210206Y0256554D01*
X0210223D01*
X0210339Y0256131D01*
X0210446Y0255322D01*
X0210921Y0254174D01*
X0211678Y0253189D01*
X0212663Y0252432D01*
X0213811Y0251957D01*
X0215043Y0251795D01*
Y0251819D01*
X0218182D01*
Y0167937D01*
X0217682Y0167749D01*
X0217152Y0168103D01*
X0216378Y0168257D01*
X0215750D01*
Y0165250D01*
Y0162243D01*
X0216378D01*
X0217152Y0162397D01*
X0217809Y0162835D01*
X0218099Y0163270D01*
X0218637Y0163174D01*
X0218778Y0162587D01*
X0219536Y0160756D01*
X0220572Y0159066D01*
X0221859Y0157559D01*
X0223366Y0156271D01*
X0225057Y0155235D01*
X0226888Y0154477D01*
X0227557Y0154316D01*
X0228026Y0154144D01*
X0228046Y0154136D01*
X0228544Y0154074D01*
X0237898Y0151995D01*
X0247167Y0149935D01*
X0247249Y0149405D01*
X0246631Y0149048D01*
X0245913Y0148330D01*
X0245405Y0147450D01*
X0245142Y0146469D01*
Y0145453D01*
X0245405Y0144471D01*
X0245913Y0143592D01*
X0246240Y0143264D01*
X0246274Y0143211D01*
X0246486Y0142990D01*
X0246659Y0142784D01*
X0246716Y0142705D01*
X0246695Y0142648D01*
X0246520Y0142205D01*
X0246520D01*
X0246520Y0142205D01*
Y0141493D01*
X0246518Y0141484D01*
X0246520Y0141475D01*
Y0136232D01*
X0246520Y0136063D01*
X0246157Y0135732D01*
X0240000D01*
X0240000Y0135732D01*
X0239528Y0135638D01*
X0239129Y0135371D01*
X0239129Y0135371D01*
X0236316Y0132558D01*
X0236049Y0132159D01*
X0235955Y0131687D01*
X0235955Y0131687D01*
Y0126152D01*
X0235950Y0126093D01*
X0235943Y0126052D01*
X0235542Y0125973D01*
X0234982Y0125599D01*
X0234608Y0125039D01*
X0234477Y0124378D01*
Y0121622D01*
X0234608Y0120961D01*
X0234982Y0120402D01*
X0235542Y0120027D01*
X0236203Y0119896D01*
X0238171D01*
X0238832Y0120027D01*
X0239392Y0120402D01*
X0239766Y0120961D01*
X0239897Y0121622D01*
Y0124378D01*
X0239766Y0125039D01*
X0239392Y0125599D01*
X0238832Y0125973D01*
X0238431Y0126052D01*
X0238424Y0126093D01*
X0238419Y0126152D01*
Y0131176D01*
X0240510Y0133268D01*
X0242004D01*
X0242488Y0133228D01*
X0242488Y0132768D01*
Y0130616D01*
X0245260D01*
X0248031D01*
Y0132715D01*
X0248532Y0132923D01*
X0249933Y0131521D01*
X0250094Y0131348D01*
X0250203Y0131211D01*
X0250260Y0131130D01*
Y0130812D01*
X0250258Y0130802D01*
X0250260Y0130793D01*
Y0126795D01*
X0251725D01*
X0251726Y0126790D01*
X0251731Y0126732D01*
Y0126143D01*
X0251726Y0126078D01*
X0251715Y0126007D01*
X0251542Y0125973D01*
X0250982Y0125599D01*
X0250608Y0125039D01*
X0250477Y0124378D01*
Y0121622D01*
X0250608Y0120961D01*
X0250982Y0120402D01*
X0251084Y0120333D01*
X0250836Y0119898D01*
X0247071D01*
X0245142Y0117968D01*
Y0114110D01*
X0247071Y0112181D01*
X0250929D01*
X0252459Y0113711D01*
X0255539D01*
X0255539Y0113711D01*
X0256430Y0113888D01*
X0257186Y0114393D01*
X0270088Y0127296D01*
X0270807D01*
X0271014Y0126909D01*
X0271020Y0126796D01*
X0270896Y0126171D01*
Y0124203D01*
X0271027Y0123542D01*
X0271402Y0122982D01*
X0271961Y0122608D01*
X0272622Y0122477D01*
X0275378D01*
X0276039Y0122608D01*
X0276414Y0122859D01*
X0282586D01*
X0282962Y0122608D01*
X0283622Y0122477D01*
X0286378D01*
X0287038Y0122608D01*
X0287414Y0122859D01*
X0288729D01*
X0290172Y0121416D01*
Y0091964D01*
X0285036Y0086828D01*
X0273000D01*
X0272109Y0086651D01*
X0271354Y0086146D01*
X0271354Y0086146D01*
X0265854Y0080646D01*
X0265349Y0079891D01*
X0265172Y0079000D01*
X0265172Y0079000D01*
Y0075850D01*
X0264114D01*
X0256555Y0083409D01*
X0255996Y0083838D01*
X0255345Y0084108D01*
X0254646Y0084200D01*
X0248846D01*
X0248748Y0084691D01*
X0248830Y0084724D01*
X0250119Y0085586D01*
X0251216Y0086683D01*
X0252078Y0087973D01*
X0252671Y0089406D01*
X0252974Y0090927D01*
Y0092478D01*
X0252671Y0093999D01*
X0252078Y0095432D01*
X0251216Y0096722D01*
X0250119Y0097818D01*
X0248830Y0098680D01*
X0247397Y0099274D01*
X0245876Y0099576D01*
X0244324D01*
X0242803Y0099274D01*
X0241370Y0098680D01*
X0240081Y0097818D01*
X0238984Y0096722D01*
X0238122Y0095432D01*
X0237529Y0093999D01*
X0237226Y0092478D01*
X0237226Y0090927D01*
X0237529Y0089406D01*
X0238122Y0087973D01*
X0238984Y0086683D01*
X0240081Y0085586D01*
X0241370Y0084724D01*
X0241452Y0084691D01*
X0241354Y0084200D01*
X0238119D01*
X0231700Y0090618D01*
Y0095500D01*
X0231608Y0096199D01*
X0231339Y0096850D01*
X0230909Y0097409D01*
X0219200Y0109118D01*
Y0112500D01*
Y0125000D01*
X0219108Y0125699D01*
X0218839Y0126350D01*
X0218409Y0126909D01*
X0203777Y0141541D01*
X0203984Y0142041D01*
X0204390D01*
X0205110Y0142340D01*
X0205661Y0142891D01*
X0205959Y0143610D01*
Y0144390D01*
X0205661Y0145109D01*
X0205110Y0145660D01*
X0204390Y0145959D01*
X0203610D01*
X0203319Y0145838D01*
X0202700D01*
Y0147627D01*
X0203200Y0147727D01*
X0203340Y0147390D01*
X0203890Y0146839D01*
X0204610Y0146541D01*
X0205390D01*
X0206109Y0146839D01*
X0206538Y0147268D01*
X0217291D01*
X0217498Y0146768D01*
X0217339Y0146609D01*
X0217041Y0145890D01*
Y0145110D01*
X0217339Y0144390D01*
X0217891Y0143840D01*
X0218610Y0143541D01*
X0219390D01*
X0220110Y0143840D01*
X0220538Y0144268D01*
X0221490D01*
X0222768Y0142990D01*
Y0134209D01*
X0222268Y0134002D01*
X0222110Y0134160D01*
X0221390Y0134459D01*
X0220610D01*
X0219890Y0134160D01*
X0219339Y0133609D01*
X0219041Y0132890D01*
Y0132110D01*
X0219339Y0131391D01*
X0219890Y0130840D01*
X0220610Y0130541D01*
X0220768D01*
Y0117500D01*
X0220768Y0117500D01*
X0220862Y0117028D01*
X0221129Y0116629D01*
X0226744Y0111014D01*
X0226340Y0110609D01*
X0226041Y0109890D01*
Y0109110D01*
X0226340Y0108390D01*
X0226890Y0107840D01*
X0227610Y0107541D01*
X0228390D01*
X0229110Y0107840D01*
X0229661Y0108390D01*
X0229959Y0109110D01*
Y0109890D01*
X0229816Y0110234D01*
X0230240Y0110517D01*
X0234384Y0106373D01*
X0234784Y0106106D01*
X0235256Y0106012D01*
X0235256Y0106012D01*
X0269806D01*
X0269916Y0105603D01*
X0270476Y0104633D01*
X0271267Y0103842D01*
X0272237Y0103282D01*
X0273318Y0102992D01*
X0274438D01*
X0275519Y0103282D01*
X0276489Y0103842D01*
X0277280Y0104633D01*
X0277840Y0105603D01*
X0278130Y0106684D01*
Y0107804D01*
X0277840Y0108885D01*
X0277280Y0109855D01*
X0276489Y0110646D01*
X0275519Y0111206D01*
X0275171Y0111300D01*
Y0113103D01*
X0275378D01*
X0276039Y0113234D01*
X0276599Y0113608D01*
X0276973Y0114168D01*
X0277104Y0114829D01*
Y0116797D01*
X0276973Y0117458D01*
X0276599Y0118018D01*
X0276039Y0118392D01*
X0275378Y0118523D01*
X0272622D01*
X0271961Y0118392D01*
X0271402Y0118018D01*
X0271027Y0117458D01*
X0270896Y0116797D01*
Y0114829D01*
X0271027Y0114168D01*
X0271402Y0113608D01*
X0271961Y0113234D01*
X0272622Y0113103D01*
X0272707D01*
Y0111332D01*
X0272237Y0111206D01*
X0271267Y0110646D01*
X0270476Y0109855D01*
X0269916Y0108885D01*
X0269806Y0108476D01*
X0235766D01*
X0225232Y0119010D01*
Y0120097D01*
X0225313Y0120163D01*
X0225732Y0120319D01*
X0226168Y0120027D01*
X0226829Y0119896D01*
X0228797D01*
X0229458Y0120027D01*
X0230018Y0120402D01*
X0230392Y0120961D01*
X0230523Y0121622D01*
Y0124378D01*
X0230392Y0125039D01*
X0230018Y0125599D01*
X0229458Y0125973D01*
X0229045Y0126055D01*
Y0143687D01*
X0229045Y0143687D01*
X0228952Y0144159D01*
X0228684Y0144558D01*
X0228684Y0144558D01*
X0223871Y0149371D01*
X0223472Y0149638D01*
X0223000Y0149732D01*
X0223000Y0149732D01*
X0206538D01*
X0206109Y0150161D01*
X0205390Y0150459D01*
X0204610D01*
X0203890Y0150161D01*
X0203340Y0149609D01*
X0203200Y0149273D01*
X0202700Y0149373D01*
Y0153548D01*
X0205086D01*
X0205462Y0153297D01*
X0206122Y0153166D01*
X0208878D01*
X0209539Y0153297D01*
X0209914Y0153548D01*
X0212586D01*
X0212962Y0153297D01*
X0213622Y0153166D01*
X0216378D01*
X0217038Y0153297D01*
X0217599Y0153671D01*
X0217973Y0154231D01*
X0218104Y0154892D01*
Y0156860D01*
X0217973Y0157521D01*
X0217599Y0158081D01*
X0217038Y0158455D01*
X0216378Y0158586D01*
X0213622D01*
X0212962Y0158455D01*
X0212586Y0158204D01*
X0209914D01*
X0209539Y0158455D01*
X0208878Y0158586D01*
X0206122D01*
X0205462Y0158455D01*
X0205086Y0158204D01*
X0202700D01*
Y0166882D01*
X0206409Y0170591D01*
X0206838Y0171150D01*
X0207108Y0171801D01*
X0207200Y0172500D01*
Y0174300D01*
X0209020D01*
X0209669Y0173802D01*
X0210560Y0173433D01*
X0211516Y0173307D01*
X0213484D01*
X0214440Y0173433D01*
X0215331Y0173802D01*
X0216096Y0174389D01*
X0216683Y0175154D01*
X0217051Y0176044D01*
X0217177Y0177000D01*
X0217051Y0177956D01*
X0216683Y0178847D01*
X0216096Y0179611D01*
X0215331Y0180198D01*
X0214440Y0180567D01*
X0213484Y0180693D01*
X0211516D01*
X0210560Y0180567D01*
X0209669Y0180198D01*
X0209020Y0179700D01*
X0207200D01*
Y0185849D01*
X0207665Y0185968D01*
X0208063Y0185007D01*
X0208697Y0184181D01*
X0209522Y0183547D01*
X0210484Y0183149D01*
X0211516Y0183013D01*
X0211750D01*
Y0187000D01*
Y0190987D01*
X0211516D01*
X0210484Y0190851D01*
X0209522Y0190453D01*
X0208697Y0189819D01*
X0208063Y0188993D01*
X0207665Y0188032D01*
X0207604Y0187574D01*
X0207108Y0187512D01*
X0206838Y0188163D01*
X0206409Y0188722D01*
X0197023Y0198108D01*
Y0198378D01*
X0196892Y0199039D01*
X0196518Y0199599D01*
X0195958Y0199973D01*
X0195297Y0200104D01*
X0195028D01*
X0194200Y0200932D01*
Y0203896D01*
X0195297D01*
X0195958Y0204027D01*
X0196518Y0204401D01*
X0196892Y0204961D01*
X0197023Y0205622D01*
Y0208378D01*
X0196892Y0209038D01*
X0196518Y0209598D01*
X0195958Y0209973D01*
X0195297Y0210104D01*
X0194200D01*
Y0252381D01*
X0202409Y0260591D01*
X0202838Y0261150D01*
X0203108Y0261801D01*
X0203200Y0262500D01*
Y0312881D01*
X0211222Y0320903D01*
X0211651Y0321462D01*
X0211921Y0322114D01*
X0212013Y0322813D01*
Y0323778D01*
X0213500D01*
X0213776Y0323833D01*
X0214011Y0323989D01*
X0218884Y0328863D01*
X0219333Y0328604D01*
X0219201Y0328112D01*
Y0326888D01*
X0219517Y0325707D01*
X0220129Y0324647D01*
X0220994Y0323783D01*
X0222053Y0323171D01*
X0223235Y0322854D01*
X0224458D01*
X0225640Y0323171D01*
X0226699Y0323783D01*
X0227564Y0324647D01*
X0228175Y0325707D01*
X0228492Y0326888D01*
Y0328112D01*
X0228175Y0329293D01*
X0227564Y0330352D01*
X0226699Y0331218D01*
X0225640Y0331829D01*
X0224458Y0332146D01*
X0223235D01*
X0222053Y0331829D01*
X0221222Y0331349D01*
X0220723Y0331623D01*
Y0347500D01*
Y0358000D01*
X0220706Y0358083D01*
X0220703Y0358168D01*
X0220679Y0358220D01*
X0220668Y0358277D01*
X0220620Y0358347D01*
X0220585Y0358424D01*
X0220618Y0358610D01*
X0220669Y0358711D01*
X0220812Y0358891D01*
X0224359Y0358466D01*
D02*
G37*
G36*
X0171563Y0236694D02*
X0171372Y0236232D01*
X0162879D01*
X0162502Y0237144D01*
X0161820Y0238033D01*
X0160932Y0238714D01*
X0159897Y0239142D01*
X0158787Y0239289D01*
X0157213D01*
X0156103Y0239142D01*
X0155068Y0238714D01*
X0154180Y0238033D01*
X0153498Y0237144D01*
X0153349Y0236784D01*
X0152849Y0236883D01*
Y0243116D01*
X0153349Y0243216D01*
X0153498Y0242856D01*
X0154180Y0241968D01*
X0155068Y0241286D01*
X0156103Y0240858D01*
X0157213Y0240711D01*
X0158787D01*
X0159897Y0240858D01*
X0160932Y0241286D01*
X0161820Y0241968D01*
X0162502Y0242856D01*
X0162879Y0243768D01*
X0164489D01*
X0171563Y0236694D01*
D02*
G37*
G36*
X0178407Y0227350D02*
X0178200Y0226850D01*
X0172418D01*
X0172099Y0227329D01*
X0171538Y0227703D01*
X0170878Y0227834D01*
X0168122D01*
X0167462Y0227703D01*
X0166902Y0227329D01*
X0166540Y0226788D01*
X0162649D01*
X0162502Y0227144D01*
X0161820Y0228032D01*
X0160932Y0228714D01*
X0159897Y0229142D01*
X0158787Y0229289D01*
X0157213D01*
X0156103Y0229142D01*
X0155068Y0228714D01*
X0154180Y0228032D01*
X0153498Y0227144D01*
X0153349Y0226784D01*
X0152849Y0226884D01*
Y0233117D01*
X0153349Y0233216D01*
X0153498Y0232856D01*
X0154180Y0231967D01*
X0155068Y0231286D01*
X0156103Y0230857D01*
X0157213Y0230711D01*
X0158787D01*
X0159897Y0230857D01*
X0160932Y0231286D01*
X0161820Y0231967D01*
X0162502Y0232856D01*
X0162879Y0233768D01*
X0171990D01*
X0178407Y0227350D01*
D02*
G37*
G36*
X0181274Y0220285D02*
Y0196000D01*
X0181405Y0195340D01*
X0181780Y0194780D01*
X0183830Y0192728D01*
X0183570Y0192338D01*
X0183536Y0192316D01*
X0183008Y0192421D01*
X0181630D01*
X0181085Y0192313D01*
X0180622Y0192004D01*
X0180313Y0191541D01*
X0180205Y0190996D01*
Y0186469D01*
X0180313Y0185923D01*
X0180622Y0185461D01*
X0180761Y0185368D01*
Y0183785D01*
X0180482Y0183598D01*
X0180108Y0183038D01*
X0179977Y0182378D01*
Y0179622D01*
X0180108Y0178962D01*
X0180482Y0178402D01*
X0180945Y0178092D01*
Y0176908D01*
X0180482Y0176599D01*
X0180108Y0176039D01*
X0179977Y0175378D01*
Y0172622D01*
X0180108Y0171961D01*
X0180482Y0171402D01*
X0181042Y0171027D01*
X0181703Y0170896D01*
X0183671D01*
X0184332Y0171027D01*
X0184892Y0171402D01*
X0185266Y0171961D01*
X0185397Y0172622D01*
Y0175378D01*
X0185266Y0176039D01*
X0184892Y0176599D01*
X0184429Y0176908D01*
Y0178092D01*
X0184892Y0178402D01*
X0185266Y0178962D01*
X0185397Y0179622D01*
Y0182378D01*
X0185266Y0183038D01*
X0184892Y0183598D01*
X0184332Y0183973D01*
X0184245Y0183990D01*
Y0185804D01*
X0184324Y0185923D01*
X0184433Y0186469D01*
Y0190996D01*
X0184328Y0191524D01*
X0184350Y0191558D01*
X0184740Y0191819D01*
X0190840Y0185719D01*
X0190750Y0185503D01*
Y0182250D01*
Y0179243D01*
X0191378D01*
X0192152Y0179397D01*
X0192808Y0179835D01*
X0193247Y0180491D01*
X0193401Y0181266D01*
Y0182505D01*
X0193863Y0182696D01*
X0194274Y0182285D01*
Y0179197D01*
X0190663Y0175586D01*
X0188622D01*
X0187961Y0175455D01*
X0187401Y0175081D01*
X0187027Y0174521D01*
X0186896Y0173860D01*
Y0171892D01*
X0186896Y0171892D01*
Y0171502D01*
X0182119Y0166726D01*
X0181558Y0166493D01*
X0181007Y0165942D01*
X0180709Y0165222D01*
Y0165104D01*
X0180247Y0164912D01*
X0175045Y0170114D01*
Y0171086D01*
X0175518Y0171402D01*
X0175892Y0171961D01*
X0176023Y0172622D01*
Y0175378D01*
X0175892Y0176039D01*
X0175518Y0176599D01*
X0174958Y0176973D01*
X0174297Y0177104D01*
Y0177599D01*
X0175072Y0177753D01*
X0175728Y0178191D01*
X0176166Y0178848D01*
X0176320Y0179622D01*
Y0180250D01*
X0170306D01*
Y0179622D01*
X0170460Y0178848D01*
X0170898Y0178191D01*
X0171555Y0177753D01*
X0172329Y0177599D01*
Y0177104D01*
X0171668Y0176973D01*
X0171108Y0176599D01*
X0170734Y0176039D01*
X0170603Y0175378D01*
Y0172847D01*
X0170103Y0172640D01*
X0168732Y0174011D01*
Y0202791D01*
X0168639Y0203263D01*
X0168371Y0203663D01*
X0168371Y0203663D01*
X0157459Y0214576D01*
Y0215181D01*
X0157160Y0215901D01*
X0156609Y0216452D01*
X0155890Y0216750D01*
X0155110D01*
X0154391Y0216452D01*
X0153840Y0215901D01*
X0153541Y0215181D01*
Y0214402D01*
X0153840Y0213682D01*
X0154391Y0213131D01*
X0155110Y0212833D01*
X0155716D01*
X0166268Y0202281D01*
Y0199705D01*
X0165806Y0199513D01*
X0157459Y0207860D01*
Y0208466D01*
X0157160Y0209186D01*
X0156609Y0209737D01*
X0155890Y0210035D01*
X0155110D01*
X0154391Y0209737D01*
X0153840Y0209186D01*
X0153541Y0208466D01*
Y0207686D01*
X0153840Y0206967D01*
X0154391Y0206416D01*
X0155110Y0206117D01*
X0155716D01*
X0164268Y0197566D01*
Y0194989D01*
X0163806Y0194798D01*
X0157459Y0201145D01*
Y0201750D01*
X0157160Y0202470D01*
X0156609Y0203021D01*
X0155890Y0203320D01*
X0155110D01*
X0154391Y0203021D01*
X0153840Y0202470D01*
X0153541Y0201750D01*
Y0200971D01*
X0153840Y0200251D01*
X0154391Y0199700D01*
X0155110Y0199402D01*
X0155716D01*
X0162476Y0192642D01*
Y0190065D01*
X0162014Y0189874D01*
X0157459Y0194430D01*
Y0195035D01*
X0157160Y0195755D01*
X0156609Y0196306D01*
X0155890Y0196604D01*
X0155110D01*
X0154391Y0196306D01*
X0153840Y0195755D01*
X0153541Y0195035D01*
Y0194256D01*
X0153840Y0193536D01*
X0154391Y0192985D01*
X0155110Y0192687D01*
X0155716D01*
X0160768Y0187635D01*
Y0185059D01*
X0160306Y0184868D01*
X0157459Y0187715D01*
Y0188320D01*
X0157160Y0189040D01*
X0156609Y0189591D01*
X0155890Y0189889D01*
X0155110D01*
X0154391Y0189591D01*
X0153840Y0189040D01*
X0153541Y0188320D01*
Y0187541D01*
X0153840Y0186821D01*
X0154391Y0186270D01*
X0155110Y0185972D01*
X0155716D01*
X0158976Y0182711D01*
Y0180135D01*
X0158514Y0179944D01*
X0157459Y0180999D01*
Y0181605D01*
X0157160Y0182325D01*
X0156609Y0182876D01*
X0155890Y0183174D01*
X0155110D01*
X0154391Y0182876D01*
X0153840Y0182325D01*
X0153541Y0181605D01*
Y0180826D01*
X0153840Y0180106D01*
X0154391Y0179555D01*
X0155110Y0179257D01*
X0155716D01*
X0157268Y0177705D01*
Y0176209D01*
X0156768Y0176002D01*
X0156609Y0176161D01*
X0155890Y0176459D01*
X0155110D01*
X0154391Y0176161D01*
X0153840Y0175610D01*
X0153541Y0174890D01*
Y0174110D01*
X0153840Y0173390D01*
X0154268Y0172962D01*
Y0165592D01*
X0153668Y0165473D01*
X0153108Y0165099D01*
X0152863Y0164732D01*
X0152398Y0164935D01*
X0152717Y0166264D01*
X0152834Y0167755D01*
X0152837Y0167788D01*
X0152952Y0168240D01*
X0152870Y0168241D01*
X0152849Y0168704D01*
Y0223116D01*
X0153349Y0223216D01*
X0153498Y0222856D01*
X0154180Y0221968D01*
X0155068Y0221286D01*
X0156103Y0220858D01*
X0157213Y0220711D01*
X0158787D01*
X0159897Y0220858D01*
X0160932Y0221286D01*
X0161820Y0221968D01*
X0162502Y0222856D01*
X0162700Y0223336D01*
X0166623D01*
X0166902Y0222919D01*
X0167462Y0222545D01*
X0168122Y0222414D01*
X0170878D01*
X0171538Y0222545D01*
X0172099Y0222919D01*
X0172418Y0223398D01*
X0178161D01*
X0181274Y0220285D01*
D02*
G37*
G36*
X0176559Y0157698D02*
Y0137088D01*
X0176059Y0136821D01*
X0175832Y0136973D01*
X0175171Y0137104D01*
X0173203D01*
X0172888Y0137041D01*
X0169350Y0140580D01*
X0169660Y0140891D01*
X0169959Y0141610D01*
Y0142390D01*
X0169660Y0143110D01*
X0169109Y0143660D01*
X0168390Y0143959D01*
X0167610D01*
X0167184Y0143782D01*
X0166625Y0144044D01*
X0166621Y0144049D01*
X0166612Y0144093D01*
X0167371Y0144852D01*
X0167639Y0145252D01*
X0167732Y0145724D01*
X0167732Y0145724D01*
Y0146550D01*
X0168232Y0146649D01*
X0168340Y0146390D01*
X0168891Y0145840D01*
X0169591Y0145550D01*
X0169608Y0145461D01*
X0169982Y0144902D01*
X0170542Y0144527D01*
X0171203Y0144396D01*
X0173171D01*
X0173832Y0144527D01*
X0174392Y0144902D01*
X0174766Y0145461D01*
X0174897Y0146122D01*
Y0148878D01*
X0174766Y0149539D01*
X0174392Y0150099D01*
X0173832Y0150473D01*
X0173171Y0150604D01*
X0171203D01*
X0170542Y0150473D01*
X0169982Y0150099D01*
X0169608Y0149539D01*
X0169591Y0149450D01*
X0168891Y0149161D01*
X0168340Y0148609D01*
X0168232Y0148351D01*
X0167732Y0148450D01*
Y0151967D01*
X0168232Y0152234D01*
X0168542Y0152027D01*
X0169203Y0151896D01*
X0171171D01*
X0171832Y0152027D01*
X0172392Y0152401D01*
X0172766Y0152962D01*
X0172897Y0153622D01*
Y0156378D01*
X0172766Y0157038D01*
X0172392Y0157598D01*
X0171832Y0157973D01*
X0171171Y0158104D01*
X0169554D01*
X0169347Y0158604D01*
X0169371Y0158629D01*
X0169371Y0158629D01*
X0169639Y0159028D01*
X0169732Y0159500D01*
X0169732Y0159500D01*
Y0163872D01*
X0170194Y0164063D01*
X0176559Y0157698D01*
D02*
G37*
G36*
X0251205Y0143711D02*
X0250976Y0143473D01*
X0250771Y0143228D01*
X0250590Y0142979D01*
X0250434Y0142724D01*
X0250301Y0142464D01*
X0250193Y0142199D01*
X0250158Y0142087D01*
X0250190Y0141984D01*
X0250273Y0141804D01*
X0250372Y0141664D01*
X0250486Y0141564D01*
X0250615Y0141504D01*
X0250760Y0141484D01*
X0250027D01*
X0250012Y0141371D01*
X0250000Y0141084D01*
X0248000Y0141084D01*
X0247988Y0141371D01*
X0247973Y0141484D01*
X0247240D01*
X0247385Y0141504D01*
X0247514Y0141564D01*
X0247628Y0141664D01*
X0247726Y0141804D01*
X0247810Y0141984D01*
X0247842Y0142087D01*
X0247807Y0142199D01*
X0247699Y0142464D01*
X0247566Y0142724D01*
X0247410Y0142979D01*
X0247229Y0143228D01*
X0247024Y0143473D01*
X0246795Y0143711D01*
X0251205Y0143711D01*
D02*
G37*
G36*
X0192935Y0170307D02*
X0193059Y0170197D01*
Y0135984D01*
X0192828Y0135779D01*
X0192328Y0136005D01*
Y0170242D01*
X0192559Y0170435D01*
X0192935Y0170307D01*
D02*
G37*
G36*
X0251186Y0132726D02*
X0251553Y0132414D01*
X0251716Y0132301D01*
X0251864Y0132216D01*
X0251999Y0132160D01*
X0252119Y0132132D01*
X0252225D01*
X0252317Y0132160D01*
X0252395Y0132216D01*
X0250980Y0130802D01*
X0251037Y0130880D01*
X0251065Y0130972D01*
Y0131078D01*
X0251037Y0131198D01*
X0250980Y0131333D01*
X0250896Y0131481D01*
X0250782Y0131644D01*
X0250641Y0131820D01*
X0250273Y0132216D01*
X0250980Y0132923D01*
X0251186Y0132726D01*
D02*
G37*
G36*
X0198091Y0139591D02*
X0209519Y0128162D01*
X0209328Y0127700D01*
X0192328D01*
Y0133318D01*
X0192828Y0133418D01*
X0192840Y0133390D01*
X0193391Y0132840D01*
X0194110Y0132541D01*
X0194890D01*
X0195484Y0132787D01*
X0195898Y0132641D01*
X0196028Y0132551D01*
X0196064Y0132334D01*
X0195840Y0132109D01*
X0195541Y0131390D01*
Y0130610D01*
X0195840Y0129891D01*
X0196390Y0129340D01*
X0197110Y0129041D01*
X0197890D01*
X0198609Y0129340D01*
X0199161Y0129891D01*
X0199459Y0130610D01*
Y0131390D01*
X0199161Y0132109D01*
X0198732Y0132538D01*
Y0136500D01*
X0198732Y0136500D01*
X0198638Y0136972D01*
X0198371Y0137371D01*
X0197232Y0138511D01*
Y0139926D01*
X0197353Y0139989D01*
X0197732Y0140058D01*
X0198091Y0139591D01*
D02*
G37*
G36*
X0253269Y0148579D02*
X0290267Y0140357D01*
X0290260Y0140325D01*
X0291281Y0140080D01*
X0292878Y0139419D01*
X0294351Y0138516D01*
X0295665Y0137394D01*
X0296788Y0136080D01*
X0297691Y0134606D01*
X0298352Y0133010D01*
X0298755Y0131329D01*
X0298891Y0129606D01*
X0298891D01*
Y0128609D01*
X0298391Y0128402D01*
X0295146Y0131646D01*
X0294391Y0132151D01*
X0293500Y0132328D01*
X0293500Y0132328D01*
X0285000D01*
X0285000Y0132328D01*
X0284109Y0132151D01*
X0283812Y0131952D01*
X0269124D01*
X0269124Y0131952D01*
X0268233Y0131775D01*
X0267478Y0131270D01*
X0267478Y0131270D01*
X0254575Y0118368D01*
X0252459D01*
X0251116Y0119711D01*
X0251435Y0120099D01*
X0251542Y0120027D01*
X0252203Y0119896D01*
X0254171D01*
X0254832Y0120027D01*
X0255392Y0120402D01*
X0255766Y0120961D01*
X0255897Y0121622D01*
Y0124378D01*
X0255766Y0125039D01*
X0255392Y0125599D01*
X0254832Y0125973D01*
X0254200Y0126098D01*
X0254196Y0126150D01*
Y0126732D01*
X0254201Y0126790D01*
X0254202Y0126795D01*
X0255221D01*
Y0132937D01*
X0252404D01*
X0252395Y0132939D01*
X0252385Y0132937D01*
X0252067D01*
X0251994Y0132988D01*
X0251719Y0133220D01*
X0249568Y0135371D01*
X0249282Y0135563D01*
X0249402Y0136063D01*
X0251480D01*
Y0141475D01*
X0251482Y0141484D01*
X0251480Y0141493D01*
Y0142205D01*
X0251480D01*
X0251310Y0142634D01*
X0251284Y0142705D01*
X0251341Y0142784D01*
X0251514Y0142990D01*
X0251726Y0143211D01*
X0251760Y0143264D01*
X0252087Y0143592D01*
X0252595Y0144471D01*
X0252858Y0145453D01*
Y0146469D01*
X0252595Y0147450D01*
X0252087Y0148330D01*
X0252061Y0148356D01*
X0252302Y0148794D01*
X0253269Y0148579D01*
D02*
G37*
G36*
X0253869Y0127518D02*
X0253784Y0127488D01*
X0253709Y0127437D01*
X0253644Y0127366D01*
X0253589Y0127275D01*
X0253544Y0127164D01*
X0253509Y0127032D01*
X0253484Y0126880D01*
X0253469Y0126708D01*
X0253464Y0126516D01*
X0252464D01*
X0252459Y0126708D01*
X0252444Y0126880D01*
X0252419Y0127032D01*
X0252384Y0127164D01*
X0252339Y0127275D01*
X0252284Y0127366D01*
X0252219Y0127437D01*
X0252144Y0127488D01*
X0252059Y0127518D01*
X0251964Y0127528D01*
X0253964D01*
X0253869Y0127518D01*
D02*
G37*
G36*
X0237692Y0126176D02*
X0237707Y0126004D01*
X0237732Y0125852D01*
X0237767Y0125720D01*
X0237811Y0125608D01*
X0237866Y0125517D01*
X0237931Y0125446D01*
X0238005Y0125395D01*
X0238090Y0125364D01*
X0238185Y0125354D01*
X0236189D01*
X0236284Y0125364D01*
X0236368Y0125395D01*
X0236443Y0125446D01*
X0236508Y0125517D01*
X0236563Y0125608D01*
X0236607Y0125720D01*
X0236642Y0125852D01*
X0236667Y0126004D01*
X0236682Y0126176D01*
X0236687Y0126369D01*
X0237687D01*
X0237692Y0126176D01*
D02*
G37*
G36*
X0253469Y0126175D02*
X0253484Y0126001D01*
X0253509Y0125848D01*
X0253544Y0125716D01*
X0253589Y0125604D01*
X0253644Y0125514D01*
X0253709Y0125443D01*
X0253784Y0125394D01*
X0253869Y0125365D01*
X0253964Y0125357D01*
X0251966Y0125310D01*
X0252061Y0125323D01*
X0252145Y0125356D01*
X0252220Y0125410D01*
X0252284Y0125485D01*
X0252339Y0125581D01*
X0252384Y0125697D01*
X0252419Y0125834D01*
X0252444Y0125992D01*
X0252459Y0126170D01*
X0252464Y0126369D01*
X0253464D01*
X0253469Y0126175D01*
D02*
G37*
G36*
X0152603Y0163878D02*
Y0161122D01*
X0152734Y0160461D01*
X0153108Y0159901D01*
X0153668Y0159527D01*
X0154268Y0159408D01*
Y0157495D01*
X0153768Y0157132D01*
X0153638Y0157175D01*
X0152675Y0157225D01*
X0151732Y0157025D01*
X0150873Y0156587D01*
X0150156Y0155942D01*
X0149631Y0155133D01*
X0149333Y0154216D01*
X0149283Y0153254D01*
X0149483Y0152311D01*
X0149921Y0151452D01*
X0150566Y0150735D01*
X0151375Y0150210D01*
X0152292Y0149912D01*
X0153254Y0149862D01*
X0154197Y0150062D01*
X0155056Y0150500D01*
X0155773Y0151145D01*
X0156298Y0151953D01*
X0156596Y0152870D01*
X0156646Y0153833D01*
X0156446Y0154776D01*
X0156141Y0155375D01*
X0156371Y0155605D01*
X0156639Y0156005D01*
X0156732Y0156477D01*
X0156732Y0156477D01*
Y0158923D01*
X0156768Y0158942D01*
X0157268Y0158648D01*
Y0154400D01*
Y0151011D01*
X0154680Y0148423D01*
X0154413Y0148023D01*
X0154319Y0147551D01*
X0154319Y0147551D01*
Y0147351D01*
X0153811Y0147243D01*
X0152952Y0146805D01*
X0152235Y0146160D01*
X0151710Y0145352D01*
X0151412Y0144435D01*
X0151362Y0143472D01*
X0151562Y0142529D01*
X0152000Y0141670D01*
X0152645Y0140954D01*
X0153454Y0140429D01*
X0154371Y0140131D01*
X0155333Y0140080D01*
X0156276Y0140281D01*
X0157135Y0140718D01*
X0157852Y0141363D01*
X0158377Y0142172D01*
X0158675Y0143089D01*
X0158725Y0144052D01*
X0158525Y0144995D01*
X0158087Y0145854D01*
X0157442Y0146570D01*
X0157186Y0146736D01*
X0157119Y0147376D01*
X0159371Y0149629D01*
X0159639Y0150028D01*
X0159732Y0150500D01*
X0159732Y0150500D01*
Y0151817D01*
X0159829Y0151896D01*
X0161797D01*
X0162458Y0152027D01*
X0162768Y0152234D01*
X0163268Y0151967D01*
Y0150604D01*
X0161829D01*
X0161168Y0150473D01*
X0160608Y0150099D01*
X0160234Y0149539D01*
X0160103Y0148878D01*
Y0146122D01*
X0160234Y0145461D01*
X0160608Y0144902D01*
X0160768Y0144795D01*
Y0139368D01*
X0158713Y0137313D01*
X0158713Y0137314D01*
X0157796Y0137611D01*
X0156833Y0137662D01*
X0155890Y0137461D01*
X0155031Y0137024D01*
X0154315Y0136379D01*
X0153790Y0135570D01*
X0153492Y0134653D01*
X0153441Y0133691D01*
X0153642Y0132748D01*
X0154079Y0131889D01*
X0154724Y0131172D01*
X0155533Y0130647D01*
X0156450Y0130349D01*
X0157413Y0130299D01*
X0158355Y0130499D01*
X0159214Y0130937D01*
X0159931Y0131582D01*
X0160456Y0132390D01*
X0160754Y0133307D01*
X0160804Y0134270D01*
X0160604Y0135213D01*
X0160433Y0135548D01*
X0162871Y0137986D01*
X0162871Y0137986D01*
X0163138Y0138386D01*
X0163232Y0138857D01*
Y0143886D01*
X0163268Y0143911D01*
X0163768Y0143650D01*
Y0137092D01*
X0163168Y0136973D01*
X0162608Y0136599D01*
X0162234Y0136038D01*
X0162103Y0135378D01*
Y0132622D01*
X0162234Y0131962D01*
X0162608Y0131402D01*
X0163168Y0131027D01*
X0163768Y0130908D01*
Y0127510D01*
X0162654Y0126397D01*
X0162142Y0126406D01*
X0161600Y0127007D01*
X0160792Y0127532D01*
X0159875Y0127830D01*
X0158912Y0127881D01*
X0157969Y0127680D01*
X0157110Y0127242D01*
X0156394Y0126597D01*
X0155869Y0125789D01*
X0155571Y0124872D01*
X0155520Y0123909D01*
X0155721Y0122966D01*
X0156158Y0122107D01*
X0156804Y0121391D01*
X0157612Y0120866D01*
X0158529Y0120568D01*
X0159492Y0120517D01*
X0160435Y0120718D01*
X0161294Y0121155D01*
X0162010Y0121800D01*
X0162535Y0122609D01*
X0162833Y0123526D01*
X0162834Y0123552D01*
X0163137Y0123905D01*
X0163609Y0123999D01*
X0164009Y0124266D01*
X0165871Y0126129D01*
X0165871Y0126129D01*
X0166139Y0126528D01*
X0166232Y0127000D01*
X0166232Y0127000D01*
Y0130982D01*
X0166458Y0131027D01*
X0167018Y0131402D01*
X0167392Y0131962D01*
X0167523Y0132622D01*
Y0135378D01*
X0167392Y0136038D01*
X0167018Y0136599D01*
X0166458Y0136973D01*
X0166232Y0137018D01*
Y0139818D01*
X0166243Y0139835D01*
X0166732Y0140078D01*
X0166835Y0139999D01*
X0166900Y0139677D01*
X0167167Y0139278D01*
X0171477Y0134968D01*
Y0132622D01*
X0171608Y0131962D01*
X0171982Y0131402D01*
X0172542Y0131027D01*
X0173203Y0130896D01*
X0174946D01*
X0175153Y0130396D01*
X0164698Y0119941D01*
X0157302D01*
X0154459Y0122784D01*
Y0123390D01*
X0154160Y0124109D01*
X0153610Y0124661D01*
X0152890Y0124959D01*
X0152110D01*
X0151391Y0124661D01*
X0150839Y0124109D01*
X0150541Y0123390D01*
Y0122610D01*
X0150839Y0121890D01*
X0151391Y0121339D01*
X0151649Y0121232D01*
X0151550Y0120732D01*
X0150511D01*
X0149732Y0121511D01*
Y0127297D01*
X0149732Y0127297D01*
X0149638Y0127769D01*
X0149371Y0128168D01*
X0148232Y0129307D01*
Y0132462D01*
X0148661Y0132890D01*
X0148959Y0133610D01*
Y0134390D01*
X0148661Y0135109D01*
X0148109Y0135661D01*
X0147390Y0135959D01*
X0146610D01*
X0145890Y0135661D01*
X0145340Y0135109D01*
X0145041Y0134390D01*
Y0133610D01*
X0145340Y0132890D01*
X0145768Y0132462D01*
Y0128797D01*
X0145768Y0128797D01*
X0145861Y0128325D01*
X0146129Y0127926D01*
X0147268Y0126787D01*
Y0125628D01*
X0146806Y0125437D01*
X0144232Y0128010D01*
Y0132458D01*
X0144232Y0132458D01*
X0144139Y0132930D01*
X0143871Y0133329D01*
X0143871Y0133329D01*
X0139122Y0138079D01*
X0139122Y0138079D01*
X0139420Y0138996D01*
X0139470Y0139959D01*
X0139270Y0140902D01*
X0138832Y0141761D01*
X0138187Y0142477D01*
X0137379Y0143002D01*
X0136462Y0143300D01*
X0135499Y0143351D01*
X0134556Y0143150D01*
X0133697Y0142713D01*
X0132981Y0142068D01*
X0132456Y0141259D01*
X0132158Y0140342D01*
X0132107Y0139379D01*
X0132308Y0138436D01*
X0132745Y0137577D01*
X0133390Y0136861D01*
X0134199Y0136336D01*
X0135116Y0136038D01*
X0136079Y0135987D01*
X0137022Y0136188D01*
X0137356Y0136358D01*
X0141768Y0131947D01*
Y0131400D01*
X0141268Y0131280D01*
X0140911Y0131979D01*
X0140266Y0132696D01*
X0139458Y0133221D01*
X0138541Y0133519D01*
X0137578Y0133569D01*
X0136635Y0133369D01*
X0135776Y0132931D01*
X0135060Y0132286D01*
X0134535Y0131477D01*
X0134237Y0130561D01*
X0134186Y0129598D01*
X0134387Y0128655D01*
X0134824Y0127796D01*
X0135469Y0127079D01*
X0136278Y0126554D01*
X0137195Y0126256D01*
X0138158Y0126206D01*
X0139101Y0126406D01*
X0139436Y0126577D01*
X0143768Y0122245D01*
Y0121774D01*
X0143268Y0121654D01*
X0142991Y0122198D01*
X0142345Y0122914D01*
X0141537Y0123439D01*
X0140620Y0123737D01*
X0139657Y0123788D01*
X0138714Y0123587D01*
X0137855Y0123150D01*
X0137139Y0122504D01*
X0136614Y0121696D01*
X0136316Y0120779D01*
X0136265Y0119816D01*
X0136466Y0118873D01*
X0136904Y0118014D01*
X0137549Y0117298D01*
X0138357Y0116773D01*
X0139274Y0116475D01*
X0140237Y0116425D01*
X0140650Y0116512D01*
X0140956Y0116193D01*
X0140865Y0115701D01*
X0140401Y0115392D01*
X0140027Y0114832D01*
X0139896Y0114171D01*
Y0112203D01*
X0140027Y0111542D01*
X0140234Y0111232D01*
X0139967Y0110732D01*
X0127897D01*
Y0112878D01*
X0127766Y0113539D01*
X0127392Y0114099D01*
X0126832Y0114473D01*
X0126171Y0114604D01*
X0124203D01*
X0123542Y0114473D01*
X0123101Y0114178D01*
X0122714Y0114521D01*
X0122959Y0115110D01*
Y0115816D01*
X0123162Y0115994D01*
X0123405Y0116119D01*
X0123542Y0116027D01*
X0124203Y0115896D01*
X0126171D01*
X0126832Y0116027D01*
X0127392Y0116402D01*
X0127766Y0116962D01*
X0127897Y0117622D01*
Y0117768D01*
X0129462D01*
X0129891Y0117340D01*
X0130610Y0117041D01*
X0131390D01*
X0132109Y0117340D01*
X0132660Y0117891D01*
X0132959Y0118610D01*
Y0119390D01*
X0132660Y0120109D01*
X0132109Y0120660D01*
X0131390Y0120959D01*
X0130610D01*
X0129891Y0120660D01*
X0129462Y0120232D01*
X0127897D01*
Y0120378D01*
X0127766Y0121038D01*
X0127392Y0121598D01*
X0126832Y0121973D01*
X0126171Y0122104D01*
X0124203D01*
X0123542Y0121973D01*
X0122982Y0121598D01*
X0122608Y0121038D01*
X0122477Y0120378D01*
Y0117622D01*
X0122507Y0117470D01*
X0122268Y0117284D01*
X0122054Y0117183D01*
X0121390Y0117459D01*
X0120610D01*
X0119890Y0117160D01*
X0119340Y0116610D01*
X0119041Y0115890D01*
Y0115110D01*
X0119340Y0114391D01*
X0119768Y0113962D01*
Y0111407D01*
X0119768Y0111407D01*
X0119768Y0111406D01*
Y0109760D01*
X0117049Y0107042D01*
X0116734Y0107104D01*
X0114766D01*
X0114105Y0106973D01*
X0113545Y0106598D01*
X0113171Y0106038D01*
X0113040Y0105378D01*
Y0102622D01*
X0113171Y0101962D01*
X0113545Y0101401D01*
X0114105Y0101027D01*
X0114766Y0100896D01*
X0115033D01*
X0115132Y0100396D01*
X0114370Y0100080D01*
X0113081Y0099218D01*
X0111984Y0098122D01*
X0111122Y0096832D01*
X0110529Y0095399D01*
X0110226Y0093878D01*
X0109732Y0093893D01*
Y0095000D01*
X0109639Y0095472D01*
X0109371Y0095871D01*
X0109371Y0095871D01*
X0107232Y0098010D01*
Y0110268D01*
X0113103D01*
Y0110122D01*
X0113234Y0109461D01*
X0113608Y0108902D01*
X0114168Y0108527D01*
X0114829Y0108396D01*
X0116797D01*
X0117458Y0108527D01*
X0118018Y0108902D01*
X0118392Y0109461D01*
X0118523Y0110122D01*
Y0112878D01*
X0118392Y0113539D01*
X0118018Y0114099D01*
X0117458Y0114473D01*
X0116797Y0114604D01*
X0114829D01*
X0114168Y0114473D01*
X0113608Y0114099D01*
X0113234Y0113539D01*
X0113103Y0112878D01*
Y0112732D01*
X0106510D01*
X0103371Y0115871D01*
X0102972Y0116139D01*
X0102500Y0116232D01*
X0102500Y0116232D01*
X0093732D01*
Y0117603D01*
X0093878D01*
X0094538Y0117734D01*
X0095099Y0118108D01*
X0095473Y0118668D01*
X0095604Y0119329D01*
Y0121297D01*
X0095473Y0121958D01*
X0095099Y0122518D01*
X0094538Y0122892D01*
X0093878Y0123023D01*
X0091122D01*
X0090461Y0122892D01*
X0089902Y0122518D01*
X0089527Y0121958D01*
X0089396Y0121297D01*
Y0119329D01*
X0089527Y0118668D01*
X0089902Y0118108D01*
X0090461Y0117734D01*
X0091122Y0117603D01*
X0091268D01*
Y0116232D01*
X0079217D01*
X0078277Y0117173D01*
X0078461Y0117643D01*
X0078491Y0117665D01*
X0079122Y0117540D01*
X0081878D01*
X0082538Y0117671D01*
X0083099Y0118045D01*
X0083473Y0118605D01*
X0083530Y0118893D01*
X0084837D01*
X0085265Y0118465D01*
X0085985Y0118166D01*
X0086765D01*
X0087485Y0118465D01*
X0088036Y0119016D01*
X0088334Y0119735D01*
Y0120515D01*
X0088036Y0121235D01*
X0087485Y0121785D01*
X0086765Y0122084D01*
X0085985D01*
X0085265Y0121785D01*
X0084837Y0121357D01*
X0083579D01*
X0083473Y0121895D01*
X0083099Y0122455D01*
X0082538Y0122829D01*
X0081878Y0122960D01*
X0079139D01*
X0077732Y0124367D01*
Y0126187D01*
X0077732Y0126187D01*
X0077642Y0126641D01*
X0077683Y0126698D01*
X0078018Y0126991D01*
X0078348Y0126771D01*
X0079122Y0126617D01*
X0079750D01*
Y0128874D01*
X0077099D01*
Y0128640D01*
X0077248Y0127889D01*
X0077227Y0127857D01*
X0076813Y0127617D01*
X0076042Y0128388D01*
X0076104Y0128703D01*
Y0130671D01*
X0075973Y0131332D01*
X0075599Y0131892D01*
X0075038Y0132266D01*
X0074378Y0132397D01*
X0071622D01*
X0070961Y0132266D01*
X0070402Y0131892D01*
X0070027Y0131332D01*
X0069896Y0130671D01*
Y0128703D01*
X0070027Y0128042D01*
X0070402Y0127482D01*
X0070961Y0127108D01*
X0071622Y0126977D01*
X0073967D01*
X0075268Y0125677D01*
Y0123856D01*
X0075268Y0123856D01*
X0075362Y0123385D01*
X0075491Y0123191D01*
X0075130Y0122830D01*
X0075038Y0122892D01*
X0074378Y0123023D01*
X0071622D01*
X0070961Y0122892D01*
X0070402Y0122518D01*
X0070027Y0121958D01*
X0069896Y0121297D01*
Y0119329D01*
X0070027Y0118668D01*
X0070402Y0118108D01*
X0070961Y0117734D01*
X0071622Y0117603D01*
X0074361D01*
X0077835Y0114129D01*
X0077835Y0114129D01*
X0078235Y0113862D01*
X0078707Y0113768D01*
X0091914D01*
X0091914Y0113768D01*
X0091914Y0113768D01*
X0101989D01*
X0104768Y0110990D01*
Y0097500D01*
X0104768Y0097500D01*
X0104861Y0097028D01*
X0105129Y0096629D01*
X0107268Y0094490D01*
Y0080987D01*
X0099929D01*
X0096523Y0084393D01*
Y0086378D01*
X0096392Y0087038D01*
X0096018Y0087599D01*
X0095458Y0087973D01*
X0094797Y0088104D01*
X0092829D01*
X0092168Y0087973D01*
X0091608Y0087599D01*
X0091428Y0087328D01*
X0088072D01*
X0087892Y0087599D01*
X0087332Y0087973D01*
X0086671Y0088104D01*
X0084703D01*
X0084042Y0087973D01*
X0083482Y0087599D01*
X0083108Y0087038D01*
X0082977Y0086378D01*
Y0083622D01*
X0083108Y0082961D01*
X0083482Y0082402D01*
X0084042Y0082027D01*
X0084703Y0081896D01*
X0086671D01*
X0087332Y0082027D01*
X0087892Y0082402D01*
X0088072Y0082672D01*
X0091428D01*
X0091608Y0082402D01*
X0092168Y0082027D01*
X0092829Y0081896D01*
X0094797D01*
X0094811Y0081899D01*
X0098261Y0078448D01*
X0098744Y0078126D01*
X0099313Y0078013D01*
X0124500D01*
X0125069Y0078126D01*
X0125552Y0078448D01*
X0130052Y0082948D01*
X0130374Y0083431D01*
X0130487Y0084000D01*
Y0092384D01*
X0136116Y0098013D01*
X0164884D01*
X0167948Y0094948D01*
X0168431Y0094626D01*
X0169000Y0094513D01*
X0169000Y0094513D01*
X0184500D01*
X0185069Y0094626D01*
X0185552Y0094948D01*
X0196990Y0106386D01*
X0197224Y0106351D01*
X0197340Y0105827D01*
X0197192Y0105728D01*
X0196753Y0105071D01*
X0196599Y0104297D01*
Y0104063D01*
X0200000D01*
X0203401D01*
Y0104297D01*
X0203247Y0105071D01*
X0202808Y0105728D01*
X0202382Y0106013D01*
X0202534Y0106513D01*
X0205061D01*
X0205212Y0106013D01*
X0204692Y0105665D01*
X0204253Y0105008D01*
X0204099Y0104234D01*
Y0104000D01*
X0207500D01*
X0210901D01*
Y0104234D01*
X0210747Y0105008D01*
X0210309Y0105665D01*
X0209788Y0106013D01*
X0209939Y0106513D01*
X0214267D01*
X0214591Y0106091D01*
X0226300Y0094381D01*
Y0089500D01*
X0226392Y0088801D01*
X0226661Y0088150D01*
X0227091Y0087591D01*
X0235091Y0079591D01*
X0235650Y0079162D01*
X0236301Y0078892D01*
X0237000Y0078800D01*
X0253527D01*
X0260295Y0072032D01*
Y0064984D01*
X0264800D01*
Y0061000D01*
Y0047583D01*
X0264823Y0047407D01*
Y0042150D01*
X0270177D01*
Y0047407D01*
X0270200Y0047583D01*
Y0057613D01*
X0284102D01*
X0284224Y0057431D01*
X0284800Y0057046D01*
Y0054676D01*
X0284527Y0054269D01*
X0284396Y0053608D01*
Y0051640D01*
X0284527Y0050979D01*
X0284901Y0050419D01*
X0285461Y0050045D01*
X0286122Y0049914D01*
X0288878D01*
X0289539Y0050045D01*
X0290099Y0050419D01*
X0290473Y0050979D01*
X0290604Y0051640D01*
Y0053608D01*
X0290473Y0054269D01*
X0290200Y0054676D01*
Y0057046D01*
X0290776Y0057431D01*
X0291237Y0058121D01*
X0291399Y0058935D01*
Y0061691D01*
X0291237Y0062505D01*
X0290776Y0063195D01*
X0290086Y0063657D01*
X0289272Y0063818D01*
X0285728D01*
X0284914Y0063657D01*
X0284224Y0063195D01*
X0284102Y0063013D01*
X0270200D01*
Y0064984D01*
X0274705D01*
Y0075850D01*
X0269828D01*
Y0078036D01*
X0273964Y0082172D01*
X0286000D01*
X0286000Y0082172D01*
X0286891Y0082349D01*
X0287646Y0082854D01*
X0294146Y0089354D01*
X0294146Y0089354D01*
X0294172Y0089392D01*
X0294672Y0089240D01*
Y0086464D01*
X0293354Y0085146D01*
X0292849Y0084391D01*
X0292672Y0083500D01*
X0292672Y0083500D01*
Y0041464D01*
X0286536Y0035328D01*
X0224964D01*
X0219828Y0040464D01*
Y0042067D01*
X0220177D01*
Y0047324D01*
X0220200Y0047500D01*
Y0057613D01*
X0234102D01*
X0234224Y0057431D01*
X0234800Y0057046D01*
Y0054676D01*
X0234527Y0054269D01*
X0234396Y0053608D01*
Y0051640D01*
X0234527Y0050979D01*
X0234901Y0050419D01*
X0235461Y0050045D01*
X0236122Y0049914D01*
X0238878D01*
X0239539Y0050045D01*
X0240099Y0050419D01*
X0240473Y0050979D01*
X0240604Y0051640D01*
Y0053608D01*
X0240473Y0054269D01*
X0240200Y0054676D01*
Y0057046D01*
X0240776Y0057431D01*
X0241237Y0058121D01*
X0241399Y0058935D01*
Y0061691D01*
X0241237Y0062505D01*
X0240776Y0063195D01*
X0240086Y0063657D01*
X0239366Y0063800D01*
X0239415Y0064300D01*
X0242894D01*
X0244134Y0063060D01*
X0243763Y0062505D01*
X0243601Y0061691D01*
Y0058935D01*
X0243763Y0058121D01*
X0244224Y0057431D01*
X0244800Y0057046D01*
Y0054676D01*
X0244527Y0054269D01*
X0244396Y0053608D01*
Y0051640D01*
X0244527Y0050979D01*
X0244901Y0050419D01*
X0245462Y0050045D01*
X0246122Y0049914D01*
X0248878D01*
X0248929Y0049924D01*
X0252285D01*
X0253780Y0048429D01*
X0254339Y0048000D01*
X0254990Y0047730D01*
X0255689Y0047638D01*
X0255745D01*
Y0047583D01*
X0255768Y0047407D01*
Y0042150D01*
X0261122D01*
Y0047407D01*
X0261145Y0047583D01*
Y0050339D01*
X0261122Y0050514D01*
Y0053016D01*
X0258620D01*
X0258445Y0053039D01*
X0256807D01*
X0255313Y0054533D01*
X0254754Y0054962D01*
X0254102Y0055232D01*
X0253403Y0055324D01*
X0250200D01*
Y0057046D01*
X0250776Y0057431D01*
X0251237Y0058121D01*
X0251399Y0058935D01*
Y0061691D01*
X0251237Y0062505D01*
X0250776Y0063195D01*
X0250190Y0063586D01*
X0250108Y0064211D01*
X0249838Y0064863D01*
X0249409Y0065422D01*
X0245922Y0068909D01*
X0245363Y0069339D01*
X0244711Y0069608D01*
X0244013Y0069700D01*
X0239651D01*
X0239602Y0070200D01*
X0240199Y0070319D01*
X0240986Y0070845D01*
X0241512Y0071631D01*
X0241696Y0072559D01*
Y0073187D01*
X0237500D01*
X0233304D01*
Y0072559D01*
X0233488Y0071631D01*
X0234014Y0070845D01*
X0234801Y0070319D01*
X0235398Y0070200D01*
X0235349Y0069700D01*
X0233119D01*
X0231700Y0071118D01*
Y0076694D01*
X0231608Y0077393D01*
X0231339Y0078044D01*
X0230909Y0078603D01*
X0228603Y0080909D01*
X0228044Y0081339D01*
X0227393Y0081608D01*
X0226694Y0081700D01*
X0211113D01*
X0211037Y0081928D01*
X0211030Y0082200D01*
X0211610Y0082588D01*
X0215569Y0086547D01*
X0215727Y0086456D01*
X0217159Y0086072D01*
X0218641D01*
X0220073Y0086456D01*
X0221357Y0087197D01*
X0222405Y0088245D01*
X0223146Y0089529D01*
X0223530Y0090961D01*
Y0092444D01*
X0223146Y0093875D01*
X0222405Y0095159D01*
X0221357Y0096207D01*
X0220073Y0096949D01*
X0218641Y0097332D01*
X0217159D01*
X0215727Y0096949D01*
X0214443Y0096207D01*
X0213395Y0095159D01*
X0212654Y0093875D01*
X0212270Y0092444D01*
Y0090961D01*
X0212654Y0089529D01*
X0212745Y0089372D01*
X0209370Y0085997D01*
X0206315D01*
X0206240Y0086090D01*
X0206360Y0086738D01*
X0207157Y0087197D01*
X0208205Y0088245D01*
X0208946Y0089529D01*
X0209330Y0090961D01*
Y0092444D01*
X0208946Y0093875D01*
X0208205Y0095159D01*
X0207157Y0096207D01*
X0205873Y0096949D01*
X0204441Y0097332D01*
X0202959D01*
X0201527Y0096949D01*
X0200243Y0096207D01*
X0199195Y0095159D01*
X0198454Y0093875D01*
X0198407Y0093699D01*
X0178202D01*
X0177438Y0093547D01*
X0176790Y0093115D01*
X0170186Y0086510D01*
X0169753Y0085863D01*
X0169601Y0085098D01*
Y0074542D01*
X0169593Y0074530D01*
X0169484Y0073984D01*
Y0069457D01*
X0169593Y0068911D01*
X0169902Y0068449D01*
X0170364Y0068140D01*
X0170910Y0068032D01*
X0172287D01*
X0172833Y0068140D01*
X0173295Y0068449D01*
X0173604Y0068911D01*
X0173712Y0069457D01*
Y0073984D01*
X0173604Y0074530D01*
X0173595Y0074542D01*
Y0078396D01*
X0175360D01*
X0176021Y0078527D01*
X0176581Y0078901D01*
X0176955Y0079461D01*
X0177086Y0080122D01*
Y0082878D01*
X0176955Y0083539D01*
X0176581Y0084099D01*
X0176021Y0084473D01*
X0175360Y0084604D01*
X0174635D01*
X0174385Y0085061D01*
X0179030Y0089705D01*
X0198407D01*
X0198454Y0089529D01*
X0199195Y0088245D01*
X0200243Y0087197D01*
X0201040Y0086738D01*
X0201160Y0086090D01*
X0201085Y0085997D01*
X0192000D01*
X0191236Y0085845D01*
X0190588Y0085412D01*
X0186960Y0081785D01*
X0186460Y0081992D01*
Y0082878D01*
X0186329Y0083539D01*
X0185955Y0084099D01*
X0185395Y0084473D01*
X0184734Y0084604D01*
X0182766D01*
X0182105Y0084473D01*
X0181545Y0084099D01*
X0181171Y0083539D01*
X0181040Y0082878D01*
Y0080122D01*
X0181171Y0079461D01*
X0181545Y0078901D01*
X0182105Y0078527D01*
X0182766Y0078396D01*
X0184030D01*
X0184601Y0077824D01*
Y0074542D01*
X0184593Y0074530D01*
X0184484Y0073984D01*
Y0069457D01*
X0184593Y0068911D01*
X0184902Y0068449D01*
X0185364Y0068140D01*
X0185909Y0068032D01*
X0187287D01*
X0187833Y0068140D01*
X0188295Y0068449D01*
X0188604Y0068911D01*
X0188712Y0069457D01*
Y0073984D01*
X0188604Y0074530D01*
X0188595Y0074542D01*
Y0077771D01*
X0192827Y0082003D01*
X0208448D01*
X0208547Y0081503D01*
X0208150Y0081339D01*
X0207591Y0080909D01*
X0203591Y0076909D01*
X0203162Y0076350D01*
X0202892Y0075699D01*
X0202800Y0075000D01*
Y0069118D01*
X0197500Y0063818D01*
X0195728D01*
X0194914Y0063657D01*
X0194224Y0063195D01*
X0193763Y0062505D01*
X0193601Y0061691D01*
Y0058935D01*
X0193763Y0058121D01*
X0194224Y0057431D01*
X0194800Y0057046D01*
Y0054676D01*
X0194527Y0054269D01*
X0194396Y0053608D01*
Y0051640D01*
X0194527Y0050979D01*
X0194902Y0050419D01*
X0195461Y0050045D01*
X0196122Y0049914D01*
X0198878D01*
X0198938Y0049926D01*
X0205020D01*
X0205723Y0049223D01*
X0205642Y0049118D01*
X0205319Y0048338D01*
X0205208Y0047500D01*
X0205210Y0047485D01*
Y0040787D01*
X0198972Y0034549D01*
X0168813D01*
X0168813Y0034549D01*
X0168811Y0035028D01*
Y0046525D01*
X0169311Y0046574D01*
X0169318Y0046538D01*
X0169692Y0045979D01*
X0170250Y0045606D01*
X0170848Y0045487D01*
Y0049461D01*
Y0053434D01*
X0170250Y0053315D01*
X0169692Y0052942D01*
X0169318Y0052383D01*
X0169311Y0052347D01*
X0168811Y0052396D01*
Y0054764D01*
X0180500D01*
X0181338Y0054874D01*
X0182118Y0055197D01*
X0182788Y0055712D01*
X0183303Y0056382D01*
X0183626Y0057162D01*
X0183736Y0058000D01*
X0183645Y0058693D01*
X0183726Y0059098D01*
Y0071720D01*
X0183712Y0071788D01*
Y0073984D01*
X0183604Y0074530D01*
X0183295Y0074992D01*
X0182833Y0075301D01*
X0182287Y0075409D01*
X0180910D01*
X0180364Y0075301D01*
X0179902Y0074992D01*
X0179593Y0074530D01*
X0179484Y0073984D01*
Y0071788D01*
X0179471Y0071720D01*
Y0061236D01*
X0178726D01*
Y0071720D01*
X0178712Y0071788D01*
Y0073984D01*
X0178604Y0074530D01*
X0178295Y0074992D01*
X0177833Y0075301D01*
X0177287Y0075409D01*
X0175909D01*
X0175364Y0075301D01*
X0174902Y0074992D01*
X0174593Y0074530D01*
X0174484Y0073984D01*
Y0071788D01*
X0174471Y0071720D01*
Y0061236D01*
X0162646D01*
X0162646Y0061236D01*
X0162646Y0061236D01*
X0156328D01*
Y0071720D01*
X0156315Y0071788D01*
Y0073984D01*
X0156206Y0074530D01*
X0155897Y0074992D01*
X0155435Y0075301D01*
X0154890Y0075409D01*
X0153512D01*
X0152966Y0075301D01*
X0152504Y0074992D01*
X0152195Y0074530D01*
X0152087Y0073984D01*
Y0071788D01*
X0152073Y0071720D01*
Y0061236D01*
X0151328D01*
Y0071720D01*
X0151315Y0071788D01*
Y0073984D01*
X0151206Y0074530D01*
X0150897Y0074992D01*
X0150435Y0075301D01*
X0149890Y0075409D01*
X0148512D01*
X0147967Y0075301D01*
X0147504Y0074992D01*
X0147195Y0074530D01*
X0147087Y0073984D01*
Y0071788D01*
X0147073Y0071720D01*
Y0061236D01*
X0141431D01*
X0141431Y0061236D01*
X0140594Y0061126D01*
X0139813Y0060803D01*
X0139143Y0060289D01*
X0139143Y0060288D01*
X0136441Y0057586D01*
X0135122D01*
X0134461Y0057455D01*
X0133902Y0057081D01*
X0133527Y0056521D01*
X0133484Y0056305D01*
X0130338D01*
X0130272Y0056318D01*
X0126728D01*
X0125914Y0056156D01*
X0125224Y0055695D01*
X0125102Y0055513D01*
X0121394D01*
X0120695Y0055421D01*
X0120044Y0055151D01*
X0119484Y0054722D01*
X0118785Y0054023D01*
X0118122D01*
X0117462Y0053892D01*
X0116902Y0053518D01*
X0116527Y0052958D01*
X0116396Y0052297D01*
Y0050329D01*
X0116527Y0049668D01*
X0116902Y0049108D01*
X0117462Y0048734D01*
X0118122Y0048603D01*
X0120878D01*
X0121538Y0048734D01*
X0122099Y0049108D01*
X0122473Y0049668D01*
X0122561Y0050113D01*
X0125102D01*
X0125224Y0049931D01*
X0125914Y0049470D01*
X0126728Y0049308D01*
X0130272D01*
X0131086Y0049470D01*
X0131629Y0049832D01*
X0136500D01*
X0136500Y0049832D01*
X0137338Y0049943D01*
X0138118Y0050266D01*
X0138788Y0050780D01*
X0142772Y0054764D01*
X0161305D01*
X0162338Y0053730D01*
Y0034549D01*
X0148000D01*
X0147162Y0034439D01*
X0146382Y0034116D01*
X0146135Y0033926D01*
X0145961Y0033892D01*
X0145402Y0033518D01*
X0145027Y0032958D01*
X0144896Y0032297D01*
Y0032204D01*
X0144874Y0032151D01*
X0144764Y0031313D01*
X0144874Y0030475D01*
X0144896Y0030422D01*
Y0030329D01*
X0145027Y0029668D01*
X0145402Y0029108D01*
X0145961Y0028734D01*
X0146135Y0028699D01*
X0146382Y0028510D01*
X0147162Y0028187D01*
X0148000Y0028077D01*
X0162337D01*
X0162338Y0028075D01*
X0162338Y0028075D01*
Y0024017D01*
X0161990Y0023413D01*
X0161740Y0022482D01*
Y0021518D01*
X0161990Y0020587D01*
X0162165Y0020283D01*
Y0013875D01*
X0161990Y0013571D01*
X0161740Y0012640D01*
Y0011675D01*
X0161990Y0010744D01*
X0162472Y0009909D01*
X0163153Y0009228D01*
X0163296Y0009145D01*
X0163162Y0008645D01*
X0159767D01*
X0159633Y0009145D01*
X0159776Y0009228D01*
X0160457Y0009909D01*
X0160940Y0010744D01*
X0161189Y0011675D01*
Y0012640D01*
X0160940Y0013571D01*
X0160457Y0014406D01*
X0159776Y0015087D01*
X0158941Y0015569D01*
X0158010Y0015819D01*
X0157045D01*
X0156114Y0015569D01*
X0155279Y0015087D01*
X0154598Y0014406D01*
X0154116Y0013571D01*
X0153866Y0012640D01*
Y0011675D01*
X0154116Y0010744D01*
X0154598Y0009909D01*
X0155279Y0009228D01*
X0155422Y0009145D01*
X0155288Y0008645D01*
X0069521Y0008645D01*
X0064267Y0013899D01*
Y0029796D01*
X0064767Y0029991D01*
X0077629Y0017129D01*
X0077629Y0017129D01*
X0078028Y0016861D01*
X0078500Y0016768D01*
X0078500Y0016768D01*
X0086500D01*
X0086500Y0016768D01*
X0086972Y0016861D01*
X0087371Y0017129D01*
X0090371Y0020129D01*
X0090639Y0020528D01*
X0090732Y0021000D01*
X0090732Y0021000D01*
Y0021592D01*
X0091194Y0021784D01*
X0091489Y0021489D01*
X0091724Y0021332D01*
X0092000Y0021278D01*
X0099500D01*
X0099777Y0021332D01*
X0100011Y0021489D01*
X0101511Y0022989D01*
X0101667Y0023223D01*
X0101723Y0023500D01*
Y0028000D01*
X0101667Y0028277D01*
X0101511Y0028511D01*
X0100511Y0029511D01*
X0100277Y0029667D01*
X0100091Y0029704D01*
X0100008Y0029952D01*
X0100017Y0030215D01*
X0100376Y0030364D01*
X0100853Y0030840D01*
X0101110Y0031462D01*
Y0032136D01*
X0100974Y0032465D01*
X0101299Y0032965D01*
X0102327D01*
Y0031405D01*
X0102419Y0030707D01*
X0102689Y0030055D01*
X0103118Y0029496D01*
X0103677Y0029067D01*
X0104329Y0028797D01*
X0105028Y0028705D01*
X0105726Y0028797D01*
X0106378Y0029067D01*
X0106937Y0029496D01*
X0107366Y0030055D01*
X0107636Y0030707D01*
X0107728Y0031405D01*
Y0036130D01*
X0107636Y0036829D01*
X0107366Y0037480D01*
X0106937Y0038039D01*
X0106378Y0038468D01*
X0105726Y0038738D01*
X0105028Y0038830D01*
X0104329Y0038738D01*
X0103677Y0038468D01*
X0103279Y0038163D01*
X0102779Y0038377D01*
Y0042051D01*
X0099978D01*
X0099736Y0042551D01*
X0099911Y0042774D01*
X0108000D01*
X0108660Y0042905D01*
X0109221Y0043279D01*
X0111721Y0045779D01*
X0112095Y0046339D01*
X0112226Y0047000D01*
Y0048672D01*
X0112539Y0048734D01*
X0113099Y0049108D01*
X0113473Y0049668D01*
X0113604Y0050329D01*
Y0052297D01*
X0113473Y0052958D01*
X0113099Y0053518D01*
X0112539Y0053892D01*
X0111878Y0054023D01*
X0109122D01*
X0108461Y0053892D01*
X0107902Y0053518D01*
X0107527Y0052958D01*
X0107396Y0052297D01*
Y0050329D01*
X0107527Y0049668D01*
X0107902Y0049108D01*
X0108461Y0048734D01*
X0108774Y0048672D01*
Y0047715D01*
X0107285Y0046226D01*
X0103914D01*
X0103762Y0046726D01*
X0103993Y0046881D01*
X0104261Y0047280D01*
X0104354Y0047752D01*
Y0048752D01*
X0104261Y0049224D01*
X0103993Y0049623D01*
X0103594Y0049891D01*
X0103122Y0049984D01*
Y0050457D01*
X0103594Y0050551D01*
X0103993Y0050818D01*
X0104261Y0051217D01*
X0104354Y0051689D01*
Y0052689D01*
X0104261Y0053161D01*
X0103993Y0053560D01*
X0103594Y0053828D01*
X0103122Y0053921D01*
Y0054394D01*
X0103594Y0054488D01*
X0103993Y0054755D01*
X0104261Y0055154D01*
X0104354Y0055626D01*
Y0056626D01*
X0104261Y0057098D01*
X0103993Y0057497D01*
X0103594Y0057765D01*
X0103122Y0057858D01*
Y0058331D01*
X0103594Y0058425D01*
X0103993Y0058692D01*
X0104261Y0059091D01*
X0104354Y0059563D01*
Y0060563D01*
X0104261Y0061035D01*
X0103993Y0061434D01*
X0103594Y0061702D01*
X0103122Y0061795D01*
Y0062268D01*
X0103594Y0062362D01*
X0103993Y0062629D01*
X0104086Y0062768D01*
X0106990D01*
X0107510Y0062247D01*
X0107396Y0061671D01*
Y0059703D01*
X0107527Y0059042D01*
X0107902Y0058482D01*
X0108461Y0058108D01*
X0109122Y0057977D01*
X0111878D01*
X0112539Y0058108D01*
X0113099Y0058482D01*
X0113473Y0059042D01*
X0113604Y0059703D01*
Y0061671D01*
X0113473Y0062332D01*
X0113099Y0062892D01*
X0112539Y0063266D01*
X0111878Y0063397D01*
X0109845D01*
X0108371Y0064871D01*
X0107972Y0065139D01*
X0107500Y0065232D01*
X0107500Y0065232D01*
X0104086D01*
X0103993Y0065371D01*
X0103594Y0065639D01*
X0103122Y0065732D01*
X0101805D01*
Y0069346D01*
X0102855Y0070396D01*
X0104108D01*
X0104769Y0070527D01*
X0105329Y0070902D01*
X0105703Y0071461D01*
X0105834Y0072122D01*
Y0074878D01*
X0105703Y0075538D01*
X0105329Y0076099D01*
X0104769Y0076473D01*
X0104108Y0076604D01*
X0102140D01*
X0101479Y0076473D01*
X0100919Y0076099D01*
X0100545Y0075538D01*
X0100414Y0074878D01*
Y0072837D01*
X0098858Y0071281D01*
X0098484Y0070722D01*
X0098353Y0070061D01*
Y0065732D01*
X0097035D01*
X0096564Y0065639D01*
X0096164Y0065371D01*
X0095897Y0064972D01*
X0095803Y0064500D01*
Y0063500D01*
X0095897Y0063028D01*
X0096164Y0062629D01*
X0096564Y0062362D01*
X0097035Y0062268D01*
Y0061795D01*
X0096564Y0061702D01*
X0096164Y0061434D01*
X0095897Y0061035D01*
X0095803Y0060563D01*
Y0059563D01*
X0095897Y0059091D01*
X0096164Y0058692D01*
X0096564Y0058425D01*
X0097035Y0058331D01*
Y0057858D01*
X0096564Y0057765D01*
X0096164Y0057497D01*
X0095897Y0057098D01*
X0095803Y0056626D01*
Y0055626D01*
X0095897Y0055154D01*
X0096164Y0054755D01*
X0096564Y0054488D01*
X0097035Y0054394D01*
Y0053921D01*
X0096564Y0053828D01*
X0096164Y0053560D01*
X0095897Y0053161D01*
X0095803Y0052689D01*
Y0052546D01*
X0095241Y0051984D01*
X0094779Y0052176D01*
Y0055376D01*
X0090592D01*
Y0049220D01*
X0093771D01*
X0093978Y0048720D01*
X0093489Y0048232D01*
X0087000D01*
X0087000Y0048232D01*
X0086528Y0048138D01*
X0086129Y0047871D01*
X0084176Y0045919D01*
X0083909Y0045519D01*
X0083815Y0045047D01*
X0083815Y0045047D01*
Y0041760D01*
X0082410D01*
Y0042047D01*
X0082343D01*
Y0046520D01*
X0082650D01*
X0083121Y0046613D01*
X0083521Y0046881D01*
X0083788Y0047280D01*
X0083882Y0047752D01*
Y0048752D01*
X0083788Y0049224D01*
X0083521Y0049623D01*
X0083121Y0049891D01*
X0082650Y0049984D01*
Y0050457D01*
X0083121Y0050551D01*
X0083521Y0050818D01*
X0083788Y0051217D01*
X0083882Y0051689D01*
Y0052689D01*
X0083788Y0053161D01*
X0083521Y0053560D01*
X0083121Y0053828D01*
X0082650Y0053921D01*
Y0054394D01*
X0083121Y0054488D01*
X0083521Y0054755D01*
X0083788Y0055154D01*
X0083882Y0055626D01*
Y0056626D01*
X0083788Y0057098D01*
X0083521Y0057497D01*
X0083121Y0057765D01*
X0082650Y0057858D01*
Y0058331D01*
X0083121Y0058425D01*
X0083521Y0058692D01*
X0083788Y0059091D01*
X0083882Y0059563D01*
Y0060563D01*
X0083788Y0061035D01*
X0083521Y0061434D01*
X0083121Y0061702D01*
X0082650Y0061795D01*
Y0062268D01*
X0083121Y0062362D01*
X0083521Y0062629D01*
X0083788Y0063028D01*
X0083882Y0063500D01*
Y0064500D01*
X0083788Y0064972D01*
X0083521Y0065371D01*
X0083121Y0065639D01*
X0082650Y0065732D01*
X0082232D01*
Y0071808D01*
X0082732Y0071857D01*
X0082834Y0071348D01*
X0083272Y0070692D01*
X0083929Y0070253D01*
X0084703Y0070099D01*
X0084937D01*
Y0073500D01*
Y0076901D01*
X0084703D01*
X0083929Y0076747D01*
X0083272Y0076309D01*
X0082834Y0075652D01*
X0082732Y0075143D01*
X0082232Y0075192D01*
Y0076500D01*
X0082232Y0076500D01*
X0082139Y0076972D01*
X0081871Y0077371D01*
X0079371Y0079871D01*
X0078972Y0080138D01*
X0078500Y0080232D01*
X0078500Y0080232D01*
X0073510D01*
X0071732Y0082011D01*
Y0113462D01*
X0072161Y0113891D01*
X0072459Y0114610D01*
Y0115390D01*
X0072161Y0116110D01*
X0071609Y0116660D01*
X0070890Y0116959D01*
X0070110D01*
X0069390Y0116660D01*
X0068840Y0116110D01*
X0068541Y0115390D01*
Y0114610D01*
X0068840Y0113891D01*
X0069268Y0113462D01*
Y0081500D01*
X0069268Y0081500D01*
X0069362Y0081028D01*
X0069629Y0080629D01*
X0072129Y0078129D01*
X0072129Y0078129D01*
X0072528Y0077861D01*
X0073000Y0077768D01*
X0073000Y0077768D01*
X0077990D01*
X0079768Y0075990D01*
Y0065732D01*
X0076563D01*
X0076232Y0065667D01*
X0075732Y0065954D01*
Y0070396D01*
X0077297D01*
X0077958Y0070527D01*
X0078518Y0070902D01*
X0078892Y0071461D01*
X0079023Y0072122D01*
Y0074878D01*
X0078892Y0075538D01*
X0078518Y0076099D01*
X0077958Y0076473D01*
X0077297Y0076604D01*
X0075329D01*
X0074668Y0076473D01*
X0074108Y0076099D01*
X0073734Y0075538D01*
X0073603Y0074878D01*
Y0072122D01*
X0073640Y0071935D01*
X0073629Y0071923D01*
X0073361Y0071524D01*
X0073268Y0071052D01*
X0073268Y0071052D01*
Y0062790D01*
X0072768Y0062639D01*
X0072598Y0062892D01*
X0072039Y0063266D01*
X0071378Y0063397D01*
X0068622D01*
X0067962Y0063266D01*
X0067401Y0062892D01*
X0067027Y0062332D01*
X0066896Y0061671D01*
Y0059703D01*
X0067027Y0059042D01*
X0067401Y0058482D01*
X0067962Y0058108D01*
X0068622Y0057977D01*
X0071378D01*
X0071583Y0058017D01*
X0072368Y0057232D01*
X0072161Y0056732D01*
X0067500D01*
X0067500Y0056732D01*
X0067028Y0056638D01*
X0066629Y0056371D01*
X0066629Y0056371D01*
X0064767Y0054509D01*
X0064267Y0054704D01*
Y0129606D01*
X0064267D01*
X0064402Y0131329D01*
X0064806Y0133010D01*
X0065467Y0134606D01*
X0066370Y0136080D01*
X0067492Y0137394D01*
X0068806Y0138516D01*
X0070280Y0139419D01*
X0071876Y0140080D01*
X0072898Y0140325D01*
X0072891Y0140357D01*
X0142487Y0155823D01*
X0142986Y0155886D01*
X0143006Y0155894D01*
X0143475Y0156066D01*
X0144144Y0156227D01*
X0145975Y0156985D01*
X0147665Y0158021D01*
X0149172Y0159308D01*
X0150460Y0160816D01*
X0151496Y0162506D01*
X0152120Y0164012D01*
X0152603Y0163878D01*
D02*
G37*
G36*
X0187672Y0166743D02*
Y0125168D01*
X0187197Y0124803D01*
X0181053Y0118659D01*
X0180469Y0118782D01*
X0180398Y0118964D01*
X0180459Y0119110D01*
Y0119890D01*
X0180160Y0120609D01*
X0179610Y0121160D01*
X0178890Y0121459D01*
X0178409D01*
X0178201Y0121959D01*
X0183871Y0127629D01*
X0183871Y0127629D01*
X0184139Y0128028D01*
X0184232Y0128500D01*
X0184232Y0128500D01*
Y0160416D01*
X0184139Y0160888D01*
X0183871Y0161288D01*
X0183871Y0161288D01*
X0182747Y0162412D01*
X0182939Y0162874D01*
X0183057D01*
X0183777Y0163172D01*
X0184328Y0163723D01*
X0184560Y0164285D01*
X0187210Y0166934D01*
X0187672Y0166743D01*
D02*
G37*
G36*
X0192167Y0121410D02*
X0188629Y0117871D01*
X0188362Y0117472D01*
X0188268Y0117000D01*
X0188268Y0117000D01*
Y0106510D01*
X0182490Y0100732D01*
X0181803D01*
X0181536Y0101232D01*
X0181747Y0101549D01*
X0181901Y0102323D01*
Y0102557D01*
X0178500D01*
X0175099D01*
Y0102323D01*
X0175253Y0101549D01*
X0175464Y0101232D01*
X0175197Y0100732D01*
X0171010D01*
X0161371Y0110371D01*
X0161247Y0110455D01*
X0161398Y0110955D01*
X0163687D01*
X0163687Y0110955D01*
X0164159Y0111048D01*
X0164558Y0111316D01*
X0170760Y0117517D01*
X0171184Y0117234D01*
X0171041Y0116890D01*
Y0116110D01*
X0171339Y0115391D01*
X0171890Y0114839D01*
X0172610Y0114541D01*
X0173390D01*
X0174109Y0114839D01*
X0174661Y0115391D01*
X0174959Y0116110D01*
Y0116890D01*
X0174661Y0117610D01*
X0174256Y0118014D01*
X0176041Y0119799D01*
X0176541Y0119591D01*
Y0119110D01*
X0176758Y0118588D01*
Y0115319D01*
X0176462Y0115260D01*
X0175901Y0114886D01*
X0175527Y0114326D01*
X0175396Y0113665D01*
Y0111697D01*
X0175527Y0111036D01*
X0175901Y0110476D01*
X0176462Y0110102D01*
X0177122Y0109971D01*
X0179878D01*
X0180538Y0110102D01*
X0181098Y0110476D01*
X0181473Y0111036D01*
X0181573Y0111542D01*
X0191016Y0120984D01*
X0191404Y0121490D01*
X0191909Y0121878D01*
X0191991Y0121960D01*
X0192037Y0121971D01*
X0192167Y0121410D01*
D02*
G37*
G36*
X0208149Y0119268D02*
X0207891Y0119160D01*
X0207340Y0118609D01*
X0207041Y0117890D01*
Y0117284D01*
X0206629Y0116871D01*
X0206362Y0116472D01*
X0206268Y0116000D01*
X0206268Y0116000D01*
Y0115334D01*
X0206122D01*
X0205462Y0115203D01*
X0204902Y0114829D01*
X0204527Y0114269D01*
X0204396Y0113608D01*
Y0111640D01*
X0204527Y0110979D01*
X0204902Y0110419D01*
X0205462Y0110045D01*
X0205752Y0109987D01*
X0205703Y0109487D01*
X0201480D01*
X0201431Y0109987D01*
X0202039Y0110108D01*
X0202599Y0110482D01*
X0202973Y0111042D01*
X0203104Y0111703D01*
Y0113671D01*
X0202973Y0114332D01*
X0202599Y0114892D01*
X0202039Y0115266D01*
X0201378Y0115397D01*
X0198622D01*
X0197961Y0115266D01*
X0197401Y0114892D01*
X0197027Y0114332D01*
X0196896Y0113671D01*
Y0111703D01*
X0197027Y0111042D01*
X0197401Y0110482D01*
X0197961Y0110108D01*
X0198569Y0109987D01*
X0198520Y0109487D01*
X0196500D01*
X0195931Y0109374D01*
X0195448Y0109052D01*
X0183884Y0097487D01*
X0169616D01*
X0166552Y0100552D01*
X0166069Y0100874D01*
X0165500Y0100987D01*
X0159569D01*
X0159417Y0101487D01*
X0159599Y0101608D01*
X0159973Y0102168D01*
X0160104Y0102829D01*
Y0104797D01*
X0159973Y0105458D01*
X0159599Y0106018D01*
X0159038Y0106392D01*
X0158959Y0106408D01*
Y0106890D01*
X0158660Y0107609D01*
X0158502Y0107768D01*
X0158709Y0108268D01*
X0159990D01*
X0169629Y0098629D01*
X0169629Y0098629D01*
X0170028Y0098361D01*
X0170500Y0098268D01*
X0170500Y0098268D01*
X0183000D01*
X0183000Y0098268D01*
X0183472Y0098361D01*
X0183871Y0098629D01*
X0190371Y0105129D01*
X0190371Y0105129D01*
X0190638Y0105528D01*
X0190732Y0106000D01*
X0190732Y0106000D01*
Y0116490D01*
X0194010Y0119768D01*
X0208050D01*
X0208149Y0119268D01*
D02*
G37*
G36*
X0122982Y0108902D02*
X0123542Y0108527D01*
X0124203Y0108396D01*
X0126171D01*
X0126568Y0108475D01*
X0126613Y0108466D01*
X0126770Y0108361D01*
X0127241Y0108268D01*
X0155291D01*
X0155498Y0107768D01*
X0155340Y0107609D01*
X0155041Y0106890D01*
Y0106408D01*
X0154962Y0106392D01*
X0154402Y0106018D01*
X0154027Y0105458D01*
X0153896Y0104797D01*
Y0102829D01*
X0154027Y0102168D01*
X0154402Y0101608D01*
X0154583Y0101487D01*
X0154431Y0100987D01*
X0152569D01*
X0152417Y0101487D01*
X0152599Y0101608D01*
X0152973Y0102168D01*
X0153104Y0102829D01*
Y0104797D01*
X0152973Y0105458D01*
X0152599Y0106018D01*
X0152039Y0106392D01*
X0151378Y0106523D01*
X0151247D01*
X0151110Y0106660D01*
X0150390Y0106959D01*
X0149610D01*
X0148890Y0106660D01*
X0148753Y0106523D01*
X0148622D01*
X0147961Y0106392D01*
X0147401Y0106018D01*
X0147027Y0105458D01*
X0146896Y0104797D01*
Y0102829D01*
X0147027Y0102168D01*
X0147401Y0101608D01*
X0147583Y0101487D01*
X0147431Y0100987D01*
X0145569D01*
X0145417Y0101487D01*
X0145598Y0101608D01*
X0145973Y0102168D01*
X0146104Y0102829D01*
Y0104797D01*
X0145973Y0105458D01*
X0145598Y0106018D01*
X0145038Y0106392D01*
X0144378Y0106523D01*
X0141622D01*
X0140962Y0106392D01*
X0140401Y0106018D01*
X0140027Y0105458D01*
X0139896Y0104797D01*
Y0102829D01*
X0140027Y0102168D01*
X0140401Y0101608D01*
X0140583Y0101487D01*
X0140431Y0100987D01*
X0135500D01*
X0134931Y0100874D01*
X0134448Y0100552D01*
X0127948Y0094052D01*
X0127626Y0093569D01*
X0127513Y0093000D01*
Y0084616D01*
X0123884Y0080987D01*
X0109732D01*
Y0092312D01*
X0110226Y0092327D01*
X0110529Y0090806D01*
X0111122Y0089373D01*
X0111984Y0088083D01*
X0113081Y0086986D01*
X0114370Y0086124D01*
X0115803Y0085531D01*
X0117324Y0085228D01*
X0118876Y0085228D01*
X0120397Y0085531D01*
X0121830Y0086124D01*
X0123119Y0086986D01*
X0124216Y0088083D01*
X0125078Y0089373D01*
X0125671Y0090806D01*
X0125974Y0092327D01*
Y0093878D01*
X0125671Y0095399D01*
X0125078Y0096832D01*
X0124216Y0098122D01*
X0123119Y0099218D01*
X0121830Y0100080D01*
X0120397Y0100674D01*
X0118876Y0100976D01*
X0118219D01*
X0118090Y0101184D01*
X0118005Y0101476D01*
X0118329Y0101962D01*
X0118460Y0102622D01*
Y0104975D01*
X0118484Y0104991D01*
X0121871Y0108379D01*
X0121871Y0108379D01*
X0122139Y0108778D01*
X0122213Y0109153D01*
X0122477Y0109263D01*
X0122732Y0109275D01*
X0122982Y0108902D01*
D02*
G37*
G36*
X0226300Y0075575D02*
Y0070000D01*
X0226392Y0069301D01*
X0226661Y0068650D01*
X0227091Y0068091D01*
X0230091Y0065091D01*
X0230650Y0064662D01*
X0231301Y0064392D01*
X0232000Y0064300D01*
X0235585D01*
X0235634Y0063800D01*
X0234914Y0063657D01*
X0234224Y0063195D01*
X0234102Y0063013D01*
X0220200D01*
Y0064902D01*
X0224705D01*
Y0075768D01*
X0211360D01*
X0211093Y0076268D01*
X0211114Y0076300D01*
X0225575D01*
X0226300Y0075575D01*
D02*
G37*
G36*
X0067401Y0049108D02*
X0067962Y0048734D01*
X0068622Y0048603D01*
X0068864D01*
Y0047910D01*
X0068995Y0047249D01*
X0069370Y0046690D01*
X0072780Y0043279D01*
X0073339Y0042905D01*
X0074000Y0042774D01*
X0076077D01*
X0076246Y0042551D01*
X0075998Y0042051D01*
X0073220D01*
Y0038377D01*
X0072720Y0038163D01*
X0072323Y0038468D01*
X0071671Y0038738D01*
X0070972Y0038830D01*
X0070274Y0038738D01*
X0069622Y0038468D01*
X0069063Y0038039D01*
X0068634Y0037480D01*
X0068364Y0036829D01*
X0068272Y0036130D01*
Y0031405D01*
X0068364Y0030707D01*
X0068450Y0030500D01*
X0068026Y0030217D01*
X0066732Y0031510D01*
Y0049210D01*
X0067232Y0049361D01*
X0067401Y0049108D01*
D02*
G37*
G36*
X0298891Y0083391D02*
Y0019658D01*
X0298891D01*
X0298755Y0017936D01*
X0298352Y0016255D01*
X0297691Y0014659D01*
X0296788Y0013185D01*
X0295665Y0011871D01*
X0294351Y0010749D01*
X0292878Y0009846D01*
X0291281Y0009185D01*
X0289601Y0008781D01*
X0287878Y0008646D01*
Y0008645D01*
X0175515Y0008645D01*
X0175381Y0009145D01*
X0175524Y0009228D01*
X0176205Y0009909D01*
X0176688Y0010744D01*
X0176937Y0011675D01*
Y0012640D01*
X0176688Y0013571D01*
X0176512Y0013875D01*
Y0020283D01*
X0176688Y0020587D01*
X0176861Y0021234D01*
X0177683Y0022056D01*
X0178769D01*
X0179016Y0021556D01*
X0178741Y0021197D01*
X0178417Y0020416D01*
X0178307Y0019579D01*
Y0014579D01*
X0178417Y0013741D01*
X0178741Y0012961D01*
X0179255Y0012290D01*
X0179925Y0011776D01*
X0180706Y0011453D01*
X0181543Y0011342D01*
X0182381Y0011453D01*
X0183161Y0011776D01*
X0183832Y0012290D01*
X0184346Y0012961D01*
X0184669Y0013741D01*
X0184780Y0014579D01*
Y0019579D01*
X0184669Y0020416D01*
X0184346Y0021197D01*
X0184071Y0021556D01*
X0184317Y0022056D01*
X0189864D01*
X0190013Y0021906D01*
Y0021803D01*
X0190166Y0020642D01*
X0190614Y0019559D01*
X0191327Y0018630D01*
X0192256Y0017917D01*
X0193339Y0017469D01*
X0194500Y0017316D01*
X0195661Y0017469D01*
X0196744Y0017917D01*
X0197673Y0018630D01*
X0198386Y0019559D01*
X0198834Y0020642D01*
X0198987Y0021803D01*
Y0022197D01*
X0198834Y0023358D01*
X0198386Y0024441D01*
X0197673Y0025370D01*
X0196744Y0026083D01*
X0195661Y0026531D01*
X0194500Y0026684D01*
X0193339Y0026531D01*
X0193117Y0026439D01*
X0192892Y0026665D01*
X0192332Y0027094D01*
X0191681Y0027364D01*
X0190982Y0027456D01*
X0176564D01*
X0175865Y0027364D01*
X0175214Y0027094D01*
X0174655Y0026665D01*
X0173651Y0025661D01*
X0172794D01*
X0171862Y0025412D01*
X0171027Y0024930D01*
X0170346Y0024248D01*
X0169864Y0023413D01*
X0169614Y0022482D01*
Y0021518D01*
X0169864Y0020587D01*
X0170039Y0020283D01*
Y0013875D01*
X0169864Y0013571D01*
X0169614Y0012640D01*
Y0011675D01*
X0169864Y0010744D01*
X0170346Y0009909D01*
X0171027Y0009228D01*
X0171170Y0009145D01*
X0171036Y0008645D01*
X0167641D01*
X0167507Y0009145D01*
X0167650Y0009228D01*
X0168331Y0009909D01*
X0168814Y0010744D01*
X0169063Y0011675D01*
Y0012640D01*
X0168814Y0013571D01*
X0168638Y0013875D01*
Y0020283D01*
X0168814Y0020587D01*
X0169063Y0021518D01*
Y0022482D01*
X0168814Y0023413D01*
X0168811Y0023417D01*
Y0026734D01*
X0170153Y0028077D01*
X0200313D01*
X0200313Y0028077D01*
X0201151Y0028187D01*
X0201931Y0028510D01*
X0202601Y0029024D01*
X0210735Y0037158D01*
X0210735Y0037158D01*
X0211250Y0037829D01*
X0211573Y0038609D01*
X0211683Y0039447D01*
X0211683Y0039447D01*
Y0047498D01*
X0211683Y0047498D01*
X0211573Y0048336D01*
X0211250Y0049116D01*
X0211145Y0049252D01*
Y0050320D01*
X0211122Y0050495D01*
Y0052933D01*
X0209650D01*
X0208048Y0054535D01*
X0207489Y0054965D01*
X0206838Y0055234D01*
X0206139Y0055326D01*
X0200200D01*
Y0057046D01*
X0200776Y0057431D01*
X0201237Y0058121D01*
X0201399Y0058935D01*
Y0060080D01*
X0207409Y0066091D01*
X0207839Y0066650D01*
X0208108Y0067301D01*
X0208200Y0068000D01*
Y0073882D01*
X0209795Y0075476D01*
X0210295Y0075269D01*
Y0064902D01*
X0214800D01*
Y0060000D01*
Y0047500D01*
X0214823Y0047324D01*
Y0042067D01*
X0215172D01*
Y0039500D01*
X0215172Y0039500D01*
X0215349Y0038609D01*
X0215854Y0037854D01*
X0222354Y0031354D01*
X0222354Y0031354D01*
X0223109Y0030849D01*
X0224000Y0030672D01*
X0224000Y0030672D01*
X0287500D01*
X0287500Y0030672D01*
X0288391Y0030849D01*
X0289146Y0031354D01*
X0296646Y0038854D01*
X0296646Y0038854D01*
X0297151Y0039609D01*
X0297328Y0040500D01*
Y0082536D01*
X0298391Y0083599D01*
X0298891Y0083391D01*
D02*
G37*
G36*
X0097500Y0030500D02*
X0099000Y0029000D01*
X0100000D01*
X0101000Y0028000D01*
Y0023500D01*
X0099500Y0022000D01*
X0092000D01*
X0091000Y0023000D01*
Y0029000D01*
X0093500Y0031500D01*
X0096500D01*
X0097500Y0030500D01*
D02*
G37*
G36*
X0084875Y0029500D02*
X0086500D01*
X0088000Y0028000D01*
Y0023000D01*
X0086500Y0021500D01*
X0077000D01*
X0075000Y0023500D01*
Y0028000D01*
X0078500Y0031500D01*
X0083375D01*
X0084875Y0029500D01*
D02*
G37*
%LPC*%
G36*
X0176663Y0347799D02*
Y0344250D01*
X0180212D01*
X0179964Y0345178D01*
X0179391Y0346169D01*
X0178582Y0346978D01*
X0177591Y0347550D01*
X0176663Y0347799D01*
D02*
G37*
G36*
X0175163D02*
X0174236Y0347550D01*
X0173245Y0346978D01*
X0172435Y0346169D01*
X0171863Y0345178D01*
X0171615Y0344250D01*
X0175163D01*
Y0347799D01*
D02*
G37*
G36*
X0123510Y0343799D02*
Y0340250D01*
X0127059D01*
X0126810Y0341178D01*
X0126238Y0342169D01*
X0125429Y0342978D01*
X0124437Y0343550D01*
X0123510Y0343799D01*
D02*
G37*
G36*
X0122010Y0343799D02*
X0121082Y0343550D01*
X0120091Y0342978D01*
X0119282Y0342169D01*
X0118710Y0341178D01*
X0118461Y0340250D01*
X0122010D01*
Y0343799D01*
D02*
G37*
G36*
X0187274Y0347555D02*
X0186206D01*
X0185175Y0347279D01*
X0184250Y0346745D01*
X0183495Y0345990D01*
X0182961Y0345065D01*
X0182685Y0344034D01*
Y0342966D01*
X0182961Y0341935D01*
X0183495Y0341010D01*
X0184250Y0340255D01*
X0185175Y0339721D01*
X0186206Y0339445D01*
X0187274D01*
X0188305Y0339721D01*
X0189230Y0340255D01*
X0189985Y0341010D01*
X0190519Y0341935D01*
X0190795Y0342966D01*
Y0344034D01*
X0190519Y0345065D01*
X0189985Y0345990D01*
X0189230Y0346745D01*
X0188305Y0347279D01*
X0187274Y0347555D01*
D02*
G37*
G36*
X0180212Y0342750D02*
X0176663D01*
Y0339201D01*
X0177591Y0339450D01*
X0178582Y0340022D01*
X0179391Y0340831D01*
X0179964Y0341822D01*
X0180212Y0342750D01*
D02*
G37*
G36*
X0175163D02*
X0171615D01*
X0171863Y0341822D01*
X0172435Y0340831D01*
X0173245Y0340022D01*
X0174236Y0339450D01*
X0175163Y0339201D01*
Y0342750D01*
D02*
G37*
G36*
X0134121Y0343555D02*
X0133053D01*
X0132021Y0343279D01*
X0131097Y0342745D01*
X0130342Y0341990D01*
X0129808Y0341065D01*
X0129532Y0340034D01*
Y0338966D01*
X0129808Y0337935D01*
X0130342Y0337010D01*
X0131097Y0336255D01*
X0132021Y0335721D01*
X0133053Y0335445D01*
X0134121D01*
X0135152Y0335721D01*
X0136076Y0336255D01*
X0136831Y0337010D01*
X0137365Y0337935D01*
X0137642Y0338966D01*
Y0340034D01*
X0137365Y0341065D01*
X0136831Y0341990D01*
X0136076Y0342745D01*
X0135152Y0343279D01*
X0134121Y0343555D01*
D02*
G37*
G36*
X0122010Y0338750D02*
X0118461D01*
X0118710Y0337822D01*
X0119282Y0336831D01*
X0120091Y0336022D01*
X0121082Y0335450D01*
X0122010Y0335201D01*
Y0338750D01*
D02*
G37*
G36*
X0127059D02*
X0123510D01*
Y0335201D01*
X0124437Y0335450D01*
X0125429Y0336022D01*
X0126238Y0336831D01*
X0126810Y0337822D01*
X0127059Y0338750D01*
D02*
G37*
G36*
X0171112Y0338146D02*
X0169888D01*
X0168707Y0337829D01*
X0167648Y0337217D01*
X0166782Y0336352D01*
X0166171Y0335293D01*
X0165854Y0334112D01*
Y0332888D01*
X0166171Y0331707D01*
X0166782Y0330647D01*
X0167648Y0329783D01*
X0168707Y0329171D01*
X0169888Y0328854D01*
X0171112D01*
X0172293Y0329171D01*
X0173353Y0329783D01*
X0174217Y0330647D01*
X0174829Y0331707D01*
X0175146Y0332888D01*
Y0334112D01*
X0174829Y0335293D01*
X0174217Y0336352D01*
X0173353Y0337217D01*
X0172293Y0337829D01*
X0171112Y0338146D01*
D02*
G37*
G36*
X0192765Y0338146D02*
X0191542D01*
X0190360Y0337829D01*
X0189301Y0337217D01*
X0188436Y0336352D01*
X0187824Y0335293D01*
X0187508Y0334112D01*
Y0332888D01*
X0187824Y0331707D01*
X0188436Y0330647D01*
X0189301Y0329783D01*
X0190360Y0329171D01*
X0191542Y0328854D01*
X0192765D01*
X0193947Y0329171D01*
X0195006Y0329783D01*
X0195871Y0330647D01*
X0196483Y0331707D01*
X0196799Y0332888D01*
Y0334112D01*
X0196483Y0335293D01*
X0195871Y0336352D01*
X0195006Y0337217D01*
X0193947Y0337829D01*
X0192765Y0338146D01*
D02*
G37*
G36*
X0117958Y0334146D02*
X0116735D01*
X0115553Y0333829D01*
X0114494Y0333218D01*
X0113629Y0332352D01*
X0113017Y0331293D01*
X0112701Y0330112D01*
Y0328888D01*
X0113017Y0327707D01*
X0113629Y0326647D01*
X0114494Y0325783D01*
X0115553Y0325171D01*
X0116735Y0324854D01*
X0117958D01*
X0119140Y0325171D01*
X0120199Y0325783D01*
X0121064Y0326647D01*
X0121676Y0327707D01*
X0121992Y0328888D01*
Y0330112D01*
X0121676Y0331293D01*
X0121064Y0332352D01*
X0120199Y0333218D01*
X0119140Y0333829D01*
X0117958Y0334146D01*
D02*
G37*
G36*
X0139612Y0334146D02*
X0138388D01*
X0137207Y0333829D01*
X0136147Y0333218D01*
X0135283Y0332352D01*
X0134671Y0331293D01*
X0134354Y0330112D01*
Y0328888D01*
X0134671Y0327707D01*
X0135283Y0326647D01*
X0136147Y0325782D01*
X0137207Y0325171D01*
X0138388Y0324854D01*
X0139612D01*
X0140793Y0325171D01*
X0141852Y0325782D01*
X0142717Y0326647D01*
X0143329Y0327707D01*
X0143646Y0328888D01*
Y0330112D01*
X0143329Y0331293D01*
X0142717Y0332352D01*
X0141852Y0333218D01*
X0140793Y0333829D01*
X0139612Y0334146D01*
D02*
G37*
G36*
X0070510Y0328299D02*
Y0324750D01*
X0074059D01*
X0073810Y0325678D01*
X0073238Y0326669D01*
X0072429Y0327478D01*
X0071438Y0328050D01*
X0070510Y0328299D01*
D02*
G37*
G36*
X0069010Y0328299D02*
X0068082Y0328050D01*
X0067091Y0327478D01*
X0066282Y0326669D01*
X0065710Y0325678D01*
X0065461Y0324750D01*
X0069010D01*
Y0328299D01*
D02*
G37*
G36*
X0176663Y0327799D02*
Y0324250D01*
X0180212D01*
X0179964Y0325178D01*
X0179391Y0326169D01*
X0178582Y0326978D01*
X0177591Y0327550D01*
X0176663Y0327799D01*
D02*
G37*
G36*
X0175163Y0327799D02*
X0174236Y0327550D01*
X0173245Y0326978D01*
X0172435Y0326169D01*
X0171863Y0325178D01*
X0171615Y0324250D01*
X0175163D01*
Y0327799D01*
D02*
G37*
G36*
X0123510Y0323799D02*
Y0320250D01*
X0127059D01*
X0126810Y0321178D01*
X0126238Y0322169D01*
X0125429Y0322978D01*
X0124437Y0323550D01*
X0123510Y0323799D01*
D02*
G37*
G36*
X0122010Y0323799D02*
X0121082Y0323550D01*
X0120091Y0322978D01*
X0119282Y0322169D01*
X0118710Y0321178D01*
X0118461Y0320250D01*
X0122010D01*
Y0323799D01*
D02*
G37*
G36*
X0081121Y0328055D02*
X0080053D01*
X0079021Y0327779D01*
X0078097Y0327245D01*
X0077342Y0326490D01*
X0076808Y0325565D01*
X0076531Y0324534D01*
Y0323466D01*
X0076808Y0322435D01*
X0077342Y0321510D01*
X0078097Y0320755D01*
X0079021Y0320221D01*
X0080053Y0319945D01*
X0081121D01*
X0082152Y0320221D01*
X0083077Y0320755D01*
X0083832Y0321510D01*
X0084365Y0322435D01*
X0084642Y0323466D01*
Y0324534D01*
X0084365Y0325565D01*
X0083832Y0326490D01*
X0083077Y0327245D01*
X0082152Y0327779D01*
X0081121Y0328055D01*
D02*
G37*
G36*
X0069010Y0323250D02*
X0065461D01*
X0065710Y0322322D01*
X0066282Y0321331D01*
X0067091Y0320522D01*
X0068082Y0319950D01*
X0069010Y0319701D01*
Y0323250D01*
D02*
G37*
G36*
X0074059D02*
X0070510D01*
Y0319701D01*
X0071438Y0319950D01*
X0072429Y0320522D01*
X0073238Y0321331D01*
X0073810Y0322322D01*
X0074059Y0323250D01*
D02*
G37*
G36*
X0187274Y0327555D02*
X0186206D01*
X0185175Y0327279D01*
X0184250Y0326745D01*
X0183495Y0325990D01*
X0182961Y0325065D01*
X0182685Y0324034D01*
Y0322966D01*
X0182961Y0321935D01*
X0183495Y0321010D01*
X0184250Y0320255D01*
X0185175Y0319721D01*
X0186206Y0319445D01*
X0187274D01*
X0188305Y0319721D01*
X0189230Y0320255D01*
X0189985Y0321010D01*
X0190519Y0321935D01*
X0190795Y0322966D01*
Y0324034D01*
X0190519Y0325065D01*
X0189985Y0325990D01*
X0189230Y0326745D01*
X0188305Y0327279D01*
X0187274Y0327555D01*
D02*
G37*
G36*
X0175163Y0322750D02*
X0171615D01*
X0171863Y0321822D01*
X0172435Y0320831D01*
X0173245Y0320022D01*
X0174236Y0319450D01*
X0175163Y0319201D01*
Y0322750D01*
D02*
G37*
G36*
X0180212D02*
X0176663D01*
Y0319201D01*
X0177591Y0319450D01*
X0178582Y0320022D01*
X0179391Y0320831D01*
X0179964Y0321822D01*
X0180212Y0322750D01*
D02*
G37*
G36*
X0134121Y0323555D02*
X0133053D01*
X0132021Y0323279D01*
X0131097Y0322745D01*
X0130342Y0321990D01*
X0129808Y0321065D01*
X0129532Y0320034D01*
Y0318966D01*
X0129808Y0317935D01*
X0130342Y0317010D01*
X0131097Y0316255D01*
X0132021Y0315721D01*
X0133053Y0315445D01*
X0134121D01*
X0135152Y0315721D01*
X0136076Y0316255D01*
X0136831Y0317010D01*
X0137365Y0317935D01*
X0137642Y0318966D01*
Y0320034D01*
X0137365Y0321065D01*
X0136831Y0321990D01*
X0136076Y0322745D01*
X0135152Y0323279D01*
X0134121Y0323555D01*
D02*
G37*
G36*
X0122010Y0318750D02*
X0118461D01*
X0118710Y0317822D01*
X0119282Y0316831D01*
X0120091Y0316022D01*
X0121082Y0315450D01*
X0122010Y0315201D01*
Y0318750D01*
D02*
G37*
G36*
X0127059D02*
X0123510D01*
Y0315201D01*
X0124437Y0315450D01*
X0125429Y0316022D01*
X0126238Y0316831D01*
X0126810Y0317822D01*
X0127059Y0318750D01*
D02*
G37*
G36*
X0172034Y0317870D02*
X0171329D01*
X0170648Y0317688D01*
X0170037Y0317335D01*
X0169539Y0316837D01*
X0169186Y0316226D01*
X0169004Y0315545D01*
Y0314841D01*
X0169186Y0314160D01*
X0169539Y0313549D01*
X0170037Y0313051D01*
X0170648Y0312698D01*
X0171329Y0312516D01*
X0172034D01*
X0172714Y0312698D01*
X0173325Y0313051D01*
X0173823Y0313549D01*
X0174176Y0314160D01*
X0174358Y0314841D01*
Y0315545D01*
X0174176Y0316226D01*
X0173823Y0316837D01*
X0173325Y0317335D01*
X0172714Y0317688D01*
X0172034Y0317870D01*
D02*
G37*
G36*
X0064958Y0318646D02*
X0063735D01*
X0062553Y0318329D01*
X0061494Y0317718D01*
X0060629Y0316852D01*
X0060017Y0315793D01*
X0059701Y0314612D01*
Y0313388D01*
X0060017Y0312207D01*
X0060629Y0311147D01*
X0061494Y0310283D01*
X0062553Y0309671D01*
X0063735Y0309354D01*
X0064958D01*
X0066140Y0309671D01*
X0067199Y0310283D01*
X0068064Y0311147D01*
X0068676Y0312207D01*
X0068992Y0313388D01*
Y0314612D01*
X0068676Y0315793D01*
X0068064Y0316852D01*
X0067199Y0317718D01*
X0066140Y0318329D01*
X0064958Y0318646D01*
D02*
G37*
G36*
X0086612Y0318646D02*
X0085388D01*
X0084207Y0318329D01*
X0083148Y0317718D01*
X0082283Y0316852D01*
X0081671Y0315793D01*
X0081354Y0314612D01*
Y0313388D01*
X0081671Y0312207D01*
X0082283Y0311147D01*
X0083148Y0310282D01*
X0084207Y0309671D01*
X0085388Y0309354D01*
X0086612D01*
X0087793Y0309671D01*
X0088853Y0310282D01*
X0089717Y0311147D01*
X0090329Y0312207D01*
X0090646Y0313388D01*
Y0314612D01*
X0090329Y0315793D01*
X0089717Y0316852D01*
X0088853Y0317718D01*
X0087793Y0318329D01*
X0086612Y0318646D01*
D02*
G37*
G36*
X0118880Y0313870D02*
X0118175D01*
X0117494Y0313688D01*
X0116884Y0313335D01*
X0116385Y0312837D01*
X0116033Y0312226D01*
X0115850Y0311545D01*
Y0310841D01*
X0116033Y0310160D01*
X0116385Y0309549D01*
X0116884Y0309051D01*
X0117494Y0308698D01*
X0118175Y0308516D01*
X0118880D01*
X0119561Y0308698D01*
X0120171Y0309051D01*
X0120670Y0309549D01*
X0121022Y0310160D01*
X0121205Y0310841D01*
Y0311545D01*
X0121022Y0312226D01*
X0120670Y0312837D01*
X0120171Y0313335D01*
X0119561Y0313688D01*
X0118880Y0313870D01*
D02*
G37*
G36*
X0070510Y0308299D02*
Y0304750D01*
X0074059D01*
X0073810Y0305678D01*
X0073238Y0306669D01*
X0072429Y0307478D01*
X0071438Y0308050D01*
X0070510Y0308299D01*
D02*
G37*
G36*
X0069010Y0308299D02*
X0068082Y0308050D01*
X0067091Y0307478D01*
X0066282Y0306669D01*
X0065710Y0305678D01*
X0065461Y0304750D01*
X0069010D01*
Y0308299D01*
D02*
G37*
G36*
X0182112Y0310646D02*
X0180888D01*
X0179707Y0310329D01*
X0178647Y0309717D01*
X0177782Y0308853D01*
X0177171Y0307793D01*
X0176854Y0306612D01*
Y0305388D01*
X0177171Y0304207D01*
X0177782Y0303148D01*
X0178647Y0302283D01*
X0179707Y0301671D01*
X0180888Y0301354D01*
X0182112D01*
X0183293Y0301671D01*
X0184353Y0302283D01*
X0185217Y0303148D01*
X0185829Y0304207D01*
X0186146Y0305388D01*
Y0306612D01*
X0185829Y0307793D01*
X0185217Y0308853D01*
X0184353Y0309717D01*
X0183293Y0310329D01*
X0182112Y0310646D01*
D02*
G37*
G36*
X0081121Y0308055D02*
X0080053D01*
X0079021Y0307779D01*
X0078097Y0307245D01*
X0077342Y0306490D01*
X0076808Y0305565D01*
X0076531Y0304534D01*
Y0303466D01*
X0076808Y0302435D01*
X0077342Y0301510D01*
X0078097Y0300755D01*
X0079021Y0300221D01*
X0080053Y0299945D01*
X0081121D01*
X0082152Y0300221D01*
X0083077Y0300755D01*
X0083832Y0301510D01*
X0084365Y0302435D01*
X0084642Y0303466D01*
Y0304534D01*
X0084365Y0305565D01*
X0083832Y0306490D01*
X0083077Y0307245D01*
X0082152Y0307779D01*
X0081121Y0308055D01*
D02*
G37*
G36*
X0069010Y0303250D02*
X0065461D01*
X0065710Y0302322D01*
X0066282Y0301331D01*
X0067091Y0300522D01*
X0068082Y0299950D01*
X0069010Y0299701D01*
Y0303250D01*
D02*
G37*
G36*
X0074059D02*
X0070510D01*
Y0299701D01*
X0071438Y0299950D01*
X0072429Y0300522D01*
X0073238Y0301331D01*
X0073810Y0302322D01*
X0074059Y0303250D01*
D02*
G37*
G36*
X0192034Y0304642D02*
X0190966D01*
X0189935Y0304365D01*
X0189010Y0303832D01*
X0188255Y0303077D01*
X0187721Y0302152D01*
X0187445Y0301120D01*
Y0300053D01*
X0187721Y0299021D01*
X0188255Y0298097D01*
X0189010Y0297342D01*
X0189935Y0296808D01*
X0190966Y0296532D01*
X0192034D01*
X0193065Y0296808D01*
X0193990Y0297342D01*
X0194745Y0298097D01*
X0195279Y0299021D01*
X0195555Y0300053D01*
Y0301120D01*
X0195279Y0302152D01*
X0194745Y0303077D01*
X0193990Y0303832D01*
X0193065Y0304365D01*
X0192034Y0304642D01*
D02*
G37*
G36*
X0172034D02*
X0170966D01*
X0169935Y0304365D01*
X0169010Y0303832D01*
X0168255Y0303077D01*
X0167721Y0302152D01*
X0167445Y0301120D01*
Y0300053D01*
X0167721Y0299021D01*
X0168255Y0298097D01*
X0169010Y0297342D01*
X0169935Y0296808D01*
X0170966Y0296532D01*
X0172034D01*
X0173065Y0296808D01*
X0173990Y0297342D01*
X0174745Y0298097D01*
X0175279Y0299021D01*
X0175555Y0300053D01*
Y0301120D01*
X0175279Y0302152D01*
X0174745Y0303077D01*
X0173990Y0303832D01*
X0173065Y0304365D01*
X0172034Y0304642D01*
D02*
G37*
G36*
X0017163Y0298299D02*
Y0294750D01*
X0020712D01*
X0020464Y0295678D01*
X0019891Y0296669D01*
X0019082Y0297478D01*
X0018091Y0298050D01*
X0017163Y0298299D01*
D02*
G37*
G36*
X0015663Y0298299D02*
X0014736Y0298050D01*
X0013745Y0297478D01*
X0012935Y0296669D01*
X0012363Y0295678D01*
X0012115Y0294750D01*
X0015663D01*
Y0298299D01*
D02*
G37*
G36*
X0065880Y0298370D02*
X0065175D01*
X0064494Y0298188D01*
X0063884Y0297835D01*
X0063385Y0297337D01*
X0063033Y0296726D01*
X0062850Y0296045D01*
Y0295340D01*
X0063033Y0294660D01*
X0063385Y0294049D01*
X0063884Y0293551D01*
X0064494Y0293198D01*
X0065175Y0293016D01*
X0065880D01*
X0066561Y0293198D01*
X0067171Y0293551D01*
X0067670Y0294049D01*
X0068022Y0294660D01*
X0068205Y0295340D01*
Y0296045D01*
X0068022Y0296726D01*
X0067670Y0297337D01*
X0067171Y0297835D01*
X0066561Y0298188D01*
X0065880Y0298370D01*
D02*
G37*
G36*
X0192250Y0294059D02*
Y0290510D01*
X0195799D01*
X0195550Y0291438D01*
X0194978Y0292429D01*
X0194169Y0293238D01*
X0193178Y0293810D01*
X0192250Y0294059D01*
D02*
G37*
G36*
X0190750D02*
X0189822Y0293810D01*
X0188831Y0293238D01*
X0188022Y0292429D01*
X0187450Y0291438D01*
X0187201Y0290510D01*
X0190750D01*
Y0294059D01*
D02*
G37*
G36*
X0172250Y0294059D02*
Y0290510D01*
X0175799D01*
X0175550Y0291437D01*
X0174978Y0292429D01*
X0174169Y0293238D01*
X0173178Y0293810D01*
X0172250Y0294059D01*
D02*
G37*
G36*
X0170750D02*
X0169822Y0293810D01*
X0168831Y0293238D01*
X0168022Y0292429D01*
X0167450Y0291437D01*
X0167201Y0290510D01*
X0170750D01*
Y0294059D01*
D02*
G37*
G36*
X0027774Y0298055D02*
X0026706D01*
X0025675Y0297779D01*
X0024750Y0297245D01*
X0023995Y0296490D01*
X0023461Y0295565D01*
X0023185Y0294534D01*
Y0293466D01*
X0023461Y0292435D01*
X0023995Y0291510D01*
X0024750Y0290755D01*
X0025675Y0290221D01*
X0026706Y0289945D01*
X0027774D01*
X0028805Y0290221D01*
X0029730Y0290755D01*
X0030485Y0291510D01*
X0031019Y0292435D01*
X0031295Y0293466D01*
Y0294534D01*
X0031019Y0295565D01*
X0030485Y0296490D01*
X0029730Y0297245D01*
X0028805Y0297779D01*
X0027774Y0298055D01*
D02*
G37*
G36*
X0015663Y0293250D02*
X0012115D01*
X0012363Y0292322D01*
X0012935Y0291331D01*
X0013745Y0290522D01*
X0014736Y0289950D01*
X0015663Y0289701D01*
Y0293250D01*
D02*
G37*
G36*
X0020712D02*
X0017163D01*
Y0289701D01*
X0018091Y0289950D01*
X0019082Y0290522D01*
X0019891Y0291331D01*
X0020464Y0292322D01*
X0020712Y0293250D01*
D02*
G37*
G36*
X0195799Y0289010D02*
X0192250D01*
Y0285461D01*
X0193178Y0285710D01*
X0194169Y0286282D01*
X0194978Y0287091D01*
X0195550Y0288082D01*
X0195799Y0289010D01*
D02*
G37*
G36*
X0190750D02*
X0187201D01*
X0187450Y0288082D01*
X0188022Y0287091D01*
X0188831Y0286282D01*
X0189822Y0285710D01*
X0190750Y0285461D01*
Y0289010D01*
D02*
G37*
G36*
X0175799Y0289010D02*
X0172250D01*
Y0285461D01*
X0173178Y0285710D01*
X0174169Y0286282D01*
X0174978Y0287091D01*
X0175550Y0288082D01*
X0175799Y0289010D01*
D02*
G37*
G36*
X0170750D02*
X0167201D01*
X0167450Y0288082D01*
X0168022Y0287091D01*
X0168831Y0286282D01*
X0169822Y0285710D01*
X0170750Y0285461D01*
Y0289010D01*
D02*
G37*
G36*
X0163545Y0288205D02*
X0162840D01*
X0162160Y0288022D01*
X0161549Y0287670D01*
X0161051Y0287171D01*
X0160698Y0286561D01*
X0160516Y0285880D01*
Y0285175D01*
X0160698Y0284494D01*
X0161051Y0283884D01*
X0161549Y0283385D01*
X0162160Y0283033D01*
X0162840Y0282850D01*
X0163545D01*
X0164226Y0283033D01*
X0164837Y0283385D01*
X0165335Y0283884D01*
X0165688Y0284494D01*
X0165870Y0285175D01*
Y0285880D01*
X0165688Y0286561D01*
X0165335Y0287171D01*
X0164837Y0287670D01*
X0164226Y0288022D01*
X0163545Y0288205D01*
D02*
G37*
G36*
X0182112Y0288992D02*
X0180888D01*
X0179707Y0288675D01*
X0178647Y0288064D01*
X0177782Y0287199D01*
X0177171Y0286140D01*
X0176854Y0284958D01*
Y0283735D01*
X0177171Y0282553D01*
X0177782Y0281494D01*
X0178647Y0280629D01*
X0179707Y0280017D01*
X0180888Y0279701D01*
X0182112D01*
X0183293Y0280017D01*
X0184353Y0280629D01*
X0185217Y0281494D01*
X0185829Y0282553D01*
X0186146Y0283735D01*
Y0284958D01*
X0185829Y0286140D01*
X0185217Y0287199D01*
X0184353Y0288064D01*
X0183293Y0288675D01*
X0182112Y0288992D01*
D02*
G37*
G36*
X0011612Y0288646D02*
X0010388D01*
X0009207Y0288329D01*
X0008147Y0287718D01*
X0007282Y0286853D01*
X0006671Y0285793D01*
X0006354Y0284612D01*
Y0283388D01*
X0006671Y0282207D01*
X0007282Y0281148D01*
X0008147Y0280283D01*
X0009207Y0279671D01*
X0010388Y0279354D01*
X0011612D01*
X0012793Y0279671D01*
X0013852Y0280283D01*
X0014717Y0281148D01*
X0015329Y0282207D01*
X0015646Y0283388D01*
Y0284612D01*
X0015329Y0285793D01*
X0014717Y0286853D01*
X0013852Y0287718D01*
X0012793Y0288329D01*
X0011612Y0288646D01*
D02*
G37*
G36*
X0033265Y0288646D02*
X0032042D01*
X0030860Y0288329D01*
X0029801Y0287718D01*
X0028936Y0286853D01*
X0028324Y0285793D01*
X0028008Y0284612D01*
Y0283388D01*
X0028324Y0282207D01*
X0028936Y0281148D01*
X0029801Y0280282D01*
X0030860Y0279671D01*
X0032042Y0279354D01*
X0033265D01*
X0034447Y0279671D01*
X0035506Y0280282D01*
X0036371Y0281148D01*
X0036983Y0282207D01*
X0037299Y0283388D01*
Y0284612D01*
X0036983Y0285793D01*
X0036371Y0286853D01*
X0035506Y0287718D01*
X0034447Y0288329D01*
X0033265Y0288646D01*
D02*
G37*
G36*
X0017163Y0278299D02*
Y0274750D01*
X0020712D01*
X0020464Y0275678D01*
X0019891Y0276669D01*
X0019082Y0277478D01*
X0018091Y0278050D01*
X0017163Y0278299D01*
D02*
G37*
G36*
X0015663Y0278299D02*
X0014736Y0278050D01*
X0013745Y0277478D01*
X0012935Y0276669D01*
X0012363Y0275678D01*
X0012115Y0274750D01*
X0015663D01*
Y0278299D01*
D02*
G37*
G36*
X0027774Y0278055D02*
X0026706D01*
X0025675Y0277779D01*
X0024750Y0277245D01*
X0023995Y0276490D01*
X0023461Y0275565D01*
X0023185Y0274534D01*
Y0273466D01*
X0023461Y0272435D01*
X0023995Y0271510D01*
X0024750Y0270755D01*
X0025675Y0270221D01*
X0026706Y0269945D01*
X0027774D01*
X0028805Y0270221D01*
X0029730Y0270755D01*
X0030485Y0271510D01*
X0031019Y0272435D01*
X0031295Y0273466D01*
Y0274534D01*
X0031019Y0275565D01*
X0030485Y0276490D01*
X0029730Y0277245D01*
X0028805Y0277779D01*
X0027774Y0278055D01*
D02*
G37*
G36*
X0015663Y0273250D02*
X0012115D01*
X0012363Y0272322D01*
X0012935Y0271331D01*
X0013745Y0270522D01*
X0014736Y0269950D01*
X0015663Y0269701D01*
Y0273250D01*
D02*
G37*
G36*
X0020712D02*
X0017163D01*
Y0269701D01*
X0018091Y0269950D01*
X0019082Y0270522D01*
X0019891Y0271331D01*
X0020464Y0272322D01*
X0020712Y0273250D01*
D02*
G37*
G36*
X0012534Y0268370D02*
X0011829D01*
X0011148Y0268188D01*
X0010537Y0267835D01*
X0010039Y0267337D01*
X0009686Y0266726D01*
X0009504Y0266045D01*
Y0265340D01*
X0009686Y0264660D01*
X0010039Y0264049D01*
X0010537Y0263551D01*
X0011148Y0263198D01*
X0011829Y0263016D01*
X0012534D01*
X0013215Y0263198D01*
X0013825Y0263551D01*
X0014323Y0264049D01*
X0014676Y0264660D01*
X0014858Y0265340D01*
Y0266045D01*
X0014676Y0266726D01*
X0014323Y0267337D01*
X0013825Y0267835D01*
X0013215Y0268188D01*
X0012534Y0268370D01*
D02*
G37*
G36*
X0182343Y0277209D02*
X0180657D01*
X0178992Y0276945D01*
X0177389Y0276424D01*
X0175887Y0275659D01*
X0174524Y0274668D01*
X0173332Y0273476D01*
X0172341Y0272113D01*
X0171576Y0270611D01*
X0171055Y0269008D01*
X0170791Y0267343D01*
Y0265657D01*
X0171055Y0263992D01*
X0171576Y0262389D01*
X0172341Y0260887D01*
X0173332Y0259524D01*
X0174524Y0258332D01*
X0175887Y0257341D01*
X0177389Y0256576D01*
X0178992Y0256055D01*
X0180657Y0255791D01*
X0182343D01*
X0184008Y0256055D01*
X0185611Y0256576D01*
X0187113Y0257341D01*
X0188476Y0258332D01*
X0189668Y0259524D01*
X0190659Y0260887D01*
X0191424Y0262389D01*
X0191945Y0263992D01*
X0192209Y0265657D01*
Y0267343D01*
X0191945Y0269008D01*
X0191424Y0270611D01*
X0190659Y0272113D01*
X0189668Y0273476D01*
X0188476Y0274668D01*
X0187113Y0275659D01*
X0185611Y0276424D01*
X0184008Y0276945D01*
X0182343Y0277209D01*
D02*
G37*
G36*
X0158787Y0259582D02*
X0158750D01*
Y0255750D01*
X0163271D01*
X0163214Y0256186D01*
X0162756Y0257291D01*
X0162028Y0258240D01*
X0161079Y0258969D01*
X0159974Y0259426D01*
X0158787Y0259582D01*
D02*
G37*
G36*
X0163271Y0254250D02*
X0158750D01*
Y0250417D01*
X0158787D01*
X0159974Y0250574D01*
X0161079Y0251031D01*
X0162028Y0251760D01*
X0162756Y0252709D01*
X0163214Y0253814D01*
X0163271Y0254250D01*
D02*
G37*
G36*
X0230010Y0341799D02*
Y0338250D01*
X0233559D01*
X0233310Y0339178D01*
X0232738Y0340169D01*
X0231929Y0340978D01*
X0230938Y0341550D01*
X0230010Y0341799D01*
D02*
G37*
G36*
X0228510Y0341799D02*
X0227582Y0341550D01*
X0226591Y0340978D01*
X0225782Y0340169D01*
X0225210Y0339178D01*
X0224961Y0338250D01*
X0228510D01*
Y0341799D01*
D02*
G37*
G36*
X0240620Y0341555D02*
X0239553D01*
X0238521Y0341279D01*
X0237597Y0340745D01*
X0236842Y0339990D01*
X0236308Y0339065D01*
X0236032Y0338034D01*
Y0336966D01*
X0236308Y0335935D01*
X0236842Y0335010D01*
X0237597Y0334255D01*
X0238521Y0333721D01*
X0239553Y0333445D01*
X0240620D01*
X0241652Y0333721D01*
X0242577Y0334255D01*
X0243332Y0335010D01*
X0243865Y0335935D01*
X0244142Y0336966D01*
Y0338034D01*
X0243865Y0339065D01*
X0243332Y0339990D01*
X0242577Y0340745D01*
X0241652Y0341279D01*
X0240620Y0341555D01*
D02*
G37*
G36*
X0228510Y0336750D02*
X0224961D01*
X0225210Y0335822D01*
X0225782Y0334831D01*
X0226591Y0334022D01*
X0227582Y0333450D01*
X0228510Y0333201D01*
Y0336750D01*
D02*
G37*
G36*
X0233559D02*
X0230010D01*
Y0333201D01*
X0230938Y0333450D01*
X0231929Y0334022D01*
X0232738Y0334831D01*
X0233310Y0335822D01*
X0233559Y0336750D01*
D02*
G37*
G36*
X0246112Y0332146D02*
X0244888D01*
X0243707Y0331829D01*
X0242648Y0331218D01*
X0241782Y0330352D01*
X0241171Y0329293D01*
X0240854Y0328112D01*
Y0326888D01*
X0241171Y0325707D01*
X0241782Y0324647D01*
X0242648Y0323782D01*
X0243707Y0323171D01*
X0244888Y0322854D01*
X0246112D01*
X0247293Y0323171D01*
X0248353Y0323782D01*
X0249217Y0324647D01*
X0249829Y0325707D01*
X0250146Y0326888D01*
Y0328112D01*
X0249829Y0329293D01*
X0249217Y0330352D01*
X0248353Y0331218D01*
X0247293Y0331829D01*
X0246112Y0332146D01*
D02*
G37*
G36*
X0283010Y0326299D02*
Y0322750D01*
X0286559D01*
X0286310Y0323678D01*
X0285738Y0324669D01*
X0284929Y0325478D01*
X0283938Y0326050D01*
X0283010Y0326299D01*
D02*
G37*
G36*
X0281510Y0326299D02*
X0280582Y0326050D01*
X0279591Y0325478D01*
X0278782Y0324669D01*
X0278210Y0323678D01*
X0277961Y0322750D01*
X0281510D01*
Y0326299D01*
D02*
G37*
G36*
X0230010Y0321799D02*
Y0318250D01*
X0233559D01*
X0233310Y0319178D01*
X0232738Y0320169D01*
X0231929Y0320978D01*
X0230938Y0321550D01*
X0230010Y0321799D01*
D02*
G37*
G36*
X0228510D02*
X0227582Y0321550D01*
X0226591Y0320978D01*
X0225782Y0320169D01*
X0225209Y0319178D01*
X0224961Y0318250D01*
X0228510D01*
Y0321799D01*
D02*
G37*
G36*
X0293620Y0326055D02*
X0292553D01*
X0291521Y0325779D01*
X0290597Y0325245D01*
X0289842Y0324490D01*
X0289308Y0323565D01*
X0289032Y0322534D01*
Y0321466D01*
X0289308Y0320435D01*
X0289842Y0319510D01*
X0290597Y0318755D01*
X0291521Y0318221D01*
X0292553Y0317945D01*
X0293620D01*
X0294652Y0318221D01*
X0295577Y0318755D01*
X0296332Y0319510D01*
X0296865Y0320435D01*
X0297142Y0321466D01*
Y0322534D01*
X0296865Y0323565D01*
X0296332Y0324490D01*
X0295577Y0325245D01*
X0294652Y0325779D01*
X0293620Y0326055D01*
D02*
G37*
G36*
X0281510Y0321250D02*
X0277961D01*
X0278210Y0320322D01*
X0278782Y0319331D01*
X0279591Y0318522D01*
X0280582Y0317950D01*
X0281510Y0317701D01*
Y0321250D01*
D02*
G37*
G36*
X0286559D02*
X0283010D01*
Y0317701D01*
X0283938Y0317950D01*
X0284929Y0318522D01*
X0285738Y0319331D01*
X0286310Y0320322D01*
X0286559Y0321250D01*
D02*
G37*
G36*
X0240620Y0321555D02*
X0239553D01*
X0238521Y0321279D01*
X0237597Y0320745D01*
X0236842Y0319990D01*
X0236308Y0319065D01*
X0236032Y0318034D01*
Y0316966D01*
X0236308Y0315935D01*
X0236842Y0315010D01*
X0237597Y0314255D01*
X0238521Y0313721D01*
X0239553Y0313445D01*
X0240620D01*
X0241652Y0313721D01*
X0242577Y0314255D01*
X0243332Y0315010D01*
X0243865Y0315935D01*
X0244142Y0316966D01*
Y0318034D01*
X0243865Y0319065D01*
X0243332Y0319990D01*
X0242577Y0320745D01*
X0241652Y0321279D01*
X0240620Y0321555D01*
D02*
G37*
G36*
X0233559Y0316750D02*
X0230010D01*
Y0313201D01*
X0230938Y0313450D01*
X0231929Y0314022D01*
X0232738Y0314831D01*
X0233310Y0315822D01*
X0233559Y0316750D01*
D02*
G37*
G36*
X0228510D02*
X0224961D01*
X0225209Y0315822D01*
X0225782Y0314831D01*
X0226591Y0314022D01*
X0227582Y0313450D01*
X0228510Y0313201D01*
Y0316750D01*
D02*
G37*
G36*
X0277458Y0316646D02*
X0276235D01*
X0275053Y0316329D01*
X0273994Y0315718D01*
X0273129Y0314852D01*
X0272517Y0313793D01*
X0272201Y0312612D01*
Y0311388D01*
X0272517Y0310207D01*
X0273129Y0309148D01*
X0273994Y0308283D01*
X0275053Y0307671D01*
X0276235Y0307354D01*
X0277458D01*
X0278640Y0307671D01*
X0279699Y0308283D01*
X0280564Y0309148D01*
X0281175Y0310207D01*
X0281492Y0311388D01*
Y0312612D01*
X0281175Y0313793D01*
X0280564Y0314852D01*
X0279699Y0315718D01*
X0278640Y0316329D01*
X0277458Y0316646D01*
D02*
G37*
G36*
X0299112Y0316646D02*
X0297888D01*
X0296707Y0316329D01*
X0295648Y0315718D01*
X0294782Y0314852D01*
X0294171Y0313793D01*
X0293854Y0312612D01*
Y0311388D01*
X0294171Y0310207D01*
X0294782Y0309148D01*
X0295648Y0308282D01*
X0296707Y0307671D01*
X0297888Y0307354D01*
X0299112D01*
X0300293Y0307671D01*
X0301353Y0308282D01*
X0302217Y0309148D01*
X0302829Y0310207D01*
X0303146Y0311388D01*
Y0312612D01*
X0302829Y0313793D01*
X0302217Y0314852D01*
X0301353Y0315718D01*
X0300293Y0316329D01*
X0299112Y0316646D01*
D02*
G37*
G36*
X0225380Y0311870D02*
X0224675D01*
X0223994Y0311688D01*
X0223384Y0311335D01*
X0222885Y0310837D01*
X0222533Y0310226D01*
X0222350Y0309545D01*
Y0308840D01*
X0222533Y0308160D01*
X0222885Y0307549D01*
X0223384Y0307051D01*
X0223994Y0306698D01*
X0224675Y0306516D01*
X0225380D01*
X0226061Y0306698D01*
X0226671Y0307051D01*
X0227170Y0307549D01*
X0227522Y0308160D01*
X0227705Y0308840D01*
Y0309545D01*
X0227522Y0310226D01*
X0227170Y0310837D01*
X0226671Y0311335D01*
X0226061Y0311688D01*
X0225380Y0311870D01*
D02*
G37*
G36*
X0283010Y0306299D02*
Y0302750D01*
X0286559D01*
X0286310Y0303678D01*
X0285738Y0304669D01*
X0284929Y0305478D01*
X0283938Y0306050D01*
X0283010Y0306299D01*
D02*
G37*
G36*
X0281510D02*
X0280582Y0306050D01*
X0279591Y0305478D01*
X0278782Y0304669D01*
X0278209Y0303678D01*
X0277961Y0302750D01*
X0281510D01*
Y0306299D01*
D02*
G37*
G36*
X0293620Y0306055D02*
X0292553D01*
X0291521Y0305779D01*
X0290597Y0305245D01*
X0289842Y0304490D01*
X0289308Y0303565D01*
X0289032Y0302534D01*
Y0301466D01*
X0289308Y0300435D01*
X0289842Y0299510D01*
X0290597Y0298755D01*
X0291521Y0298221D01*
X0292553Y0297945D01*
X0293620D01*
X0294652Y0298221D01*
X0295577Y0298755D01*
X0296332Y0299510D01*
X0296865Y0300435D01*
X0297142Y0301466D01*
Y0302534D01*
X0296865Y0303565D01*
X0296332Y0304490D01*
X0295577Y0305245D01*
X0294652Y0305779D01*
X0293620Y0306055D01*
D02*
G37*
G36*
X0286559Y0301250D02*
X0283010D01*
Y0297701D01*
X0283938Y0297950D01*
X0284929Y0298522D01*
X0285738Y0299331D01*
X0286310Y0300322D01*
X0286559Y0301250D01*
D02*
G37*
G36*
X0281510D02*
X0277961D01*
X0278209Y0300322D01*
X0278782Y0299331D01*
X0279591Y0298522D01*
X0280582Y0297950D01*
X0281510Y0297701D01*
Y0301250D01*
D02*
G37*
G36*
X0336010Y0298299D02*
Y0294750D01*
X0339559D01*
X0339310Y0295678D01*
X0338738Y0296669D01*
X0337929Y0297478D01*
X0336937Y0298050D01*
X0336010Y0298299D01*
D02*
G37*
G36*
X0334510Y0298299D02*
X0333582Y0298050D01*
X0332591Y0297478D01*
X0331782Y0296669D01*
X0331210Y0295678D01*
X0330961Y0294750D01*
X0334510D01*
Y0298299D01*
D02*
G37*
G36*
X0278380Y0296370D02*
X0277675D01*
X0276994Y0296188D01*
X0276384Y0295835D01*
X0275885Y0295337D01*
X0275533Y0294726D01*
X0275350Y0294045D01*
Y0293340D01*
X0275533Y0292660D01*
X0275885Y0292049D01*
X0276384Y0291551D01*
X0276994Y0291198D01*
X0277675Y0291016D01*
X0278380D01*
X0279061Y0291198D01*
X0279671Y0291551D01*
X0280170Y0292049D01*
X0280522Y0292660D01*
X0280705Y0293340D01*
Y0294045D01*
X0280522Y0294726D01*
X0280170Y0295337D01*
X0279671Y0295835D01*
X0279061Y0296188D01*
X0278380Y0296370D01*
D02*
G37*
G36*
X0346620Y0298055D02*
X0345553D01*
X0344521Y0297779D01*
X0343597Y0297245D01*
X0342842Y0296490D01*
X0342308Y0295565D01*
X0342032Y0294534D01*
Y0293466D01*
X0342308Y0292435D01*
X0342842Y0291510D01*
X0343597Y0290755D01*
X0344521Y0290221D01*
X0345553Y0289945D01*
X0346620D01*
X0347652Y0290221D01*
X0348576Y0290755D01*
X0349331Y0291510D01*
X0349865Y0292435D01*
X0350142Y0293466D01*
Y0294534D01*
X0349865Y0295565D01*
X0349331Y0296490D01*
X0348576Y0297245D01*
X0347652Y0297779D01*
X0346620Y0298055D01*
D02*
G37*
G36*
X0334510Y0293250D02*
X0330961D01*
X0331210Y0292322D01*
X0331782Y0291331D01*
X0332591Y0290522D01*
X0333582Y0289950D01*
X0334510Y0289701D01*
Y0293250D01*
D02*
G37*
G36*
X0339559D02*
X0336010D01*
Y0289701D01*
X0336937Y0289950D01*
X0337929Y0290522D01*
X0338738Y0291331D01*
X0339310Y0292322D01*
X0339559Y0293250D01*
D02*
G37*
G36*
X0330458Y0288646D02*
X0329235D01*
X0328053Y0288329D01*
X0326994Y0287718D01*
X0326129Y0286853D01*
X0325517Y0285793D01*
X0325201Y0284612D01*
Y0283388D01*
X0325517Y0282207D01*
X0326129Y0281148D01*
X0326994Y0280283D01*
X0328053Y0279671D01*
X0329235Y0279354D01*
X0330458D01*
X0331640Y0279671D01*
X0332699Y0280283D01*
X0333564Y0281148D01*
X0334175Y0282207D01*
X0334492Y0283388D01*
Y0284612D01*
X0334175Y0285793D01*
X0333564Y0286853D01*
X0332699Y0287718D01*
X0331640Y0288329D01*
X0330458Y0288646D01*
D02*
G37*
G36*
X0352112Y0288646D02*
X0350888D01*
X0349707Y0288329D01*
X0348647Y0287718D01*
X0347782Y0286853D01*
X0347171Y0285793D01*
X0346854Y0284612D01*
Y0283388D01*
X0347171Y0282207D01*
X0347782Y0281148D01*
X0348647Y0280282D01*
X0349707Y0279671D01*
X0350888Y0279354D01*
X0352112D01*
X0353293Y0279671D01*
X0354352Y0280282D01*
X0355217Y0281148D01*
X0355829Y0282207D01*
X0356146Y0283388D01*
Y0284612D01*
X0355829Y0285793D01*
X0355217Y0286853D01*
X0354352Y0287718D01*
X0353293Y0288329D01*
X0352112Y0288646D01*
D02*
G37*
G36*
X0336010Y0278299D02*
Y0274750D01*
X0339559D01*
X0339310Y0275678D01*
X0338738Y0276669D01*
X0337929Y0277478D01*
X0336937Y0278050D01*
X0336010Y0278299D01*
D02*
G37*
G36*
X0334510D02*
X0333582Y0278050D01*
X0332591Y0277478D01*
X0331782Y0276669D01*
X0331209Y0275678D01*
X0330961Y0274750D01*
X0334510D01*
Y0278299D01*
D02*
G37*
G36*
X0346620Y0278055D02*
X0345553D01*
X0344521Y0277779D01*
X0343597Y0277245D01*
X0342842Y0276490D01*
X0342308Y0275565D01*
X0342032Y0274534D01*
Y0273466D01*
X0342308Y0272435D01*
X0342842Y0271510D01*
X0343597Y0270755D01*
X0344521Y0270221D01*
X0345553Y0269945D01*
X0346620D01*
X0347652Y0270221D01*
X0348576Y0270755D01*
X0349331Y0271510D01*
X0349865Y0272435D01*
X0350142Y0273466D01*
Y0274534D01*
X0349865Y0275565D01*
X0349331Y0276490D01*
X0348576Y0277245D01*
X0347652Y0277779D01*
X0346620Y0278055D01*
D02*
G37*
G36*
X0339559Y0273250D02*
X0336010D01*
Y0269701D01*
X0336937Y0269950D01*
X0337929Y0270522D01*
X0338738Y0271331D01*
X0339310Y0272322D01*
X0339559Y0273250D01*
D02*
G37*
G36*
X0334510D02*
X0330961D01*
X0331209Y0272322D01*
X0331782Y0271331D01*
X0332591Y0270522D01*
X0333582Y0269950D01*
X0334510Y0269701D01*
Y0273250D01*
D02*
G37*
G36*
X0331380Y0268370D02*
X0330675D01*
X0329994Y0268188D01*
X0329384Y0267835D01*
X0328885Y0267337D01*
X0328533Y0266726D01*
X0328350Y0266045D01*
Y0265340D01*
X0328533Y0264660D01*
X0328885Y0264049D01*
X0329384Y0263551D01*
X0329994Y0263198D01*
X0330675Y0263016D01*
X0331380D01*
X0332061Y0263198D01*
X0332671Y0263551D01*
X0333170Y0264049D01*
X0333522Y0264660D01*
X0333705Y0265340D01*
Y0266045D01*
X0333522Y0266726D01*
X0333170Y0267337D01*
X0332671Y0267835D01*
X0332061Y0268188D01*
X0331380Y0268370D01*
D02*
G37*
G36*
X0213484Y0250693D02*
X0211516D01*
X0210560Y0250567D01*
X0209669Y0250198D01*
X0208904Y0249611D01*
X0208317Y0248847D01*
X0207949Y0247956D01*
X0207823Y0247000D01*
X0207949Y0246044D01*
X0208317Y0245153D01*
X0208904Y0244389D01*
X0209669Y0243802D01*
X0210560Y0243433D01*
X0211516Y0243307D01*
X0213484D01*
X0214440Y0243433D01*
X0215331Y0243802D01*
X0216096Y0244389D01*
X0216683Y0245153D01*
X0217051Y0246044D01*
X0217177Y0247000D01*
X0217051Y0247956D01*
X0216683Y0248847D01*
X0216096Y0249611D01*
X0215331Y0250198D01*
X0214440Y0250567D01*
X0213484Y0250693D01*
D02*
G37*
G36*
Y0240693D02*
X0211516D01*
X0210560Y0240567D01*
X0209669Y0240198D01*
X0208904Y0239611D01*
X0208317Y0238846D01*
X0207949Y0237956D01*
X0207823Y0237000D01*
X0207949Y0236044D01*
X0208317Y0235154D01*
X0208904Y0234389D01*
X0209669Y0233802D01*
X0210560Y0233433D01*
X0211516Y0233307D01*
X0213484D01*
X0214440Y0233433D01*
X0215331Y0233802D01*
X0216096Y0234389D01*
X0216683Y0235154D01*
X0217051Y0236044D01*
X0217177Y0237000D01*
X0217051Y0237956D01*
X0216683Y0238846D01*
X0216096Y0239611D01*
X0215331Y0240198D01*
X0214440Y0240567D01*
X0213484Y0240693D01*
D02*
G37*
G36*
Y0230693D02*
X0211516D01*
X0210560Y0230567D01*
X0209669Y0230198D01*
X0208904Y0229611D01*
X0208317Y0228847D01*
X0207949Y0227956D01*
X0207823Y0227000D01*
X0207949Y0226044D01*
X0208317Y0225153D01*
X0208904Y0224389D01*
X0209669Y0223802D01*
X0210560Y0223433D01*
X0211516Y0223307D01*
X0213484D01*
X0214440Y0223433D01*
X0215331Y0223802D01*
X0216096Y0224389D01*
X0216683Y0225153D01*
X0217051Y0226044D01*
X0217177Y0227000D01*
X0217051Y0227956D01*
X0216683Y0228847D01*
X0216096Y0229611D01*
X0215331Y0230198D01*
X0214440Y0230567D01*
X0213484Y0230693D01*
D02*
G37*
G36*
Y0220693D02*
X0211516D01*
X0210560Y0220567D01*
X0209669Y0220198D01*
X0208904Y0219611D01*
X0208317Y0218847D01*
X0207949Y0217956D01*
X0207823Y0217000D01*
X0207949Y0216044D01*
X0208317Y0215154D01*
X0208904Y0214389D01*
X0209669Y0213802D01*
X0210560Y0213433D01*
X0211516Y0213307D01*
X0213484D01*
X0214440Y0213433D01*
X0215331Y0213802D01*
X0216096Y0214389D01*
X0216683Y0215154D01*
X0217051Y0216044D01*
X0217177Y0217000D01*
X0217051Y0217956D01*
X0216683Y0218847D01*
X0216096Y0219611D01*
X0215331Y0220198D01*
X0214440Y0220567D01*
X0213484Y0220693D01*
D02*
G37*
G36*
Y0210693D02*
X0211516D01*
X0210560Y0210567D01*
X0209669Y0210198D01*
X0208904Y0209611D01*
X0208317Y0208846D01*
X0208063Y0208232D01*
X0206397D01*
Y0208378D01*
X0206266Y0209038D01*
X0205892Y0209598D01*
X0205332Y0209973D01*
X0204671Y0210104D01*
X0202703D01*
X0202042Y0209973D01*
X0201482Y0209598D01*
X0201108Y0209038D01*
X0200977Y0208378D01*
Y0205622D01*
X0201108Y0204961D01*
X0201482Y0204401D01*
X0202042Y0204027D01*
X0202703Y0203896D01*
X0204671D01*
X0205332Y0204027D01*
X0205892Y0204401D01*
X0206266Y0204961D01*
X0206397Y0205622D01*
Y0205768D01*
X0208063D01*
X0208317Y0205153D01*
X0208904Y0204389D01*
X0209669Y0203802D01*
X0210560Y0203433D01*
X0211516Y0203307D01*
X0213484D01*
X0214440Y0203433D01*
X0215331Y0203802D01*
X0216096Y0204389D01*
X0216683Y0205153D01*
X0217051Y0206044D01*
X0217177Y0207000D01*
X0217051Y0207956D01*
X0216683Y0208846D01*
X0216096Y0209611D01*
X0215331Y0210198D01*
X0214440Y0210567D01*
X0213484Y0210693D01*
D02*
G37*
G36*
Y0200693D02*
X0211516D01*
X0210560Y0200567D01*
X0209669Y0200198D01*
X0208904Y0199611D01*
X0208317Y0198846D01*
X0208063Y0198232D01*
X0206397D01*
Y0198378D01*
X0206266Y0199039D01*
X0205892Y0199599D01*
X0205332Y0199973D01*
X0204671Y0200104D01*
X0202703D01*
X0202042Y0199973D01*
X0201482Y0199599D01*
X0201108Y0199039D01*
X0200977Y0198378D01*
Y0195622D01*
X0201108Y0194962D01*
X0201482Y0194402D01*
X0202042Y0194027D01*
X0202703Y0193896D01*
X0204671D01*
X0205332Y0194027D01*
X0205892Y0194402D01*
X0206266Y0194962D01*
X0206397Y0195622D01*
Y0195768D01*
X0208063D01*
X0208317Y0195153D01*
X0208904Y0194389D01*
X0209669Y0193802D01*
X0210560Y0193433D01*
X0211516Y0193307D01*
X0213484D01*
X0214440Y0193433D01*
X0215331Y0193802D01*
X0216096Y0194389D01*
X0216683Y0195153D01*
X0217051Y0196044D01*
X0217177Y0197000D01*
X0217051Y0197956D01*
X0216683Y0198846D01*
X0216096Y0199611D01*
X0215331Y0200198D01*
X0214440Y0200567D01*
X0213484Y0200693D01*
D02*
G37*
G36*
Y0190987D02*
X0213250D01*
Y0187750D01*
X0217372D01*
X0217335Y0188032D01*
X0216937Y0188993D01*
X0216303Y0189819D01*
X0215478Y0190453D01*
X0214516Y0190851D01*
X0213484Y0190987D01*
D02*
G37*
G36*
X0217372Y0186250D02*
X0213250D01*
Y0183013D01*
X0213484D01*
X0214516Y0183149D01*
X0215478Y0183547D01*
X0216303Y0184181D01*
X0216937Y0185007D01*
X0217335Y0185968D01*
X0217372Y0186250D01*
D02*
G37*
G36*
X0208878Y0168257D02*
X0208250D01*
Y0166000D01*
X0210901D01*
Y0166234D01*
X0210747Y0167008D01*
X0210309Y0167665D01*
X0209652Y0168103D01*
X0208878Y0168257D01*
D02*
G37*
G36*
X0214250D02*
X0213622D01*
X0212848Y0168103D01*
X0212192Y0167665D01*
X0211753Y0167008D01*
X0211599Y0166234D01*
Y0166000D01*
X0214250D01*
Y0168257D01*
D02*
G37*
G36*
X0206750D02*
X0206122D01*
X0205348Y0168103D01*
X0204692Y0167665D01*
X0204253Y0167008D01*
X0204099Y0166234D01*
Y0166000D01*
X0206750D01*
Y0168257D01*
D02*
G37*
G36*
X0214250Y0164500D02*
X0211599D01*
Y0164266D01*
X0211753Y0163491D01*
X0212192Y0162835D01*
X0212848Y0162397D01*
X0213622Y0162243D01*
X0214250D01*
Y0164500D01*
D02*
G37*
G36*
X0210901D02*
X0208250D01*
Y0162243D01*
X0208878D01*
X0209652Y0162397D01*
X0210309Y0162835D01*
X0210747Y0163491D01*
X0210901Y0164266D01*
Y0164500D01*
D02*
G37*
G36*
X0206750D02*
X0204099D01*
Y0164266D01*
X0204253Y0163491D01*
X0204692Y0162835D01*
X0205348Y0162397D01*
X0206122Y0162243D01*
X0206750D01*
Y0164500D01*
D02*
G37*
G36*
X0248031Y0129116D02*
X0245260D01*
X0242488D01*
Y0126843D01*
X0242488Y0126504D01*
X0242091Y0126254D01*
X0242055Y0126247D01*
X0241398Y0125809D01*
X0240960Y0125152D01*
X0240806Y0124378D01*
Y0123750D01*
X0246820D01*
Y0124378D01*
X0246666Y0125152D01*
X0246228Y0125809D01*
X0245935Y0126004D01*
X0246087Y0126504D01*
X0248031D01*
Y0129116D01*
D02*
G37*
G36*
X0246820Y0122250D02*
X0244563D01*
Y0119599D01*
X0244797D01*
X0245571Y0119753D01*
X0246228Y0120192D01*
X0246666Y0120848D01*
X0246820Y0121622D01*
Y0122250D01*
D02*
G37*
G36*
X0243063D02*
X0240806D01*
Y0121622D01*
X0240960Y0120848D01*
X0241398Y0120192D01*
X0242055Y0119753D01*
X0242829Y0119599D01*
X0243063D01*
Y0122250D01*
D02*
G37*
G36*
X0286378Y0118523D02*
X0283622D01*
X0282962Y0118392D01*
X0282401Y0118018D01*
X0282027Y0117458D01*
X0281896Y0116797D01*
Y0114829D01*
X0282027Y0114168D01*
X0282401Y0113608D01*
X0282962Y0113234D01*
X0283622Y0113103D01*
X0283768D01*
Y0111496D01*
X0280650D01*
Y0102992D01*
X0289154D01*
Y0111496D01*
X0286232D01*
Y0113103D01*
X0286378D01*
X0287038Y0113234D01*
X0287598Y0113608D01*
X0287973Y0114168D01*
X0288104Y0114829D01*
Y0116797D01*
X0287973Y0117458D01*
X0287598Y0118018D01*
X0287038Y0118392D01*
X0286378Y0118523D01*
D02*
G37*
G36*
X0274628Y0101904D02*
Y0098152D01*
X0278381D01*
X0278112Y0099155D01*
X0277514Y0100191D01*
X0276668Y0101037D01*
X0275632Y0101635D01*
X0274628Y0101904D01*
D02*
G37*
G36*
X0285652Y0101904D02*
Y0098152D01*
X0289404D01*
X0289135Y0099155D01*
X0288537Y0100191D01*
X0287691Y0101037D01*
X0286655Y0101635D01*
X0285652Y0101904D01*
D02*
G37*
G36*
X0284152D02*
X0283148Y0101635D01*
X0282112Y0101037D01*
X0281266Y0100191D01*
X0280668Y0099155D01*
X0280399Y0098152D01*
X0284152D01*
Y0101904D01*
D02*
G37*
G36*
X0273128D02*
X0272124Y0101635D01*
X0271088Y0101037D01*
X0270242Y0100191D01*
X0269644Y0099155D01*
X0269375Y0098152D01*
X0273128D01*
Y0101904D01*
D02*
G37*
G36*
X0278381Y0096652D02*
X0274628D01*
Y0092899D01*
X0275632Y0093168D01*
X0276668Y0093766D01*
X0277514Y0094612D01*
X0278112Y0095648D01*
X0278381Y0096652D01*
D02*
G37*
G36*
X0289404D02*
X0285652D01*
Y0092899D01*
X0286655Y0093168D01*
X0287691Y0093766D01*
X0288537Y0094612D01*
X0289135Y0095648D01*
X0289404Y0096652D01*
D02*
G37*
G36*
X0284152D02*
X0280399D01*
X0280668Y0095648D01*
X0281266Y0094612D01*
X0282112Y0093766D01*
X0283148Y0093168D01*
X0284152Y0092899D01*
Y0096652D01*
D02*
G37*
G36*
X0273128D02*
X0269375D01*
X0269644Y0095648D01*
X0270242Y0094612D01*
X0271088Y0093766D01*
X0272124Y0093168D01*
X0273128Y0092899D01*
Y0096652D01*
D02*
G37*
G36*
X0170878Y0218757D02*
X0170250D01*
Y0216500D01*
X0172901D01*
Y0216734D01*
X0172747Y0217509D01*
X0172309Y0218165D01*
X0171652Y0218603D01*
X0170878Y0218757D01*
D02*
G37*
G36*
X0168750D02*
X0168122D01*
X0167348Y0218603D01*
X0166692Y0218165D01*
X0166253Y0217509D01*
X0166099Y0216734D01*
Y0216500D01*
X0168750D01*
Y0218757D01*
D02*
G37*
G36*
X0172901Y0215000D02*
X0170250D01*
Y0212743D01*
X0170878D01*
X0171652Y0212897D01*
X0172309Y0213335D01*
X0172747Y0213991D01*
X0172901Y0214766D01*
Y0215000D01*
D02*
G37*
G36*
X0168750D02*
X0166099D01*
Y0214766D01*
X0166253Y0213991D01*
X0166692Y0213335D01*
X0167348Y0212897D01*
X0168122Y0212743D01*
X0168750D01*
Y0215000D01*
D02*
G37*
G36*
X0174390Y0203459D02*
X0173610D01*
X0172890Y0203161D01*
X0172339Y0202609D01*
X0172041Y0201890D01*
Y0201110D01*
X0172339Y0200391D01*
X0172890Y0199839D01*
X0173586Y0199551D01*
X0175390Y0197748D01*
X0175950Y0197374D01*
X0176465Y0197271D01*
Y0194736D01*
X0176573Y0194191D01*
X0176882Y0193729D01*
X0177344Y0193420D01*
X0177890Y0193311D01*
X0179268D01*
X0179813Y0193420D01*
X0180275Y0193729D01*
X0180584Y0194191D01*
X0180693Y0194736D01*
Y0199264D01*
X0180584Y0199809D01*
X0180275Y0200271D01*
X0179813Y0200580D01*
X0179268Y0200689D01*
X0178214D01*
X0178185Y0200695D01*
X0177325D01*
X0175837Y0202182D01*
X0175661Y0202609D01*
X0175110Y0203161D01*
X0174390Y0203459D01*
D02*
G37*
G36*
X0175589Y0192706D02*
Y0189482D01*
X0177250D01*
Y0190996D01*
X0177119Y0191655D01*
X0176745Y0192214D01*
X0176187Y0192587D01*
X0175589Y0192706D01*
D02*
G37*
G36*
X0174089D02*
X0173491Y0192587D01*
X0172932Y0192214D01*
X0172559Y0191655D01*
X0172427Y0190996D01*
Y0189482D01*
X0174089D01*
Y0192706D01*
D02*
G37*
G36*
X0189250Y0185257D02*
X0188622D01*
X0187848Y0185103D01*
X0187191Y0184665D01*
X0186753Y0184009D01*
X0186599Y0183234D01*
Y0183000D01*
X0189250D01*
Y0185257D01*
D02*
G37*
G36*
X0177250Y0187982D02*
X0174839D01*
X0172427D01*
Y0186469D01*
X0172559Y0185810D01*
X0172932Y0185251D01*
X0173455Y0184901D01*
X0173460Y0184865D01*
X0173160Y0184401D01*
X0172329D01*
X0171555Y0184247D01*
X0170898Y0183809D01*
X0170460Y0183152D01*
X0170306Y0182378D01*
Y0181750D01*
X0176320D01*
Y0182378D01*
X0176166Y0183152D01*
X0175728Y0183809D01*
X0175072Y0184247D01*
X0175124Y0184746D01*
X0175528D01*
X0176187Y0184878D01*
X0176745Y0185251D01*
X0177119Y0185810D01*
X0177250Y0186469D01*
Y0187982D01*
D02*
G37*
G36*
X0189250Y0181500D02*
X0186599D01*
Y0181266D01*
X0186753Y0180491D01*
X0187191Y0179835D01*
X0187848Y0179397D01*
X0188622Y0179243D01*
X0189250D01*
Y0181500D01*
D02*
G37*
G36*
X0136530Y0153793D02*
X0129367Y0152271D01*
X0130191Y0148395D01*
X0127959Y0146163D01*
X0123114D01*
Y0146685D01*
X0123005Y0147230D01*
X0122697Y0147693D01*
X0122234Y0148002D01*
X0121689Y0148110D01*
X0120311D01*
X0119766Y0148002D01*
X0119303Y0147693D01*
X0118994Y0147230D01*
X0118886Y0146685D01*
Y0142157D01*
X0118994Y0141612D01*
X0119303Y0141150D01*
X0119766Y0140841D01*
X0120311Y0140733D01*
X0121689D01*
X0122234Y0140841D01*
X0122697Y0141150D01*
X0123005Y0141612D01*
X0123114Y0142157D01*
Y0142679D01*
X0128680D01*
X0129347Y0142812D01*
X0129912Y0143189D01*
X0132085Y0145362D01*
X0138052Y0146630D01*
X0136530Y0153793D01*
D02*
G37*
G36*
X0118010Y0140127D02*
Y0136904D01*
X0119671D01*
Y0138417D01*
X0119540Y0139076D01*
X0119167Y0139635D01*
X0118608Y0140008D01*
X0118010Y0140127D01*
D02*
G37*
G36*
X0116510D02*
X0115912Y0140008D01*
X0115353Y0139635D01*
X0114980Y0139076D01*
X0114849Y0138417D01*
Y0136904D01*
X0116510D01*
Y0140127D01*
D02*
G37*
G36*
X0119671Y0135404D02*
X0118010D01*
Y0132180D01*
X0118608Y0132299D01*
X0119167Y0132672D01*
X0119540Y0133231D01*
X0119671Y0133890D01*
Y0135404D01*
D02*
G37*
G36*
X0116510D02*
X0114849D01*
Y0133890D01*
X0114980Y0133231D01*
X0115353Y0132672D01*
X0115912Y0132299D01*
X0116510Y0132180D01*
Y0135404D01*
D02*
G37*
G36*
X0101378Y0132631D02*
X0100750D01*
Y0130374D01*
X0103401D01*
Y0130608D01*
X0103247Y0131383D01*
X0102808Y0132039D01*
X0102152Y0132477D01*
X0101378Y0132631D01*
D02*
G37*
G36*
X0081878D02*
X0081250D01*
Y0130374D01*
X0083901D01*
Y0130608D01*
X0083747Y0131383D01*
X0083309Y0132039D01*
X0082652Y0132477D01*
X0081878Y0132631D01*
D02*
G37*
G36*
X0099250D02*
X0098622D01*
X0097848Y0132477D01*
X0097192Y0132039D01*
X0096753Y0131383D01*
X0096599Y0130608D01*
Y0130374D01*
X0099250D01*
Y0132631D01*
D02*
G37*
G36*
X0079750D02*
X0079122D01*
X0078348Y0132477D01*
X0077692Y0132039D01*
X0077253Y0131383D01*
X0077099Y0130608D01*
Y0130374D01*
X0079750D01*
Y0132631D01*
D02*
G37*
G36*
X0116797Y0130401D02*
X0116563D01*
Y0127750D01*
X0118820D01*
Y0128378D01*
X0118666Y0129152D01*
X0118228Y0129808D01*
X0117571Y0130247D01*
X0116797Y0130401D01*
D02*
G37*
G36*
X0115063D02*
X0114829D01*
X0114055Y0130247D01*
X0113398Y0129808D01*
X0112960Y0129152D01*
X0112806Y0128378D01*
Y0127750D01*
X0115063D01*
Y0130401D01*
D02*
G37*
G36*
X0103401Y0128874D02*
X0100750D01*
Y0126617D01*
X0101378D01*
X0102152Y0126771D01*
X0102808Y0127209D01*
X0103247Y0127866D01*
X0103401Y0128640D01*
Y0128874D01*
D02*
G37*
G36*
X0093878Y0132397D02*
X0091122D01*
X0090461Y0132266D01*
X0089902Y0131892D01*
X0089527Y0131332D01*
X0089396Y0130671D01*
Y0128703D01*
X0089527Y0128042D01*
X0089902Y0127482D01*
X0090461Y0127108D01*
X0091122Y0126977D01*
X0093467D01*
X0095268Y0125177D01*
Y0123650D01*
X0095268Y0123650D01*
X0095362Y0123179D01*
X0095629Y0122779D01*
X0096942Y0121465D01*
X0096896Y0121234D01*
Y0119266D01*
X0097027Y0118605D01*
X0097401Y0118045D01*
X0097961Y0117671D01*
X0098622Y0117540D01*
X0101378D01*
X0102039Y0117671D01*
X0102599Y0118045D01*
X0102973Y0118605D01*
X0103104Y0119266D01*
Y0120768D01*
X0107462D01*
X0107890Y0120340D01*
X0108610Y0120041D01*
X0109390D01*
X0110109Y0120340D01*
X0110661Y0120890D01*
X0110959Y0121610D01*
Y0122390D01*
X0110661Y0123109D01*
X0110109Y0123661D01*
X0109390Y0123959D01*
X0108610D01*
X0107890Y0123661D01*
X0107462Y0123232D01*
X0102406D01*
X0101934Y0123138D01*
X0101601Y0122916D01*
X0101378Y0122960D01*
X0098933D01*
X0097732Y0124161D01*
Y0125687D01*
X0097732Y0125687D01*
X0097638Y0126159D01*
X0097457Y0126431D01*
X0097817Y0126791D01*
X0097848Y0126771D01*
X0098622Y0126617D01*
X0099250D01*
Y0128874D01*
X0096599D01*
Y0128640D01*
X0096748Y0127889D01*
X0096727Y0127857D01*
X0096313Y0127617D01*
X0095542Y0128388D01*
X0095604Y0128703D01*
Y0130671D01*
X0095473Y0131332D01*
X0095099Y0131892D01*
X0094538Y0132266D01*
X0093878Y0132397D01*
D02*
G37*
G36*
X0083901Y0128874D02*
X0081250D01*
Y0126617D01*
X0081878D01*
X0082652Y0126771D01*
X0083309Y0127209D01*
X0083747Y0127866D01*
X0083901Y0128640D01*
Y0128874D01*
D02*
G37*
G36*
X0125429Y0139842D02*
X0124051D01*
X0123506Y0139734D01*
X0123044Y0139425D01*
X0122735Y0138963D01*
X0122626Y0138417D01*
Y0133890D01*
X0122735Y0133344D01*
X0123044Y0132882D01*
X0123506Y0132573D01*
X0123731Y0132528D01*
Y0130010D01*
X0123542Y0129973D01*
X0122982Y0129598D01*
X0122608Y0129039D01*
X0122477Y0128378D01*
Y0126032D01*
X0118041Y0121596D01*
X0118018Y0121598D01*
X0117458Y0121973D01*
X0116797Y0122104D01*
X0114829D01*
X0114168Y0121973D01*
X0113608Y0121598D01*
X0113234Y0121038D01*
X0113103Y0120378D01*
Y0117622D01*
X0113234Y0116962D01*
X0113608Y0116402D01*
X0114168Y0116027D01*
X0114829Y0115896D01*
X0116797D01*
X0117458Y0116027D01*
X0118018Y0116402D01*
X0118392Y0116962D01*
X0118523Y0117622D01*
Y0119035D01*
X0118909Y0119112D01*
X0119309Y0119379D01*
X0123888Y0123959D01*
X0124203Y0123896D01*
X0126171D01*
X0126832Y0124027D01*
X0127392Y0124401D01*
X0127766Y0124961D01*
X0127897Y0125622D01*
Y0128378D01*
X0127766Y0129039D01*
X0127392Y0129598D01*
X0126832Y0129973D01*
X0126196Y0130099D01*
Y0132721D01*
X0126437Y0132882D01*
X0126746Y0133344D01*
X0126854Y0133890D01*
Y0138417D01*
X0126746Y0138963D01*
X0126437Y0139425D01*
X0125975Y0139734D01*
X0125429Y0139842D01*
D02*
G37*
G36*
X0118820Y0126250D02*
X0116563D01*
Y0123599D01*
X0116797D01*
X0117571Y0123753D01*
X0118228Y0124191D01*
X0118666Y0124848D01*
X0118820Y0125622D01*
Y0126250D01*
D02*
G37*
G36*
X0115063D02*
X0112806D01*
Y0125622D01*
X0112960Y0124848D01*
X0113398Y0124191D01*
X0114055Y0123753D01*
X0114829Y0123599D01*
X0115063D01*
Y0126250D01*
D02*
G37*
G36*
X0089474Y0110644D02*
Y0106892D01*
X0093227D01*
X0092958Y0107895D01*
X0092360Y0108931D01*
X0091514Y0109777D01*
X0090478Y0110375D01*
X0089474Y0110644D01*
D02*
G37*
G36*
X0087974D02*
X0086971Y0110375D01*
X0085935Y0109777D01*
X0085089Y0108931D01*
X0084491Y0107895D01*
X0084222Y0106892D01*
X0087974D01*
Y0110644D01*
D02*
G37*
G36*
X0078451D02*
Y0106892D01*
X0082203D01*
X0081934Y0107895D01*
X0081336Y0108931D01*
X0080490Y0109777D01*
X0079454Y0110375D01*
X0078451Y0110644D01*
D02*
G37*
G36*
X0076951D02*
X0075947Y0110375D01*
X0074911Y0109777D01*
X0074065Y0108931D01*
X0073467Y0107895D01*
X0073198Y0106892D01*
X0076951D01*
Y0110644D01*
D02*
G37*
G36*
X0082203Y0105392D02*
X0078451D01*
Y0101639D01*
X0079454Y0101908D01*
X0080490Y0102506D01*
X0081336Y0103352D01*
X0081934Y0104388D01*
X0082203Y0105392D01*
D02*
G37*
G36*
X0076951D02*
X0073198D01*
X0073467Y0104388D01*
X0074065Y0103352D01*
X0074911Y0102506D01*
X0075947Y0101908D01*
X0076951Y0101639D01*
Y0105392D01*
D02*
G37*
G36*
X0093227D02*
X0089474D01*
Y0101639D01*
X0090478Y0101908D01*
X0091514Y0102506D01*
X0092360Y0103352D01*
X0092958Y0104388D01*
X0093227Y0105392D01*
D02*
G37*
G36*
X0087974D02*
X0084222D01*
X0084491Y0104388D01*
X0085089Y0103352D01*
X0085935Y0102506D01*
X0086971Y0101908D01*
X0087974Y0101639D01*
Y0105392D01*
D02*
G37*
G36*
X0203401Y0102563D02*
X0200750D01*
Y0100306D01*
X0201378D01*
X0202152Y0100460D01*
X0202808Y0100898D01*
X0203247Y0101555D01*
X0203401Y0102329D01*
Y0102563D01*
D02*
G37*
G36*
X0199250D02*
X0196599D01*
Y0102329D01*
X0196753Y0101555D01*
X0197192Y0100898D01*
X0197848Y0100460D01*
X0198622Y0100306D01*
X0199250D01*
Y0102563D01*
D02*
G37*
G36*
X0210901Y0102500D02*
X0208250D01*
Y0100243D01*
X0208878D01*
X0209652Y0100397D01*
X0210309Y0100835D01*
X0210747Y0101491D01*
X0210901Y0102266D01*
Y0102500D01*
D02*
G37*
G36*
X0206750D02*
X0204099D01*
Y0102266D01*
X0204253Y0101491D01*
X0204692Y0100835D01*
X0205348Y0100397D01*
X0206122Y0100243D01*
X0206750D01*
Y0102500D01*
D02*
G37*
G36*
X0089284Y0100551D02*
X0088165D01*
X0087083Y0100261D01*
X0086114Y0099702D01*
X0085322Y0098910D01*
X0084762Y0097940D01*
X0084473Y0096859D01*
Y0095739D01*
X0084762Y0094658D01*
X0085322Y0093688D01*
X0086114Y0092897D01*
X0087083Y0092337D01*
X0088165Y0092047D01*
X0089284D01*
X0090366Y0092337D01*
X0091335Y0092897D01*
X0092127Y0093688D01*
X0092687Y0094658D01*
X0092796Y0095067D01*
X0099190D01*
X0101955Y0092303D01*
Y0088055D01*
X0101542Y0087973D01*
X0100982Y0087599D01*
X0100608Y0087038D01*
X0100477Y0086378D01*
Y0083622D01*
X0100608Y0082961D01*
X0100982Y0082402D01*
X0101542Y0082027D01*
X0102203Y0081896D01*
X0104171D01*
X0104832Y0082027D01*
X0105392Y0082402D01*
X0105766Y0082961D01*
X0105897Y0083622D01*
Y0086378D01*
X0105766Y0087038D01*
X0105392Y0087599D01*
X0104832Y0087973D01*
X0104419Y0088055D01*
Y0092813D01*
X0104419Y0092813D01*
X0104325Y0093285D01*
X0104058Y0093684D01*
X0100572Y0097171D01*
X0100172Y0097438D01*
X0099701Y0097532D01*
X0099701Y0097532D01*
X0092796D01*
X0092687Y0097940D01*
X0092127Y0098910D01*
X0091335Y0099702D01*
X0090366Y0100261D01*
X0089284Y0100551D01*
D02*
G37*
G36*
X0081953D02*
X0073449D01*
Y0092047D01*
X0075081D01*
Y0088055D01*
X0074668Y0087973D01*
X0074108Y0087599D01*
X0073734Y0087038D01*
X0073603Y0086378D01*
Y0083622D01*
X0073734Y0082961D01*
X0074108Y0082402D01*
X0074668Y0082027D01*
X0075329Y0081896D01*
X0077297D01*
X0077958Y0082027D01*
X0078518Y0082402D01*
X0078892Y0082961D01*
X0079023Y0083622D01*
Y0086378D01*
X0078892Y0087038D01*
X0078518Y0087599D01*
X0077958Y0087973D01*
X0077545Y0088055D01*
Y0092047D01*
X0081953D01*
Y0100551D01*
D02*
G37*
G36*
X0289272Y0077740D02*
X0288250D01*
Y0074687D01*
X0291696D01*
Y0075315D01*
X0291512Y0076243D01*
X0290986Y0077029D01*
X0290199Y0077555D01*
X0289272Y0077740D01*
D02*
G37*
G36*
X0249272D02*
X0248250D01*
Y0074687D01*
X0251696D01*
Y0075315D01*
X0251512Y0076243D01*
X0250986Y0077029D01*
X0250200Y0077555D01*
X0249272Y0077740D01*
D02*
G37*
G36*
X0239272D02*
X0238250D01*
Y0074687D01*
X0241696D01*
Y0075315D01*
X0241512Y0076243D01*
X0240986Y0077029D01*
X0240199Y0077555D01*
X0239272Y0077740D01*
D02*
G37*
G36*
X0199272D02*
X0198250D01*
Y0074687D01*
X0201696D01*
Y0075315D01*
X0201512Y0076243D01*
X0200986Y0077029D01*
X0200200Y0077555D01*
X0199272Y0077740D01*
D02*
G37*
G36*
X0286750D02*
X0285728D01*
X0284801Y0077555D01*
X0284014Y0077029D01*
X0283488Y0076243D01*
X0283304Y0075315D01*
Y0074687D01*
X0286750D01*
Y0077740D01*
D02*
G37*
G36*
X0246750D02*
X0245728D01*
X0244800Y0077555D01*
X0244014Y0077029D01*
X0243488Y0076243D01*
X0243304Y0075315D01*
Y0074687D01*
X0246750D01*
Y0077740D01*
D02*
G37*
G36*
X0236750D02*
X0235728D01*
X0234801Y0077555D01*
X0234014Y0077029D01*
X0233488Y0076243D01*
X0233304Y0075315D01*
Y0074687D01*
X0236750D01*
Y0077740D01*
D02*
G37*
G36*
X0196750D02*
X0195728D01*
X0194800Y0077555D01*
X0194014Y0077029D01*
X0193488Y0076243D01*
X0193304Y0075315D01*
Y0074687D01*
X0196750D01*
Y0077740D01*
D02*
G37*
G36*
X0086671Y0076901D02*
X0086437D01*
Y0074250D01*
X0088694D01*
Y0074878D01*
X0088540Y0075652D01*
X0088102Y0076309D01*
X0087445Y0076747D01*
X0086671Y0076901D01*
D02*
G37*
G36*
X0094734D02*
X0094500D01*
Y0074250D01*
X0096757D01*
Y0074878D01*
X0096603Y0075652D01*
X0096165Y0076309D01*
X0095508Y0076747D01*
X0094734Y0076901D01*
D02*
G37*
G36*
X0093000D02*
X0092766D01*
X0091992Y0076747D01*
X0091335Y0076309D01*
X0090897Y0075652D01*
X0090743Y0074878D01*
Y0074250D01*
X0093000D01*
Y0076901D01*
D02*
G37*
G36*
X0291696Y0073187D02*
X0288250D01*
Y0070135D01*
X0289272D01*
X0290199Y0070319D01*
X0290986Y0070845D01*
X0291512Y0071631D01*
X0291696Y0072559D01*
Y0073187D01*
D02*
G37*
G36*
X0286750D02*
X0283304D01*
Y0072559D01*
X0283488Y0071631D01*
X0284014Y0070845D01*
X0284801Y0070319D01*
X0285728Y0070135D01*
X0286750D01*
Y0073187D01*
D02*
G37*
G36*
X0251696D02*
X0248250D01*
Y0070135D01*
X0249272D01*
X0250200Y0070319D01*
X0250986Y0070845D01*
X0251512Y0071631D01*
X0251696Y0072559D01*
Y0073187D01*
D02*
G37*
G36*
X0246750D02*
X0243304D01*
Y0072559D01*
X0243488Y0071631D01*
X0244014Y0070845D01*
X0244800Y0070319D01*
X0245728Y0070135D01*
X0246750D01*
Y0073187D01*
D02*
G37*
G36*
X0201696D02*
X0198250D01*
Y0070135D01*
X0199272D01*
X0200200Y0070319D01*
X0200986Y0070845D01*
X0201512Y0071631D01*
X0201696Y0072559D01*
Y0073187D01*
D02*
G37*
G36*
X0196750D02*
X0193304D01*
Y0072559D01*
X0193488Y0071631D01*
X0194014Y0070845D01*
X0194800Y0070319D01*
X0195728Y0070135D01*
X0196750D01*
Y0073187D01*
D02*
G37*
G36*
X0096757Y0072750D02*
X0094500D01*
Y0070099D01*
X0094734D01*
X0095508Y0070253D01*
X0096165Y0070692D01*
X0096603Y0071348D01*
X0096757Y0072122D01*
Y0072750D01*
D02*
G37*
G36*
X0093000D02*
X0090743D01*
Y0072122D01*
X0090897Y0071348D01*
X0091335Y0070692D01*
X0091992Y0070253D01*
X0092766Y0070099D01*
X0093000D01*
Y0072750D01*
D02*
G37*
G36*
X0088694D02*
X0086437D01*
Y0070099D01*
X0086671D01*
X0087445Y0070253D01*
X0088102Y0070692D01*
X0088540Y0071348D01*
X0088694Y0072122D01*
Y0072750D01*
D02*
G37*
G36*
X0160241Y0097059D02*
X0158759D01*
X0157327Y0096675D01*
X0156043Y0095934D01*
X0154995Y0094886D01*
X0154254Y0093602D01*
X0153870Y0092170D01*
Y0090688D01*
X0154254Y0089256D01*
X0154995Y0087972D01*
X0156043Y0086924D01*
X0157327Y0086183D01*
X0157332Y0086182D01*
Y0084604D01*
X0155766D01*
X0155105Y0084473D01*
X0154545Y0084099D01*
X0154171Y0083539D01*
X0154040Y0082878D01*
Y0080122D01*
X0154171Y0079461D01*
X0154545Y0078901D01*
X0155105Y0078527D01*
X0155766Y0078396D01*
X0157332D01*
Y0074734D01*
X0157195Y0074530D01*
X0157087Y0073984D01*
Y0069457D01*
X0157195Y0068911D01*
X0157504Y0068449D01*
X0157966Y0068140D01*
X0158512Y0068032D01*
X0159890D01*
X0160435Y0068140D01*
X0160897Y0068449D01*
X0161206Y0068911D01*
X0161315Y0069457D01*
Y0071793D01*
X0161326Y0071848D01*
Y0081500D01*
Y0086090D01*
X0161673Y0086183D01*
X0162957Y0086924D01*
X0164005Y0087972D01*
X0164746Y0089256D01*
X0165130Y0090688D01*
Y0092170D01*
X0164746Y0093602D01*
X0164005Y0094886D01*
X0162957Y0095934D01*
X0161673Y0096675D01*
X0160241Y0097059D01*
D02*
G37*
G36*
X0145641D02*
X0144159D01*
X0142727Y0096675D01*
X0141443Y0095934D01*
X0140395Y0094886D01*
X0139654Y0093602D01*
X0139270Y0092170D01*
Y0090688D01*
X0139654Y0089256D01*
X0140395Y0087972D01*
X0141443Y0086924D01*
X0142332Y0086411D01*
Y0081500D01*
Y0074734D01*
X0142195Y0074530D01*
X0142087Y0073984D01*
Y0069457D01*
X0142195Y0068911D01*
X0142504Y0068449D01*
X0142966Y0068140D01*
X0143512Y0068032D01*
X0144890D01*
X0145435Y0068140D01*
X0145897Y0068449D01*
X0146206Y0068911D01*
X0146315Y0069457D01*
Y0071793D01*
X0146326Y0071848D01*
Y0078342D01*
X0146392Y0078396D01*
X0148360D01*
X0149021Y0078527D01*
X0149581Y0078901D01*
X0149955Y0079461D01*
X0150086Y0080122D01*
Y0082878D01*
X0149955Y0083539D01*
X0149581Y0084099D01*
X0149021Y0084473D01*
X0148360Y0084604D01*
X0146392D01*
X0146326Y0084658D01*
Y0085983D01*
X0147073Y0086183D01*
X0148357Y0086924D01*
X0149405Y0087972D01*
X0150146Y0089256D01*
X0150530Y0090688D01*
Y0092170D01*
X0150146Y0093602D01*
X0149405Y0094886D01*
X0148357Y0095934D01*
X0147073Y0096675D01*
X0145641Y0097059D01*
D02*
G37*
G36*
X0127750Y0070240D02*
X0126728D01*
X0125801Y0070055D01*
X0125014Y0069529D01*
X0124488Y0068743D01*
X0124304Y0067815D01*
Y0067187D01*
X0127750D01*
Y0070240D01*
D02*
G37*
G36*
X0137878Y0067257D02*
X0137250D01*
Y0065000D01*
X0139901D01*
Y0065234D01*
X0139747Y0066009D01*
X0139309Y0066665D01*
X0138652Y0067103D01*
X0137878Y0067257D01*
D02*
G37*
G36*
X0127750Y0065687D02*
X0124304D01*
Y0065059D01*
X0124488Y0064131D01*
X0125014Y0063345D01*
X0125801Y0062819D01*
X0126728Y0062634D01*
X0127750D01*
Y0065687D01*
D02*
G37*
G36*
X0139901Y0063500D02*
X0137250D01*
Y0061243D01*
X0137878D01*
X0138652Y0061397D01*
X0139309Y0061835D01*
X0139747Y0062492D01*
X0139901Y0063266D01*
Y0063500D01*
D02*
G37*
G36*
X0130272Y0070240D02*
X0129250D01*
Y0066437D01*
Y0062634D01*
X0130272D01*
X0131200Y0062819D01*
X0131986Y0063345D01*
X0132512Y0064131D01*
X0132599Y0064570D01*
X0133099Y0064521D01*
Y0063266D01*
X0133253Y0062492D01*
X0133692Y0061835D01*
X0134348Y0061397D01*
X0135122Y0061243D01*
X0135750D01*
Y0064250D01*
Y0067257D01*
X0135122D01*
X0134348Y0067103D01*
X0133692Y0066665D01*
X0133253Y0066009D01*
X0133196Y0065723D01*
X0132696Y0065772D01*
Y0067815D01*
X0132512Y0068743D01*
X0131986Y0069529D01*
X0131200Y0070055D01*
X0130272Y0070240D01*
D02*
G37*
G36*
X0119890Y0068459D02*
X0119110D01*
X0118391Y0068160D01*
X0117840Y0067610D01*
X0117541Y0066890D01*
Y0066110D01*
X0117840Y0065390D01*
X0118268Y0064962D01*
Y0063397D01*
X0118122D01*
X0117462Y0063266D01*
X0116902Y0062892D01*
X0116527Y0062332D01*
X0116396Y0061671D01*
Y0059703D01*
X0116527Y0059042D01*
X0116902Y0058482D01*
X0117462Y0058108D01*
X0118122Y0057977D01*
X0120878D01*
X0121538Y0058108D01*
X0122099Y0058482D01*
X0122473Y0059042D01*
X0122604Y0059703D01*
Y0061671D01*
X0122473Y0062332D01*
X0122099Y0062892D01*
X0121538Y0063266D01*
X0120878Y0063397D01*
X0120732D01*
Y0064962D01*
X0121160Y0065390D01*
X0121459Y0066110D01*
Y0066890D01*
X0121160Y0067610D01*
X0120609Y0068160D01*
X0119890Y0068459D01*
D02*
G37*
G36*
X0094779Y0063032D02*
X0090592D01*
Y0056876D01*
X0094779D01*
Y0063032D01*
D02*
G37*
G36*
X0089092D02*
X0084905D01*
Y0056876D01*
X0089092D01*
Y0063032D01*
D02*
G37*
G36*
X0185848Y0053434D02*
X0185250Y0053315D01*
X0184692Y0052942D01*
X0184318Y0052383D01*
X0184187Y0051724D01*
X0183712D01*
X0183604Y0052270D01*
X0183295Y0052732D01*
X0182833Y0053041D01*
X0182287Y0053149D01*
X0180910D01*
X0180364Y0053041D01*
X0179902Y0052732D01*
X0179593Y0052270D01*
X0179484Y0051724D01*
Y0049529D01*
X0179471Y0049461D01*
Y0041695D01*
X0179633Y0040881D01*
X0179896Y0040487D01*
Y0039703D01*
X0180027Y0039042D01*
X0180402Y0038482D01*
X0180962Y0038108D01*
X0181622Y0037977D01*
X0184378D01*
X0185038Y0038108D01*
X0185599Y0038482D01*
X0185973Y0039042D01*
X0186104Y0039703D01*
Y0041671D01*
X0185973Y0042332D01*
X0185599Y0042892D01*
X0185038Y0043266D01*
X0184378Y0043397D01*
X0183726D01*
Y0046954D01*
X0184226Y0047003D01*
X0184318Y0046538D01*
X0184692Y0045979D01*
X0185250Y0045606D01*
X0185848Y0045487D01*
Y0049461D01*
Y0053434D01*
D02*
G37*
G36*
X0158451D02*
X0157853Y0053315D01*
X0157294Y0052942D01*
X0156921Y0052383D01*
X0156790Y0051724D01*
X0156315D01*
X0156206Y0052270D01*
X0155897Y0052732D01*
X0155435Y0053041D01*
X0154890Y0053149D01*
X0153512D01*
X0152966Y0053041D01*
X0152504Y0052732D01*
X0152195Y0052270D01*
X0152087Y0051724D01*
Y0049529D01*
X0152073Y0049461D01*
Y0041986D01*
X0152235Y0041172D01*
X0152396Y0040931D01*
Y0039703D01*
X0152527Y0039042D01*
X0152901Y0038482D01*
X0153462Y0038108D01*
X0154122Y0037977D01*
X0156878D01*
X0157538Y0038108D01*
X0158098Y0038482D01*
X0158473Y0039042D01*
X0158604Y0039703D01*
Y0041671D01*
X0158473Y0042332D01*
X0158098Y0042892D01*
X0157538Y0043266D01*
X0156878Y0043397D01*
X0156328D01*
Y0046954D01*
X0156828Y0047003D01*
X0156921Y0046538D01*
X0157294Y0045979D01*
X0157853Y0045606D01*
X0158451Y0045487D01*
Y0049461D01*
Y0053434D01*
D02*
G37*
G36*
X0187348D02*
Y0050211D01*
X0189009D01*
Y0051724D01*
X0188878Y0052383D01*
X0188505Y0052942D01*
X0187946Y0053315D01*
X0187348Y0053434D01*
D02*
G37*
G36*
X0159951D02*
Y0050211D01*
X0161612D01*
Y0051724D01*
X0161481Y0052383D01*
X0161107Y0052942D01*
X0160549Y0053315D01*
X0159951Y0053434D01*
D02*
G37*
G36*
X0143451D02*
X0142853Y0053315D01*
X0142294Y0052942D01*
X0141921Y0052383D01*
X0141790Y0051724D01*
Y0050211D01*
X0143451D01*
Y0053434D01*
D02*
G37*
G36*
X0089092Y0055376D02*
X0084905D01*
Y0049220D01*
X0089092D01*
Y0055376D01*
D02*
G37*
G36*
X0279524Y0053307D02*
X0277305D01*
Y0048333D01*
X0279524D01*
Y0053307D01*
D02*
G37*
G36*
X0275805D02*
X0273587D01*
Y0048333D01*
X0275805D01*
Y0053307D01*
D02*
G37*
G36*
X0229524Y0053224D02*
X0227305D01*
Y0048250D01*
X0229524D01*
Y0053224D01*
D02*
G37*
G36*
X0225805D02*
X0223587D01*
Y0048250D01*
X0225805D01*
Y0053224D01*
D02*
G37*
G36*
X0189009Y0048711D02*
X0187348D01*
Y0045487D01*
X0187946Y0045606D01*
X0188505Y0045979D01*
X0188878Y0046538D01*
X0189009Y0047197D01*
Y0048711D01*
D02*
G37*
G36*
X0161612Y0048711D02*
X0159951D01*
Y0045487D01*
X0160549Y0045606D01*
X0161107Y0045979D01*
X0161481Y0046538D01*
X0161612Y0047197D01*
Y0048711D01*
D02*
G37*
G36*
X0143451D02*
X0141790D01*
Y0047197D01*
X0141921Y0046538D01*
X0142294Y0045979D01*
X0142853Y0045606D01*
X0143451Y0045487D01*
Y0048711D01*
D02*
G37*
G36*
X0288878Y0046257D02*
X0288250D01*
Y0044000D01*
X0290901D01*
Y0044234D01*
X0290747Y0045009D01*
X0290308Y0045665D01*
X0289652Y0046103D01*
X0288878Y0046257D01*
D02*
G37*
G36*
X0248878D02*
X0248250D01*
Y0044000D01*
X0250901D01*
Y0044234D01*
X0250747Y0045009D01*
X0250308Y0045665D01*
X0249652Y0046103D01*
X0248878Y0046257D01*
D02*
G37*
G36*
X0238878D02*
X0238250D01*
Y0044000D01*
X0240901D01*
Y0044234D01*
X0240747Y0045009D01*
X0240308Y0045665D01*
X0239652Y0046103D01*
X0238878Y0046257D01*
D02*
G37*
G36*
X0198878D02*
X0198250D01*
Y0044000D01*
X0200901D01*
Y0044234D01*
X0200747Y0045009D01*
X0200308Y0045665D01*
X0199652Y0046103D01*
X0198878Y0046257D01*
D02*
G37*
G36*
X0286750D02*
X0286122D01*
X0285348Y0046103D01*
X0284692Y0045665D01*
X0284253Y0045009D01*
X0284099Y0044234D01*
Y0044000D01*
X0286750D01*
Y0046257D01*
D02*
G37*
G36*
X0246750D02*
X0246122D01*
X0245348Y0046103D01*
X0244691Y0045665D01*
X0244253Y0045009D01*
X0244099Y0044234D01*
Y0044000D01*
X0246750D01*
Y0046257D01*
D02*
G37*
G36*
X0236750D02*
X0236122D01*
X0235348Y0046103D01*
X0234692Y0045665D01*
X0234253Y0045009D01*
X0234099Y0044234D01*
Y0044000D01*
X0236750D01*
Y0046257D01*
D02*
G37*
G36*
X0196750D02*
X0196122D01*
X0195348Y0046103D01*
X0194692Y0045665D01*
X0194253Y0045009D01*
X0194099Y0044234D01*
Y0044000D01*
X0196750D01*
Y0046257D01*
D02*
G37*
G36*
X0279524Y0046833D02*
X0277305D01*
Y0041858D01*
X0279524D01*
Y0046833D01*
D02*
G37*
G36*
X0275805D02*
X0273587D01*
Y0041858D01*
X0275805D01*
Y0046833D01*
D02*
G37*
G36*
X0229524Y0046750D02*
X0227305D01*
Y0041776D01*
X0229524D01*
Y0046750D01*
D02*
G37*
G36*
X0225805D02*
X0223587D01*
Y0041776D01*
X0225805D01*
Y0046750D01*
D02*
G37*
G36*
X0290901Y0042500D02*
X0288250D01*
Y0040243D01*
X0288878D01*
X0289652Y0040397D01*
X0290308Y0040835D01*
X0290747Y0041491D01*
X0290901Y0042266D01*
Y0042500D01*
D02*
G37*
G36*
X0286750D02*
X0284099D01*
Y0042266D01*
X0284253Y0041491D01*
X0284692Y0040835D01*
X0285348Y0040397D01*
X0286122Y0040243D01*
X0286750D01*
Y0042500D01*
D02*
G37*
G36*
X0250901D02*
X0248250D01*
Y0040243D01*
X0248878D01*
X0249652Y0040397D01*
X0250308Y0040835D01*
X0250747Y0041491D01*
X0250901Y0042266D01*
Y0042500D01*
D02*
G37*
G36*
X0246750D02*
X0244099D01*
Y0042266D01*
X0244253Y0041491D01*
X0244691Y0040835D01*
X0245348Y0040397D01*
X0246122Y0040243D01*
X0246750D01*
Y0042500D01*
D02*
G37*
G36*
X0240901D02*
X0238250D01*
Y0040243D01*
X0238878D01*
X0239652Y0040397D01*
X0240308Y0040835D01*
X0240747Y0041491D01*
X0240901Y0042266D01*
Y0042500D01*
D02*
G37*
G36*
X0236750D02*
X0234099D01*
Y0042266D01*
X0234253Y0041491D01*
X0234692Y0040835D01*
X0235348Y0040397D01*
X0236122Y0040243D01*
X0236750D01*
Y0042500D01*
D02*
G37*
G36*
X0200901D02*
X0198250D01*
Y0040243D01*
X0198878D01*
X0199652Y0040397D01*
X0200308Y0040835D01*
X0200747Y0041491D01*
X0200901Y0042266D01*
Y0042500D01*
D02*
G37*
G36*
X0196750D02*
X0194099D01*
Y0042266D01*
X0194253Y0041491D01*
X0194692Y0040835D01*
X0195348Y0040397D01*
X0196122Y0040243D01*
X0196750D01*
Y0042500D01*
D02*
G37*
G36*
X0172348Y0053434D02*
Y0049461D01*
Y0045487D01*
X0172946Y0045606D01*
X0173505Y0045979D01*
X0173878Y0046538D01*
X0173971Y0047003D01*
X0174471Y0046954D01*
Y0043397D01*
X0174122D01*
X0173461Y0043266D01*
X0172901Y0042892D01*
X0172527Y0042332D01*
X0172396Y0041671D01*
Y0039703D01*
X0172527Y0039042D01*
X0172901Y0038482D01*
X0173461Y0038108D01*
X0174122Y0037977D01*
X0176878D01*
X0177539Y0038108D01*
X0178098Y0038482D01*
X0178473Y0039042D01*
X0178604Y0039703D01*
Y0040779D01*
X0178726Y0041392D01*
Y0049461D01*
X0178712Y0049529D01*
Y0051724D01*
X0178604Y0052270D01*
X0178295Y0052732D01*
X0177833Y0053041D01*
X0177287Y0053149D01*
X0175909D01*
X0175364Y0053041D01*
X0174902Y0052732D01*
X0174593Y0052270D01*
X0174484Y0051724D01*
X0174010D01*
X0173878Y0052383D01*
X0173505Y0052942D01*
X0172946Y0053315D01*
X0172348Y0053434D01*
D02*
G37*
G36*
X0144951D02*
Y0049461D01*
Y0045487D01*
X0145549Y0045606D01*
X0146107Y0045979D01*
X0146481Y0046538D01*
X0146573Y0047003D01*
X0147073Y0046954D01*
Y0043397D01*
X0146622D01*
X0145961Y0043266D01*
X0145402Y0042892D01*
X0145027Y0042332D01*
X0144896Y0041671D01*
Y0039703D01*
X0145027Y0039042D01*
X0145402Y0038482D01*
X0145961Y0038108D01*
X0146622Y0037977D01*
X0149378D01*
X0150039Y0038108D01*
X0150599Y0038482D01*
X0150973Y0039042D01*
X0151104Y0039703D01*
Y0040587D01*
X0151166Y0040680D01*
X0151328Y0041494D01*
Y0049461D01*
X0151315Y0049529D01*
Y0051724D01*
X0151206Y0052270D01*
X0150897Y0052732D01*
X0150435Y0053041D01*
X0149890Y0053149D01*
X0148512D01*
X0147967Y0053041D01*
X0147504Y0052732D01*
X0147195Y0052270D01*
X0147087Y0051724D01*
X0146612D01*
X0146481Y0052383D01*
X0146107Y0052942D01*
X0145549Y0053315D01*
X0144951Y0053434D01*
D02*
G37*
G36*
X0158010Y0025661D02*
X0157045D01*
X0156114Y0025412D01*
X0155279Y0024930D01*
X0154598Y0024248D01*
X0154116Y0023413D01*
X0153866Y0022482D01*
Y0021518D01*
X0154116Y0020587D01*
X0154598Y0019752D01*
X0155279Y0019070D01*
X0156114Y0018588D01*
X0157045Y0018339D01*
X0158010D01*
X0158941Y0018588D01*
X0159776Y0019070D01*
X0160457Y0019752D01*
X0160940Y0020587D01*
X0161189Y0021518D01*
Y0022482D01*
X0160940Y0023413D01*
X0160457Y0024248D01*
X0159776Y0024930D01*
X0158941Y0025412D01*
X0158010Y0025661D01*
D02*
G37*
G36*
X0117324Y0031376D02*
X0115803Y0031074D01*
X0114370Y0030480D01*
X0113081Y0029618D01*
X0111984Y0028522D01*
X0111122Y0027232D01*
X0110529Y0025799D01*
X0110226Y0024278D01*
Y0022727D01*
X0110529Y0021206D01*
X0111122Y0019773D01*
X0111984Y0018483D01*
X0113081Y0017386D01*
X0114370Y0016524D01*
X0115803Y0015931D01*
X0117324Y0015628D01*
X0118876Y0015628D01*
X0120397Y0015931D01*
X0121830Y0016524D01*
X0123119Y0017386D01*
X0124216Y0018483D01*
X0125078Y0019773D01*
X0125671Y0021206D01*
X0125974Y0022727D01*
Y0024278D01*
X0125671Y0025799D01*
X0125078Y0027232D01*
X0124216Y0028522D01*
X0123119Y0029618D01*
X0121830Y0030480D01*
X0120397Y0031074D01*
X0118876Y0031376D01*
X0117324Y0031376D01*
D02*
G37*
G36*
X0105028Y0021704D02*
X0104329Y0021612D01*
X0103677Y0021342D01*
X0103118Y0020913D01*
X0102689Y0020354D01*
X0102419Y0019703D01*
X0102327Y0019004D01*
Y0015461D01*
X0102419Y0014762D01*
X0102689Y0014110D01*
X0103118Y0013551D01*
X0103677Y0013122D01*
X0104329Y0012852D01*
X0105028Y0012760D01*
X0105726Y0012852D01*
X0106378Y0013122D01*
X0106937Y0013551D01*
X0107366Y0014110D01*
X0107636Y0014762D01*
X0107728Y0015461D01*
Y0019004D01*
X0107636Y0019703D01*
X0107366Y0020354D01*
X0106937Y0020913D01*
X0106378Y0021342D01*
X0105726Y0021612D01*
X0105028Y0021704D01*
D02*
G37*
G36*
X0070972D02*
X0070274Y0021612D01*
X0069622Y0021342D01*
X0069063Y0020913D01*
X0068634Y0020354D01*
X0068364Y0019703D01*
X0068272Y0019004D01*
Y0015461D01*
X0068364Y0014762D01*
X0068634Y0014110D01*
X0069063Y0013551D01*
X0069622Y0013122D01*
X0070274Y0012852D01*
X0070972Y0012760D01*
X0071671Y0012852D01*
X0072323Y0013122D01*
X0072882Y0013551D01*
X0073311Y0014110D01*
X0073581Y0014762D01*
X0073673Y0015461D01*
Y0019004D01*
X0073581Y0019703D01*
X0073311Y0020354D01*
X0072882Y0020913D01*
X0072323Y0021342D01*
X0071671Y0021612D01*
X0070972Y0021704D01*
D02*
G37*
G36*
X0149260Y0022824D02*
X0148150Y0022678D01*
X0147116Y0022250D01*
X0146227Y0021568D01*
X0145546Y0020680D01*
X0145117Y0019645D01*
X0144971Y0018535D01*
Y0015622D01*
X0145117Y0014512D01*
X0145546Y0013478D01*
X0146227Y0012589D01*
X0147116Y0011908D01*
X0148150Y0011479D01*
X0149260Y0011333D01*
X0150370Y0011479D01*
X0151404Y0011908D01*
X0152292Y0012589D01*
X0152974Y0013478D01*
X0153402Y0014512D01*
X0153549Y0015622D01*
Y0018535D01*
X0153402Y0019645D01*
X0152974Y0020680D01*
X0152292Y0021568D01*
X0151404Y0022250D01*
X0150370Y0022678D01*
X0149260Y0022824D01*
D02*
G37*
G36*
X0179878Y0106315D02*
X0179250D01*
Y0104057D01*
X0181901D01*
Y0104291D01*
X0181747Y0105066D01*
X0181308Y0105722D01*
X0180652Y0106160D01*
X0179878Y0106315D01*
D02*
G37*
G36*
X0177750D02*
X0177122D01*
X0176348Y0106160D01*
X0175691Y0105722D01*
X0175253Y0105066D01*
X0175099Y0104291D01*
Y0104057D01*
X0177750D01*
Y0106315D01*
D02*
G37*
G36*
X0126108Y0107401D02*
X0125874D01*
Y0104750D01*
X0128131D01*
Y0105378D01*
X0127977Y0106152D01*
X0127539Y0106808D01*
X0126883Y0107247D01*
X0126108Y0107401D01*
D02*
G37*
G36*
X0124374D02*
X0124140D01*
X0123366Y0107247D01*
X0122709Y0106808D01*
X0122271Y0106152D01*
X0122117Y0105378D01*
Y0104750D01*
X0124374D01*
Y0107401D01*
D02*
G37*
G36*
X0128131Y0103250D02*
X0125874D01*
Y0100599D01*
X0126108D01*
X0126883Y0100753D01*
X0127539Y0101191D01*
X0127977Y0101848D01*
X0128131Y0102622D01*
Y0103250D01*
D02*
G37*
G36*
X0124374D02*
X0122117D01*
Y0102622D01*
X0122271Y0101848D01*
X0122709Y0101191D01*
X0123366Y0100753D01*
X0124140Y0100599D01*
X0124374D01*
Y0103250D01*
D02*
G37*
G36*
X0206870Y0026937D02*
X0205250D01*
Y0022750D01*
X0209240D01*
Y0024567D01*
X0206870Y0026937D01*
D02*
G37*
G36*
X0203750D02*
X0202130D01*
X0199760Y0024567D01*
Y0022750D01*
X0203750D01*
Y0026937D01*
D02*
G37*
G36*
X0209240Y0021250D02*
X0205250D01*
Y0017063D01*
X0206870D01*
X0209240Y0019433D01*
Y0021250D01*
D02*
G37*
G36*
X0203750D02*
X0199760D01*
Y0019433D01*
X0202130Y0017063D01*
X0203750D01*
Y0021250D01*
D02*
G37*
G36*
X0245876Y0029976D02*
X0244324D01*
X0242803Y0029674D01*
X0241370Y0029080D01*
X0240081Y0028218D01*
X0238984Y0027122D01*
X0238122Y0025832D01*
X0237529Y0024399D01*
X0237226Y0022878D01*
Y0021327D01*
X0237529Y0019806D01*
X0238122Y0018373D01*
X0238984Y0017083D01*
X0240081Y0015986D01*
X0241370Y0015124D01*
X0242803Y0014531D01*
X0244324Y0014228D01*
X0245876D01*
X0247397Y0014531D01*
X0248830Y0015124D01*
X0250119Y0015986D01*
X0251216Y0017083D01*
X0252078Y0018373D01*
X0252671Y0019806D01*
X0252974Y0021327D01*
Y0022878D01*
X0252671Y0024399D01*
X0252078Y0025832D01*
X0251216Y0027122D01*
X0250119Y0028218D01*
X0248830Y0029080D01*
X0247397Y0029674D01*
X0245876Y0029976D01*
D02*
G37*
%LPD*%
D15*
X0221000Y0132164D02*
Y0132500D01*
Y0132164D02*
X0222000Y0131164D01*
Y0117500D02*
X0228000Y0111500D01*
X0224000Y0118500D02*
X0235256Y0107244D01*
X0222000Y0145500D02*
X0224000Y0143500D01*
X0222000Y0117500D02*
Y0131164D01*
X0224000Y0118500D02*
Y0143500D01*
X0228000Y0109500D02*
Y0111500D01*
X0235256Y0107244D02*
X0273878D01*
X0219000Y0145500D02*
X0222000D01*
X0205000Y0148500D02*
X0223000D01*
X0227813Y0123000D02*
Y0143687D01*
X0223000Y0148500D02*
X0227813Y0143687D01*
X0196000Y0138000D02*
Y0171000D01*
X0194291Y0134709D02*
Y0172000D01*
X0198791Y0176500D01*
X0196000Y0171000D02*
X0200500Y0175500D01*
X0196000Y0138000D02*
X0197500Y0136500D01*
X0194291Y0134709D02*
X0194500Y0134500D01*
X0197500Y0131000D02*
Y0136500D01*
X0200500Y0175500D02*
Y0184416D01*
X0198791Y0176500D02*
Y0183709D01*
X0115750Y0103868D02*
Y0104000D01*
X0189500Y0117000D02*
X0193500Y0121000D01*
X0121000Y0115500D02*
X0121319D01*
X0193500Y0121000D02*
X0211000D01*
X0115750Y0103868D02*
X0117182Y0102437D01*
X0189500Y0106000D02*
Y0117000D01*
X0207500Y0116000D02*
X0209000Y0117500D01*
X0207500Y0112624D02*
Y0116000D01*
X0119500Y0060687D02*
Y0066500D01*
X0108500Y0079500D02*
Y0095000D01*
X0106000Y0097500D02*
X0108500Y0095000D01*
X0106000Y0097500D02*
Y0111500D01*
X0156750Y0081500D02*
X0159329D01*
X0156750Y0081368D02*
Y0081500D01*
X0127241Y0109500D02*
X0160500D01*
X0170500Y0099500D02*
X0183000D01*
X0160500Y0109500D02*
X0170500Y0099500D01*
X0183000D02*
X0189500Y0106000D01*
X0178500Y0112681D02*
X0178894D01*
X0125187Y0111368D02*
Y0111500D01*
Y0111368D02*
X0126918Y0109638D01*
X0127103D01*
X0127241Y0109500D01*
X0157000Y0102813D02*
Y0106500D01*
X0150000Y0102990D02*
Y0105000D01*
X0143000Y0102813D02*
Y0104000D01*
X0115750D02*
Y0104132D01*
X0146709Y0119291D02*
X0148500Y0117500D01*
X0153000Y0119500D02*
X0155500Y0117000D01*
X0148500Y0121000D02*
X0150000Y0119500D01*
X0153000D01*
X0151687Y0117500D02*
X0155138Y0114049D01*
X0148500Y0117500D02*
X0151687D01*
X0156868Y0112187D02*
X0157000D01*
X0155138Y0113918D02*
X0156868Y0112187D01*
X0155138Y0113918D02*
Y0114049D01*
X0155500Y0117000D02*
X0166000D01*
X0165209Y0118709D02*
X0177791Y0131291D01*
X0156791Y0118709D02*
X0165209D01*
X0152500Y0123000D02*
X0156791Y0118709D01*
X0166000Y0117000D02*
X0179500Y0130500D01*
X0157000Y0112187D02*
X0163687D01*
X0181291Y0129791D01*
X0173000Y0118500D02*
X0183000Y0128500D01*
Y0160416D01*
X0177791Y0131291D02*
Y0158209D01*
X0179500Y0130500D02*
Y0159000D01*
X0181291Y0129791D02*
Y0159709D01*
X0173000Y0116500D02*
Y0118500D01*
X0185791Y0196709D02*
X0198791Y0183709D01*
X0187500Y0197416D02*
X0200500Y0184416D01*
X0185791Y0196709D02*
Y0196709D01*
X0185500Y0197000D02*
Y0222000D01*
Y0197000D02*
X0185791Y0196709D01*
X0172500Y0235000D02*
X0185500Y0222000D01*
X0187500Y0197416D02*
Y0222500D01*
X0165000Y0245000D02*
X0187500Y0222500D01*
X0078500Y0018000D02*
X0086500D01*
X0065500Y0031000D02*
Y0053500D01*
Y0031000D02*
X0078500Y0018000D01*
X0089500Y0021000D02*
Y0030000D01*
X0092831Y0033331D01*
X0086500Y0018000D02*
X0089500Y0021000D01*
X0065500Y0053500D02*
X0067500Y0055500D01*
X0173813Y0169603D02*
X0183000Y0160416D01*
X0173813Y0169603D02*
Y0174000D01*
X0273939Y0107305D02*
Y0115813D01*
X0200000Y0112500D02*
Y0112687D01*
X0158000Y0235000D02*
X0172500D01*
X0203687Y0197000D02*
X0212500D01*
X0203687Y0207000D02*
X0212500D01*
X0158000Y0245000D02*
X0165000D01*
X0167500Y0173500D02*
X0181291Y0159709D01*
X0146709Y0119291D02*
Y0123791D01*
X0148500Y0121000D02*
Y0127297D01*
X0165500Y0173000D02*
X0179500Y0159000D01*
X0163709Y0172291D02*
X0177791Y0158209D01*
X0167500Y0173500D02*
Y0202791D01*
X0165500Y0173000D02*
Y0198076D01*
X0163709Y0172291D02*
Y0193152D01*
X0162000Y0171500D02*
Y0188146D01*
X0168500Y0159500D02*
Y0165000D01*
X0165000Y0127000D02*
Y0144224D01*
X0162000Y0171500D02*
X0168500Y0165000D01*
X0155500Y0214791D02*
X0167500Y0202791D01*
X0155500Y0181215D02*
X0158500Y0178215D01*
X0155500Y0201361D02*
X0163709Y0193152D01*
X0155500Y0208076D02*
X0165500Y0198076D01*
X0160209Y0161291D02*
Y0183222D01*
X0158500Y0154400D02*
Y0178215D01*
X0155500Y0194646D02*
X0162000Y0188146D01*
X0155500Y0187930D02*
X0160209Y0183222D01*
X0168038Y0140149D02*
X0174187Y0134000D01*
X0168000Y0142000D02*
X0168038Y0141962D01*
Y0140149D02*
Y0141962D01*
X0163137Y0125137D02*
X0165000Y0127000D01*
X0143000Y0127500D02*
X0146709Y0123791D01*
X0147000Y0128797D02*
X0148500Y0127297D01*
X0147000Y0128797D02*
Y0134000D01*
X0143000Y0127500D02*
Y0132458D01*
X0137868Y0129888D02*
X0145000Y0122756D01*
Y0117187D02*
Y0122756D01*
Y0117187D02*
X0150000Y0112187D01*
X0135789Y0139669D02*
X0143000Y0132458D01*
X0162813Y0147500D02*
X0164500Y0149187D01*
X0166500Y0145724D02*
Y0157500D01*
X0168500Y0159500D01*
X0165000Y0144224D02*
X0166500Y0145724D01*
X0170000Y0147500D02*
X0172187D01*
X0162000Y0138857D02*
Y0146687D01*
X0157123Y0133980D02*
X0162000Y0138857D01*
Y0146687D02*
X0162813Y0147500D01*
X0160209Y0161291D02*
X0164500Y0157000D01*
Y0149187D02*
Y0157000D01*
X0160141Y0125137D02*
X0163137D01*
X0159202Y0124199D02*
X0160141Y0125137D01*
X0158500Y0154400D02*
X0160213D01*
X0158500Y0150500D02*
Y0154400D01*
X0160213D02*
X0160813Y0155000D01*
X0155551Y0147551D02*
X0158500Y0150500D01*
X0155551Y0144270D02*
Y0147551D01*
X0155044Y0143762D02*
X0155551Y0144270D01*
X0164687Y0162500D02*
X0165000D01*
X0155500Y0158500D02*
Y0174500D01*
Y0156477D02*
Y0158500D01*
X0152965Y0153941D02*
X0155500Y0156477D01*
X0152965Y0153543D02*
Y0153941D01*
X0070500Y0081500D02*
Y0115000D01*
X0096500Y0123650D02*
Y0125687D01*
X0094063Y0128124D02*
X0096500Y0125687D01*
Y0123650D02*
X0099900Y0120250D01*
X0092632Y0129687D02*
X0094063Y0128255D01*
Y0128124D02*
Y0128255D01*
X0099900Y0120250D02*
X0100656D01*
X0102406Y0122000D01*
X0109000D01*
X0125187Y0119000D02*
X0131000D01*
X0115750Y0104132D02*
X0117481Y0105862D01*
X0121000Y0109250D02*
Y0111407D01*
X0117481Y0105862D02*
X0117612D01*
X0121000Y0109250D01*
Y0111407D02*
Y0115500D01*
X0121093Y0111500D02*
X0125187D01*
X0121000Y0111407D02*
X0121093Y0111500D01*
X0106000D02*
X0115813D01*
X0102500Y0115000D02*
X0106000Y0111500D01*
X0080118Y0120500D02*
X0080493Y0120125D01*
X0086375D01*
X0076500Y0123856D02*
Y0126187D01*
X0139947Y0119080D02*
X0143000Y0116027D01*
Y0112187D02*
Y0116027D01*
X0139947Y0119080D02*
Y0120106D01*
X0285000Y0107343D02*
Y0115813D01*
X0284902Y0107244D02*
X0285000Y0107343D01*
X0115813Y0119000D02*
X0117064Y0120251D01*
X0118438D02*
X0123624Y0125437D01*
X0117064Y0120251D02*
X0118438D01*
X0123624Y0125437D02*
X0123755D01*
X0125187Y0126868D01*
Y0127000D01*
X0124740Y0136153D02*
X0124964Y0135930D01*
Y0127223D02*
Y0135930D01*
Y0127223D02*
X0125187Y0127000D01*
X0091914Y0115000D02*
X0102500D01*
X0092500Y0115586D02*
Y0120313D01*
X0091914Y0115000D02*
X0092500Y0115586D01*
X0078707Y0115000D02*
X0091914D01*
X0073394Y0120313D02*
X0078707Y0115000D01*
X0073000Y0120313D02*
X0073394D01*
X0073000Y0129687D02*
X0076500Y0126187D01*
Y0123856D02*
X0080106Y0120250D01*
X0070500Y0081500D02*
X0073000Y0079000D01*
X0092500Y0129687D02*
X0092632D01*
X0080106Y0120250D02*
X0080500D01*
X0075523Y0052477D02*
X0079318D01*
X0072500Y0055500D02*
X0075523Y0052477D01*
X0067500Y0055500D02*
X0072500D01*
X0079318Y0052477D02*
X0079606Y0052189D01*
X0070000Y0060687D02*
X0070656D01*
X0075147Y0056196D01*
X0079537D01*
X0079590Y0056142D01*
X0107500Y0064000D02*
X0110656Y0060843D01*
X0074500Y0061000D02*
Y0071052D01*
X0079505Y0060164D02*
X0079606Y0060063D01*
X0074500Y0061000D02*
X0075336Y0060164D01*
X0079505D01*
X0076313Y0072865D02*
Y0073500D01*
X0074500Y0071052D02*
X0076313Y0072865D01*
X0092831Y0033331D02*
Y0037417D01*
X0092921Y0037508D01*
X0102622Y0064000D02*
X0107500D01*
X0103187Y0083500D02*
Y0092813D01*
X0099701Y0096299D02*
X0103187Y0092813D01*
X0088724Y0096299D02*
X0099701D01*
X0076313Y0083500D02*
Y0094911D01*
X0077701Y0096299D01*
X0081000Y0064500D02*
Y0076500D01*
X0073000Y0079000D02*
X0078500D01*
X0081000Y0076500D01*
X0079606Y0064000D02*
X0080500D01*
X0081000Y0064500D01*
X0085047Y0037508D02*
Y0045047D01*
Y0032453D02*
Y0037508D01*
X0086000Y0031500D02*
X0088292D01*
X0085047Y0032453D02*
X0086000Y0031500D01*
X0088984Y0032192D02*
Y0037508D01*
X0088292Y0031500D02*
X0088984Y0032192D01*
X0090953Y0045000D02*
X0095500D01*
X0097126Y0046626D02*
Y0047842D01*
X0095500Y0045000D02*
X0097126Y0046626D01*
X0094000Y0047000D02*
X0095445Y0048445D01*
Y0050445D01*
X0087000Y0047000D02*
X0094000D01*
X0097126Y0047842D02*
X0097535Y0048252D01*
X0096780Y0051780D02*
X0099669D01*
X0095445Y0050445D02*
X0096780Y0051780D01*
X0085047Y0045047D02*
X0087000Y0047000D01*
X0099669Y0051780D02*
X0100079Y0052189D01*
X0087016Y0044308D02*
X0087708Y0045000D01*
X0090953D01*
X0087016Y0037508D02*
Y0044308D01*
X0081110Y0037508D02*
Y0047842D01*
X0080701Y0048252D02*
X0081110Y0047842D01*
X0079606Y0048252D02*
X0080701D01*
X0090953Y0044953D02*
X0091000Y0045000D01*
X0090953Y0037508D02*
Y0044953D01*
X0097535Y0048252D02*
X0100079D01*
X0252740Y0129866D02*
Y0130457D01*
X0252964Y0123223D02*
Y0129866D01*
X0237187Y0131687D02*
X0240000Y0134500D01*
X0237187Y0123000D02*
Y0131687D01*
X0240000Y0134500D02*
X0248697D01*
X0252740Y0130457D01*
X0252964Y0123223D02*
X0253187Y0123000D01*
D18*
X0072084Y0040051D02*
X0075221D01*
X0070135Y0042000D02*
X0072084Y0040051D01*
X0070000Y0042000D02*
X0070135D01*
X0075402Y0037508D02*
Y0039870D01*
X0075221Y0040051D02*
X0075402Y0039870D01*
X0106693Y0039807D02*
X0111500Y0035000D01*
X0100598Y0037508D02*
Y0039626D01*
X0100779Y0039807D01*
X0106693D01*
X0200000Y0144500D02*
X0200404Y0144096D01*
X0203904D01*
X0204000Y0144000D01*
X0207500Y0112624D02*
X0216376D01*
X0182687Y0174000D02*
Y0181000D01*
X0182503Y0181184D02*
Y0188548D01*
X0182319Y0188732D02*
X0182503Y0188548D01*
Y0181184D02*
X0182687Y0181000D01*
X0178500Y0112681D02*
Y0119500D01*
X0128680Y0144421D02*
X0133710Y0149451D01*
X0121000Y0144421D02*
X0128680D01*
X0249000Y0138634D02*
Y0145961D01*
X0249000Y0145961D01*
D23*
X0207500Y0103250D02*
D03*
Y0112624D02*
D03*
X0200000Y0103313D02*
D03*
Y0112687D02*
D03*
X0274000Y0115813D02*
D03*
Y0125187D02*
D03*
X0285000Y0115813D02*
D03*
Y0125187D02*
D03*
X0070000Y0051313D02*
D03*
Y0060687D02*
D03*
X0287500Y0043250D02*
D03*
Y0052624D02*
D03*
X0237500Y0043250D02*
D03*
Y0052624D02*
D03*
X0247500Y0043250D02*
D03*
Y0052624D02*
D03*
X0197500Y0043250D02*
D03*
Y0052624D02*
D03*
X0175500Y0040687D02*
D03*
Y0031313D02*
D03*
X0183000Y0040687D02*
D03*
Y0031313D02*
D03*
X0136500Y0064250D02*
D03*
Y0054876D02*
D03*
X0110500Y0060687D02*
D03*
Y0051313D02*
D03*
X0119500D02*
D03*
Y0060687D02*
D03*
X0092500Y0129687D02*
D03*
Y0120313D02*
D03*
X0100000Y0129624D02*
D03*
Y0120250D02*
D03*
X0215000Y0155876D02*
D03*
Y0165250D02*
D03*
X0207500Y0155876D02*
D03*
Y0165250D02*
D03*
X0190000Y0172876D02*
D03*
Y0182250D02*
D03*
X0178500Y0112681D02*
D03*
Y0103307D02*
D03*
X0169500Y0225124D02*
D03*
Y0215750D02*
D03*
X0157000Y0103813D02*
D03*
Y0113187D02*
D03*
X0150000Y0103813D02*
D03*
Y0113187D02*
D03*
X0143000Y0103813D02*
D03*
Y0113187D02*
D03*
X0073000Y0129687D02*
D03*
Y0120313D02*
D03*
X0080500Y0129624D02*
D03*
Y0120250D02*
D03*
X0148000Y0031313D02*
D03*
Y0040687D02*
D03*
X0155500Y0031313D02*
D03*
Y0040687D02*
D03*
D25*
X0093750Y0073500D02*
D03*
X0103124D02*
D03*
X0103187Y0085000D02*
D03*
X0093813D02*
D03*
X0183750Y0081500D02*
D03*
X0174376D02*
D03*
X0237187Y0123000D02*
D03*
X0227813D02*
D03*
X0253187D02*
D03*
X0243813D02*
D03*
X0076313Y0085000D02*
D03*
X0085687D02*
D03*
Y0073500D02*
D03*
X0076313D02*
D03*
X0156750Y0081500D02*
D03*
X0147376D02*
D03*
X0125187Y0127000D02*
D03*
X0115813D02*
D03*
Y0119000D02*
D03*
X0125187D02*
D03*
Y0111500D02*
D03*
X0115813D02*
D03*
X0125124Y0104000D02*
D03*
X0115750D02*
D03*
X0155313Y0162500D02*
D03*
X0164687D02*
D03*
X0160813Y0155000D02*
D03*
X0170187D02*
D03*
X0162813Y0147500D02*
D03*
X0172187D02*
D03*
X0164813Y0134000D02*
D03*
X0174187D02*
D03*
X0182687Y0174000D02*
D03*
X0173313D02*
D03*
X0182687Y0181000D02*
D03*
X0173313D02*
D03*
X0203687Y0197000D02*
D03*
X0194313D02*
D03*
X0203687Y0207000D02*
D03*
X0194313D02*
D03*
D64*
X0191500Y0199813D02*
Y0253500D01*
X0200000Y0141500D02*
Y0144500D01*
Y0156250D01*
Y0141500D02*
X0216500Y0125000D01*
X0200000Y0156250D02*
Y0168000D01*
X0204500Y0172500D01*
X0190000Y0123787D02*
X0191213Y0125000D01*
X0178894Y0112681D02*
X0189106Y0122894D01*
X0216500Y0112500D02*
Y0125000D01*
Y0108000D02*
Y0112500D01*
X0191213Y0125000D02*
X0216500D01*
X0229000Y0089500D02*
Y0095500D01*
X0216500Y0108000D02*
X0229000Y0095500D01*
Y0089500D02*
X0237000Y0081500D01*
X0209313Y0322813D02*
Y0348496D01*
X0176564Y0024756D02*
X0190982D01*
X0193738Y0022000D02*
X0194500D01*
X0190982Y0024756D02*
X0193738Y0022000D01*
X0173276D02*
X0173808D01*
X0176564Y0024756D01*
X0191500Y0199813D02*
X0194313Y0197000D01*
X0191500Y0253500D02*
X0200500Y0262500D01*
X0204500Y0177000D02*
Y0186813D01*
Y0172500D02*
Y0177000D01*
X0212500D01*
X0194313Y0197000D02*
X0204500Y0186813D01*
X0200500Y0314000D02*
X0209313Y0322813D01*
X0200500Y0262500D02*
Y0314000D01*
X0254646Y0081500D02*
X0265728Y0070417D01*
X0267500D01*
X0237000Y0081500D02*
X0254646D01*
X0209500Y0079000D02*
X0226694D01*
X0229000Y0076694D01*
Y0070000D02*
Y0076694D01*
X0205500Y0075000D02*
X0209500Y0079000D01*
X0205500Y0068000D02*
Y0075000D01*
X0273878Y0107244D02*
X0273939Y0107305D01*
Y0115813D02*
X0274000D01*
X0121394Y0052813D02*
X0128500D01*
X0119894Y0051313D02*
X0121394Y0052813D01*
X0119500Y0051313D02*
X0119894D01*
X0255689Y0050339D02*
X0258445D01*
Y0047583D02*
Y0050339D01*
X0253403Y0052624D02*
X0255689Y0050339D01*
X0247500Y0052624D02*
X0253403D01*
X0247500Y0060313D02*
Y0063513D01*
Y0052624D02*
Y0060313D01*
X0244013Y0067000D02*
X0247500Y0063513D01*
X0232000Y0067000D02*
X0244013D01*
X0229000Y0070000D02*
X0232000Y0067000D01*
X0197500Y0060000D02*
X0205500Y0068000D01*
X0197500Y0052624D02*
Y0060000D01*
X0287500Y0052624D02*
Y0060313D01*
X0267500Y0061000D02*
Y0070417D01*
Y0047583D02*
Y0061000D01*
X0268187Y0060313D02*
X0287500D01*
X0267500Y0061000D02*
X0268187Y0060313D01*
X0237500Y0052624D02*
Y0060313D01*
X0217500Y0060000D02*
Y0070335D01*
Y0047500D02*
Y0060000D01*
X0217813Y0060313D02*
X0237500D01*
X0217500Y0060000D02*
X0217813Y0060313D01*
X0198472Y0052626D02*
X0206139D01*
X0198470Y0052624D02*
X0198472Y0052626D01*
X0197500Y0052624D02*
X0198470D01*
X0208445Y0047500D02*
Y0050320D01*
X0206139Y0052626D02*
X0208445Y0050320D01*
D65*
X0158062Y0225062D02*
X0170438D01*
X0190000Y0172876D02*
X0190394D01*
X0188622Y0170787D02*
Y0171892D01*
X0182667Y0164833D02*
X0188622Y0170787D01*
X0190394Y0172876D02*
X0196000Y0178482D01*
Y0183000D01*
X0183000Y0196000D02*
X0196000Y0183000D01*
X0178876Y0225124D02*
X0183000Y0221000D01*
X0170500Y0225124D02*
X0178876D01*
X0183000Y0196000D02*
Y0221000D01*
X0158000Y0225000D02*
X0158062Y0225062D01*
X0170438D02*
X0170500Y0225124D01*
X0176610Y0198969D02*
X0178185D01*
X0178579Y0197000D02*
Y0198575D01*
X0174000Y0201500D02*
X0174079D01*
X0178185Y0198969D02*
X0178579Y0198575D01*
X0174079Y0201500D02*
X0176610Y0198969D01*
X0082000Y0027500D02*
Y0030378D01*
X0078748Y0033630D02*
X0082000Y0030378D01*
X0095000Y0027500D02*
Y0031151D01*
X0078748Y0033630D02*
Y0037311D01*
X0095000Y0031151D02*
X0097252Y0033403D01*
X0078551Y0037508D02*
X0078748Y0037311D01*
X0070590Y0047910D02*
Y0050723D01*
X0070000Y0051313D02*
X0070590Y0050723D01*
X0074000Y0044500D02*
X0077000D01*
X0070590Y0047910D02*
X0074000Y0044500D01*
X0078551Y0037508D02*
Y0042949D01*
X0077000Y0044500D02*
X0078551Y0042949D01*
X0108000Y0044500D02*
X0110500Y0047000D01*
Y0051313D01*
X0099000Y0044500D02*
X0108000D01*
X0100079Y0064000D02*
X0102622D01*
X0100079D02*
Y0070061D01*
X0103124Y0073106D01*
Y0073500D01*
X0097449Y0037508D02*
X0097646Y0037705D01*
X0097252Y0037311D02*
X0097449Y0037508D01*
X0079590Y0056142D02*
X0079606Y0056126D01*
X0097646Y0037705D02*
Y0043146D01*
X0099000Y0044500D01*
X0097252Y0033403D02*
Y0037311D01*
D66*
X0165575Y0031313D02*
Y0055071D01*
Y0031313D02*
X0168813D01*
X0155500D02*
X0165575D01*
X0148000D02*
X0155500D01*
X0176500Y0058000D02*
X0180500D01*
X0162646D02*
X0176500D01*
X0162646D02*
X0165575Y0055071D01*
X0154000Y0058000D02*
X0162646D01*
X0148500D02*
X0154000D01*
X0141431D02*
X0148500D01*
X0136500Y0053069D02*
X0141431Y0058000D01*
X0128756Y0053069D02*
X0136500D01*
X0165575Y0022173D02*
Y0028075D01*
X0168813Y0031313D01*
X0208447Y0039447D02*
Y0047498D01*
X0183000Y0031313D02*
X0200313D01*
X0208447Y0039447D01*
X0208445Y0047500D02*
X0208447Y0047498D01*
X0175500Y0031313D02*
X0183000D01*
X0168813D02*
X0175500D01*
X0165402Y0022000D02*
X0165575Y0022173D01*
X0165402Y0012157D02*
Y0022000D01*
X0173276Y0012157D02*
Y0022000D01*
D68*
X0335260Y0274000D02*
D03*
X0346087Y0274000D02*
D03*
Y0294000D02*
D03*
X0335260Y0294000D02*
D03*
X0229260Y0317500D02*
D03*
X0240087Y0317500D02*
D03*
Y0337500D02*
D03*
X0229260Y0337500D02*
D03*
X0175913Y0323500D02*
D03*
X0186740Y0323500D02*
D03*
Y0343500D02*
D03*
X0175913Y0343500D02*
D03*
X0122760Y0319500D02*
D03*
X0133587Y0319500D02*
D03*
Y0339500D02*
D03*
X0122760Y0339500D02*
D03*
X0069760Y0304000D02*
D03*
X0080587Y0304000D02*
D03*
Y0324000D02*
D03*
X0069760Y0324000D02*
D03*
X0016413Y0274000D02*
D03*
X0027240Y0274000D02*
D03*
Y0294000D02*
D03*
X0016413Y0294000D02*
D03*
X0282260Y0302000D02*
D03*
X0293087Y0302000D02*
D03*
Y0322000D02*
D03*
X0282260Y0322000D02*
D03*
X0191500Y0289760D02*
D03*
X0191500Y0300587D02*
D03*
X0171500D02*
D03*
X0171500Y0289760D02*
D03*
D69*
X0351500Y0284000D02*
D03*
X0329846Y0284000D02*
D03*
X0245500Y0327500D02*
D03*
X0223846Y0327500D02*
D03*
X0192154Y0333500D02*
D03*
X0170500Y0333500D02*
D03*
X0139000Y0329500D02*
D03*
X0117346Y0329500D02*
D03*
X0086000Y0314000D02*
D03*
X0064346Y0314000D02*
D03*
X0032653Y0284000D02*
D03*
X0011000Y0284000D02*
D03*
X0298500Y0312000D02*
D03*
X0276846Y0312000D02*
D03*
X0118100Y0023502D02*
D03*
Y0093102D02*
D03*
X0245100Y0022102D02*
D03*
X0245100Y0091702D02*
D03*
X0181500Y0284346D02*
D03*
X0181500Y0306000D02*
D03*
D70*
X0331028Y0265693D02*
D03*
X0225028Y0309193D02*
D03*
X0171681Y0315193D02*
D03*
X0118528Y0311193D02*
D03*
X0065528Y0295693D02*
D03*
X0012181Y0265693D02*
D03*
X0278028Y0293693D02*
D03*
X0163193Y0285528D02*
D03*
D71*
X0077701Y0096299D02*
D03*
X0284902Y0107244D02*
D03*
D72*
X0077701Y0106142D02*
D03*
X0088724D02*
D03*
Y0096299D02*
D03*
X0284902Y0097402D02*
D03*
X0273878D02*
D03*
Y0107244D02*
D03*
D73*
X0249000Y0145961D02*
D03*
D74*
Y0116039D02*
D03*
D75*
X0181543Y0017079D02*
D03*
D76*
X0173276Y0012157D02*
D03*
X0165402D02*
D03*
X0173276Y0022000D02*
D03*
X0165402D02*
D03*
X0157528Y0012157D02*
D03*
Y0022000D02*
D03*
X0135789Y0139669D02*
D03*
X0137868Y0129888D02*
D03*
X0139947Y0120106D02*
D03*
X0159202Y0124199D02*
D03*
X0157123Y0133980D02*
D03*
X0155044Y0143762D02*
D03*
X0152965Y0153543D02*
D03*
D77*
X0149260Y0017079D02*
D03*
D78*
X0204500Y0022000D02*
D03*
D79*
X0194500D02*
D03*
D80*
X0159500Y0091429D02*
D03*
X0144900D02*
D03*
X0203700Y0091702D02*
D03*
X0217900Y0091702D02*
D03*
D81*
X0076583Y0031799D02*
D03*
D82*
X0099417D02*
D03*
D83*
X0105028Y0033768D02*
D03*
X0070972D02*
D03*
D84*
Y0017232D02*
D03*
X0105028D02*
D03*
D85*
X0212500Y0247000D02*
D03*
Y0237000D02*
D03*
Y0227000D02*
D03*
Y0217000D02*
D03*
Y0207000D02*
D03*
Y0197000D02*
D03*
Y0187000D02*
D03*
Y0177000D02*
D03*
D86*
X0133710Y0149451D02*
D03*
D87*
X0158000Y0255000D02*
D03*
Y0245000D02*
D03*
Y0235000D02*
D03*
Y0225000D02*
D03*
D88*
X0262000Y0096500D02*
D03*
X0266000D02*
D03*
X0264000Y0093000D02*
D03*
X0178000Y0174000D02*
D03*
X0109000Y0067500D02*
D03*
X0090000D02*
D03*
X0135500Y0091000D02*
D03*
X0128500Y0098000D02*
D03*
X0214000Y0034500D02*
D03*
X0127500Y0011000D02*
D03*
X0116000D02*
D03*
X0067000Y0024000D02*
D03*
X0097500Y0136500D02*
D03*
X0139000Y0048000D02*
D03*
X0221000Y0132500D02*
D03*
X0228000Y0109500D02*
D03*
X0221000Y0142000D02*
D03*
X0113000Y0083500D02*
D03*
X0089500Y0079500D02*
D03*
X0098000Y0106000D02*
D03*
X0067500Y0067500D02*
D03*
X0070000Y0042000D02*
D03*
X0095500Y0014000D02*
D03*
X0088500D02*
D03*
X0081500D02*
D03*
X0134500Y0021000D02*
D03*
X0132500Y0017500D02*
D03*
X0136500D02*
D03*
X0111500Y0035000D02*
D03*
X0118500D02*
D03*
X0125500D02*
D03*
X0169500Y0090500D02*
D03*
X0173000Y0108000D02*
D03*
X0111500Y0145000D02*
D03*
X0095500Y0142000D02*
D03*
X0078000Y0138000D02*
D03*
X0110063Y0127750D02*
D03*
X0146000Y0143000D02*
D03*
X0131368Y0129888D02*
D03*
X0135500Y0113000D02*
D03*
X0131500Y0103000D02*
D03*
X0111500Y0075000D02*
D03*
X0118000D02*
D03*
X0124500D02*
D03*
X0135500Y0073500D02*
D03*
Y0079500D02*
D03*
Y0085500D02*
D03*
X0196000Y0097500D02*
D03*
X0166000Y0070000D02*
D03*
Y0076000D02*
D03*
Y0082000D02*
D03*
X0191000Y0039500D02*
D03*
Y0056000D02*
D03*
X0209500Y0059000D02*
D03*
X0232500Y0037500D02*
D03*
X0243500D02*
D03*
X0254500D02*
D03*
X0265500D02*
D03*
X0276500D02*
D03*
X0258000Y0058500D02*
D03*
X0254500Y0066500D02*
D03*
X0218000Y0024000D02*
D03*
X0225000D02*
D03*
X0222000Y0016500D02*
D03*
X0287500D02*
D03*
X0280500D02*
D03*
X0273500D02*
D03*
X0266500D02*
D03*
X0290500Y0024000D02*
D03*
X0283500D02*
D03*
X0276500D02*
D03*
X0269500D02*
D03*
X0262500D02*
D03*
X0279500Y0067000D02*
D03*
Y0072500D02*
D03*
Y0078000D02*
D03*
X0272500Y0089000D02*
D03*
X0278000D02*
D03*
X0283000D02*
D03*
X0263500Y0083000D02*
D03*
X0265500Y0086500D02*
D03*
X0261500D02*
D03*
X0240000Y0149000D02*
D03*
X0235500Y0150000D02*
D03*
X0231000Y0151000D02*
D03*
X0226500Y0152000D02*
D03*
X0233000Y0141000D02*
D03*
X0237000Y0137000D02*
D03*
X0233000D02*
D03*
X0237000Y0141000D02*
D03*
X0241000Y0111000D02*
D03*
X0237000D02*
D03*
X0239000Y0114500D02*
D03*
X0266000Y0111500D02*
D03*
X0262000D02*
D03*
X0264000Y0115000D02*
D03*
X0258000Y0140000D02*
D03*
X0262000D02*
D03*
X0260000Y0136500D02*
D03*
X0271500D02*
D03*
X0273500Y0140000D02*
D03*
X0269500D02*
D03*
X0263500Y0103000D02*
D03*
X0258500D02*
D03*
X0253500D02*
D03*
X0248500D02*
D03*
X0243500D02*
D03*
X0238500D02*
D03*
X0233500D02*
D03*
X0228500D02*
D03*
X0214000Y0102500D02*
D03*
X0147000Y0155000D02*
D03*
X0144500Y0151500D02*
D03*
X0140000D02*
D03*
X0201000Y0134500D02*
D03*
X0197500Y0222500D02*
D03*
Y0234000D02*
D03*
X0174000Y0220000D02*
D03*
Y0215500D02*
D03*
Y0211000D02*
D03*
Y0206500D02*
D03*
X0165500Y0278500D02*
D03*
X0155344Y0346533D02*
D03*
X0202000Y0351500D02*
D03*
X0202500Y0344000D02*
D03*
X0216500Y0318000D02*
D03*
X0155000Y0322500D02*
D03*
X0186000Y0139500D02*
D03*
Y0145500D02*
D03*
X0171500Y0232000D02*
D03*
Y0244500D02*
D03*
X0201500Y0216500D02*
D03*
Y0228000D02*
D03*
Y0239500D02*
D03*
X0248000Y0311000D02*
D03*
X0258500Y0297500D02*
D03*
X0208500Y0257500D02*
D03*
Y0268000D02*
D03*
Y0278000D02*
D03*
Y0287500D02*
D03*
Y0297000D02*
D03*
X0186000Y0252500D02*
D03*
X0167000Y0272500D02*
D03*
X0192000Y0279000D02*
D03*
X0181500Y0295500D02*
D03*
X0171000Y0280000D02*
D03*
X0148000Y0312000D02*
D03*
X0155000D02*
D03*
X0107000Y0311500D02*
D03*
Y0323000D02*
D03*
Y0335000D02*
D03*
X0341000Y0284500D02*
D03*
X0234500Y0327500D02*
D03*
X0182000Y0333500D02*
D03*
X0128500Y0329500D02*
D03*
X0075500Y0314000D02*
D03*
X0022500Y0284500D02*
D03*
X0017500Y0306000D02*
D03*
X0050000Y0274500D02*
D03*
X0037500Y0267000D02*
D03*
X0026000Y0260500D02*
D03*
X0016000Y0255500D02*
D03*
X0054500Y0290000D02*
D03*
X0055000Y0301500D02*
D03*
X0053000Y0311000D02*
D03*
X0289000Y0330500D02*
D03*
X0339000Y0314500D02*
D03*
X0327500Y0304000D02*
D03*
X0349500Y0254500D02*
D03*
X0353500Y0262000D02*
D03*
X0344500D02*
D03*
X0299000Y0281500D02*
D03*
X0290000Y0285000D02*
D03*
X0312000D02*
D03*
X0262000Y0310500D02*
D03*
X0268500Y0322000D02*
D03*
X0264000Y0332500D02*
D03*
X0275500Y0333000D02*
D03*
X0288000Y0312000D02*
D03*
X0205000Y0148500D02*
D03*
X0204000Y0144000D02*
D03*
X0194500Y0134500D02*
D03*
X0197500Y0131000D02*
D03*
X0209000Y0117500D02*
D03*
X0119500Y0066500D02*
D03*
X0211000Y0121000D02*
D03*
X0157000Y0106500D02*
D03*
X0150000Y0105000D02*
D03*
X0143000Y0104000D02*
D03*
X0182667Y0164833D02*
D03*
X0174000Y0201500D02*
D03*
X0099000Y0027500D02*
D03*
X0097000Y0024000D02*
D03*
X0095000Y0027500D02*
D03*
X0093000Y0024000D02*
D03*
X0086000Y0027500D02*
D03*
X0084000Y0024000D02*
D03*
X0082000Y0027500D02*
D03*
X0080000Y0024000D02*
D03*
X0078000Y0027500D02*
D03*
X0155500Y0040500D02*
D03*
X0183000Y0040687D02*
D03*
X0175500D02*
D03*
X0148000D02*
D03*
X0213687Y0339004D02*
D03*
X0214004Y0343813D02*
D03*
X0214000Y0348500D02*
D03*
X0209313Y0348496D02*
D03*
X0219000Y0145500D02*
D03*
X0200000Y0112500D02*
D03*
X0178500Y0119500D02*
D03*
X0173000Y0116500D02*
D03*
X0152500Y0123000D02*
D03*
X0147000Y0134000D02*
D03*
X0170000Y0147500D02*
D03*
X0168000Y0142000D02*
D03*
X0170187Y0155000D02*
D03*
X0165000Y0162500D02*
D03*
X0155500Y0174500D02*
D03*
X0070500Y0115000D02*
D03*
X0131000Y0119000D02*
D03*
X0121000Y0115500D02*
D03*
X0109000Y0122000D02*
D03*
X0086375Y0120125D02*
D03*
X0155500Y0214791D02*
D03*
Y0208076D02*
D03*
Y0201361D02*
D03*
Y0194646D02*
D03*
Y0187930D02*
D03*
Y0181215D02*
D03*
D89*
X0181500Y0266500D02*
D03*
D90*
X0079606Y0048252D02*
D03*
Y0052189D02*
D03*
Y0056126D02*
D03*
Y0060063D02*
D03*
Y0064000D02*
D03*
X0100079Y0048252D02*
D03*
Y0052189D02*
D03*
Y0056126D02*
D03*
Y0060063D02*
D03*
Y0064000D02*
D03*
D91*
X0186598Y0049461D02*
D03*
X0181598D02*
D03*
X0176598D02*
D03*
X0171598D02*
D03*
Y0071720D02*
D03*
X0176598D02*
D03*
X0181598D02*
D03*
X0186598D02*
D03*
X0159201Y0049461D02*
D03*
X0154201D02*
D03*
X0149201D02*
D03*
X0144201D02*
D03*
Y0071720D02*
D03*
X0149201D02*
D03*
X0154201D02*
D03*
X0159201D02*
D03*
D92*
X0249000Y0139134D02*
D03*
X0252740Y0129866D02*
D03*
X0245260D02*
D03*
D93*
X0267500Y0070417D02*
D03*
X0217500Y0070335D02*
D03*
D94*
X0258445Y0047583D02*
D03*
X0267500D02*
D03*
X0276555D02*
D03*
X0208445Y0047500D02*
D03*
X0217500D02*
D03*
X0226555D02*
D03*
D95*
X0197500Y0073937D02*
D03*
Y0060313D02*
D03*
X0128500Y0066437D02*
D03*
Y0052813D02*
D03*
X0287500Y0060313D02*
D03*
Y0073937D02*
D03*
X0247500Y0060313D02*
D03*
Y0073937D02*
D03*
X0237500Y0060313D02*
D03*
Y0073937D02*
D03*
D96*
X0124740Y0136153D02*
D03*
X0117260Y0136153D02*
D03*
X0121000Y0144421D02*
D03*
X0182319Y0188732D02*
D03*
X0174839Y0188732D02*
D03*
X0178579Y0197000D02*
D03*
D97*
X0097449Y0037508D02*
D03*
X0100598D02*
D03*
X0075402D02*
D03*
X0078551D02*
D03*
D98*
X0094890Y0037795D02*
D03*
X0092921Y0037508D02*
D03*
X0090953D02*
D03*
X0081110Y0037795D02*
D03*
X0083079Y0037508D02*
D03*
X0085047D02*
D03*
X0087016D02*
D03*
X0088984D02*
D03*
D99*
X0200000Y0156250D02*
X0200374Y0155876D01*
X0207500D01*
X0190000Y0123787D02*
Y0172876D01*
X0207500Y0155876D02*
X0215000D01*
X0189106Y0122894D02*
X0190000Y0123787D01*
X0085687Y0085000D02*
X0093813D01*
X0287500Y0033000D02*
X0295000Y0040500D01*
X0217500Y0039500D02*
X0224000Y0033000D01*
X0287500D01*
X0267500Y0070417D02*
Y0079000D01*
X0286000Y0084500D02*
X0292500Y0091000D01*
X0274000Y0125187D02*
X0285000D01*
X0289694D02*
X0292500Y0122381D01*
Y0091000D02*
Y0122381D01*
X0285000Y0125187D02*
X0289694D01*
X0217500Y0039500D02*
Y0047500D01*
X0255539Y0116039D02*
X0269124Y0129624D01*
X0284624D01*
X0249000Y0116039D02*
X0255539D01*
X0284624Y0129624D02*
X0285000Y0130000D01*
X0293500D01*
X0297000Y0126500D01*
X0295000Y0083500D02*
X0297000Y0085500D01*
Y0126500D01*
X0295000Y0040500D02*
Y0083500D01*
X0273000Y0084500D02*
X0286000D01*
X0267500Y0079000D02*
X0273000Y0084500D01*
D100*
X0108500Y0079500D02*
X0124500D01*
X0099313D02*
X0108500D01*
X0135500Y0099500D02*
X0165500D01*
X0129000Y0093000D02*
X0135500Y0099500D01*
X0165500D02*
X0169000Y0096000D01*
X0184500D01*
X0196500Y0108000D01*
X0216500D01*
X0216500Y0108000D01*
X0216376Y0112624D02*
X0216500Y0112500D01*
X0129000Y0084000D02*
Y0093000D01*
X0124500Y0079500D02*
X0129000Y0084000D01*
X0095281Y0083532D02*
X0099313Y0079500D01*
X0093813Y0084733D02*
Y0085000D01*
Y0084733D02*
X0095014Y0083532D01*
X0095281D01*
D101*
X0144329Y0081500D02*
X0147376D01*
X0144329Y0092631D02*
X0144900Y0093202D01*
X0144329Y0071848D02*
Y0081500D01*
Y0092631D01*
X0159329Y0071848D02*
Y0081500D01*
X0159201Y0071720D02*
X0159329Y0071848D01*
Y0081500D02*
Y0092931D01*
X0186598Y0078598D02*
X0192000Y0084000D01*
X0183750Y0081500D02*
X0186625Y0078625D01*
X0210198Y0084000D02*
X0217900Y0091702D01*
X0192000Y0084000D02*
X0210198D01*
X0186598Y0071720D02*
Y0078598D01*
X0171598Y0071720D02*
Y0084671D01*
X0174376Y0081894D01*
X0171598Y0084671D02*
Y0085098D01*
X0174376Y0081500D02*
Y0081894D01*
X0171598Y0085098D02*
X0178202Y0091702D01*
X0203700D01*
X0159329Y0092931D02*
X0159500Y0093102D01*
X0144201Y0071720D02*
X0144329Y0071848D01*
D102*
X0155500Y0040500D02*
Y0040687D01*
X0155106D02*
X0155500D01*
X0154201Y0041986D02*
X0154516Y0041671D01*
Y0041278D02*
Y0041671D01*
Y0041278D02*
X0155106Y0040687D01*
X0154201Y0041986D02*
Y0049461D01*
X0176598Y0058098D02*
Y0071720D01*
X0176500Y0058000D02*
X0176598Y0058098D01*
X0180500Y0058000D02*
X0181598Y0059098D01*
Y0071720D01*
X0149201Y0058701D02*
Y0071720D01*
X0148500Y0058000D02*
X0149201Y0058701D01*
X0154201Y0058201D02*
Y0071720D01*
X0154000Y0058000D02*
X0154201Y0058201D01*
X0149201Y0041494D02*
Y0049461D01*
X0148394Y0040687D02*
X0149201Y0041494D01*
X0148000Y0040687D02*
X0148394D01*
X0182606D02*
X0183000D01*
X0181598Y0041695D02*
Y0049461D01*
Y0041695D02*
X0182606Y0040687D01*
X0175894D02*
X0176598Y0041392D01*
X0175500Y0040687D02*
X0175894D01*
X0176598Y0041392D02*
Y0049461D01*
D103*
X0089842Y0056126D02*
D03*
M02*
