M48
;Layer_Color=9474304
;FILE_FORMAT=2:4
INCH,LZ
;TYPE=PLATED
T1F00S00C0.0150
T3F00S00C0.0300
T4F00S00C0.0315
T5F00S00C0.0354
T6F00S00C0.0360
T7F00S00C0.0394
T9F00S00C0.0472
T10F00S00C0.0787
T11F00S00C0.1181
;TYPE=NON_PLATED
T12F00S00C0.0157
T13F00S00C0.0197
%
T01
X0067Y0024
X008
X0084
X0086Y00275
X0082
X0078
X00815Y0014
X00885
X00955
X0097Y0024
X0093
X0095Y00275
X0099
X01115Y0035
X01185
X01255
X01345Y0021
X01325Y00175
X01365
X01275Y0011
X0116
X01195Y00665
X0118Y0075
X01115
X0109Y00675
X009
X00895Y00795
X0113Y00835
X01245Y0075
X01355Y00735
Y00795
Y00855
Y0091
X01285Y0098
X01315Y0103
X0143Y0104
X015Y0105
X01525Y0123
X0147Y0134
X0146Y0143
X01445Y01515
X014
X0147Y0155
X013137Y012989
X0131Y0119
X01355Y0113
X0121Y01155
X0109Y0122
X011006Y012775
X01115Y0145
X00955Y0142
X00975Y01365
X0078Y0138
X008637Y012012
X00705Y0115
X0098Y0106
X00675Y00675
X007Y0042
X0139Y0048
X0148Y004069
X01555Y00405
X01755Y004069
X0183
X0191Y00395
Y0056
X02095Y0059
X0214Y00345
X0218Y0024
X0225
X0222Y00165
X02325Y00375
X02435
X02545
X02655
X02765
Y0024
X02835
X02905
X02875Y00165
X02805
X02735
X02665
X02695Y0024
X02625
X0258Y00585
X02545Y00665
X02795Y0067
Y00725
Y0078
X0278Y0089
X0283
X02725
X02655Y00865
X02615
X02635Y0083
X0264Y0093
X0262Y00965
X0266
X02635Y0103
X02585
X02535
X02485
X02435
X02385
X02335
X02285
X0228Y01095
X0237Y0111
X0241
X0239Y01145
X0237Y0137
X0233
Y0141
X0237
X02355Y015
X024Y0149
X0231Y0151
X02265Y0152
X0219Y01455
X0221Y0142
Y01325
X0211Y0121
X0209Y01175
X02Y01125
X0196Y00975
X0214Y01025
X0201Y01345
X01945
X01975Y0131
X0204Y0144
X0205Y01485
X0186Y01455
Y01395
X0168Y0142
X017Y01475
X017019Y0155
X0173Y01165
Y0108
X01785Y01195
X0157Y01065
X01695Y00905
X0166Y0082
Y0076
Y007
X0262Y01115
X0266
X0264Y0115
X026Y01365
X0258Y014
X0262
X02695
X02735
X02715Y01365
X03495Y02545
X03535Y0262
X03445
X0341Y02845
X03275Y0304
X0312Y0285
X0299Y02815
X029Y0285
X0288Y0312
X0262Y03105
X0248Y0311
X02585Y02975
X02085Y0297
Y02875
Y0278
Y0268
Y02575
X02015Y02395
X01975Y0234
X02015Y0228
X01975Y02225
X02015Y02165
X0174Y02155
Y022
Y0211
Y02065
Y02015
X0178Y0174
X018267Y016483
X0165Y01625
X01715Y0232
Y02445
X0186Y02525
X0192Y0279
X0171Y028
X01655Y02785
X0167Y02725
X01815Y02955
X0155Y0312
X0148
X0107Y03115
X0053Y0311
X0055Y03015
X00545Y029
X005Y02745
X00375Y0267
X0026Y02605
X0016Y02555
X00225Y02845
X00175Y0306
X01555Y021479
Y020808
Y020136
Y019465
Y018793
Y018122
Y01745
X0155Y03225
X015534Y034653
X01285Y03295
X0107Y0335
Y0323
X00755Y0314
X0182Y03335
X02025Y0344
X0202Y03515
X020931Y03485
X0214Y03485
X0214Y034381
X021369Y0339
X02165Y0318
X02345Y03275
X0264Y03325
X02755Y0333
X0289Y03305
X02685Y0322
X0339Y03145
T03
X008984Y005613
T04
X013995Y012011
X013787Y012989
X013579Y013967
X013371Y014945
X015296Y015354
X015504Y014376
X015712Y013398
X01592Y01242
X0249Y011604
Y014596
X017328Y0022
X01654
X015753
Y001216
X01654
X017328
T05
X01945Y0022
X02045
T06
X0158Y0225
Y0235
Y0245
Y0255
T07
X00777Y00963
X00777Y010614
X008872
Y00963
X027388Y00974
Y010724
X02849
X02849Y00974
X033103Y026569
X033526Y0274
X034609Y0274
Y0294
X033526Y0294
X029309Y0302
X028226Y0302
X027803Y029369
X022503Y030919
X01915Y030059
X01915Y028976
X01715Y028976
X01715Y030059
X016319Y028553
X02125Y0247
Y0237
Y0227
Y0217
Y0207
Y0197
Y0187
Y0177
X011853Y031119
X008059Y0304
X006976Y0304
X006553Y029569
X002724Y0294
X001641Y0294
X001641Y0274
X002724Y0274
X001218Y026569
X006976Y0324
X008059Y0324
X012276Y03195
X013359Y03195
Y03395
X012276Y03395
X017591Y03435
X018674Y03435
Y03235
X017591Y03235
X017168Y031519
X022926Y03175
X024009Y03175
Y03375
X022926Y03375
X028226Y0322
X029309Y0322
T09
X01449Y009143
X01595
X02037Y00917
X02179Y00917
T10
X01181Y00235
Y00931
X02451Y00917
X02451Y00221
X032985Y0284
X03515Y0284
X02985Y0312
X027685Y0312
X01815Y0306
X01815Y028435
X003265Y0284
X0011Y0284
X006435Y0314
X0086Y0314
X011735Y03295
X0139Y03295
X01705Y03335
X019215Y03335
X022385Y03275
X02455Y03275
T11
X01815Y02665
T12
X007658Y00318
T13
X009942Y00318
M30
